<svg width="155" height="156" viewBox="0 0 155 156" fill="none" xmlns="http://www.w3.org/2000/svg">
<ellipse cx="77.107" cy="77.0817" rx="77.107" ry="77.0817" transform="matrix(0.999985 -0.00543866 0.00511216 0.999987 0 1)" fill="#789776"/>
<path d="M29.2 83.12C28.43 83.12 27.735 82.96 27.115 82.64C26.505 82.31 26.025 81.855 25.675 81.275L26.71 80.645C26.96 81.065 27.295 81.395 27.715 81.635C28.135 81.865 28.62 81.98 29.17 81.98C29.9 81.98 30.465 81.8 30.865 81.44C31.275 81.08 31.48 80.6 31.48 80C31.48 79.62 31.395 79.285 31.225 78.995C31.055 78.695 30.81 78.465 30.49 78.305C30.17 78.135 29.78 78.05 29.32 78.05H28.225V76.985H29.335C29.695 76.985 30.005 76.91 30.265 76.76C30.535 76.6 30.74 76.39 30.88 76.13C31.03 75.86 31.105 75.56 31.105 75.23C31.105 74.88 31.025 74.575 30.865 74.315C30.705 74.045 30.475 73.835 30.175 73.685C29.885 73.535 29.535 73.46 29.125 73.46C28.605 73.46 28.15 73.575 27.76 73.805C27.37 74.025 27.065 74.33 26.845 74.72L25.855 74.045C26.195 73.485 26.64 73.045 27.19 72.725C27.74 72.395 28.405 72.23 29.185 72.23C29.835 72.23 30.4 72.345 30.88 72.575C31.36 72.805 31.735 73.13 32.005 73.55C32.275 73.97 32.41 74.47 32.41 75.05C32.41 75.57 32.28 76.05 32.02 76.49C31.77 76.92 31.395 77.245 30.895 77.465C31.515 77.635 31.995 77.96 32.335 78.44C32.675 78.92 32.845 79.48 32.845 80.12C32.845 80.75 32.685 81.29 32.365 81.74C32.055 82.19 31.625 82.535 31.075 82.775C30.535 83.005 29.91 83.12 29.2 83.12ZM38.4974 72.35H39.6374L43.9874 83H42.5474L41.2874 79.88H36.8174L35.5724 83H34.1324L38.4974 72.35ZM40.9874 78.83L39.0674 73.91L37.0874 78.83H40.9874ZM46.1588 83V72.35H54.3788V83H53.0288V73.55H47.5088V83H46.1588ZM57.7504 83V72.35H59.1004V81.125L65.2654 72.35H66.5254V83H65.1754V74.39L59.0854 83H57.7504ZM69.2051 77.6C69.2051 76.95 69.3151 76.315 69.5351 75.695C69.7651 75.065 70.0951 74.495 70.5251 73.985C70.9651 73.465 71.5001 73.055 72.1301 72.755C72.7601 72.445 73.4751 72.29 74.2751 72.29C75.2251 72.29 76.0401 72.51 76.7201 72.95C77.4001 73.38 77.9051 73.935 78.2351 74.615L77.1701 75.305C76.9601 74.855 76.6901 74.5 76.3601 74.24C76.0401 73.97 75.6901 73.78 75.3101 73.67C74.9401 73.56 74.5751 73.505 74.2151 73.505C73.6251 73.505 73.1001 73.625 72.6401 73.865C72.1901 74.105 71.8101 74.425 71.5001 74.825C71.1901 75.225 70.9551 75.675 70.7951 76.175C70.6451 76.665 70.5701 77.16 70.5701 77.66C70.5701 78.21 70.6601 78.74 70.8401 79.25C71.0301 79.76 71.2901 80.21 71.6201 80.6C71.9501 80.99 72.3401 81.3 72.7901 81.53C73.2401 81.76 73.7301 81.875 74.2601 81.875C74.6301 81.875 75.0101 81.81 75.4001 81.68C75.7901 81.55 76.1551 81.35 76.4951 81.08C76.8351 80.8 77.1051 80.44 77.3051 80L78.4301 80.615C78.2101 81.145 77.8701 81.595 77.4101 81.965C76.9501 82.335 76.4351 82.615 75.8651 82.805C75.3051 82.995 74.7501 83.09 74.2001 83.09C73.4701 83.09 72.8001 82.935 72.1901 82.625C71.5801 82.305 71.0501 81.885 70.6001 81.365C70.1601 80.835 69.8151 80.245 69.5651 79.595C69.3251 78.935 69.2051 78.27 69.2051 77.6ZM83.9632 72.35H85.1032L89.4532 83H88.0132L86.7532 79.88H82.2832L81.0382 83H79.5982L83.9632 72.35ZM86.4532 78.83L84.5332 73.91L82.5532 78.83H86.4532ZM98.3085 73.55H94.6335V83H93.2835V73.55H89.6085V72.35H98.3085V73.55ZM100.592 83V72.35H101.942V76.385H104.492C105.272 76.385 105.922 76.525 106.442 76.805C106.962 77.075 107.352 77.46 107.612 77.96C107.882 78.45 108.017 79.025 108.017 79.685C108.017 80.305 107.887 80.87 107.627 81.38C107.367 81.88 106.982 82.275 106.472 82.565C105.962 82.855 105.332 83 104.582 83H100.592ZM101.942 81.875H104.402C104.932 81.875 105.362 81.775 105.692 81.575C106.022 81.365 106.262 81.095 106.412 80.765C106.562 80.425 106.637 80.065 106.637 79.685C106.637 79.305 106.567 78.95 106.427 78.62C106.297 78.29 106.067 78.025 105.737 77.825C105.407 77.615 104.957 77.51 104.387 77.51H101.942V81.875ZM109.881 77.6C109.881 76.95 109.991 76.315 110.211 75.695C110.441 75.065 110.771 74.495 111.201 73.985C111.641 73.465 112.176 73.055 112.806 72.755C113.436 72.445 114.151 72.29 114.951 72.29C115.901 72.29 116.716 72.51 117.396 72.95C118.076 73.38 118.581 73.935 118.911 74.615L117.846 75.305C117.636 74.855 117.366 74.5 117.036 74.24C116.716 73.97 116.366 73.78 115.986 73.67C115.616 73.56 115.251 73.505 114.891 73.505C114.301 73.505 113.776 73.625 113.316 73.865C112.866 74.105 112.486 74.425 112.176 74.825C111.866 75.225 111.631 75.675 111.471 76.175C111.321 76.665 111.246 77.16 111.246 77.66C111.246 78.21 111.336 78.74 111.516 79.25C111.706 79.76 111.966 80.21 112.296 80.6C112.626 80.99 113.016 81.3 113.466 81.53C113.916 81.76 114.406 81.875 114.936 81.875C115.306 81.875 115.686 81.81 116.076 81.68C116.466 81.55 116.831 81.35 117.171 81.08C117.511 80.8 117.781 80.44 117.981 80L119.106 80.615C118.886 81.145 118.546 81.595 118.086 81.965C117.626 82.335 117.111 82.615 116.541 82.805C115.981 82.995 115.426 83.09 114.876 83.09C114.146 83.09 113.476 82.935 112.866 82.625C112.256 82.305 111.726 81.885 111.276 81.365C110.836 80.835 110.491 80.245 110.241 79.595C110.001 78.935 109.881 78.27 109.881 77.6ZM121.172 83L123.947 78.56C123.217 78.37 122.647 78 122.237 77.45C121.837 76.9 121.637 76.245 121.637 75.485C121.637 74.895 121.782 74.365 122.072 73.895C122.362 73.425 122.767 73.05 123.287 72.77C123.817 72.49 124.437 72.35 125.147 72.35H128.717V83H127.367V78.725H125.717C125.657 78.725 125.592 78.725 125.522 78.725C125.462 78.725 125.402 78.725 125.342 78.725L122.732 83H121.172ZM125.252 77.555H127.367V73.52H125.312C124.872 73.52 124.477 73.6 124.127 73.76C123.777 73.92 123.502 74.145 123.302 74.435C123.112 74.725 123.017 75.075 123.017 75.485C123.017 75.895 123.102 76.255 123.272 76.565C123.452 76.875 123.707 77.12 124.037 77.3C124.377 77.47 124.782 77.555 125.252 77.555Z" fill="#FEFBF7"/>
</svg>
