<svg width="185" height="203" viewBox="0 0 185 203" fill="none" xmlns="http://www.w3.org/2000/svg">
<g opacity="0.15">
<path d="M162.09 149.69C162.09 149.69 160.665 148.618 160.489 148.418C160.409 148.381 160.359 148.303 160.295 148.24C159.438 147.461 158.484 146.811 157.587 146.084C157.003 145.61 156.405 145.152 155.796 144.715C154.963 144.111 154.13 143.496 153.271 142.918C152.557 142.44 151.864 141.92 151.145 141.437C150.336 140.887 149.512 140.363 148.723 139.802C147.855 139.184 146.941 138.643 146.052 138.056C144.759 137.209 143.435 136.394 142.122 135.578C141.248 135.036 140.354 134.514 139.48 133.972C138.626 133.439 137.787 132.89 136.938 132.351C136.239 131.908 135.529 131.464 134.83 131.02C133.817 130.373 132.793 129.736 131.794 129.063C130.986 128.513 130.213 127.906 129.419 127.331C128.93 126.979 128.431 126.637 127.922 126.316C127.487 126.038 127.094 125.687 126.695 125.371C126.081 124.889 125.453 124.422 124.839 123.94C123.847 123.171 123.006 122.236 122.013 121.487C120.582 120.415 119.413 119.071 118.098 117.879C117.645 117.47 117.166 117.068 116.789 116.591C115.934 115.52 114.872 114.644 113.993 113.6C113.486 112.998 112.863 112.496 112.446 111.849C111.921 111.037 111.168 110.45 110.592 109.68C110.121 109.041 109.569 108.425 109.037 107.819C108.465 107.174 107.888 106.535 107.418 105.805C107.14 105.375 106.736 105.034 106.434 104.6C105.849 103.75 105.102 103.006 104.522 102.151C103.694 100.944 102.841 99.7633 102.018 98.5512C100.952 96.9823 99.9163 95.4022 98.9717 93.7582C98.8578 93.5669 98.6329 93.4504 98.5752 93.1616C99.1427 93.1539 99.665 93.1531 100.187 93.1422C102.046 93.108 103.842 92.6897 105.645 92.1657C107.381 91.6594 108.976 90.8426 110.501 89.8779C111.304 89.3688 112.152 88.873 112.786 88.1196C113.05 87.8078 113.447 87.7166 113.721 87.4044C114.305 86.7435 114.783 86.0215 115.297 85.2529C115.923 84.9166 116.655 84.9776 117.349 84.8394C120.378 84.2061 123.245 83.1224 125.886 81.4152C127.811 80.1685 129.516 78.6493 130.978 76.8939C132.069 75.5801 133.031 74.161 133.838 72.6427C135.109 70.2573 135.87 67.7217 136.565 65.1535C136.851 64.1129 137.096 63.0639 137.406 62.0374C138.099 59.7404 138.697 57.4222 139.561 55.1786C139.669 54.8982 139.787 54.6274 139.899 54.3518C140.12 53.8259 140.346 53.2847 140.21 52.6876C139.765 51.9725 139.089 51.7737 138.249 51.8424C137.46 51.9091 136.74 52.1639 136.058 52.5777C134.12 53.7598 132.196 54.9664 130.247 56.1288C128.601 57.1083 126.921 58.024 125.285 59.0032C124.412 59.5251 123.544 60.0619 122.764 60.7257C122.643 60.831 122.517 60.9013 122.306 60.8595C122.309 60.5481 122.512 60.299 122.615 60.0238C123.278 58.2451 123.761 56.4235 124.079 54.5733C124.487 52.1924 124.593 49.8035 124.519 47.4218C124.435 44.93 124.13 42.4772 123.534 40.0762C123.097 38.3165 122.434 36.6511 121.781 34.9754C120.872 32.6572 119.782 30.4165 119.136 27.9875C118.995 27.4459 118.738 27.0144 118.136 26.9079C117.875 26.8581 117.614 26.8585 117.357 27.0144C116.842 27.3262 116.347 27.6472 115.866 28.0129C114.891 28.7598 114.134 29.7389 113.188 30.4947C112.298 31.2031 111.542 32.0316 110.742 32.8267C110.306 33.2558 109.757 33.5238 109.351 33.9919C108.975 34.4186 108.6 34.8653 108.06 35.1329C107.853 35.2366 107.706 35.4684 107.533 35.646C106.748 36.4556 105.957 37.2704 105.116 38.1375C105.043 37.8643 104.974 37.6863 104.951 37.4915C104.77 35.837 104.236 34.307 103.601 32.8012C102.913 31.1721 101.966 29.7088 100.98 28.2673C100.578 27.6759 100.065 27.1492 99.6134 26.59C98.4115 25.0717 96.941 23.8303 95.5769 22.4792C94.88 21.7841 93.9447 21.3547 93.3691 20.5745C93.2088 20.5307 93.0934 20.5102 92.9884 20.4592C91.8382 19.9228 91.0634 20.6517 90.6045 21.4432C90.1251 22.2757 89.7608 23.1588 89.3965 24.0419C88.6575 25.8386 87.9185 27.6354 87.1295 29.4141C86.3404 31.2028 85.5664 32.9859 85.208 34.9079C85.1923 34.9839 85.1063 35.0526 85.0403 35.1406C84.2344 34.8365 83.4337 34.5271 82.6328 34.2278C81.4966 33.8064 80.3452 33.4007 79.209 32.9793C78.0177 32.5349 76.8367 32.0601 75.6352 31.6463C74.784 31.3591 73.9479 31.0662 73.1941 30.5592C72.5751 30.1422 72.4495 30.1522 71.4641 30.282C70.1956 31.1913 69.7516 32.5645 69.263 33.8743C68.517 35.8973 67.7811 37.9198 66.875 39.8789C66.4807 40.7431 65.9313 41.5483 65.537 42.4125C64.9686 43.6653 64.375 44.914 63.971 46.3158C63.306 45.986 62.676 45.6798 62.0509 45.3785C60.8057 44.7807 59.4941 44.3211 58.1977 43.8358C56.4959 43.2011 54.685 42.9774 52.9468 42.4897C52.6262 42.4021 52.2945 42.4254 51.9677 42.4737C51.47 42.5388 51.0711 42.7806 50.8458 43.2716C50.6564 43.6858 50.5372 44.1073 50.4179 44.5388C50.0906 45.7719 50.0696 47.0178 49.9582 48.2673C49.9081 48.8265 50.0186 49.3894 50.1042 49.9382C50.1422 50.1777 50.1603 50.4079 50.1482 50.6393C49.836 50.7321 49.5714 50.557 49.2753 50.5437C47.935 50.4819 47.283 50.9548 46.986 52.1766C46.7619 53.1043 46.6982 54.0658 46.5543 55.0103C46.453 55.6821 46.3366 56.3494 46.2145 57.1024C44.9358 56.3202 43.9769 55.1486 42.4211 55.0402C41.9187 55.0704 41.6045 55.3942 41.3252 55.7417C40.6294 57.2054 40.4802 58.7526 40.2859 60.2866C40.129 61.563 39.9672 62.8347 39.9057 64.1123C39.8614 65.1533 39.8923 66.2063 40.0037 67.2361C40.1806 68.8154 40.4883 70.3695 41.0679 71.8423C41.3332 72.5145 41.6186 73.1758 41.9243 73.8262C42.0031 73.9938 42.0672 74.1368 42.02 74.3546C39.9576 73.6138 37.7552 73.3756 35.6094 72.9695C34.4614 72.7494 33.3239 72.4686 32.1862 72.2179C31.8454 72.1412 31.5047 72.0544 31.1535 72.0183C30.5363 71.9576 29.9578 72.0761 29.5862 72.6382C29.1192 73.7765 29.4919 74.7958 29.9154 75.7427C30.93 78.0014 32.0001 80.2329 32.9289 82.5402C33.4252 83.7704 33.9417 84.9998 34.4583 86.2192C35.0781 87.6804 35.8141 89.0717 36.7166 90.371C37.4059 91.3625 38.1205 92.328 38.8907 93.256C39.3329 93.7956 39.7853 94.3147 40.2883 94.7916C40.5772 95.0611 41.0489 95.1025 41.2407 95.5617C40.0211 96.0523 38.7677 96.3987 37.485 96.6358C36.0665 96.9034 34.6394 97.0107 33.2024 97.0984C30.9364 97.2343 28.665 97.4155 26.3983 97.6217C25.6646 97.6913 24.8904 97.7825 24.4509 98.6435C24.6594 98.9263 24.9085 99.1473 25.2634 99.3389C26.2282 99.8375 27.213 100.345 28.071 100.994C28.7844 101.532 29.5484 102.019 30.1602 102.692C30.7869 103.38 31.5754 103.941 32.1364 104.677C32.9953 105.792 34.0417 106.714 35.0527 107.673C35.9292 108.501 36.9173 109.214 37.8597 109.975C38.6476 110.606 39.4862 111.175 40.3149 111.734C41.5179 112.555 42.8125 113.241 44.1836 113.788C45.0643 114.145 45.9551 114.501 46.8716 114.78C48.7598 115.352 50.711 115.601 52.7196 115.621C52.6517 115.909 52.3545 116.017 52.2468 116.277C52.2151 116.449 52.2187 116.615 52.3529 116.765C52.8153 117.294 53.3894 117.677 54.0195 117.983C55.8296 118.865 57.7635 119.38 59.7488 119.752C60.7315 119.934 61.7093 120.09 62.7128 120.191C64.7548 120.395 66.8088 120.388 68.8611 120.005C71.4918 119.513 73.8967 118.428 76.2189 117.04C77.3801 116.34 78.5015 115.593 79.5434 114.748C80.6511 113.855 81.764 112.927 82.6777 111.816C84.5458 109.532 86.364 107.22 87.598 104.515C88.6476 102.229 89.3865 99.8751 89.7596 97.4202C89.877 96.6424 89.8838 95.869 89.9155 95.1197C90.0333 94.8589 90.1953 94.7119 90.4669 94.6608C91.1107 94.5447 91.7498 94.3936 92.3938 94.2574C93.4152 94.0308 94.3733 93.5808 95.3756 93.2444C95.6828 93.1367 95.9858 92.9539 96.3163 93.0512C97.1725 94.4778 98.0238 95.8997 98.9103 97.305C99.7374 98.6124 100.645 99.8662 101.462 101.184C101.913 101.914 102.485 102.569 103.001 103.261C103.581 104.046 104.147 104.837 104.717 105.632C105.025 106.052 105.378 106.434 105.706 106.833C106.163 107.387 106.63 107.95 107.057 108.526C107.553 109.199 108.257 109.698 108.627 110.471C108.652 110.525 108.701 110.564 108.746 110.597C109.534 111.248 110.124 112.093 110.75 112.881C111.49 113.811 112.478 114.514 113.082 115.554C113.126 115.628 113.196 115.685 113.266 115.743C115.164 117.509 116.747 119.6 118.731 121.267C119.893 122.24 120.963 123.306 122.114 124.28C122.598 124.687 123.132 125.022 123.679 125.653C122.69 125.05 121.846 124.576 121.042 124.041C119.614 123.084 118.145 122.189 116.641 121.351C114.967 120.419 113.308 119.451 111.543 118.673C108.876 117.5 106.127 116.661 103.182 116.352C101.566 116.186 99.9555 116.044 98.3184 116.04C97.5451 116.04 96.7722 115.991 95.9982 116.062C93.2993 116.316 90.6149 116.634 87.9384 117.193C84.5123 117.908 81.1689 118.915 77.8985 120.206C75.4494 121.167 73.0496 122.237 70.6891 123.416C69.2163 124.148 67.7583 124.904 66.325 125.714C64.6898 126.643 63.0693 127.607 61.4736 128.614C60.3071 129.349 59.1209 130.034 57.9494 130.764C56.071 131.933 54.2174 133.147 52.245 134.155C50.8224 134.884 49.3461 135.451 47.8647 136.012C46.9729 136.354 46.0955 136.76 45.1988 137.087C44.7353 137.257 44.4759 137.623 44.1922 137.906C44.1089 138.241 44.1975 138.448 44.463 138.523C44.8588 138.622 45.2597 138.717 45.6712 138.75C46.9107 138.846 48.1453 138.938 49.3853 138.983C50.57 139.026 51.7283 139.226 52.8921 139.37C54.698 139.589 56.4987 139.823 58.2887 140.138C59.9032 140.425 61.5021 140.768 63.0959 141.125C65.4013 141.646 67.7014 142.201 69.9861 142.793C71.4792 143.185 72.9926 143.536 74.5534 143.649C75.3764 143.706 76.2043 143.789 77.0433 143.75C78.1235 143.692 79.1983 143.679 80.2785 143.611C82.7506 143.462 85.1804 142.968 87.5819 142.274C89.6763 141.668 91.6876 140.799 93.6645 139.847C95.0715 139.173 96.508 138.578 97.9445 137.974C100.354 136.953 102.807 136.067 105.266 135.185C106.933 134.592 108.625 134.102 110.331 133.637C112.123 133.144 113.939 132.805 115.75 132.451C116.339 132.332 116.937 132.293 117.53 132.24C119.228 132.081 120.933 131.878 122.635 131.895C125.924 131.929 129.191 132.144 132.352 133.007C133.389 133.292 134.431 133.571 135.437 133.948C136.053 134.179 136.632 134.517 137.192 134.867C138.63 135.753 140.038 136.69 141.507 137.535C142.926 138.352 144.243 139.334 145.647 140.176C146.606 140.75 147.504 141.417 148.478 141.975C149.303 142.45 149.995 143.12 150.804 143.619C151.663 144.147 152.436 144.784 153.27 145.348C153.789 145.699 154.303 146.085 154.806 146.471C155.37 146.906 155.888 147.427 156.553 147.727C156.608 147.75 156.648 147.798 156.682 147.842C157.324 148.565 158.239 148.965 158.886 149.682C158.908 149.682 159.879 149.682 159.879 149.682C159.93 149.7 159.835 149.649 159.879 149.682C158.986 149.019 159.042 149.093 158.703 148.745C158.355 148.388 157.864 148.227 157.526 147.869C157.003 147.322 156.329 146.953 155.745 146.479C155.346 146.154 154.963 145.792 154.513 145.529C153.594 144.984 152.787 144.283 151.898 143.706C151.439 143.403 151.015 143.054 150.566 142.75C149.832 142.253 149.078 141.776 148.339 141.283C147.645 140.824 146.971 140.324 146.267 139.875C145.398 139.317 144.504 138.796 143.625 138.259C142.476 137.552 141.327 136.845 140.184 136.132C139.065 135.434 137.951 134.721 136.838 134.007C135.964 133.455 135.09 132.902 134.226 132.339C133.212 131.682 132.204 131.03 131.205 130.347C130.472 129.839 129.748 129.311 129.015 128.803C127.996 128.101 127.029 127.326 126.006 126.629C125.427 126.23 124.959 125.707 124.375 125.334C123.416 124.719 122.584 123.955 121.762 123.199C119.242 120.89 116.832 118.467 114.378 116.09C114.253 115.969 114.083 115.866 114.009 115.713C113.728 115.147 113.265 114.749 112.811 114.35C112.323 113.928 112.067 113.316 111.578 112.893C110.831 112.24 110.296 111.398 109.63 110.672C109.227 110.231 108.784 109.792 108.441 109.299C107.723 108.248 106.847 107.339 106.077 106.331C105.447 105.508 104.816 104.685 104.181 103.867C103.903 103.506 103.584 103.167 103.326 102.786C102.865 102.097 102.389 101.413 101.928 100.724C101.334 99.8437 100.739 98.9739 100.149 98.0888C99.6136 97.2769 99.0885 96.4544 98.5584 95.6373C98.5138 95.5637 98.5343 95.5228 98.5946 95.5103C98.8816 95.4336 99.0907 95.636 99.2914 95.6581C99.881 96.5633 100.426 97.4351 101.016 98.28C101.651 99.1985 102.305 100.106 102.96 101.014C103.481 101.731 103.972 102.479 104.518 103.17C105.194 104.027 105.864 104.899 106.539 105.755C107.324 106.748 108.119 107.73 108.929 108.697C109.595 109.494 110.205 110.358 110.997 111.044C111.067 111.101 111.142 111.154 111.181 111.232C111.65 112.152 112.635 112.64 113.104 113.56C114.504 114.835 115.62 116.381 117.03 117.645C118.764 119.202 120.295 120.969 122.151 122.39C122.954 123.006 123.676 123.725 124.459 124.371C125.087 124.889 125.751 125.349 126.374 125.871C127.256 126.604 128.255 127.187 129.168 127.888C129.487 128.136 129.852 128.317 130.172 128.566C130.9 129.129 131.648 129.671 132.417 130.173C133.616 130.958 134.839 131.707 136.053 132.477C136.927 133.03 137.791 133.592 138.67 134.14C139.743 134.805 140.858 135.408 141.901 136.114C143.259 137.033 144.693 137.824 146.051 138.744C147.02 139.398 148.034 140.015 149.012 140.659C149.996 141.307 150.959 141.987 151.927 142.661C153.275 143.601 154.592 144.572 155.924 145.528C156.424 145.88 156.862 146.304 157.356 146.651C158.229 147.263 159.103 147.886 159.879 148.618C159.984 148.719 160.073 148.856 160.203 148.911C160.417 149.002 160.878 149.637 160.928 149.69L162.09 149.69ZM68.7699 92.7178C68.8254 92.6905 68.8969 92.5571 68.9305 92.7315C68.8754 92.7186 68.8253 92.7006 68.7702 92.6877C68.6841 92.7665 68.5987 92.7749 68.5139 92.703C67.7845 92.8476 67.0553 92.9722 66.3257 93.1269C64.4038 93.5452 62.477 93.9286 60.6079 94.6209C58.1392 95.533 55.8032 96.7762 53.3738 97.7871C51.645 98.5039 49.8973 99.091 48.1104 99.5591C46.832 99.8914 45.5348 100.074 44.2374 100.266C42.7089 100.488 41.1868 100.544 39.6755 100.509C37.8982 100.47 36.1891 100.091 34.5116 99.5512C32.6287 98.9437 30.7305 98.3721 28.7286 98.1761C28.5982 98.1612 28.5185 98.0841 28.444 97.9917C28.3883 98.0391 28.3426 98.0962 28.273 98.0186C28.3341 97.9258 28.3888 97.9889 28.4437 98.0218C29.8669 97.7891 31.2924 97.8626 32.7153 97.6701C33.6907 97.5307 34.675 97.5314 35.6651 97.4366C37.7208 97.2388 39.7041 96.6976 41.6734 96.0414C43.149 95.5556 44.6394 95.1044 46.1345 94.6981C48.7118 94.0026 51.3123 93.5119 53.9465 93.1956C55.7613 92.9774 57.5706 92.8046 59.3797 92.6619C61.7365 92.4822 64.0974 92.4078 66.4519 92.4893C67.0443 92.5058 67.6367 92.5322 68.2291 92.5487C68.3596 92.5535 68.4393 92.6307 68.5138 92.7231C68.5949 92.6295 68.6853 92.6359 68.7699 92.7178ZM56.4974 115.449C56.6038 115.35 56.6858 115.156 56.8805 115.293C56.972 115.159 57.108 115.119 57.2591 115.062C59.3805 114.239 61.2446 112.985 62.8607 111.379C64.9885 109.256 67.0515 107.08 69.1445 104.922C69.3168 104.745 69.4693 104.538 69.6713 104.409C70.616 103.774 71.4416 102.973 72.3714 102.313C73.1244 101.776 73.8529 101.165 74.6008 100.633C75.48 100.015 76.3593 99.3874 77.2682 98.8188C78.1519 98.2664 79.0356 97.7139 79.9243 97.1562C79.2643 97.9759 78.6045 98.7654 77.9797 99.5786C77.8323 99.7702 77.6101 99.9197 77.4927 100.13C76.9824 101.054 76.2475 101.822 75.6673 102.698C75.0718 103.601 74.3165 104.399 73.7161 105.297C73.4463 105.704 73.0618 106.031 72.8472 106.451C72.4893 107.168 71.7624 107.599 71.4496 108.329C70.3759 109.366 69.4516 110.538 68.2385 111.44C67.1668 112.236 66.066 112.923 64.8414 113.418C62.9111 114.204 60.918 114.715 58.906 115.097C58.2571 115.218 57.5718 115.487 56.8957 115.278C56.7892 115.387 56.6976 115.532 56.5128 115.414C56.4572 115.451 56.4065 115.513 56.3419 115.43C56.3978 115.353 56.4476 115.401 56.4974 115.449ZM94.1089 55.7427C94.1536 55.7961 94.2033 55.8544 94.1073 55.9235C94.0477 55.8556 94.1034 55.7982 94.144 55.7463C94.0693 55.674 94.0951 55.5977 94.1261 55.5061C94.672 53.958 95.283 52.4325 96.0092 50.9475C97.0012 48.9298 98.2829 47.0812 99.6197 45.2655C99.9958 44.7484 100.472 44.3077 100.808 43.7821C101.419 42.8339 102.209 42.0392 102.93 41.187C103.889 40.0391 104.983 38.9913 106.047 37.9346C107.04 36.951 107.998 35.9337 109.056 35.0027C110.29 33.9191 111.58 32.8785 112.661 31.6253C112.843 31.4172 113.026 31.1789 113.404 31.0082C112.449 32.8387 111.84 34.6804 111.081 36.4679C110.333 38.2349 109.304 39.8726 108.071 41.3427C106.756 42.9065 105.238 44.2926 103.694 45.6346C103.649 45.6716 103.598 45.7137 103.552 45.7507C102.713 46.3867 101.849 46.9786 101.04 47.6536C100.367 48.2177 99.7887 48.8835 99.0908 49.4335C98.0845 50.2319 97.4715 51.4111 96.5347 52.287C96.2928 52.9543 95.6915 53.375 95.3197 53.9672C94.9428 54.5647 94.6257 55.22 94.1089 55.7427ZM127.891 131.484C127.704 131.657 127.483 131.585 127.298 131.557C125.833 131.365 124.352 131.309 122.865 131.378C120.981 131.459 119.108 131.479 117.228 131.715C116.041 131.862 114.865 132.04 113.693 132.273C112.616 132.486 111.544 132.755 110.467 133.029C108.791 133.453 107.12 133.921 105.487 134.529C102.958 135.464 100.405 136.324 97.9343 137.417C96.0186 138.267 94.0635 139.018 92.1725 139.912C89.9637 140.964 87.6821 141.733 85.332 142.294C83.5807 142.715 81.8064 142.902 80.0318 143.118C79.7704 143.149 79.4987 143.21 79.2486 143.09C79.1933 143.097 79.1217 143.25 79.0931 143.071C79.1432 143.089 79.1983 143.102 79.2484 143.12C79.3394 143.046 79.4306 142.952 79.5265 142.903C80.3082 142.525 81.0998 142.167 81.8715 141.78C83.4452 140.994 84.9845 140.124 86.4395 139.132C87.6267 138.326 88.8438 137.55 89.9617 136.626C90.9279 135.83 92.0034 135.159 93.0193 134.42C94.2828 133.506 95.5709 132.647 96.9286 131.874C98.9171 130.74 100.974 129.795 103.145 129.11C105.048 128.512 106.984 128.209 108.939 128.015C110.583 127.854 112.219 127.939 113.835 128.085C116.585 128.336 119.282 128.891 121.932 129.593C123.285 129.951 124.627 130.349 125.954 130.783C126.61 130.993 127.296 131.151 127.886 131.519C127.941 131.471 128.002 131.419 128.062 131.517C127.996 131.575 127.946 131.527 127.891 131.484ZM48.1808 136.612C48.2828 136.437 48.4688 136.414 48.6352 136.343C49.8246 135.853 51.009 135.369 52.1641 134.786C53.7329 133.985 55.2523 133.096 56.7421 132.147C58.3026 131.146 59.8829 130.184 61.4683 129.217C62.7961 128.406 64.1239 127.605 65.4765 126.838C66.8543 126.055 68.2419 125.301 69.6445 124.562C72.1368 123.248 74.6931 122.086 77.2985 121.043C79.3849 120.206 81.5007 119.449 83.6655 118.83C85.5635 118.287 87.4808 117.824 89.4122 117.486C90.8506 117.237 92.2987 117.029 93.7418 116.815C94.0435 116.773 94.3496 116.796 94.7263 116.786C94.493 117.056 94.2417 117.076 94.0301 117.155C93.0525 117.536 92.08 117.911 91.1515 118.42C89.5217 119.304 87.9512 120.295 86.4502 121.384C85.0603 122.389 83.7201 123.462 82.3899 124.544C81.5047 125.267 80.5799 125.932 79.6549 126.606C77.9567 127.849 76.1941 128.979 74.3722 130.011C70.9655 131.94 67.436 133.567 63.6903 134.64C60.5287 135.54 57.3205 136.03 54.0843 136.28C52.622 136.394 51.1501 136.448 49.6835 136.476C49.1813 136.486 48.6966 136.777 48.1961 136.586C48.1406 136.623 48.0847 136.691 48.0252 136.603C48.0712 136.516 48.126 136.569 48.1808 136.612ZM109.694 75.4414C109.718 75.4957 109.843 75.566 109.672 75.6029C109.688 75.5471 109.708 75.4961 109.724 75.4402C109.694 75.3611 109.655 75.2823 109.646 75.2024C109.476 73.944 109.19 72.7355 108.552 71.6415C107.914 70.5475 107.083 69.6721 106.004 68.9923C105.03 68.3837 103.969 68.0346 102.846 67.8285C102.124 67.6967 101.371 67.6465 100.622 67.7719C98.6855 68.0854 96.9258 68.8938 95.2544 69.9397C94.3 70.5351 93.3556 71.1402 92.4063 71.7405C92.3518 71.6573 92.302 71.6091 92.2973 71.5641C92.0999 70.0358 92.1638 68.4769 92.0971 66.9333C92.0671 66.3471 92.1879 65.7449 92.1982 65.147C92.2155 63.7457 92.4287 62.3515 92.722 60.9742C93.0362 59.5158 93.6157 58.1421 94.2805 56.7901C94.9196 55.4944 95.6885 54.2939 96.5974 53.158C96.9934 52.6602 97.4995 52.2183 97.7905 51.6795C98.3368 50.6586 99.296 50.088 100.12 49.4174C100.955 48.7364 101.814 48.0795 102.674 47.4225C103.175 47.036 103.67 46.6246 104.166 46.2433C105.081 45.5389 105.991 44.8499 106.787 44.0097C107.314 43.4565 107.846 42.898 108.378 42.3496C109.098 41.6079 109.603 40.7191 110.128 39.8396C110.902 38.5435 111.352 37.1148 111.942 35.7407C112.562 34.285 113.032 32.7651 113.763 31.3553C114.018 30.8531 114.294 30.35 114.624 29.89C115.199 29.0888 116.052 28.5677 116.796 27.9506C117.135 27.6709 117.57 27.3423 118.091 27.4519C118.471 27.6777 118.623 28.0381 118.75 28.4447C119.262 30.2064 119.97 31.885 120.678 33.5636C121.22 34.8372 121.71 36.1429 122.201 37.4386C123.403 40.6387 123.841 44.02 124.001 47.4575C124.09 49.3868 124.002 51.3282 123.739 53.2716C123.412 55.6694 122.884 58.0149 121.99 60.2998C121.635 61.2026 121.316 62.109 120.323 62.5454C120.242 62.5787 120.191 62.6712 120.125 62.7391C119.654 63.2148 119.103 63.6133 118.583 64.0007C117.703 64.6584 116.943 65.4419 116.133 66.1571C114.923 67.2146 113.893 68.4557 112.982 69.8025C112.224 70.9222 111.521 72.0548 110.868 73.2357C110.435 73.9508 110.187 74.754 109.694 75.4414ZM78.3484 93.0574C70.7517 91.78 63.2001 91.6606 55.5754 92.4226C55.385 92.37 55.3013 92.1775 55.1462 92.1084C54.0009 91.5869 53.0182 90.8381 52.132 89.9598C51.45 89.2793 50.6719 88.6778 50.0911 87.9129C49.3117 86.8948 48.6232 85.8129 47.9752 84.6891C46.7731 82.6237 45.959 80.4071 45.3567 78.1018C44.6717 75.4734 44.5753 72.7362 44.5391 70.0065C44.5294 68.8221 44.6505 67.6224 44.8166 66.436C45.1392 64.0133 45.7076 61.6259 46.276 59.2386C46.662 57.6066 47.0379 55.975 47.2032 54.3116C47.28 53.5756 47.3569 52.8295 47.5943 52.1071C47.8317 51.3747 48.1501 51.146 48.9187 51.1203C49.1246 51.1171 49.3252 51.1492 49.5306 51.1962C50.9693 51.4951 52.4291 51.6626 53.8891 51.82C56.1968 52.0791 58.4991 52.3835 60.8067 52.6526C62.4722 52.847 64.1115 53.168 65.7406 53.5095C67.9109 53.9698 70.0761 54.4555 72.0612 55.4253C73.6113 56.1765 75.1717 56.9073 76.5789 57.9153C77.2077 58.362 77.8466 58.8084 78.4855 59.2447C79.3441 59.8329 80.1417 60.4937 80.9242 61.1703C81.911 62.0244 82.67 63.0835 83.4846 64.1052C84.1451 64.9372 84.7651 65.811 85.2743 66.7295C86.6139 69.1509 87.676 71.719 88.4199 74.4856C87.8445 74.8199 87.244 75.1501 86.6683 75.5145C84.9211 76.6187 83.0365 77.3468 81.0782 77.9021C79.6383 78.3111 78.1792 78.6306 76.788 79.2184C75.6791 79.6946 74.6345 80.2635 73.7978 81.1856C72.9155 82.1547 72.5339 83.2845 72.4577 84.5276C72.4111 85.2624 72.7169 85.8928 72.9874 86.5396C73.676 88.1789 74.6576 89.6155 75.7706 90.9667C76.4461 91.8132 77.4007 92.3322 78.3484 93.0574ZM97.5882 47.2797C95.0199 50.952 93.5729 55.0211 92.5516 59.2289C91.5096 63.4978 91.3864 67.7952 91.9413 72.0704C90.9462 72.7378 89.9561 73.3999 88.9256 74.0938C88.818 73.7668 88.7398 73.5189 88.6616 73.271C88.1636 71.6643 87.5446 70.1026 86.8348 68.5848C86.1695 67.1505 85.3578 65.8074 84.4552 64.5081C83.6966 63.4089 82.8062 62.4455 81.9664 61.4298C81.4546 60.8127 80.8062 60.3165 80.1477 59.8208C79.3644 59.2346 78.5811 58.6585 77.7978 58.0723C76.5556 57.1431 75.2218 56.348 73.8521 55.6398C71.3576 54.3489 68.6887 53.4668 65.8809 52.9767C65.0535 52.8341 64.2368 52.6308 63.4849 52.4701C63.326 52.2656 63.3776 52.113 63.3538 51.9683C63.3025 51.5135 63.4369 51.0764 63.4911 50.6324C63.6635 49.3002 63.861 47.9719 64.3192 46.6934C65.0298 44.697 65.8904 42.7749 66.9213 40.8962C67.9318 39.0584 68.6473 37.0769 69.3275 35.1018C69.678 34.0837 70.0485 33.0647 70.549 32.1109C70.8606 31.5211 71.0836 30.7139 72.0183 30.6464C72.2689 30.6966 72.5293 30.7766 72.7941 30.9316C73.2888 31.2181 73.7631 31.5254 74.3188 31.7191C76.7167 32.5719 79.1095 33.4401 81.4869 34.3339C84.2098 35.3596 86.9018 36.4567 89.3996 37.9432C90.3138 38.4839 91.2074 39.0858 91.9743 39.8182C92.8308 40.6373 93.7127 41.4304 94.4424 42.3902C95.1523 43.3307 95.9076 44.2343 96.5164 45.2391C96.9023 45.9064 97.3334 46.5569 97.5882 47.2797ZM133.56 132.697C132.738 132.56 132.033 132.221 131.297 131.975C129.479 131.37 127.682 130.714 125.854 130.139C123.52 129.399 121.156 128.761 118.75 128.275C116.419 127.811 114.062 127.453 111.667 127.404C109.643 127.359 107.603 127.491 105.596 127.918C103.201 128.425 100.899 129.276 98.6694 130.359C96.0217 131.645 93.6016 133.303 91.236 135.054C90.1493 135.856 89.0576 136.652 87.961 137.434C86.1265 138.748 84.2329 139.933 82.2599 141.011C81.1549 141.613 80.0248 142.2 78.8562 142.608C77.3298 143.146 75.7329 143.15 74.1572 143.022C72.6919 142.9 71.2688 142.545 69.8559 142.18C67.2856 141.515 64.6997 140.916 62.1035 140.337C59.6176 139.784 57.1102 139.382 54.5773 139.037C51.7184 138.639 48.8534 138.367 45.9569 138.247C45.6105 138.236 45.2238 138.236 44.7745 137.933C45.2833 137.757 45.6313 137.577 45.9984 137.517C47.0344 137.355 48.0702 137.204 49.1103 137.137C51.4116 136.984 53.7166 136.978 56.0139 136.71C57.0796 136.587 58.1503 136.469 59.2066 136.276C61.1078 135.929 62.995 135.477 64.8583 134.88C66.6309 134.317 68.3642 133.655 70.0583 132.885C71.9087 132.042 73.7196 131.121 75.4614 130.063C76.6378 129.348 77.8192 128.638 78.9312 127.82C79.6085 127.321 80.3502 126.915 80.9927 126.382C81.6705 125.823 82.4128 125.356 83.0657 124.783C83.5668 124.336 84.0877 123.919 84.6134 123.526C85.6447 122.752 86.6561 121.949 87.7221 121.218C89.844 119.778 92.0099 118.461 94.4179 117.601C96.0702 117.013 97.7061 116.571 99.4731 116.651C100.984 116.716 102.475 116.812 103.969 117.013C106.247 117.324 108.436 117.924 110.507 118.835C111.922 119.456 113.338 120.097 114.677 120.887C116.52 121.983 118.43 122.991 120.242 124.129C121.721 125.063 123.194 126.014 124.636 127.005C126.004 127.944 127.463 128.749 128.902 129.575C130.176 130.303 131.364 131.159 132.572 131.974C132.902 132.192 133.338 132.29 133.56 132.697ZM104.415 86.9536C103.767 87.582 103.266 88.0187 102.765 88.4555C101.641 89.4342 100.404 90.2016 99.132 90.9454C97.2997 92.0178 95.3498 92.7535 93.3457 93.3658C90.828 94.1393 88.3028 94.622 85.6923 94.5357C83.9001 94.4718 82.1699 94.2148 80.5488 93.5366C78.9978 92.8858 77.559 92.0397 76.3693 90.8373C76.006 90.4652 75.6984 90.0458 75.3603 89.6577C74.3264 88.454 73.696 87.0434 73.2221 85.5513C72.7724 84.1535 73.2624 82.683 74.3916 81.6187C75.374 80.6857 76.4996 80.0332 77.7441 79.5667C78.9584 79.1115 80.1965 78.7908 81.4302 78.4151C82.7494 78.0209 84.0438 77.5826 85.2946 76.9702C87.7458 75.7676 89.9049 74.0797 92.1828 72.5979C93.7889 71.5496 95.3602 70.4676 97.0604 69.5712C98.4781 68.8267 99.9434 68.3814 101.511 68.3388C103.319 68.2865 104.921 68.855 106.318 69.8734C107.51 70.7444 108.268 71.9842 108.692 73.4181C109.321 75.5266 109.217 77.6644 108.591 79.8232C107.778 82.6119 106.205 84.9692 104.415 86.9536ZM24.9482 98.6286C25.0856 98.4273 25.2019 98.3373 25.3677 98.3257C25.8149 98.3027 26.2724 98.2393 26.7089 98.277C28.8616 98.467 30.8954 99.0382 32.8259 99.9349C34.9565 100.924 37.1284 101.781 39.5681 101.874C41.4808 101.943 43.3703 101.797 45.2573 101.355C47.4412 100.846 49.5373 100.049 51.6288 99.1974C54.0127 98.2234 56.3079 97.0522 58.6622 96.0191C59.6502 95.588 60.6337 95.1119 61.6458 94.7952C64.1687 94.0065 66.735 93.4118 69.3436 93.1517C71.5803 92.9266 73.8044 92.9832 76.0111 93.3066C77.4906 93.5235 78.9442 93.8368 80.3873 94.1907C81.3094 94.4149 82.2262 94.6643 83.1381 94.899C83.1167 95.0404 83.0411 95.0685 82.9504 95.1023C81.4592 95.6439 80.0815 96.417 78.7232 97.2595C77.2993 98.1399 75.92 99.0937 74.5357 100.043C73.1513 100.992 71.8265 102.029 70.4968 103.051C69.5968 103.75 68.7162 104.518 67.9253 105.373C66.379 107.036 64.7531 108.622 63.2018 110.281C62.0561 111.512 60.7863 112.572 59.3625 113.442C57.5246 114.57 55.5548 115.286 53.4263 115.201C52.6281 115.167 51.8296 115.174 51.0319 115.091C48.9146 114.874 46.8952 114.378 44.9539 113.572C43.3528 112.903 41.8229 112.141 40.4002 111.169C39.7063 110.699 39.0377 110.214 38.3641 109.724C37.3862 109 36.4386 108.255 35.5419 107.437C34.3015 106.297 33.122 105.094 32.0032 103.828C31.0237 102.718 29.9429 101.702 28.71 100.853C28.2857 100.563 27.8564 100.279 27.4067 100.016C26.6174 99.5458 25.7927 99.1019 24.9482 98.6286ZM109.597 78.3872C110.42 77.3603 111.279 76.7134 112.209 76.1239C112.946 75.6526 113.752 75.3292 114.519 74.927C116.719 73.7746 118.968 72.7408 121.054 71.3771C121.907 70.8158 122.776 70.279 123.5 69.5421C124.265 68.7735 125.04 68.0145 125.785 67.2266C126.627 66.3395 127.319 65.3379 127.975 64.3427C128.784 63.1204 129.649 61.9312 130.403 60.676C131.004 59.678 131.666 58.7177 132.317 57.7478C132.744 57.0981 133.152 56.4191 133.649 55.8269C134.279 55.0788 134.953 54.3439 135.702 53.7216C136.729 52.8621 137.825 52.0802 139.283 52.5491C139.412 52.7045 139.662 52.7949 139.699 53.185C139.596 53.4703 139.447 53.8629 139.308 54.255C138.927 55.2642 138.502 56.2603 138.176 57.2824C137.711 58.7669 137.311 60.274 136.896 61.7666C136.43 63.442 135.978 65.1118 135.506 66.7824C135.18 67.9351 134.818 69.0741 134.352 70.1822C133.746 71.6121 133.066 72.9999 132.181 74.3004C131.52 75.2707 130.868 76.2507 130.062 77.1113C129.312 77.9044 128.552 78.6879 127.687 79.3802C126.746 80.1408 125.796 80.8716 124.761 81.4803C121.556 83.3507 118.107 84.3673 114.483 84.6981C112.749 84.8528 111.017 84.8368 109.29 84.7654C108.577 84.7336 107.829 84.7184 107.099 84.4263C108.326 82.4946 109.072 80.4214 109.597 78.3872ZM52.8229 116.43C53.2203 116.359 53.5374 116.271 53.8691 116.237C55.7389 116.052 57.6087 115.857 59.4698 115.511C61.7333 115.089 63.982 114.633 66.1295 113.703C67.7375 113.011 69.2168 112.114 70.4783 110.853C71.2787 110.058 71.9095 109.139 72.5603 108.23C73.379 107.077 74.0877 105.859 74.9064 104.707C75.4962 103.88 76.0911 103.048 76.6909 102.221C77.062 101.709 77.4432 101.197 77.8292 100.699C78.4387 99.9116 79.0133 99.1004 79.6877 98.3656C80.0731 97.9385 80.5482 97.5981 80.9733 97.2197C81.6819 96.5889 82.4448 96.0713 83.2869 95.6711C84.0636 95.2987 84.8405 94.886 85.7525 95.1106C86.0531 95.1889 86.4053 95.1146 86.7369 95.1013C87.6211 95.0559 88.5104 95.0052 89.4147 94.959C89.4472 96.4086 89.1886 97.8196 88.8851 99.2174C88.5973 100.529 88.2345 101.819 87.6962 103.07C87.086 104.496 86.3858 105.884 85.5306 107.193C85.0674 107.9 84.5694 108.572 84.0662 109.25C83.3954 110.151 82.6949 111.012 81.9543 111.855C81.3556 112.542 80.6475 113.122 79.9692 113.732C79.1543 114.462 78.3045 115.149 77.4055 115.737C75.9053 116.726 74.336 117.587 72.6825 118.306C70.6358 119.201 68.5177 119.652 66.3421 119.784C64.1614 119.922 62.0348 119.626 59.914 119.244C58.1792 118.931 56.4959 118.477 54.8796 117.823C54.124 117.517 53.3787 117.181 52.8229 116.43ZM97.9646 46.7324C96.5259 44.1644 94.9245 41.8237 92.8324 39.8892C90.7253 37.9504 88.2465 36.5836 85.5894 35.5102C85.6069 35.2334 85.5787 35.0136 85.6407 34.8203C86.0379 33.6247 86.385 32.4109 86.8773 31.2566C88.0615 28.5132 89.2706 25.784 90.3897 23.0181C90.6259 22.4364 90.917 21.8775 91.3031 21.3801C91.8669 20.6496 92.6195 20.73 93.0553 21.4254C94.3031 23.4238 95.3341 25.5363 96.0724 27.801C96.8402 30.1449 97.8401 32.3591 99.2585 34.3807C100.047 35.5089 100.861 36.6109 101.675 37.7129C102.231 38.4638 102.867 39.1914 103.064 40.1826C101.338 42.2799 99.5324 44.3402 97.9646 46.7324ZM54.8612 92.5415C50.3778 92.9921 46.1356 94.0003 42.0609 95.3733C41.1698 95.0575 40.638 94.4312 40.0504 93.8723C39.6071 93.4533 39.2499 92.9655 38.8623 92.4991C38.256 91.7703 37.6702 91.0106 37.1447 90.2283C35.7371 88.1259 34.7433 85.786 33.8452 83.4072C33.3055 81.9729 32.6951 80.5715 32.0495 79.1866C31.6059 78.2304 31.1877 77.2582 30.6705 76.1091C31.6025 76.9102 32.3194 77.6245 33.1174 78.2452C34.1199 79.0234 35.1429 79.7506 36.1963 80.4565C37.5592 81.3709 39.0089 82.1161 40.4739 82.8457C42.5289 83.8629 44.6247 84.8082 46.5877 85.9998C47.7016 86.6831 48.7749 87.3983 49.6959 88.3203C50.4426 89.0635 51.1741 89.8225 51.9614 90.5139C52.4747 90.9703 53.069 91.3331 53.633 91.7272C54.0074 91.9883 54.3869 92.2242 54.8612 92.5415ZM134.083 54.454C134.082 54.6248 133.981 54.6991 133.895 54.7879C133.165 55.52 132.665 56.4236 132.075 57.2605C131.424 58.1902 130.828 59.1629 130.202 60.1067C129.754 60.7773 129.271 61.4342 128.838 62.1192C128.238 63.057 127.532 63.9236 126.856 64.7991C126.414 65.3741 125.798 65.8104 125.461 66.4766C125.394 66.6047 125.267 66.7453 125.141 66.7956C124.637 67.0065 124.347 67.4549 123.973 67.8012C123.77 67.9901 123.607 68.2275 123.375 68.3774C122.355 69.0609 121.389 69.8174 120.383 70.5254C118.862 71.5954 117.297 72.5818 115.702 73.5192C114.727 74.0953 113.684 74.5638 112.729 75.1693C111.669 75.8343 110.598 76.5097 109.681 77.4451C109.667 77.3502 109.657 77.3205 109.667 77.3C110.198 75.7174 110.89 74.1987 111.691 72.7157C112.585 71.0684 113.712 69.5975 114.87 68.1354C115.881 66.865 117.275 65.9758 118.36 64.7777C118.4 64.7359 118.441 64.6841 118.496 64.6568C119.471 64.0505 120.307 63.2589 121.202 62.5554C122.172 61.7936 123.163 61.0511 124.174 60.3681C125.563 59.4339 127.031 58.6271 128.49 57.8106C129.529 57.2268 130.584 56.6575 131.574 55.9853C132.382 55.4509 133.235 54.9699 134.083 54.454ZM48.0456 85.8209C47.8493 85.874 47.7187 85.8792 47.629 85.8025C47.0609 85.3031 46.3706 84.9994 45.7056 84.6695C42.8556 83.2574 39.9035 82.0401 37.1455 80.4436C35.8265 79.6831 34.5686 78.8197 33.3817 77.8832C32.489 77.181 31.7029 76.3389 30.9117 75.5221C30.2498 74.8407 29.82 74.0296 30.0201 72.9773C30.1367 72.8572 30.2583 72.7318 30.3647 72.6221C30.853 72.4972 31.2836 72.6406 31.7097 72.7189C33.5144 73.0785 35.2878 73.5698 37.1235 73.8176C39.1048 74.0847 41.034 74.5547 42.9218 75.1669C43.4376 75.332 43.9788 75.471 44.4079 75.7852C44.6542 78.6068 46.4141 83.4714 48.0456 85.8209ZM51.7876 42.9678C53.5041 43.0698 55.1323 43.5117 56.7604 43.9637C59.215 44.6486 61.5722 45.5634 63.7403 46.8522C63.2723 48.6782 62.8747 50.4814 62.9531 52.4211C58.841 51.7624 54.7467 51.374 50.6984 50.8884C50.188 48.3986 50.5356 46.0001 51.1338 43.6416C51.3467 43.4223 51.519 43.2447 51.7876 42.9678ZM114.755 85.2344C114.196 85.9797 113.814 86.6226 113.261 87.1618C112.988 87.4238 112.65 87.5427 112.387 87.8043C111.358 88.8445 110.121 89.5918 108.855 90.26C105.843 91.8616 102.657 92.707 99.3026 92.6706C99.1018 92.6686 98.8963 92.6216 98.6906 92.5947C98.485 92.5677 98.2583 92.6421 98.0335 92.5155C101.521 90.5435 104.471 88.0508 106.808 84.8948C109.393 85.6047 111.992 85.2848 114.755 85.2344ZM93.8138 21.9674C94.1239 22.1056 94.3345 22.1474 94.484 22.2719C95.3311 23.0212 96.097 23.8641 97.0457 24.4888C97.3502 24.6925 97.4122 25.0665 97.6611 25.3176C98.2086 25.868 98.7359 26.4393 99.2377 27.0468C100.008 27.9749 100.743 28.9294 101.382 29.9531C102.857 32.3139 104.005 34.8133 104.417 37.6433C104.469 38.0278 104.536 38.3967 104.478 38.7052C104.134 39.0604 103.84 39.3633 103.475 39.7394C103.29 39.0841 102.968 38.5699 102.62 38.1018C101.717 36.8829 100.789 35.68 99.9209 34.4345C99.0234 33.1401 98.2016 31.7974 97.6019 30.3253C96.9776 28.799 96.444 27.2389 95.8348 25.707C95.3288 24.427 94.6614 23.2237 93.8138 21.9674ZM42.6359 74.5659C42.375 73.9689 42.1038 73.3923 41.873 72.8041C40.9446 70.4566 40.4591 67.991 40.3711 65.4341C40.3505 64.9279 40.3449 64.416 40.3946 63.907C40.5058 62.6876 40.6521 61.4718 40.7833 60.2617C40.8377 59.7775 40.8872 59.2986 41.0731 58.7189C41.1268 58.8924 41.1565 58.9414 41.1611 58.9864C41.3675 61.2022 42.3306 63.0363 43.7577 64.6409C44.0362 64.9511 44.2443 65.2741 44.4166 65.6638C44.1452 66.8293 44.0996 68.021 44.0289 69.2086C43.9343 70.8189 44.0307 72.4216 44.1924 74.0166C44.2246 74.3517 44.2868 74.7057 44.1225 75.1139C43.6529 74.8415 43.1717 74.7302 42.6359 74.5659ZM46.0368 57.8926C45.4757 60.0237 45.0452 62.1495 44.5946 64.2761C44.2687 64.2138 44.0896 64.0201 44.016 63.8273C43.8636 63.4569 43.5542 63.2383 43.3308 62.941C42.6557 62.0443 42.0311 61.1254 41.8052 59.9748C41.5649 58.7494 41.4804 57.5127 41.617 56.2572C41.8149 56.0234 41.9929 55.7702 42.3109 55.5818C43.8456 55.8015 44.9317 56.7822 46.0368 57.8926ZM80.464 96.8886C80.4578 97.0244 80.3818 97.1028 80.2461 97.1132C80.2523 96.9774 80.3332 96.9139 80.464 96.8886Z" fill="#FEFBF7"/>
<path d="M52.5433 137.601C51.9909 138.171 51.5753 138.599 51.1597 139.027C52.001 138.727 52.6933 138.253 53.2665 137.602C53.5686 137.52 53.8502 137.479 54.2007 137.605C53.624 138.07 53.023 138.451 52.631 139.054C52.8612 139.145 53.0431 139.017 53.225 138.899C53.6038 138.648 54.0525 138.455 54.3518 138.126C55.1783 137.225 56.1911 137.425 57.322 137.314C56.6211 138.206 56.0065 138.989 55.3767 139.787C56.1559 139.701 57.002 138.869 57.9554 137.249C60.0875 136.953 62.2755 136.579 64.5243 136.142C63.6912 137.777 62.4496 139.037 61.647 140.641C62.1034 140.708 62.2817 140.425 62.4394 140.202C63.3039 138.983 64.2284 137.801 64.933 136.487C65.0914 136.185 65.3044 135.945 65.6718 135.865C67.6142 135.426 69.5426 134.882 71.4514 134.268C71.595 134.509 71.4428 134.675 71.3558 134.855C70.2919 137.046 69.0929 139.168 67.5343 141.073C67.2956 141.369 67.0468 141.685 66.9377 142.096C67.2179 142.205 67.3503 142.009 67.4871 141.868C68.5765 140.775 69.3964 139.492 70.1764 138.18C70.9614 136.874 71.6813 135.534 72.1161 134.071C73.9399 133.416 75.7285 132.777 77.6481 132.082C77.5258 132.855 77.4294 133.532 77.303 134.2C76.75 137.099 75.6663 139.828 74.2119 142.432C73.9313 142.93 73.9213 142.931 73.9019 143.419C74.2242 143.315 74.3522 143.044 74.5102 142.782C76.4061 139.653 77.6508 136.33 78.1343 132.756C78.1613 132.549 78.1832 132.337 78.2352 132.134C78.2927 131.886 78.3077 131.89 78.9077 131.62C78.7075 133.817 78.2169 135.915 77.5359 137.971C76.8599 140.012 75.7338 141.849 74.7826 143.785C75.2209 143.632 75.4201 143.257 75.634 142.918C77.8043 139.426 79.1029 135.679 79.3244 131.638C79.325 131.578 79.3506 131.522 79.3819 131.38C81.1106 130.703 82.8794 130.015 84.7894 129.271C84.5084 131.521 84.2137 133.617 83.6881 135.691C83.1626 137.766 82.3416 139.737 81.4705 141.71C81.8492 141.469 82.1133 141.147 82.3175 140.767C83.5934 138.467 84.2681 135.989 84.7474 133.465C85.0161 132.043 85.1644 130.606 85.2931 129.11C86.6991 128.567 88.1345 128.102 89.6803 127.654C89.3092 129.868 88.7936 131.962 88.0822 134.029C87.3709 136.096 86.3995 138.043 85.2578 139.936C85.5704 139.803 85.7782 139.589 85.9413 139.322C86.0993 139.059 86.2922 138.82 86.4552 138.563C88.4627 135.309 89.6237 131.793 90.0935 128.074C90.1201 127.897 90.1267 127.721 90.1537 127.504C90.8031 127.333 91.4374 127.167 92.1472 126.983C91.8585 130.665 90.5786 133.995 89.1784 137.299C90.3716 135.82 91.0348 134.092 91.6428 132.34C92.251 130.579 92.5934 128.772 92.6698 126.952C93.7532 126.532 97.38 125.89 99.0179 125.814C99.192 126.003 99.0345 126.205 98.9827 126.388C98.6348 127.672 98.2669 128.957 97.8039 130.211C97.665 130.583 97.5362 130.954 97.5419 131.446C98.2677 130.579 98.5574 129.613 98.8621 128.662C99.1669 127.711 99.3964 126.738 99.6819 125.697C101.994 125.484 104.32 125.396 106.69 125.462C106.55 126.572 105.819 127.455 105.713 128.659C106.54 127.657 106.886 126.573 107.317 125.552C107.528 125.493 107.704 125.511 107.879 125.59C107.883 125.675 107.918 125.779 107.887 125.85C107.564 126.632 107.135 127.382 106.986 128.292C107.422 127.882 107.657 127.421 107.887 126.965C108.107 126.53 108.312 126.09 108.526 125.649C110.074 125.577 115.185 126.372 116.837 126.948C116.651 127.478 116.216 127.837 115.891 128.291C116.132 128.332 116.314 128.194 116.485 128.087C116.687 127.958 116.85 127.761 117.032 127.593C117.209 127.43 117.387 127.258 117.579 127.079C123.779 128.523 129.456 131.152 135.117 133.848C135.091 133.377 134.776 133.214 134.446 133.046C132.272 131.903 130.031 130.878 127.78 129.894C126.083 129.154 124.357 128.485 122.594 127.913C122.188 127.783 121.899 127.574 121.651 127.212C120.644 125.741 119.547 124.344 118.247 123.116C117.818 122.711 117.375 122.353 116.759 122.111C117.55 122.968 118.235 123.845 118.997 124.653C119.728 125.432 120.348 126.316 121.004 127.133C120.953 127.225 120.942 127.256 120.922 127.277C120.902 127.298 120.867 127.314 120.851 127.31C118.822 126.793 116.803 126.216 114.752 125.842C113.207 123.363 111.378 121.187 109.256 119.253C108.797 118.84 108.258 118.54 107.779 118.168C107.674 118.087 107.503 118.094 107.327 118.116C108.659 119.182 109.844 120.38 110.947 121.671C112.021 122.923 113.029 124.214 113.981 125.601C113.845 125.642 113.82 125.658 113.795 125.654C112.074 125.407 112.11 125.38 111.088 123.965C110.333 122.931 109.544 121.913 108.653 120.99C108.205 120.526 107.788 120.03 107.334 119.591C106.503 118.786 105.656 117.977 104.561 117.483C107.091 119.822 109.359 122.382 111.387 125.268C108.954 124.979 106.585 124.823 104.209 124.843C102.785 122.329 100.925 120.255 98.8121 118.401C98.224 117.883 97.5954 117.406 96.8956 117.032C96.7356 116.948 96.5855 116.884 96.3736 116.993C96.6264 117.379 96.9705 117.652 97.3097 117.919C98.9308 119.175 100.39 120.588 101.697 122.177C102.273 122.877 102.774 123.625 103.33 124.336C103.444 124.477 103.528 124.629 103.486 124.832C103.224 124.912 102.958 124.908 102.677 124.859C101.435 122.835 99.8783 121.075 98.0992 119.504C97.2919 118.794 96.4693 118.099 95.5402 117.533C95.3803 117.439 95.2403 117.364 94.9886 117.435C95.2712 117.85 95.6149 118.173 95.9792 118.434C97.3468 119.404 98.4659 120.639 99.6711 121.786C100.602 122.678 101.326 123.733 102.17 124.844C101.275 125.041 100.447 124.979 99.6518 125.121C99.1382 124.695 98.8821 124.122 98.5198 123.64C97.4475 122.217 96.3651 120.804 95.0195 119.633C94.4064 119.1 93.7985 118.552 93.0585 118.18C92.8935 118.101 92.7436 118.017 92.5518 118.115C92.4144 118.326 92.549 118.436 92.6988 118.541C93.6173 119.167 94.4852 119.845 95.2768 120.632C96.4169 121.766 97.4052 123.027 98.3581 124.314C98.5417 124.563 98.8264 124.747 98.9331 125.175C96.7457 125.478 94.6084 125.8 92.5198 126.3C90.8533 124.494 89.2825 122.649 87.0878 121.507C86.9528 121.437 86.773 121.324 86.5351 121.539C87.0062 122.218 87.8582 122.425 88.4158 122.975C88.9984 123.549 89.7787 123.899 90.2853 124.552C90.7818 125.195 91.3593 125.774 91.9612 126.428C89.5755 127.015 87.3242 127.733 85.1122 128.55C83.9003 127.589 82.9267 126.363 81.3991 125.887C81.2104 126.221 81.3446 126.371 81.5397 126.469C82.3898 126.886 83.0417 127.568 83.8257 128.074C84.0654 128.225 84.3099 128.401 84.407 128.789C82.371 129.583 80.345 130.378 78.3191 131.172C77.5434 130.856 77.2297 129.975 76.3976 129.798C76.3324 129.785 76.2464 129.864 76.1304 129.914C76.4458 130.594 77.1366 130.857 77.6448 131.319C77.3965 131.565 77.1498 131.64 76.8231 131.668C76.4126 130.947 75.7945 130.419 74.8134 130.047C75.2124 130.929 75.9325 131.282 76.495 131.847C74.8723 132.485 73.2901 133.07 71.6989 133.545C71.0538 133.225 70.5818 132.646 69.7324 132.715C69.8319 133.399 70.576 133.309 70.8829 133.809C70.475 133.941 70.092 134.087 69.7043 134.198C64.09 135.833 58.4058 136.864 52.6138 137.011C50.3985 137.064 48.1826 137.188 45.9654 137.463C45.4475 137.529 44.9786 137.743 44.4997 137.938C44.3284 138.005 44.1867 138.122 44.205 138.332C44.4392 138.538 44.6121 138.3 44.7784 138.228C45.6001 137.879 46.4356 137.675 47.3245 137.685C48.821 137.695 50.3181 137.645 51.8149 137.625C51.9809 137.594 52.1566 137.602 52.5433 137.601Z" fill="#FEFBF7"/>
<path d="M119.189 83.8207C119.918 83.2994 120.69 82.8819 121.383 82.3269C122.289 81.5926 123.14 80.8152 123.921 79.9502C124.956 78.8139 125.901 77.631 126.681 76.3088C127.971 74.1123 128.825 71.7473 129.584 69.3508C129.605 69.2797 129.59 69.1948 129.591 69.0943C129.278 69.2575 129.296 69.5683 129.208 69.8079C128.473 71.8316 127.657 73.8183 126.585 75.7097C125.366 77.8632 123.777 79.7198 121.934 81.3404C119.924 83.1133 117.612 84.3002 114.956 84.6669C114.78 84.689 114.603 84.7412 114.427 84.7733C114.286 84.799 114.14 84.8199 113.979 84.8464C114.038 85.045 114.179 84.9791 114.27 84.9755C117.241 84.8425 120.106 84.2214 122.757 82.6642C124.575 81.5973 126.03 80.1278 127.336 78.4833C129.403 75.8742 130.61 72.8672 131.736 69.8131C133.001 66.3967 134.317 62.9985 135.597 59.5866C135.803 59.0359 136.083 58.4972 136.003 57.8623C135.435 59.156 134.851 60.4452 134.307 61.7529C132.948 65.0072 131.734 68.311 130.51 71.6151C129.671 73.874 128.618 76.036 127.144 77.9634C125.056 80.694 122.524 82.8543 119.189 83.8207Z" fill="#FEFBF7"/>
<path d="M89.1044 65.4501C88.4128 63.5655 87.7606 61.7696 87.0983 59.9842C85.3615 55.2955 83.6348 50.6065 81.8678 45.9291C80.4641 42.2108 78.7174 38.6669 76.5571 35.3602C75.6454 33.9712 74.6376 32.6512 73.4479 31.479C73.3483 31.3826 73.2336 31.2918 73.0393 31.1239C73.2932 31.957 73.8463 32.4418 74.2732 32.997C77.0733 36.6295 79.157 40.6719 80.8523 44.9356C82.9012 50.0987 84.8393 55.3063 86.848 60.481C87.4372 62.0134 88.0969 63.5228 88.7214 65.0387C88.7754 65.1821 88.8042 65.3315 89.1044 65.4501Z" fill="#FEFBF7"/>
<path d="M49.0814 52.8855C48.9747 53.0551 49.039 53.168 49.1136 53.2503C50.0731 54.3511 50.8206 55.6107 51.6035 56.8338C53.3579 59.5534 55.1828 62.2201 57.028 64.876C58.3572 66.7898 59.7218 68.6771 61.1268 70.5328C62.358 72.1596 63.6296 73.7547 64.9113 75.3394C67.2113 78.1932 69.9108 80.6452 72.5697 83.1489C72.5896 83.1682 72.6247 83.1718 72.6547 83.1907C72.6466 82.9403 72.4416 82.853 72.3022 82.7181C70.8283 81.3415 69.501 79.8137 68.1332 78.3377C67.1136 77.2292 66.1144 76.0797 65.211 74.8614C64.3026 73.6482 63.3285 72.4928 62.41 71.29C61.4169 69.9949 60.4339 68.6994 59.4813 67.3727C58.2111 65.597 56.9611 63.8104 55.7212 62.0135C54.4317 60.1483 53.1624 58.2622 51.888 56.3814C51.1889 55.3406 50.4141 54.3579 49.6343 53.3804C49.4854 53.1756 49.3265 52.9712 49.0814 52.8855Z" fill="#FEFBF7"/>
<path d="M70.1392 103.544C69.6465 103.604 69.3025 103.888 68.959 104.123C66.3166 105.921 63.3957 106.831 60.3182 107.286C57.0094 107.78 53.7313 107.625 50.4967 107.096C45.843 106.329 41.2726 105.227 36.8005 103.804C35.8189 103.492 34.904 103.021 33.8919 102.761C33.8296 102.984 33.9951 103.013 34.1052 103.058C39.794 105.466 45.7724 106.939 51.9369 107.802C55.5583 108.31 59.2003 108.199 62.8341 107.31C64.6308 106.872 66.3886 106.295 67.9549 105.218C68.6927 104.706 69.4702 104.233 70.1392 103.544Z" fill="#FEFBF7"/>
<path d="M108.262 72.7069C108.452 71.0975 108.59 69.691 108.798 68.2917C109.53 63.3765 110.377 58.4718 111.239 53.5715C111.931 49.622 112.549 45.6605 113.412 41.7343C113.695 40.4375 114.023 39.1539 114.336 37.8459C113.954 37.8712 114.056 38.1834 114.005 38.3562C113.098 41.4405 112.408 44.5614 111.818 47.7084C110.737 53.461 109.707 59.2217 108.832 65.0013C108.502 67.2039 108.211 69.4149 108.126 71.6328C108.113 71.9245 108.055 72.2231 108.262 72.7069Z" fill="#FEFBF7"/>
<path d="M53.8289 71.7183C54.6553 73.215 55.739 74.4764 56.7573 75.7753C57.3285 76.5101 58.0207 77.15 58.5868 77.8899C59.3516 78.8929 60.2577 79.7602 61.0931 80.6902C62.3613 82.0998 63.7 83.4466 65.2055 84.6215C65.3201 84.7124 65.4448 84.7927 65.5494 84.894C66.9583 86.248 68.529 87.4055 70.1148 88.5573C71.7205 89.7284 73.3974 90.7665 75.1857 91.6399C75.5504 91.8213 75.9251 91.9923 76.305 92.1481C76.4899 92.2262 76.6898 92.3087 76.9465 92.1635C76.7531 91.8753 76.4279 91.7926 76.1631 91.6574C74.0352 90.6066 72.0441 89.3451 70.1443 87.9498C68.8777 87.0162 67.6718 86.0101 66.4559 85.0045C64.5074 83.4005 62.7357 81.6244 60.979 79.8327C60.0485 78.8812 59.1382 77.8888 58.2785 76.8544C57.6871 76.1405 57.0857 75.4169 56.454 74.7345C55.8621 74.0908 55.3408 73.3942 54.7741 72.7244C54.4658 72.3854 54.1373 72.0573 53.8289 71.7183Z" fill="#FEFBF7"/>
<path d="M89.6472 94.6463C83.3212 92.836 79.1176 88.9079 77.2899 82.6107C77.0135 82.6267 77.1026 82.7838 77.0917 82.8746C77.0806 82.9955 77.1047 83.11 77.1338 83.2293C77.4855 84.9271 78.079 86.5248 79.0559 87.9264C79.8047 89.0059 80.6141 90.0428 81.6006 90.9169C83.6784 92.7565 85.9551 94.2417 88.7825 94.7612C88.8678 94.7728 88.9477 94.8198 89.0979 94.874C86.6202 97.4178 83.7064 99.2963 80.6815 101.25C82.992 100.6 88.0229 97.2162 89.6472 94.6463Z" fill="#FEFBF7"/>
<path d="M80.6128 46.376C80.4587 46.7736 80.5728 46.9347 80.6216 47.0934C82.8075 53.8173 85.1748 60.4637 87.9099 66.9598C88.6575 68.747 89.5262 70.469 90.4958 72.1369C90.7283 72.5342 90.9961 72.915 91.2791 73.2802C91.1832 72.762 91.0016 72.2824 90.7696 71.8248C88.9721 68.363 87.6233 64.6875 86.1586 61.0719C84.3497 56.6067 82.8483 52.0137 81.0948 47.5312C80.9572 47.1854 80.8095 46.85 80.6128 46.376Z" fill="#FEFBF7"/>
<path d="M134.188 54.4194C133.64 55.0541 133.283 55.6913 132.926 56.3184C131.135 59.4792 129.594 62.7507 128.375 66.1501C127.577 68.3772 126.769 70.6048 125.59 72.6863C124.458 74.6906 123.125 76.5521 121.423 78.1168C120.416 79.0461 119.373 79.9516 118.255 80.7546C117.739 81.1268 117.258 81.5528 116.787 81.9885C117.548 81.7423 118.176 81.2551 118.783 80.7789C119.987 79.8368 121.176 78.8803 122.275 77.8167C124.819 75.3545 126.558 72.4168 127.791 69.1726C128.855 66.3621 129.809 63.5158 131.089 60.7822C131.989 58.8575 132.92 56.9416 134.016 55.1145C134.128 54.9192 134.281 54.7624 134.188 54.4194Z" fill="#FEFBF7"/>
<path d="M44.5982 104.759C48.7309 106.005 52.9806 106.523 57.3593 106.071C59.5461 105.848 61.723 105.615 63.8772 105.107C67.6319 104.224 71.0767 102.605 74.2409 100.329C74.3117 100.276 74.3627 100.193 74.5099 100.012C73.9447 100.316 73.4906 100.555 73.0414 100.799C72.5619 101.064 72.0874 101.334 71.6079 101.599C68.0296 103.555 64.2419 104.761 60.2497 105.232C57.59 105.545 54.9305 105.827 52.2645 105.708C50.3868 105.622 48.5251 105.431 46.6847 105.098C45.9927 104.965 45.2954 104.867 44.5982 104.759Z" fill="#FEFBF7"/>
<path d="M109.786 38.7261C109.644 39.3896 109.554 39.9104 109.419 40.418C108.941 42.235 108.308 44.0029 107.649 45.7668C106.523 48.7797 105.351 51.7794 104.44 54.8591C103.544 57.8929 103.015 60.9774 102.691 64.0888C102.647 64.5124 102.653 64.9441 102.805 65.3749C102.959 64.4698 103.143 63.5636 103.266 62.6597C103.861 58.3724 105.083 54.2257 106.591 50.1429C107.523 47.6098 108.509 45.0896 109.305 42.5167C109.569 41.6775 109.807 40.8344 109.935 39.9655C109.999 39.5913 110.078 39.2115 109.786 38.7261Z" fill="#FEFBF7"/>
<path d="M29.4374 102.084C29.719 102.61 30.2195 102.791 30.619 103.046C32.8958 104.511 35.2337 105.883 37.7297 106.973C43.1171 109.313 48.7727 110.252 54.7649 109.46C55.5944 109.351 56.4333 109.303 57.2738 109.083C57.1858 108.806 56.9738 108.935 56.8381 108.945C55.8232 109.016 54.8033 109.092 53.7881 109.193C49.4461 109.617 45.2843 108.96 41.2179 107.727C38.4185 106.88 35.839 105.568 33.3106 104.163C32.0914 103.479 30.8518 102.836 29.6988 102.044C29.6689 102.025 29.5932 102.063 29.4374 102.084Z" fill="#FEFBF7"/>
<path d="M69.8363 83.8185C69.7526 83.6262 69.7481 83.5611 69.7083 83.5226C68.3884 82.3255 67.2606 80.9403 66.0418 79.649C65.2459 78.8075 64.4955 77.909 63.74 77.0258C62.8901 76.031 62.0554 75.0205 61.261 73.9783C60.0248 72.3666 58.8188 70.7237 57.7643 68.9745C55.8087 65.7358 53.8682 62.4815 51.9075 59.2481C51.6847 58.8807 51.5175 58.4659 51.0789 58.1019C51.892 59.9208 52.8424 61.5187 53.7524 63.1482C55.2856 65.8968 56.8741 68.6182 58.6644 71.2012C59.6563 72.6369 60.7037 74.0253 61.8016 75.3816C63.2869 77.2142 64.8481 78.9786 66.48 80.6801C67.4303 81.671 68.3301 82.704 69.4171 83.5441C69.5069 83.6108 69.6018 83.6622 69.8363 83.8185Z" fill="#FEFBF7"/>
<path d="M104.93 86.9809C105.148 86.8267 105.309 86.7199 105.506 86.5865C107.325 87.578 109.302 87.76 111.378 87.4311C112.6 87.2368 113.265 87.0094 114.124 86.3627C113.264 86.5627 112.599 86.7599 111.915 86.8676C111.232 86.9752 110.544 87.0077 109.855 87.0302C109.137 87.0538 108.425 86.9919 107.728 86.8139C107.077 86.6492 106.421 86.4897 105.816 86.2278C105.774 85.8329 106.097 85.6594 106.234 85.4079C106.933 84.1803 107.206 82.8643 107.308 81.505C107.547 78.2427 106.86 75.2383 105.117 72.5472C104.329 71.3388 103.349 70.3188 102.166 69.4776C102.528 69.94 102.881 70.4128 103.258 70.8595C106.136 74.2031 107.307 78.1117 106.64 82.6209C106.421 84.1707 105.756 85.5726 104.93 86.9809Z" fill="#FEFBF7"/>
<path d="M75.5668 80.2277C75.9497 80.062 75.8813 79.8339 75.8729 79.6436C75.8489 78.922 75.6538 78.2373 75.4387 77.5634C74.1197 73.2704 72.3017 69.2229 69.7427 65.5611C68.5079 63.7887 67.1163 62.1579 65.6439 60.5805C64.3507 59.1867 63.0219 57.8394 61.6476 56.5391C61.3687 56.2792 61.1049 56.0137 60.7906 55.7903C61.871 56.8263 62.749 58.061 63.8345 59.0917C64.7906 59.9971 65.6403 61.0021 66.4902 61.997C68.826 64.7545 70.7729 67.7933 72.3262 71.0885C73.3913 73.3444 74.3154 75.656 75.0128 78.072C75.2228 78.7611 75.3774 79.4775 75.5668 80.2277Z" fill="#FEFBF7"/>
<path d="M115.624 66.8655C116.114 66.5396 116.345 66.0433 116.605 65.5759C117.962 63.1716 118.874 60.5993 119.676 57.9912C120.896 54.0156 121.444 49.9665 121.36 45.8724C121.318 43.7148 121.021 41.5926 120.562 39.507C120.499 39.2233 120.461 38.9335 120.217 38.6973C122.03 48.4768 120.285 57.8312 115.624 66.8655Z" fill="#FEFBF7"/>
<path d="M67.2852 106.466C66.5445 106.742 66.0174 107.285 65.3814 107.642C62.3377 109.355 59.0909 110.183 55.698 110.495C50.8223 110.941 46.091 110.392 41.4665 109.117C41.2461 109.055 41.0262 108.933 40.7744 109.004C40.8076 109.228 41.0033 109.246 41.1686 109.294C44.6998 110.393 48.2937 111.208 52.081 111.157C55.2104 111.117 58.3114 110.877 61.3534 109.912C63.0709 109.366 64.6946 108.638 66.1656 107.56C66.5902 107.252 66.9349 106.897 67.2852 106.466Z" fill="#FEFBF7"/>
<path d="M70.1594 32.3219C70.0877 33.0626 70.2124 33.7302 70.3623 34.3918C71.1199 37.9203 72.1292 41.3684 73.476 44.6977C75.0144 48.5062 76.7999 52.1794 78.8326 55.7273C78.9463 55.9285 79.0147 56.1466 79.2751 56.2266C77.7872 52.9632 76.173 49.7901 74.7858 46.4926C72.9068 42.02 71.4811 37.3788 70.418 32.6127C70.3887 32.5135 70.405 32.3773 70.1594 32.3219Z" fill="#FEFBF7"/>
<path d="M109.007 54.2704C111.093 45.5797 112.737 36.7961 115.676 28.1917C115.298 28.3122 115.271 28.5795 115.184 28.7688C114.385 30.4579 113.882 32.2306 113.36 34.0042C111.433 40.5895 110.174 47.2837 109.02 53.9987C109.004 54.0948 109.008 54.18 109.007 54.2704Z" fill="#FEFBF7"/>
<path d="M79.2798 75.5226C79.073 74.4321 78.6642 73.5 78.3107 72.5507C76.8674 68.6845 74.9048 65.1047 72.579 61.7399C71.617 60.3531 70.5741 59.0297 69.4201 57.7909C68.0622 56.3245 66.5318 55.0956 64.9052 53.9557C64.5111 53.6753 64.2237 53.2352 63.6521 53.1775C63.7304 53.4152 63.9 53.5389 64.0596 53.6631C64.8323 54.2797 65.6202 54.8807 66.3828 55.5078C67.4445 56.384 68.4554 57.3223 69.3401 58.361C70.3192 59.5114 71.2427 60.709 72.1056 61.9493C74.352 65.1968 76.2707 68.6228 77.8062 72.2747C78.19 73.1927 78.5688 74.1159 78.9425 75.0443C79.0114 75.2021 79.0501 75.3812 79.2798 75.5226Z" fill="#FEFBF7"/>
<path d="M42.2458 101.355C42.7643 101.786 44.1077 102.064 46.7105 102.487C53.3904 103.575 60.001 102.843 66.5777 100.833C66.1653 100.9 65.7429 100.957 65.3304 101.033C63.2278 101.419 61.1346 101.864 59.0178 102.145C55.5686 102.604 52.1488 102.565 48.737 102.2C46.73 101.989 44.7285 101.723 42.7584 101.315C42.5929 101.286 42.4176 101.228 42.2458 101.355Z" fill="#FEFBF7"/>
<path d="M51.4754 51.5308C52.8749 52.1482 54.0283 52.8203 55.0954 53.6211C55.6988 54.0739 56.3426 54.4851 56.9004 54.9948C58.4941 56.447 60.0473 57.9509 61.4187 59.6223C63.1329 61.7166 64.7109 63.9114 66.0871 66.2545C66.6316 67.1859 67.2115 68.0909 67.7812 69.0063C67.8406 69.1043 67.9455 69.1654 68.1347 69.3486C67.4243 67.8119 66.6219 66.4994 65.8446 65.1809C65.0277 63.8038 64.2108 62.4167 63.2375 61.1509C62.4232 60.0896 61.6341 59.0022 60.6683 58.0671C60.3099 57.7201 60.0474 57.2941 59.7091 56.9362C58.5201 55.6839 57.2095 54.5867 55.8181 53.5629C54.8556 52.8533 53.8677 52.1897 52.7731 51.6959C52.4182 51.5442 52.0785 51.3669 51.4754 51.5308Z" fill="#FEFBF7"/>
<path d="M56.3872 59.6642C57.5167 61.4655 58.7329 63.098 59.9289 64.7312C61.0256 66.2379 62.1375 67.7289 63.3301 69.1567C64.4631 70.5165 65.5405 71.9237 66.6482 73.3096C67.6069 74.5108 68.5756 75.7116 69.5242 76.9232C70.4329 78.0963 71.3164 79.2854 72.2151 80.4588C72.3143 80.5954 72.4034 80.7523 72.6038 80.7846C72.6332 80.2368 72.1789 79.9587 71.926 79.5925C70.9887 78.23 69.9706 76.9208 68.9778 75.5956C68.0744 74.3872 67.1711 73.1688 66.2374 71.9817C65.4626 70.999 64.6373 70.0584 63.8524 69.0861C63.1023 68.1576 62.3924 67.2074 61.6524 66.2685C61.0266 65.4705 60.3858 64.6782 59.7601 63.8702C58.8911 62.7457 58.0223 61.6112 57.1685 60.4711C56.9599 60.1985 56.716 59.9623 56.3872 59.6642Z" fill="#FEFBF7"/>
<path d="M82.7446 35.8267C82.8728 36.6798 83.3815 37.0711 83.7289 37.5391C85.9469 40.5575 87.7411 43.8136 89.056 47.3549C90.1647 50.3422 90.9916 53.411 91.4611 56.5895C91.5134 56.9237 91.601 57.2515 91.759 57.5563C91.5172 53.5959 90.6111 49.8124 89.1515 46.1816C87.6329 42.4025 85.5235 39.0134 82.7446 35.8267Z" fill="#FEFBF7"/>
<path d="M75.2684 96.9961C73.8042 96.1661 66.1993 95.7225 61.9264 96.1747C58.2768 96.5619 54.3862 97.5059 53.3999 98.2936C57.0896 97.3475 60.7169 96.6449 64.3991 96.5427C68.0462 96.4368 71.6599 96.7038 75.2684 96.9961Z" fill="#FEFBF7"/>
<path d="M117.189 30.0352C118.891 39.2408 118.824 48.457 115.975 57.7847C116.951 56.3999 118.237 50.7651 118.539 46.1136C118.893 40.6516 118.74 35.2451 117.189 30.0352Z" fill="#FEFBF7"/>
<path d="M100.123 68.6474C100.374 68.2005 100.281 67.908 100.278 67.6118C100.212 63.1903 100.547 58.7929 101.991 54.5068C102.991 51.5441 104.402 48.7457 105.853 45.9759C105.627 46 105.54 46.2195 105.428 46.3947C105.31 46.5751 105.198 46.7504 105.091 46.9404C103.509 49.7959 102.097 52.7349 101.09 55.8233C100.383 58.006 100.067 60.2433 99.8912 62.495C99.7667 64.0869 99.6875 65.6719 99.8192 67.2585C99.8658 67.6785 99.882 68.1198 100.123 68.6474Z" fill="#FEFBF7"/>
<path d="M95.7914 69.9494C101.195 75.0393 103.636 81.2013 101.852 88.9125C102.388 87.9122 102.703 86.8606 102.843 85.7607C103.151 83.3339 102.82 80.9879 102.122 78.7118C101.492 76.6438 100.534 74.7545 99.2138 73.0504C98.3647 71.9549 97.318 71.0731 96.3524 70.1077C96.218 69.9675 96.0536 69.8185 95.7914 69.9494Z" fill="#FEFBF7"/>
<path d="M71.1646 31.1558C71.2428 34.2897 77.4967 50.6842 79.362 52.6827C76.2348 45.6751 73.5661 38.4735 71.1646 31.1558Z" fill="#FEFBF7"/>
<path d="M76.791 93.3309C76.6833 93.0041 76.4576 92.9979 76.2624 92.9404C73.9651 92.2331 71.8922 91.0957 69.8955 89.83C68.2681 88.8005 66.7169 87.6727 65.2367 86.4418C64.4742 85.8046 63.7674 85.1101 62.9947 84.4935C61.529 83.3272 60.2051 82.0049 58.8001 80.776C60.2431 82.2642 61.4585 83.977 63.1746 85.2036C63.6235 85.5271 63.9762 85.9697 64.3947 86.3344C67.1795 88.7881 70.2079 90.9011 73.6172 92.4525C74.6071 92.885 75.6173 93.2968 76.791 93.3309Z" fill="#FEFBF7"/>
<path d="M54.883 89.196C52.134 86.6355 49.4558 84.012 47.6828 80.6048C45.9295 77.2369 44.7553 73.6604 44.1251 69.8615C43.7926 70.0052 43.9314 70.2104 43.9503 70.3502C44.5425 75.074 46.1723 79.3751 48.7744 83.2713C49.622 84.5373 50.5807 85.7187 51.6965 86.7282C52.6878 87.6172 53.608 88.6093 54.883 89.196Z" fill="#FEFBF7"/>
<path d="M94.1274 69.8542C93.9103 65.9658 94.4904 62.2615 95.6726 58.6235C96.8447 55.006 98.477 51.6011 100.79 48.4401C100.289 48.3598 100.114 48.7585 99.9414 49.0064C99.3972 49.7765 98.8679 50.561 98.4036 51.378C96.1688 55.3142 94.6254 59.4739 93.9887 63.9036C93.7318 65.7017 93.6558 67.4926 93.8562 69.2774C93.8698 69.4426 93.8279 69.6351 94.1274 69.8542Z" fill="#FEFBF7"/>
<path d="M77.1304 98.7691C75.1115 98.2022 73.0492 97.9986 70.9602 97.9718C65.0349 97.8877 59.1154 98.2753 53.1934 98.9442C53.0778 98.9539 52.957 98.9889 52.6954 99.0395C52.9802 99.2038 53.1765 99.1508 53.3473 99.1439C56.6689 98.9256 59.9862 98.6221 63.3118 98.509C66.8434 98.3927 70.3745 98.3266 73.8826 98.6029C74.5902 98.6599 75.2973 98.7671 76.0048 98.8443C76.3861 98.8892 76.7621 98.9595 77.1304 98.7691Z" fill="#FEFBF7"/>
<path d="M45.4609 60.6211C45.3706 61.2019 45.5017 61.7136 45.5877 62.2221C46.0906 65.0377 47.0416 67.6899 48.164 70.2751C49.3504 72.9932 50.9103 75.4856 52.6923 77.8387C53.1192 78.4039 53.5867 78.9073 54.12 79.3528C52.8517 77.3958 51.4773 75.5183 50.3453 73.4705C48.2493 69.6895 46.6925 65.6812 45.856 61.3783C45.784 60.9947 45.789 60.9995 45.4609 60.6211Z" fill="#FEFBF7"/>
<path d="M79.3516 78.9219C79.0769 79.3542 79.1449 79.6225 79.1528 79.8831C79.2923 82.9935 80.2022 85.8074 82.0436 88.2582C83.8106 90.6167 86.0797 92.3482 88.7851 93.5205C89.7652 93.9433 90.7819 94.2091 91.8965 94.1549C91.894 93.859 91.6524 93.9388 91.527 93.9287C89.6416 93.7224 88.0784 92.8059 86.5457 91.838C85.1778 90.969 84.0279 89.8354 82.9841 88.6224C81.4432 86.837 80.3866 84.7614 79.8845 82.403C79.7156 81.5918 79.5568 80.7803 79.4986 79.9446C79.4759 79.6595 79.423 79.3756 79.3516 78.9219Z" fill="#FEFBF7"/>
<path d="M76.6123 62.3773C76.1196 61.273 75.4046 60.3481 74.7248 59.4167C73.7523 58.0705 72.6991 56.7776 71.4437 55.6733C71.0251 55.3086 70.6369 54.9226 70.1577 54.6204C69.8182 54.4131 69.5399 54.0829 69.2764 53.7773C67.2531 51.4642 65.7592 48.8443 64.9861 45.8197C64.9617 45.7354 64.9373 45.6511 64.8978 45.5724C64.8879 45.5527 64.8529 45.539 64.7432 45.4531C64.7658 45.7582 64.7639 45.999 64.8021 46.2283C65.2349 48.5288 66.1362 50.5952 67.5159 52.4671C68.2752 53.4957 69.2068 54.3168 70.1687 55.1166C71.5442 56.2663 72.6922 57.6207 73.8352 58.9802C74.6005 59.8932 75.2899 60.8743 75.9896 61.835C76.1533 62.0542 76.3122 62.2687 76.6123 62.3773Z" fill="#FEFBF7"/>
<path d="M113.808 54.5352C113.498 54.9041 113.481 55.1709 113.428 55.4241C112.612 59.0823 111.797 62.7405 110.981 66.3987C110.29 69.4996 109.635 72.604 109.231 75.7386C109.177 76.1625 109.062 76.6191 109.29 76.9715C109.436 77.0209 109.481 76.994 109.492 76.9132C109.692 74.756 110.127 72.6245 110.568 70.4978C111.471 66.0929 112.404 61.6868 113.316 57.2815C113.485 56.4312 113.618 55.5772 113.808 54.5352Z" fill="#FEFBF7"/>
<path d="M56.2147 71.6285C54.4938 69.1726 52.7717 66.8673 51.3878 64.3327C49.5049 60.8796 47.9797 57.2666 47.2404 53.3313C47.1685 52.9376 47.0916 52.5392 46.8237 52.1685C46.6401 52.507 46.7584 52.7633 46.7964 53.0127C47.2156 56.223 48.2743 59.2021 49.6704 62.0624C50.7409 64.2531 52.0791 66.2575 53.4526 68.2454C54.0129 69.0612 54.5984 69.861 55.2041 70.6399C55.4623 70.9709 55.8164 71.2428 56.2147 71.6285Z" fill="#FEFBF7"/>
<path d="M78.9961 114.721C77.5783 115.465 76.0972 115.977 74.5819 116.384C69.739 117.682 64.9578 117.673 60.2274 116.456C59.7614 116.34 59.2958 116.172 58.7781 116.208C62.5559 118.944 75.7178 117.99 78.9961 114.721Z" fill="#FEFBF7"/>
<path d="M50.4209 92.923C50.2885 92.532 49.9375 92.5156 49.6926 92.3998C47.8635 91.5385 46.0699 90.6307 44.4339 89.451C43.4413 88.7325 42.5197 87.9211 41.5067 87.2435C40.5537 86.6038 39.8284 85.6994 38.8499 85.1058C38.6552 84.988 38.5012 84.7985 38.332 84.6346C36.913 83.2809 35.5041 81.9268 34.0851 80.5731C33.9457 80.4382 33.7912 80.3188 33.6268 80.1698C33.5138 80.5052 33.7284 80.6522 33.8876 80.8165C35.7339 82.6851 37.5751 84.5688 39.563 86.2914C41.1025 87.6204 42.7027 88.8968 44.4094 90.0136C46.2607 91.24 48.219 92.2567 50.4209 92.923Z" fill="#FEFBF7"/>
<path d="M46.3076 67.8804C46.9438 72.26 51.8676 81.8735 59.4502 86.7264C58.764 85.9609 58.0323 85.2322 57.2247 84.5919C56.1926 83.7747 55.2315 82.8846 54.4221 81.8479C53.9404 81.2298 53.3729 80.6803 52.8761 80.0678C51.1474 77.9286 49.7567 75.5805 48.5174 73.1361C47.6531 71.4494 46.8846 69.7138 46.3076 67.8804Z" fill="#FEFBF7"/>
<path d="M71.2423 55.1335C71.4291 55.6078 71.8754 55.6453 72.1493 55.9004C73.5887 57.2232 74.9876 58.5777 76.1739 60.1513C78.3083 62.9868 79.9082 66.1244 81.3769 69.3575C81.4114 69.4313 81.4559 69.5149 81.6065 69.5089C81.2915 68.1518 80.7449 66.9041 80.1478 65.6785C79.0917 63.5228 77.8945 61.4529 76.4348 59.554C75.4717 58.2977 74.3871 57.1565 73.1912 56.1302C72.399 55.444 71.9941 55.2544 71.2423 55.1335Z" fill="#FEFBF7"/>
<path d="M96.6813 44.606C94.6045 38.0776 93.4185 31.3278 92.832 24.3481C91.9733 27.2139 94.7708 42.0067 96.6813 44.606Z" fill="#FEFBF7"/>
<path d="M48.9539 77.7714C49.0827 78.6338 49.5689 79.3268 50.0299 80.0259C50.9718 81.4633 52.0095 82.8218 53.0977 84.1482C54.3895 85.7224 55.9192 87.0217 57.4743 88.2848C59.5179 89.9401 61.7593 91.2919 64.3159 92.0999C64.5361 92.1716 64.7663 92.2328 64.9966 92.284C65.0416 92.2973 65.1021 92.2649 65.1673 92.2573C65.0592 91.9707 64.7938 91.9159 64.5488 91.8201C62.894 91.1374 61.2798 90.393 59.7978 89.4028C58.78 88.7204 57.7671 88.0428 56.8606 87.2157C56.3626 86.7638 55.8341 86.3531 55.326 85.9116C54.2748 84.9848 53.3854 83.9014 52.4809 82.8335C51.4619 81.6347 50.564 80.351 49.7116 79.0305C49.4489 78.6145 49.2065 78.1877 48.9539 77.7714Z" fill="#FEFBF7"/>
<path d="M43.6619 93.4135C42.75 92.6418 41.8482 91.8596 40.9211 91.1135C39.5554 90.0135 38.3109 88.7984 37.1777 87.4587C35.8904 85.9494 34.7594 84.3288 33.6587 82.6869C33.0587 81.7927 32.5041 80.8716 31.9445 79.9457C31.791 79.696 31.6626 79.4402 31.4132 79.2594C31.4231 80.5627 34.8556 85.5034 36.336 87.3411C38.3727 89.8691 40.9107 91.8009 43.6619 93.4135Z" fill="#FEFBF7"/>
<path d="M81.8474 62.4025C81.8089 61.6062 81.1038 61.2979 80.7676 60.6991C80.4115 60.071 79.8889 59.5448 79.4571 58.9648C79.0402 58.4093 78.6385 57.8382 78.2367 57.267C77.8252 56.6662 77.4237 56.0649 77.0223 55.4536C76.6408 54.8716 76.2693 54.2792 75.9029 53.6816C75.5268 53.0543 75.1606 52.4265 74.8096 51.7932C74.4685 51.1795 74.1424 50.5602 73.8264 49.9405C73.4906 49.2915 73.1698 48.6368 72.844 47.9874C72.528 47.3677 72.2171 46.7428 71.8862 46.0986C71.7136 46.3363 71.8629 46.4909 71.9169 46.6343C73.3628 50.1596 75.0307 53.5556 77.1775 56.6969C78.1096 58.0648 79.0921 59.4007 80.105 60.7053C80.6067 61.3327 81.2649 61.8385 81.8474 62.4025Z" fill="#FEFBF7"/>
<path d="M68.8322 113.104C72.6133 113.32 76.2178 112.483 79.6447 110.684C82.4408 109.216 84.9385 107.389 86.8549 104.816C85.728 105.569 84.8646 106.638 83.7724 107.445C82.6701 108.263 81.5529 109.056 80.3563 109.731C79.19 110.396 77.9843 110.971 76.739 111.468C75.4636 111.976 74.1592 112.344 72.8157 112.584C71.4923 112.822 70.1557 112.846 68.8322 113.104Z" fill="#FEFBF7"/>
<path d="M78.536 78.6486C78.8554 78.2796 78.7376 77.9631 78.68 77.6542C78.228 75.3435 77.4435 73.1666 76.4071 71.09C74.8326 67.9558 73.0311 64.9561 70.9114 62.1748C70.5292 61.6731 70.223 61.0831 69.674 60.7135C69.5165 60.9255 69.656 61.0504 69.7553 61.177C72.9235 65.2063 75.4408 69.6279 77.287 74.4425C77.6404 75.372 77.8679 76.3616 78.1558 77.3187C78.2725 77.7658 78.4042 78.2072 78.536 78.6486Z" fill="#FEFBF7"/>
<path d="M99.1732 43.7876C99.4577 43.4148 99.4208 43.0347 99.4341 42.6627C99.5133 39.9437 99.0995 37.3147 98.4393 34.7307C97.7403 31.9775 96.8802 29.291 95.8841 26.6451C95.7516 26.294 95.6342 25.9373 95.3809 25.6211C95.1976 25.8995 95.3868 26.0927 95.4553 26.2908C96.5599 29.7406 97.614 33.2125 98.3661 36.7767C98.7663 38.6633 99.0257 40.5757 99.0789 42.5213C99.0852 42.9427 99.1367 43.3674 99.1732 43.7876Z" fill="#FEFBF7"/>
<path d="M112.806 87.644C109.541 89.3263 106.321 89.8871 102.842 89.1123C103.974 90.0865 106.058 90.1587 109.64 89.4529C109.618 89.725 109.392 89.7491 109.215 89.8315C107.213 90.7201 105.156 90.9983 103.044 90.7263C102.432 90.6503 101.825 90.4888 101.197 90.5089C101.175 90.7408 101.325 90.785 101.456 90.8199C104.443 91.5943 107.348 91.4077 110.121 89.6748C110.272 89.5783 110.479 89.4947 110.555 89.3561C110.755 88.9614 111.137 88.8657 111.471 88.6716C111.895 88.4237 112.433 88.3268 112.806 87.644Z" fill="#FEFBF7"/>
<path d="M94.5273 50.0125C94.5919 49.4981 94.4549 49.0821 94.358 48.6644C93.7822 46.1332 92.7175 43.8271 91.3707 41.6526C90.4298 40.1344 89.383 38.6957 88.0832 37.4777C87.4906 36.9242 86.8423 36.4281 86.1127 36.0455C85.9778 35.9756 85.8528 35.9154 85.7065 36.0065C85.6701 36.1534 85.7649 36.2249 85.8547 36.2916C88.4942 38.1489 90.2843 40.7222 91.8117 43.5068C92.8102 45.3338 93.6473 47.2374 94.1721 49.284C94.2303 49.5225 94.238 49.8032 94.5273 50.0125Z" fill="#FEFBF7"/>
<path d="M72.9109 54.7177C72.0277 52.9309 71.1341 51.1948 70.296 49.4213C69.1177 46.9236 68.1461 44.3423 67.4767 41.6386C67.3263 41.0372 67.1859 40.4355 67.1512 39.8045C67.1423 39.6743 67.1841 39.4919 66.8934 39.4333C66.7335 39.9265 66.7643 40.4222 66.8405 40.901C66.9549 41.5991 67.0995 42.2961 67.2792 42.9866C68.2758 46.7464 69.8824 50.2158 71.9377 53.4716C72.2151 53.9022 72.457 54.3794 72.9109 54.7177Z" fill="#FEFBF7"/>
<path d="M97.2586 92.3956C96.7265 92.4166 96.2965 92.2229 95.8867 92.0184C94.3723 91.2605 93.1671 90.1542 92.0786 88.8777C90.1203 86.5971 89.0593 83.8395 87.9882 81.0823C87.9195 80.9044 87.9466 80.6575 87.6515 80.5437C87.758 81.0111 87.8297 81.4347 87.9568 81.8411C88.6753 84.1457 89.5197 86.4001 90.9438 88.3557C92.0701 89.9016 93.3838 91.2444 95.0671 92.1963C95.5617 92.4727 96.0872 92.6376 96.6487 92.7157C96.8994 92.7459 97.1205 92.7071 97.2586 92.3956Z" fill="#FEFBF7"/>
<path d="M89.8804 74.0049C89.6714 74.9468 89.9602 75.8035 90.2291 76.641C91.612 81.0177 93.0957 85.3502 96.1933 88.8253C95.4492 87.2138 94.3771 85.7909 93.6229 84.1798C92.8588 82.559 92.2457 80.882 91.6075 79.211C90.9646 77.5051 90.4124 75.7654 89.8804 74.0049Z" fill="#FEFBF7"/>
<path d="M94.2046 93.6952C91.2918 92.7666 89.0692 90.8978 87.0846 88.7537C85.0801 86.6004 83.8522 83.9651 83.1586 81.0478C83.1032 81.075 83.0477 81.1023 82.9923 81.1296C82.9867 81.2051 82.9559 81.2865 82.9754 81.356C83.4785 83.6437 84.1832 85.8231 85.6179 87.7079C87.1321 89.7 88.9349 91.3646 91.0669 92.6601C92.0156 93.2246 93.0458 93.6556 94.2046 93.6952Z" fill="#FEFBF7"/>
<path d="M107.761 83.5263C108.645 83.5816 109.415 83.4154 110.171 83.2448C112.95 82.6121 115.448 81.3725 117.695 79.5249C119.102 78.3738 120.33 77.049 121.542 75.7198C122.567 74.5939 123.437 73.3385 124.292 72.0686C124.393 71.9239 124.435 71.7414 124.522 71.542C123.962 71.8506 123.756 72.4014 123.461 72.8351C122.128 74.757 120.506 76.419 118.849 78.0473C117.647 79.2354 116.292 80.2136 114.828 81.0454C113.005 82.0773 111.069 82.7469 109.021 83.0643C108.669 83.1185 108.311 83.208 107.959 83.2923C107.929 83.3036 107.898 83.3751 107.761 83.5263Z" fill="#FEFBF7"/>
<path d="M90.4182 37.0006C89.709 30.8632 88.9091 29.876 90.6998 21.5899C90.4588 21.5895 90.442 21.786 90.3803 21.9492C89.6666 23.71 89.2939 25.5375 89.172 27.3951C88.9688 30.5012 89.3691 33.5229 90.1567 36.4738C90.2002 36.6578 90.1881 36.8993 90.4182 37.0006Z" fill="#FEFBF7"/>
<path d="M73.9527 105.566C78.4286 105.086 85.6417 101.248 87.1946 98.2924C86.9583 98.3068 86.8361 98.5026 86.6993 98.6336C84.3936 100.9 81.6767 102.496 78.7271 103.693C77.3203 104.266 75.9086 104.825 74.4579 105.255C74.3067 105.301 74.0958 105.289 73.9527 105.566Z" fill="#FEFBF7"/>
<path d="M98.8418 86.9811C99.3041 83.4693 98.7198 80.21 97.0238 77.2109C95.6541 74.7911 93.9307 72.6364 92.8998 72.2459C96.6387 76.4634 99.0834 81.1291 98.8418 86.9811Z" fill="#FEFBF7"/>
<path d="M93.6361 56.2772C93.901 55.845 93.9703 55.3854 93.9996 54.9174C94.1506 52.5821 93.7283 50.3501 93.0896 48.1619C92.4267 45.8893 91.4611 43.7693 90.1476 41.8189C90.0831 41.7261 89.9832 41.6598 89.8687 41.549C89.7409 41.8101 89.8803 41.9451 89.9743 42.107C91.7951 45.1866 92.956 48.5186 93.4316 52.1189C93.5491 53.0328 93.6365 53.948 93.6233 54.8772C93.6192 55.3492 93.6352 55.8104 93.6361 56.2772Z" fill="#FEFBF7"/>
<path d="M87.7252 49.0639C89.831 54.577 90.9706 60.3196 91.3501 66.2883C91.377 66.0814 91.4291 65.8685 91.4259 65.6628C91.4181 63.6902 91.2947 61.7273 90.9854 59.7868C90.4815 56.554 89.7107 53.4071 88.4666 50.4097C88.2749 49.9405 88.1338 49.4291 87.7252 49.0639Z" fill="#FEFBF7"/>
<path d="M94.9316 72.3799C95.1501 73.2295 95.8089 73.685 96.2556 74.2796C98.1717 76.7932 99.3016 79.6494 99.8013 82.7968C100.111 84.7371 100.209 86.6958 99.9507 88.6839C99.94 88.7646 99.909 88.8663 100.019 88.902C101.07 84.6737 99.9198 76.7133 94.9316 72.3799Z" fill="#FEFBF7"/>
<path d="M107.09 53.5498C105.284 56.7454 103.58 66.5351 104.43 68.6653C104.516 67.4819 104.565 66.4857 104.664 65.4875C104.764 64.4692 104.893 63.4597 105.043 62.4394C105.187 61.4544 105.356 60.4735 105.556 59.5014C105.765 58.4987 106.01 57.4997 106.27 56.5051C106.53 55.5105 106.82 54.5348 107.09 53.5498Z" fill="#FEFBF7"/>
<path d="M87.8485 91.6495C85.7386 90.0623 84.3609 87.9892 83.1852 85.7675C82.0046 83.541 81.3576 81.1427 81.5556 78.5602C81.1697 78.4802 81.1577 78.7115 81.1212 78.8686C80.9646 79.5573 81.009 80.2381 81.1035 80.9169C81.4335 83.4032 82.4588 85.5907 83.7765 87.6461C84.678 89.0556 85.8021 90.2655 87.073 91.3441C87.3073 91.5405 87.3072 91.5405 87.8485 91.6495Z" fill="#FEFBF7"/>
<path d="M49.8109 113.045C50.3455 113.36 50.9431 113.372 51.5254 113.409C54.181 113.579 56.8381 113.568 59.4719 112.794C60.6201 112.457 61.6892 111.972 62.6598 111.261C62.8519 111.122 63.089 111.007 63.0565 110.702C62.812 110.526 62.669 110.783 62.5275 110.879C60.946 111.952 59.1737 112.435 57.3477 112.744C55.3155 113.086 53.2814 113.072 51.2423 113.053C50.7702 113.042 50.293 113.046 49.8109 113.045Z" fill="#FEFBF7"/>
<path d="M63.6496 114.45C63.9518 114.925 64.2732 114.923 64.5438 115.002C65.5708 115.297 66.6397 115.39 67.7141 115.438C71.6653 115.606 75.4595 114.781 79.1206 113.098C79.171 113.076 79.2266 113.038 79.2671 112.997C79.2823 112.981 79.2827 112.941 79.3089 112.814C76.7886 113.849 74.2461 114.548 71.6064 114.88C68.9516 115.207 66.3626 114.919 63.6496 114.45Z" fill="#FEFBF7"/>
<path d="M95.6763 69.5715C95.572 63.7355 97.3179 58.2623 99.6657 52.8856C99.404 52.9463 99.342 53.1396 99.25 53.3241C97.1944 57.4538 95.9507 61.792 95.4338 66.3071C95.3086 67.4018 95.2637 68.5134 95.6763 69.5715Z" fill="#FEFBF7"/>
<path d="M105.822 80.6668C105.957 80.1496 105.919 79.84 105.882 79.5304C105.634 77.3674 104.817 75.4428 103.718 73.6298C103.095 72.6008 102.329 71.6878 101.508 70.8322C100.867 70.1702 100.129 69.5773 99.2789 69.1694C98.889 68.9842 98.4791 68.7897 97.9058 68.9128C102.553 71.3979 104.958 75.387 105.822 80.6668Z" fill="#FEFBF7"/>
<path d="M79.7315 91.978C78.6608 90.9717 77.8215 89.9059 77.139 88.7184C76.4316 87.4968 75.9259 86.1868 75.6066 84.8041C75.297 83.4512 75.4146 82.0561 75.4268 80.6602C75.0463 81.112 74.9565 81.6226 74.9167 82.1512C74.7933 83.642 75.0722 85.0564 75.5673 86.427C76.2979 88.4408 77.4123 90.1983 78.9459 91.6731C79.165 91.8852 79.17 91.88 79.7315 91.978Z" fill="#FEFBF7"/>
<path d="M115.603 52.6333C116.92 50.291 118.272 37.5887 117.05 34.3589C117.534 40.4301 116.923 46.4648 115.603 52.6333Z" fill="#FEFBF7"/>
<path d="M49.4827 51.2073C49.5162 51.4316 49.6711 51.5008 49.8208 51.5953C51.2235 52.4283 52.5198 53.4008 53.7604 54.4606C55.2501 55.7314 56.5682 57.1691 57.967 58.5336C58.3005 58.8565 58.634 59.1795 59.008 59.4608C57.3142 57.3058 55.5496 55.2236 53.3763 53.5131C52.4143 52.7533 51.447 52.0187 50.3734 51.4336C50.1038 51.2836 49.8397 51.0683 49.4827 51.2073Z" fill="#FEFBF7"/>
<path d="M78.0989 33.0025C80.8575 36.1997 83.0711 39.7597 84.8758 43.6019C84.2294 40.4866 80.2634 34.0357 78.0989 33.0025Z" fill="#FEFBF7"/>
<path d="M77.3197 86.7805C78.7253 91.0536 83.482 94.7289 86.7417 94.882C86.0883 94.401 85.3664 94.3391 84.7922 93.9955C84.188 93.643 83.5533 93.3419 82.9694 92.9585C82.3605 92.5611 81.7517 92.1537 81.2391 91.6371C80.7464 91.1399 80.2436 90.653 79.7307 90.1766C79.2128 89.6954 78.8261 89.1188 78.4395 88.5321C78.0578 87.9502 77.6913 87.3627 77.3197 86.7805Z" fill="#FEFBF7"/>
<path d="M43.2917 86.7854C43.762 87.5545 44.4767 87.9226 45.1104 88.3641C46.6522 89.452 48.1838 90.5503 49.8629 91.4371C51.1321 92.1093 52.4424 92.6795 53.8962 92.8927C54.207 92.9406 54.5274 93.0382 54.8447 92.9202C54.9071 92.6669 54.7466 92.6431 54.6063 92.6186C51.7749 92.0737 49.3626 90.649 46.9808 89.183C45.7473 88.4341 44.5596 87.6182 43.2917 86.7854Z" fill="#FEFBF7"/>
<path d="M109.814 79.3917C114.096 78.7852 120.645 73.3506 122.205 70.1484C118.823 74.2518 114.855 77.5341 109.814 79.3917Z" fill="#FEFBF7"/>
<path d="M88.5376 100.658C87.9506 101.143 87.5837 101.741 87.1069 102.262C85.7222 103.769 84.0595 104.875 82.2875 105.834C80.8486 106.62 79.3604 107.307 77.8229 107.865C77.6415 107.933 77.3954 107.908 77.2672 108.209C77.6996 108.182 78.0877 108.051 78.4707 107.915C80.9353 107.059 83.2966 105.95 85.4205 104.379C86.5735 103.529 87.5972 102.514 88.2916 101.23C88.3886 101.05 88.4556 100.852 88.5376 100.658Z" fill="#FEFBF7"/>
<path d="M69.2922 118.873C67.5539 118.963 66.0121 118.979 64.4872 118.8C62.9221 118.611 61.3779 118.332 59.8597 117.945C58.3767 117.563 56.9914 116.921 55.4236 116.466C55.6452 116.964 56.0513 117.034 56.3715 117.171C59.0328 118.33 61.8546 118.945 64.7801 119.184C66.0044 119.286 67.2302 119.227 68.4563 119.138C68.6824 119.114 68.9184 119.119 69.2922 118.873Z" fill="#FEFBF7"/>
<path d="M65.8408 42.6187C65.5571 42.9211 65.6857 43.1468 65.7341 43.3557C65.9655 44.4607 66.3632 45.5038 66.8214 46.5144C67.7428 48.5305 68.7449 50.5031 69.974 52.3513C70.1574 52.6201 70.3561 52.8631 70.6559 53.0318C68.8676 49.6601 67.1396 46.2859 65.8408 42.6187Z" fill="#FEFBF7"/>
<path d="M88.4541 75.2974C87.6502 78.2359 89.6091 85.0547 92.2262 87.2241C91.0161 85.5055 90.1186 83.6339 89.4885 81.616C88.8536 79.5733 88.6965 77.4361 88.4541 75.2974Z" fill="#FEFBF7"/>
<path d="M39.4904 88.5366C40.0368 89.2074 40.644 89.8156 41.3324 90.3302C42.3049 91.0594 43.2419 91.8452 44.2804 92.4964C45.2939 93.1337 46.3228 93.7352 47.4893 94.0853C48.2052 94.3028 48.3508 94.3021 48.9448 94.0879C48.9607 93.9919 48.9313 93.9028 48.8311 93.8867C47.0469 93.576 45.5488 92.672 44.071 91.737C42.4833 90.7362 41.0325 89.5744 39.4904 88.5366Z" fill="#FEFBF7"/>
<path d="M101.837 74.9726C101.913 75.4214 102.147 75.7284 102.304 76.0735C103.186 78.0415 103.775 80.1015 103.937 82.2942C104.085 84.3317 103.741 86.2885 102.745 88.1509C102.643 88.3357 102.576 88.5342 102.468 88.7946C103.054 88.4498 103.245 87.905 103.485 87.4083C104.17 86.0052 104.399 84.5149 104.357 83.0154C104.282 80.1565 103.426 77.5449 102.052 75.1196C102.012 75.071 101.947 75.0485 101.837 74.9726Z" fill="#FEFBF7"/>
<path d="M98.5701 91.7609C97.9803 91.4831 97.4211 91.134 96.8974 90.7483C96.6878 90.596 96.4785 90.4237 96.3044 90.2349C94.5837 88.3462 93.1606 86.2702 92.2171 83.8592C92.0646 83.4789 91.8568 83.1258 91.6691 82.762C91.6444 82.7178 91.5743 82.7005 91.4245 82.6061C92.2169 84.4863 92.8591 86.3223 93.8942 87.9721C94.6471 89.1665 95.5871 90.198 96.6231 91.1404C97.0714 91.5441 97.5964 91.7793 98.1723 91.9321C98.2974 91.9723 98.4525 92.0314 98.5701 91.7609Z" fill="#FEFBF7"/>
<path d="M44.09 74.5665C44.0649 73.9852 43.7963 73.6948 43.6133 73.3758C42.3763 71.287 41.2452 69.1387 40.5628 66.7767C40.3532 66.0473 40.2191 65.2997 40.0498 64.5586C39.743 64.626 39.8315 64.8434 39.8302 64.994C39.8498 65.6206 39.9801 66.2328 40.1406 66.8337C40.8554 69.5106 42.1098 71.91 43.6719 74.1515C43.7512 74.2688 43.8709 74.3544 44.09 74.5665Z" fill="#FEFBF7"/>
<path d="M86.1074 95.7882C83.1701 97.8692 80.294 99.8374 77.0364 101.183C77.2403 101.431 77.4121 101.323 77.5682 101.282C79.0086 100.893 80.3163 100.173 81.5941 99.4139C83.0638 98.5466 84.449 97.5672 85.7052 96.402C85.8419 96.281 85.9935 96.1745 86.1074 95.7882Z" fill="#FEFBF7"/>
<path d="M70.1997 94.5583C72.1718 94.7254 74.0737 94.8752 75.9753 95.0552C77.892 95.2396 79.7356 95.7381 81.5328 96.3741C81.6815 96.0217 81.4758 95.9948 81.3308 95.9253C80.2656 95.4308 79.1387 95.0893 77.9602 94.9105C75.5831 94.5438 73.174 94.3992 70.7535 94.3956C70.5979 94.3968 70.4176 94.3337 70.1997 94.5583Z" fill="#FEFBF7"/>
<path d="M85.3513 64.4029C86.6352 67.4784 87.8953 70.3992 89.6698 73.0487C89.8383 73.3029 90.0167 73.5768 90.3776 73.6328C90.586 73.3384 90.3719 73.1311 90.2679 72.9697C88.4431 70.3322 87.1027 67.4046 85.5857 64.5793C85.5759 64.5596 85.5458 64.5508 85.3513 64.4029Z" fill="#FEFBF7"/>
<path d="M59.7074 92.5532C55.4234 90.5399 56.5806 92.0043 49.8512 85.9136C51.6835 88.8814 56.4624 92.3351 59.7074 92.5532Z" fill="#FEFBF7"/>
<path d="M55.0201 114.291C50.6286 114.567 46.3647 114.035 42.2071 112.846C44.2344 114.16 50.7444 115.105 55.0201 114.291Z" fill="#FEFBF7"/>
<path d="M80.6285 107.989C77.166 109.875 73.4293 110.391 69.5584 110.747C71.5499 111.621 78.8697 109.781 80.6285 107.989Z" fill="#FEFBF7"/>
<path d="M53.3586 43.3588C55.5456 45.9113 57.3842 48.7135 59.115 51.8058C58.98 49.9348 55.1022 44.3084 53.3586 43.3588Z" fill="#FEFBF7"/>
<path d="M88.4589 88.0245C87.4888 86.4169 86.4616 85.0274 85.6918 83.472C84.8726 81.8283 84.3705 80.0966 84.2813 78.228C84.2683 77.9826 84.3562 77.693 84.0368 77.4648C83.8372 77.9094 83.8839 78.3091 83.9005 78.71C83.9709 80.4388 84.5599 81.9913 85.3151 83.4921C86.0259 84.8992 86.9437 86.1726 87.8615 87.436C88.0005 87.6212 88.19 87.7642 88.4589 88.0245Z" fill="#FEFBF7"/>
<path d="M43.4636 94.9412C40.4536 93.0579 37.6338 91.2274 35.3875 88.547C35.8046 90.3661 41.2392 94.5768 43.4636 94.9412Z" fill="#FEFBF7"/>
<path d="M115.164 61.229C114.519 63.2286 113.873 65.2282 113.113 67.1873C112.352 69.1664 111.411 71.0723 110.564 73.1302C111.994 71.5462 115.094 63.5221 115.164 61.229Z" fill="#FEFBF7"/>
<path d="M42.8422 67.7215C42.333 66.2359 41.833 64.8503 41.3782 63.4578C40.9333 62.0851 40.7853 60.6352 40.6823 59.2086C40.311 59.1733 40.3193 59.3738 40.3027 59.5501C40.2435 60.5766 40.3401 61.5817 40.5977 62.5603C41.0351 64.2195 41.6337 65.812 42.4895 67.2888C42.5637 67.4113 42.6683 67.5126 42.8422 67.7215Z" fill="#FEFBF7"/>
<path d="M97.4803 84.7423C97.4113 81.1311 95.9568 78.062 93.9331 75.2114C93.7659 75.3837 93.8402 75.5063 93.9095 75.6139C95.6029 78.3472 96.8528 81.2688 97.4121 84.494C97.4265 84.5788 97.4559 84.6579 97.4803 84.7423Z" fill="#FEFBF7"/>
<path d="M85.6504 107.249C84.2038 108.351 82.8071 109.502 81.2117 110.379C79.6416 111.24 77.9878 111.899 76.1774 112.659C79.201 112.222 84.0379 109.538 85.6504 107.249Z" fill="#FEFBF7"/>
<path d="M97.4107 40.3802C96.9815 36.6523 96.2855 32.9903 95.0913 29.4536C95.216 30.6886 95.5421 31.8754 95.7876 33.0755C96.0381 34.2904 96.3237 35.4989 96.5591 36.7194C96.8044 37.9496 97.0044 39.1866 97.2295 40.4276C97.2949 40.4099 97.3553 40.3975 97.4107 40.3802Z" fill="#FEFBF7"/>
<path d="M86.0215 76.1847C86.2665 74.5688 84.3585 69.9469 82.8462 68.3408C83.285 69.272 83.6595 70.0802 84.0441 70.888C84.4583 71.7549 84.8322 72.6434 85.1406 73.5597C85.4292 74.4366 85.5516 75.3753 86.0215 76.1847Z" fill="#FEFBF7"/>
<path d="M88.4189 28.959C87.752 31.7067 88.6749 36.3989 89.9655 38.1044C90.1431 37.9015 89.999 37.7215 89.9352 37.5584C88.794 34.8429 88.3423 31.9642 88.4189 28.959Z" fill="#FEFBF7"/>
<path d="M54.7558 101.503C51.9352 101.305 49.114 101.177 46.3256 100.746C46.2872 101.114 46.4882 101.096 46.6085 101.121C49.2862 101.586 52.0015 101.764 54.7558 101.503Z" fill="#FEFBF7"/>
<path d="M100.434 43.5434C100.824 40.3448 100.67 37.2583 99.2339 34.3989C99.5369 35.918 99.9708 37.4018 100.168 38.9502C100.361 40.4738 100.312 42.017 100.434 43.5434Z" fill="#FEFBF7"/>
<path d="M88.8069 98.4558C87.9776 99.6595 87.2048 100.725 86.1021 101.553C85.0551 102.333 83.9037 102.961 82.8155 103.863C83.3031 103.869 83.5967 103.617 83.8897 103.444C84.7585 102.937 85.6323 102.436 86.4266 101.826C87.3221 101.133 88.128 100.332 88.7042 99.3293C88.842 99.0777 88.9596 98.8368 88.8069 98.4558Z" fill="#FEFBF7"/>
<path d="M57.6685 52.2619C55.5537 50.7098 54.343 48.4149 52.7939 46.3892C53.3748 47.7708 54.1776 49.0133 55.0157 50.2193C55.5613 51.0005 56.2077 51.7275 57.0516 52.231C57.1964 52.3206 57.3717 52.3589 57.5318 52.4128C57.5773 52.3658 57.6229 52.3189 57.6685 52.2619Z" fill="#FEFBF7"/>
<path d="M76.7479 32.6343C76.9782 33.3024 80.4334 37.8617 81.0706 38.4887C79.9287 36.3716 78.6796 34.4945 77.1881 32.7975C77.0837 32.6762 76.9595 32.5256 76.7479 32.6343Z" fill="#FEFBF7"/>
<path d="M118.528 64.0995C120.193 61.5871 121.031 58.7812 121.629 55.8945C121.212 56.5239 121.165 57.2691 120.913 57.9472C120.666 58.6301 120.464 59.3262 120.202 60.0047C119.929 60.7137 119.622 61.399 119.305 62.0847C119.002 62.7446 118.67 63.3857 118.348 64.0364C118.408 64.0642 118.468 64.0819 118.528 64.0995Z" fill="#FEFBF7"/>
<path d="M62.2829 50.5884C62.0187 49.1788 61.3465 47.951 60.6893 46.7175C60.2694 45.9263 59.7027 45.2763 59.045 44.7003C58.9254 44.5946 58.8215 44.4231 58.5042 44.5511C58.6555 45.052 59.1508 45.2481 59.4238 45.6136C59.7017 45.9839 59.9897 46.3539 60.2374 46.7455C60.4999 47.1616 60.727 47.6042 60.9592 48.0416C61.1816 48.4493 61.409 48.8617 61.6214 49.2698C61.8536 49.7072 62.0658 50.1454 62.2829 50.5884Z" fill="#FEFBF7"/>
<path d="M86.4827 82.6861C85.8967 80.7918 85.612 78.8956 85.2469 77.0226C85.2421 76.9876 85.1468 76.9764 85.0918 76.9535C84.8957 76.9764 84.8743 77.1379 84.868 77.2837C84.8706 77.5497 84.8732 77.8257 84.9212 78.0848C85.1893 79.5701 85.5834 81.0152 86.1487 82.4032C86.193 82.5069 86.2422 82.6153 86.4827 82.6861Z" fill="#FEFBF7"/>
<path d="M107.725 82.3352C109.168 82.6692 112.145 81.7616 113.99 80.4072C113.452 80.474 113.007 80.8232 112.508 80.9988C111.994 81.1801 111.49 81.3911 110.972 81.5374C110.423 81.6949 109.854 81.783 109.3 81.9357C108.792 82.0615 108.245 82.0181 107.725 82.3352Z" fill="#FEFBF7"/>
<path d="M53.3819 51.656C52.6614 50.7864 52.1026 49.7999 51.5438 48.8134C50.99 47.8317 50.673 46.7453 50.2603 45.6978C50.1846 47.4974 51.7459 50.4163 53.3819 51.656Z" fill="#FEFBF7"/>
<path d="M105.473 69.3227C105.498 67.037 105.799 64.7854 106.252 62.3369C105.719 62.996 105.809 63.5999 105.679 64.1424C105.543 64.7303 105.458 65.3263 105.387 65.9166C105.322 66.4816 105.277 67.0458 105.267 67.6136C105.251 68.1967 105.226 68.7802 105.473 69.3227Z" fill="#FEFBF7"/>
<path d="M55.9865 52.1747C56.0375 52.0823 56.0678 52.061 56.063 52.0361C56.0585 51.9811 56.0541 51.906 56.0192 51.8723C54.9386 50.8664 53.9945 49.7397 53.1313 48.5396C53.8017 49.9782 54.5429 51.3539 55.9865 52.1747Z" fill="#FEFBF7"/>
<path d="M57.3059 43.9561C57.3497 44.12 57.3488 44.2304 57.4035 44.2834C58.4285 45.3467 59.2714 46.5677 60.2711 47.647C59.7064 46.1691 58.6138 44.8074 57.3059 43.9561Z" fill="#FEFBF7"/>
<path d="M43.8329 72.3637C43.3335 70.888 42.3145 69.709 41.8149 68.2534C41.8604 69.3909 42.9359 71.5964 43.8329 72.3637Z" fill="#FEFBF7"/>
<path d="M108.617 88.2282C107.146 88.1515 105.774 87.7646 104.314 87.0498C105.073 88.0887 107.157 88.6279 108.617 88.2282Z" fill="#FEFBF7"/>
<path d="M72.9654 86.6533C72.7649 86.0141 72.174 85.8669 71.8005 85.5154C71.4022 85.1398 71.0139 84.7538 70.5559 84.3103C70.6348 85.0948 71.77 86.1737 72.9654 86.6533Z" fill="#FEFBF7"/>
</g>
</svg>
