<svg width="126" height="164" viewBox="0 0 126 164" fill="none" xmlns="http://www.w3.org/2000/svg">
<g opacity="0.2">
<path d="M-11.2646 125.223C-10.7519 124.831 -6.72056 122.466 -6.18567 122.116C-4.80801 121.212 -3.48258 120.224 -2.13827 119.273C-1.62401 118.569 -0.738996 118.304 -0.228073 117.595C-0.187462 117.538 -0.119011 117.511 -0.0605645 117.47C0.673589 116.915 1.32085 116.265 2.02048 115.671C2.47602 115.285 2.92156 114.884 3.35259 114.473C3.94678 113.911 4.5488 113.35 5.12631 112.764C5.60476 112.277 6.11221 111.811 6.59516 111.321C7.14337 110.77 7.67375 110.203 8.22748 109.67C8.83747 109.082 9.39394 108.447 9.98277 107.839C10.8339 106.954 11.6651 106.039 12.4951 105.133C13.0469 104.53 13.5854 103.908 14.1373 103.305C14.6789 102.716 15.2306 102.142 15.7757 101.557C16.225 101.076 16.6754 100.588 17.1247 100.107C17.7789 99.4099 18.4265 98.7036 19.0985 98.0225C19.6468 97.4716 20.234 96.9568 20.8001 96.4216C21.1467 96.0912 21.4866 95.7515 21.8121 95.4007C22.0936 95.1023 22.4253 94.8463 22.7301 94.5809C23.197 94.1726 23.6538 93.7501 24.1207 93.3417C24.8666 92.6793 25.7204 92.16 26.4506 91.4944C27.4982 90.5334 28.7192 89.8181 29.8435 88.9657C30.2291 88.6716 30.6137 88.3569 31.0416 88.132C32.0029 87.6218 32.843 86.9209 33.7876 86.387C34.3324 86.0794 34.816 85.6663 35.3817 85.436C36.0932 85.145 36.6625 84.643 37.3485 84.3063C37.9166 84.0318 38.4783 83.6909 39.0299 83.3644C39.6174 83.0123 40.2016 82.6556 40.8402 82.3949C41.2173 82.2414 41.5423 81.976 41.9262 81.8035C42.676 81.4712 43.3661 80.997 44.1192 80.6695C45.1833 80.1998 46.2308 79.7066 47.2982 79.2416C48.68 78.6393 50.0661 78.0622 51.4887 77.5655C51.6548 77.5047 51.7788 77.3461 52.0129 77.3434C51.9356 77.7878 51.8596 78.1958 51.7915 78.6054C51.5456 80.0619 51.6088 81.5264 51.7536 83.011C51.8942 84.442 52.2984 85.8068 52.8281 87.1395C53.108 87.8413 53.3708 88.5764 53.8662 89.1824C54.071 89.4343 54.0839 89.7581 54.2875 90.0179C54.7182 90.5704 55.2119 91.05 55.7369 91.5642C55.9077 92.1022 55.7526 92.6655 55.7587 93.228C55.809 95.6865 56.2349 98.0846 57.1808 100.398C57.8723 102.084 58.8086 103.639 59.9652 105.038C60.8313 106.083 61.7986 107.043 62.8661 107.896C64.5427 109.239 66.4116 110.205 68.3154 111.125C69.0863 111.5 69.8697 111.846 70.626 112.239C72.3183 113.117 74.0413 113.924 75.6669 114.927C75.8701 115.053 76.0643 115.185 76.263 115.313C76.6415 115.563 77.0311 115.818 77.5172 115.8C78.1412 115.557 78.3957 115.058 78.4651 114.393C78.5287 113.767 78.4354 113.167 78.2122 112.574C77.5733 110.886 76.9132 109.206 76.2912 107.514C75.7675 106.085 75.2988 104.638 74.7739 103.217C74.4944 102.458 74.2026 101.701 73.7984 100.995C73.734 100.885 73.6976 100.776 73.7611 100.617C74.0039 100.665 74.1687 100.86 74.3686 100.981C75.6605 101.76 77.0124 102.405 78.4109 102.924C80.2107 103.592 82.061 104.025 83.9322 104.317C85.8906 104.617 87.8511 104.739 89.8139 104.625C91.2524 104.542 92.6504 104.269 94.0551 104.004C95.999 103.635 97.909 103.112 99.9011 102.963C100.345 102.933 100.72 102.795 100.891 102.341C100.968 102.144 101.006 101.94 100.922 101.716C100.754 101.269 100.576 100.835 100.361 100.406C99.9206 99.5344 99.2669 98.7996 98.8153 97.95C98.3926 97.1509 97.8564 96.4393 97.3528 95.6975C97.0815 95.2942 96.9528 94.8256 96.6468 94.4399C96.3686 94.0841 96.0747 93.7252 95.9449 93.2645C95.8942 93.0877 95.7348 92.9384 95.6214 92.7777C95.1043 92.0455 94.5839 91.3084 94.0301 90.5242C94.2541 90.5073 94.4032 90.4797 94.5589 90.49C95.8777 90.5912 97.151 90.3986 98.4202 90.1239C99.7937 89.825 101.075 89.3006 102.346 88.7414C102.867 88.5146 103.353 88.1914 103.857 87.9204C105.219 87.2044 106.404 86.238 107.659 85.3708C108.305 84.9284 108.777 84.2609 109.471 83.9258C109.529 83.807 109.562 83.7199 109.617 83.6454C110.205 82.8256 109.749 82.1136 109.198 81.639C108.618 81.1425 107.982 80.7284 107.346 80.3143C106.051 79.4735 104.756 78.6328 103.482 77.7556C102.201 76.8768 100.922 76.0107 99.473 75.4488C99.416 75.4254 99.375 75.3482 99.3159 75.2837C99.6717 74.6989 100.031 74.1188 100.382 73.5372C100.878 72.7116 101.364 71.8718 101.86 71.0462C102.381 70.1809 102.925 69.3282 103.425 68.4504C103.774 67.8277 104.126 67.2177 104.632 66.7033C105.049 66.281 105.059 66.1814 105.102 65.3927C104.578 64.2685 103.571 63.7203 102.619 63.1465C101.149 62.2671 99.6771 61.3956 98.2799 60.4005C97.6628 59.9658 97.1145 59.4185 96.4973 58.9838C95.6023 58.356 94.714 57.7092 93.6784 57.188C94.0336 56.717 94.3651 56.2698 94.6921 55.8258C95.3417 54.941 95.8931 53.9839 96.4623 53.0426C97.2077 51.8065 97.6481 50.4249 98.284 49.1388C98.3995 48.9012 98.4299 48.6388 98.4402 48.3764C98.4624 47.9781 98.332 47.6311 97.9815 47.3831C97.6858 47.1744 97.3741 47.0195 97.0546 46.863C96.1395 46.4265 95.1695 46.2273 94.2099 45.957C93.7804 45.8358 93.3246 45.8395 92.8834 45.8259C92.6907 45.8205 92.5083 45.8008 92.3293 45.7574C92.3026 45.5 92.4782 45.319 92.532 45.0896C92.7769 44.0519 92.5032 43.4733 91.5925 43.0621C90.9008 42.7509 90.1592 42.5601 89.4426 42.3092C88.9327 42.1315 88.4286 41.9427 87.8584 41.7368C88.6569 40.8529 89.7126 40.2758 90.0256 39.0765C90.0757 38.6797 89.8689 38.3868 89.6384 38.1177C88.5973 37.3595 87.4107 37.0159 86.2411 36.6391C85.2671 36.3294 84.2977 36.0164 83.3088 35.781C82.5022 35.5936 81.6752 35.4633 80.8546 35.3993C79.5951 35.3058 78.3361 35.3181 77.1007 35.5547C76.5368 35.6633 75.9784 35.7892 75.4255 35.9325C75.2831 35.9696 75.162 35.9986 74.9988 35.9298C75.88 34.4276 76.3891 32.7423 77.0211 31.126C77.3615 30.2616 77.7476 29.4144 78.1103 28.5625C78.2203 28.3076 78.338 28.0542 78.4178 27.7852C78.5557 27.3121 78.548 26.8428 78.1635 26.4702C77.3429 25.9384 76.4921 26.08 75.6904 26.2718C73.7774 26.7329 71.8775 27.2414 69.9391 27.6283C68.9054 27.8355 67.8695 28.0586 66.8413 28.2831C65.6091 28.5529 64.4144 28.9237 63.2672 29.438C62.3916 29.8309 61.5327 30.2474 60.6949 30.7128C60.2086 30.979 59.7368 31.2562 59.2905 31.5791C59.0376 31.7652 58.9361 32.1276 58.5493 32.21C58.345 31.1855 58.2583 30.1557 58.2613 29.1191C58.2604 27.9719 58.3859 26.8415 58.5283 25.7063C58.7546 23.9164 58.9462 22.1157 59.1177 20.3151C59.171 19.7318 59.2133 19.1138 58.6053 18.6442C58.3538 18.7655 58.1447 18.9277 57.9429 19.1767C57.412 19.8572 56.8709 20.5519 56.2386 21.1269C55.7131 21.6051 55.221 22.1304 54.6054 22.5095C53.9762 22.898 53.4225 23.4316 52.7656 23.7619C51.7685 24.2691 50.8949 24.9512 49.9978 25.6002C49.2222 26.1633 48.52 26.8303 47.7877 27.4548C47.1792 27.9776 46.6118 28.5492 46.0534 29.1144C45.2362 29.9336 44.5103 30.8441 43.8815 31.8347C43.474 32.4703 43.0653 33.1138 42.7125 33.7887C41.9887 35.1795 41.5085 36.6671 41.1983 38.233C40.9826 38.1376 40.9424 37.8897 40.7548 37.7674C40.6252 37.7174 40.4954 37.6959 40.3583 37.7787C39.8775 38.0623 39.4936 38.4545 39.1621 38.9016C38.2081 40.1861 37.5222 41.621 36.9401 43.117C36.6541 43.8579 36.3883 44.5987 36.1627 45.3678C35.7034 46.9327 35.4075 48.538 35.4058 50.1971C35.4041 52.324 35.8989 54.3616 36.6425 56.3791C37.0182 57.3885 37.4377 58.3741 37.9449 59.3119C38.4797 60.308 39.0413 61.3134 39.775 62.19C41.2846 63.9841 42.8236 65.7434 44.7554 67.1041C46.387 68.2593 48.1172 69.1817 49.9799 69.8332C50.5702 70.039 51.1733 70.1578 51.7539 70.2925C51.9402 70.4227 52.0313 70.5708 52.0313 70.7904C52.0276 71.3103 52.0518 71.8317 52.0638 72.3546C52.0909 73.1857 52.3019 74 52.4175 74.8322C52.4566 75.088 52.5549 75.3514 52.4305 75.5953C51.1906 76.0548 49.9552 76.511 48.7274 76.9973C47.585 77.4515 46.4725 77.9767 45.3233 78.4215C44.6871 78.6663 44.0917 79.0168 43.4753 79.3184C42.777 79.6567 42.0765 79.9825 41.3715 80.3113C40.9987 80.4901 40.6482 80.7099 40.2888 80.9075C39.789 81.1833 39.2802 81.4654 38.7683 81.7144C38.1698 82.0032 37.6769 82.4796 37.0186 82.655C36.9726 82.6663 36.9355 82.6997 36.9028 82.7298C36.2786 83.2495 35.5321 83.5865 34.8247 83.9597C33.9903 84.4014 33.2959 85.0699 32.3949 85.3887C32.3309 85.4127 32.2758 85.4588 32.2207 85.5049C30.5626 86.728 28.6976 87.6581 27.104 88.9631C26.1739 89.7276 25.1838 90.4071 24.2548 91.1637C23.8657 91.4816 23.5256 91.8498 22.9527 92.1843C23.5688 91.5004 24.0624 90.9102 24.5982 90.3609C25.5551 89.3861 26.4697 88.3704 27.3452 87.3186C28.3188 86.1478 29.318 84.9942 30.1846 83.7291C31.4923 81.8188 32.5508 79.7943 33.2241 77.5393C33.5909 76.3019 33.9376 75.0646 34.1815 73.7866C34.2943 73.1825 34.4463 72.586 34.5043 71.9711C34.7021 69.8259 34.8473 67.6825 34.8034 65.51C34.748 62.7292 34.4516 59.9702 33.9234 57.2264C33.5317 55.1725 33.048 53.1412 32.4735 51.1245C32.1181 49.8668 31.7414 48.6172 31.3187 47.3788C30.833 45.9653 30.3182 44.5583 29.7652 43.1641C29.3627 42.1453 29.0016 41.1183 28.6035 40.0963C27.9656 38.4576 27.2894 36.8317 26.7917 35.1433C26.4305 33.9252 26.2049 32.689 25.9838 31.4497C25.8475 30.7029 25.6587 29.958 25.5348 29.2096C25.4706 28.8228 25.2222 28.5664 25.0432 28.3034C24.794 28.1892 24.6191 28.228 24.5218 28.4244C24.3859 28.7189 24.2533 29.0182 24.1666 29.3347C23.9098 30.2887 23.6575 31.2396 23.4399 32.2014C23.2325 33.1204 22.9067 33.9958 22.6233 34.8836C22.1874 36.262 21.7403 37.6341 21.2318 38.986C20.7709 40.2049 20.2687 41.4035 19.7553 42.5958C19.0108 44.3202 18.2395 46.0352 17.4424 47.7329C16.9172 48.8415 16.4209 49.9721 16.1035 51.1745C15.9379 51.809 15.7521 52.4435 15.6592 53.1045C15.5463 53.9567 15.3987 54.798 15.2936 55.6518C15.0474 57.6045 15.0767 59.5748 15.2661 61.5522C15.4321 63.2769 15.8156 64.9753 16.2696 66.6592C16.5895 67.8569 16.8432 69.0661 17.1048 70.2768C17.5482 72.3084 17.8806 74.3546 18.2085 76.4041C18.4277 77.7936 18.5618 79.1866 18.6746 80.5877C18.7971 82.0598 18.7953 83.5277 18.8058 84.994C18.8124 85.4712 18.7551 85.944 18.7102 86.4151C18.5847 87.7651 18.4938 89.126 18.2306 90.453C17.7216 93.0169 17.0738 95.5372 15.9364 97.8796C15.5618 98.6478 15.1906 99.4207 14.749 100.151C14.4779 100.598 14.1287 101.001 13.774 101.387C12.8707 102.38 11.9318 103.342 11.0564 104.366C10.2103 105.354 9.25052 106.239 8.38658 107.212C7.79748 107.877 7.14483 108.48 6.56573 109.159C6.07452 109.734 5.44958 110.176 4.94053 110.735C4.40219 111.328 3.79146 111.838 3.22861 112.407C2.87851 112.761 2.50158 113.106 2.1258 113.442C1.7039 113.819 1.22065 114.147 0.888977 114.622C0.863014 114.662 0.819228 114.686 0.779919 114.707C0.121617 115.102 -0.325205 115.758 -0.98018 116.158C-1.37452 116.401 -1.61295 116.818 -2.00846 117.07C-2.37249 117.299 -2.77451 117.513 -2.99943 117.92C-4.3842 118.9 -5.76897 119.88 -7.15373 120.86C-7.69381 121.231 -11.4265 123.385 -11.9446 123.73C-11.8612 123.848 -11.5715 123.958 -11.4881 124.076C-10.9933 123.697 -7.42709 121.542 -6.91353 121.2C-4.94588 119.9 -3.01376 118.539 -1.20958 117.007C-1.17694 116.977 -1.12199 116.959 -1.10052 116.923C-0.904887 116.551 -0.543308 116.366 -0.221918 116.152C0.108466 115.933 0.306284 115.573 0.635506 115.361C1.13892 115.034 1.52656 114.561 1.9821 114.175C2.29479 113.911 2.63315 113.664 2.90465 113.352C3.46562 112.714 4.13131 112.186 4.7123 111.576C5.01628 111.262 5.35144 110.982 5.65426 110.676C6.15069 110.176 6.63379 109.657 7.12689 109.152C7.58735 108.677 8.07685 108.225 8.53064 107.74C9.09364 107.144 9.63213 106.522 10.1806 105.914C10.9014 105.12 11.6222 104.327 12.3464 103.538C13.0558 102.767 13.7765 102.002 14.4971 101.236C15.0568 100.635 15.6165 100.033 16.1828 99.4412C16.8448 98.746 17.5024 98.0538 18.1823 97.3743C18.6866 96.8757 19.2054 96.3881 19.7096 95.8895C20.4075 95.1973 21.1544 94.5553 21.849 93.8583C22.2452 93.4645 22.7226 93.1762 23.0999 92.7746C23.7203 92.1159 24.4398 91.5784 25.1503 91.0472C27.3234 89.4171 29.57 87.891 31.7865 86.3223C31.8989 86.2428 32.0048 86.1253 32.1349 86.09C32.6183 85.9533 32.9973 85.6497 33.3751 85.354C33.7765 85.0345 34.2923 84.9245 34.6937 84.605C35.3133 84.1169 36.0495 83.8227 36.7146 83.4086C37.118 83.1586 37.5259 82.877 37.9615 82.6821C38.8875 82.2747 39.7258 81.724 40.6263 81.2709C41.3618 80.8992 42.0972 80.5275 42.8294 80.1511C43.1516 79.9868 43.4629 79.7878 43.7985 79.6424C44.4046 79.3835 45.0085 79.112 45.6146 78.8531C46.3891 78.5175 47.1557 78.1804 47.9336 77.8496C48.6463 77.5507 49.3656 77.2613 50.0817 76.9671C50.1456 76.9431 50.1746 76.9651 50.1755 77.014C50.1934 77.2494 50.0045 77.383 49.9578 77.5365C49.1644 77.8643 48.4035 78.1618 47.657 78.4988C46.8466 78.8598 46.0416 79.2382 45.2367 79.6165C44.6001 79.9182 43.9436 80.1916 43.3237 80.5169C42.5556 80.9188 41.7763 81.3144 41.0082 81.7163C40.1177 82.1835 39.2339 82.6602 38.3601 83.1511C37.6401 83.5543 36.8756 83.904 36.2234 84.4223C36.1683 84.4684 36.1165 84.5192 36.0492 84.5385C35.2618 84.7698 34.7364 85.4676 33.949 85.6989C32.7483 86.6053 31.3764 87.2503 30.1824 88.1662C28.7118 89.292 27.1077 90.2288 25.725 91.4695C25.1264 92.0064 24.4588 92.4647 23.8391 92.9812C23.3431 93.396 22.8861 93.847 22.3868 94.2571C21.685 94.8388 21.0834 95.5337 20.4016 96.1438C20.1609 96.3567 19.9658 96.6152 19.7251 96.8281C19.1783 97.3142 18.6449 97.8193 18.1405 98.3463C17.3512 99.167 16.5865 100.013 15.8072 100.848C15.2476 101.449 14.6812 102.041 14.1249 102.648C13.448 103.389 12.8135 104.171 12.1088 104.882C11.1914 105.808 10.3631 106.812 9.44569 107.738C8.79276 108.398 8.16204 109.1 7.51579 109.77C6.86504 110.443 6.19311 111.095 5.52453 111.753C4.59257 112.667 3.64057 113.554 2.6986 114.454C2.35082 114.792 1.95519 115.072 1.61191 115.407C1.00525 116 0.390758 116.59 -0.294957 117.09C-0.389374 117.157 -0.509473 117.206 -0.571544 117.3C-0.835632 117.699 -1.23781 117.941 -1.62098 118.191C-2.01316 118.448 -2.27943 118.834 -2.65709 119.102C-3.72482 119.843 -4.77919 120.603 -5.84024 121.354C-6.04706 121.501 -6.24068 121.694 -6.47854 121.778C-7.08216 121.992 -10.9779 124.421 -11.4915 124.763C-11.4194 124.904 -11.3514 125.1 -11.2646 125.223ZM56.7319 54.129C56.7451 54.1763 56.8388 54.2517 56.6977 54.2524C56.7158 54.2113 56.7373 54.1748 56.7554 54.1336C56.7065 54.0548 56.7125 53.9869 56.7811 53.9313C56.7751 53.3403 56.7848 52.7524 56.771 52.16C56.7262 50.5974 56.7094 49.0363 56.4429 47.4748C56.0926 45.4128 55.4644 43.4059 55.0312 41.3601C54.7249 39.9047 54.5228 38.4535 54.4193 36.9892C54.3473 35.9419 54.3951 34.902 54.435 33.8604C54.486 32.634 54.6657 31.437 54.9146 30.2617C55.2061 28.8793 55.7524 27.5999 56.4205 26.369C57.1711 24.9875 57.8961 23.5887 58.3428 22.0539C58.3736 21.9542 58.4455 21.9032 58.5286 21.8586C58.4998 21.8082 58.4619 21.7641 58.5327 21.7211C58.5962 21.7824 58.5389 21.8159 58.5051 21.854C58.4781 22.9997 58.2116 24.1023 58.1532 25.2419C58.119 26.0242 57.974 26.7929 57.9028 27.5801C57.7557 29.2147 57.8875 30.8432 58.1111 32.4776C58.2741 33.7014 58.4079 34.9317 58.5058 36.159C58.671 38.274 58.6727 40.3772 58.5333 42.481C58.4375 43.9305 58.3071 45.369 58.1531 46.803C57.9477 48.6701 57.6595 50.525 57.2505 52.352C57.1507 52.8123 57.0431 53.2711 56.9434 53.7314C56.9205 53.8326 56.8485 53.8835 56.7654 53.9282C56.8266 54.0053 56.8083 54.0749 56.7319 54.129ZM40.7778 41.2088C40.84 41.3065 40.9796 41.399 40.8434 41.5308C40.9348 41.622 40.9465 41.7342 40.9683 41.8605C41.2998 43.6381 42.0061 45.2781 43.0233 46.7759C44.3697 48.7494 45.7667 50.68 47.1445 52.6312C47.2579 52.7918 47.3972 52.9412 47.468 53.1179C47.8255 53.9489 48.3302 54.7113 48.7091 55.5343C49.0182 56.2012 49.3889 56.8599 49.6947 57.5221C50.0481 58.2994 50.4093 59.0783 50.72 59.8716C51.0219 60.6429 51.3237 61.4141 51.6289 62.1901C51.0856 61.5543 50.5657 60.9231 50.0222 60.3158C49.8942 60.1726 49.81 59.9771 49.6628 59.8546C49.0159 59.3204 48.5243 58.6338 47.9247 58.0521C47.3072 57.4546 46.7945 56.7475 46.1815 56.1469C45.9029 55.8764 45.7042 55.5282 45.4074 55.2989C44.8998 54.9142 44.67 54.2832 44.1454 53.9318C43.4929 52.941 42.7134 52.0472 42.1869 50.9673C41.7224 50.0136 41.3476 49.0531 41.1399 48.0238C40.8099 46.401 40.7028 44.7692 40.6998 43.1417C40.7002 42.6171 40.5911 42.0424 40.8534 41.545C40.7833 41.4458 40.6841 41.353 40.8035 41.2261C40.7825 41.1772 40.7413 41.1284 40.8154 41.0901C40.8677 41.1452 40.8228 41.177 40.7778 41.2088ZM81.8942 79.3444C81.8459 79.3715 81.7931 79.4018 81.7532 79.3166C81.815 79.28 81.8517 79.3319 81.8862 79.3713C81.9537 79.3236 82.0095 79.3549 82.0765 79.3925C83.2055 80.046 84.3074 80.7471 85.3607 81.5321C86.7912 82.6029 88.047 83.8752 89.269 85.1856C89.6177 85.5553 89.8921 85.9916 90.2533 86.3312C90.9043 86.9475 91.4091 87.6814 91.9689 88.3693C92.7248 89.2869 93.3827 90.295 94.052 91.281C94.6746 92.2008 95.3286 93.0983 95.9005 94.0611C96.5658 95.1845 97.1893 96.3445 98.0096 97.3724C98.1454 97.5456 98.3046 97.7234 98.3825 98.0438C97.0929 97.0292 95.7437 96.2835 94.4589 95.4285C93.1886 94.5845 92.0605 93.5406 91.0931 92.3618C90.0646 91.1057 89.2047 89.7162 88.383 88.3138C88.3608 88.2728 88.3353 88.2271 88.3131 88.1861C87.9394 87.4373 87.6039 86.6757 87.1954 85.9445C86.8536 85.3362 86.4184 84.7868 86.0912 84.1611C85.6152 83.2579 84.7841 82.6062 84.2374 81.746C83.7517 81.4592 83.5113 80.9278 83.1033 80.5506C82.692 80.1686 82.2267 79.8247 81.8942 79.3444ZM17.7807 94.6189C17.6729 94.4472 17.7611 94.2855 17.81 94.1447C18.1751 93.0289 18.4362 91.8805 18.6001 90.7088C18.8136 89.2256 19.073 87.7596 19.1646 86.2564C19.2231 85.3081 19.257 84.363 19.2472 83.4134C19.2382 82.5412 19.1855 81.6644 19.1294 80.783C19.0445 79.4118 18.9238 78.0377 18.6887 76.6736C18.3298 74.5611 18.0325 72.4403 17.5412 70.3506C17.1585 68.7296 16.8588 67.0924 16.4379 65.4843C15.94 63.6047 15.6741 61.7098 15.5807 59.792C15.5084 58.3623 15.623 56.9491 15.7142 55.5313C15.7287 55.3226 15.7208 55.1015 15.8516 54.9239C15.8541 54.8796 15.7447 54.8011 15.8892 54.8052C15.8677 54.8416 15.8496 54.8828 15.8281 54.9192C15.8725 55.0012 15.9326 55.0862 15.9568 55.1683C16.1371 55.8342 16.3006 56.505 16.4899 57.1646C16.8729 58.509 17.3265 59.8389 17.8879 61.1209C18.343 62.1663 18.771 63.2309 19.3282 64.2395C19.8087 65.111 20.1747 66.0495 20.6025 66.9513C21.1311 68.0722 21.6137 69.2044 22.0177 70.3781C22.6116 72.0976 23.0486 73.8432 23.2646 75.6388C23.4527 77.2133 23.4056 78.7699 23.2701 80.3254C23.1549 81.6328 22.8484 82.8984 22.4971 84.1389C21.8974 86.2497 21.0685 88.2746 20.1312 90.2416C19.6535 91.2458 19.1456 92.2358 18.6121 93.2086C18.3521 93.6902 18.1277 94.2032 17.7539 94.6095C17.7827 94.6599 17.8149 94.7151 17.7296 94.7471C17.6941 94.6872 17.7391 94.6554 17.7807 94.6189ZM25.4689 31.6086C25.5905 31.7138 25.5807 31.8624 25.6125 32.0029C25.8203 33.0037 26.0247 33.9998 26.3109 34.9876C26.7062 36.3304 27.1778 37.6476 27.6999 38.9503C28.253 40.316 28.7725 41.6914 29.2953 43.0715C29.7341 44.2277 30.165 45.3823 30.5657 46.5512C30.9752 47.7423 31.3601 48.9366 31.7314 50.1405C32.3927 52.28 32.9249 54.447 33.3574 56.635C33.7047 58.3873 33.9859 60.1509 34.1517 61.9326C34.2972 63.4946 34.3778 65.0601 34.3588 66.6183C34.3417 67.7782 34.2922 68.9398 34.2472 70.0983C34.2359 70.3401 34.1731 70.5758 34.1257 70.8715C33.9487 70.6496 33.9699 70.4504 33.9394 70.2736C33.7856 69.4542 33.6352 68.6396 33.3737 67.8397C32.9227 66.4371 32.3786 65.065 31.7481 63.7328C31.1674 62.4999 30.5261 61.2957 29.8758 60.098C29.4408 59.3005 29.0574 58.4807 28.6662 57.6593C27.9447 56.1505 27.3208 54.6081 26.7822 53.0338C25.7756 50.09 25.0224 47.0945 24.7333 44.0115C24.4944 41.4101 24.5824 38.8325 24.8619 36.2682C24.9876 35.1093 25.1614 33.9518 25.3542 32.8021C25.4201 32.4083 25.2643 31.9872 25.4867 31.6243C25.4657 31.5754 25.4212 31.5219 25.4986 31.4883C25.56 31.537 25.5105 31.572 25.4689 31.6086ZM64.2221 88.6271C64.1762 88.6384 64.1029 88.7257 64.0991 88.5866C64.1405 88.607 64.1773 88.6305 64.2187 88.6508C64.2848 88.6395 64.3521 88.6202 64.4159 88.6246C65.4236 88.6767 66.4095 88.6309 67.3576 88.2929C68.3056 87.955 69.1113 87.4344 69.8005 86.6916C70.4187 86.0202 70.8471 85.2423 71.1728 84.3954C71.3817 83.8508 71.5313 83.2702 71.5433 82.6665C71.5825 81.1083 71.2093 79.6153 70.6376 78.1564C70.3125 77.3236 69.9784 76.4972 69.6488 75.6676C69.7218 75.6373 69.7668 75.6055 69.8026 75.6084C71.0253 75.6784 72.2334 75.957 73.4489 76.1314C73.9111 76.1939 74.3638 76.3766 74.8292 76.4724C75.9212 76.6915 76.9789 77.0625 78.0116 77.4937C79.1046 77.953 80.0925 78.6072 81.0509 79.3247C81.9692 80.014 82.7941 80.7907 83.5479 81.6672C83.8786 82.0496 84.1496 82.5097 84.5277 82.816C85.245 83.3925 85.5499 84.2253 85.9527 84.9676C86.3622 85.7194 86.7492 86.4871 87.1362 87.2547C87.3647 87.7024 87.6133 88.15 87.8384 88.5929C88.2543 89.411 88.659 90.2229 89.1984 90.9677C89.5532 91.4606 89.9114 91.9582 90.2616 92.4542C90.7354 93.1251 91.3555 93.6499 91.9654 94.189C92.8641 94.9842 93.914 95.5449 94.9008 96.207C95.9467 96.9051 97.0648 97.4955 98.0588 98.2729C98.4136 98.5461 98.766 98.8352 99.0769 99.1608C99.6183 99.727 99.9002 100.47 100.273 101.141C100.442 101.447 100.635 101.835 100.473 102.226C100.241 102.489 99.9367 102.556 99.6005 102.595C98.1494 102.736 96.7345 103.043 95.3195 103.35C94.2453 103.586 93.1535 103.778 92.0695 103.971C89.3937 104.441 86.6886 104.286 83.9801 103.907C82.4603 103.693 80.9568 103.34 79.4775 102.85C77.6528 102.242 75.8982 101.486 74.2447 100.452C73.5915 100.043 72.9304 99.6606 72.7353 98.8209C72.7211 98.753 72.6564 98.6996 72.613 98.6382C72.3106 98.2004 72.0801 97.7116 71.854 97.2481C71.4693 96.4647 70.9689 95.756 70.5291 95.0186C69.8805 93.9188 69.0623 92.9319 68.144 92.023C67.3806 91.2666 66.5991 90.5514 65.7727 89.868C65.2776 89.4248 64.6867 89.1132 64.2221 88.6271ZM55.0615 61.5605C57.1736 55.8145 58.3748 49.9338 58.8982 43.8667C58.9672 43.7257 59.1298 43.6886 59.2065 43.5776C59.7818 42.7595 60.5109 42.1018 61.3269 41.5385C61.9585 41.1057 62.5424 40.5862 63.225 40.2448C64.1345 39.7853 65.0806 39.4063 66.0534 39.0651C67.8429 38.4292 69.6936 38.1185 71.5826 37.9862C73.736 37.8368 75.8881 38.163 78.0254 38.5352C78.9519 38.7014 79.8711 38.972 80.7734 39.2758C82.6184 39.8832 84.3996 40.6773 86.1809 41.4715C87.3989 42.0124 88.6182 42.5454 89.8931 42.9185C90.4567 43.0865 91.0282 43.256 91.5576 43.5473C92.0948 43.8402 92.2267 44.1225 92.134 44.7265C92.1063 44.8878 92.0518 45.0398 91.9849 45.1934C91.5405 46.2732 91.1955 47.3888 90.8584 48.506C90.3175 50.2705 89.7419 52.024 89.1932 53.7869C88.797 55.0593 88.3058 56.2925 87.8002 57.5148C87.1222 59.1425 86.4253 60.7623 85.3766 62.1705C84.5624 63.271 83.7627 64.3825 82.769 65.3338C82.3278 65.7594 81.8854 66.1929 81.4509 66.6279C80.8656 67.2122 80.2324 67.7383 79.5892 68.2502C78.7773 68.8956 77.8388 69.3331 76.9213 69.8194C76.1745 70.2133 75.4011 70.5694 74.609 70.8323C72.5212 71.5234 70.3596 71.9762 68.0896 72.1514C67.9129 71.6529 67.7431 71.1354 67.5429 70.6323C66.9368 69.1057 66.6446 67.5269 66.4982 65.9159C66.3899 64.7313 66.3545 63.5448 66.0994 62.372C65.8902 61.4359 65.5991 60.5366 65.0016 59.7478C64.3741 58.9165 63.5477 58.4528 62.5879 58.2109C62.0208 58.0666 61.4836 58.213 60.9387 58.3294C59.5574 58.6268 58.2912 59.1827 57.0727 59.8538C56.3124 60.2572 55.7669 60.9267 55.0615 61.5605ZM87.9939 83.3034C85.5024 80.7587 82.5364 79.0316 79.3997 77.6166C76.2184 76.1765 72.88 75.4499 69.4594 75.2561C69.0841 74.3809 68.7122 73.5105 68.3214 72.6038C68.5926 72.5677 68.7977 72.543 69.0028 72.5184C70.3308 72.365 71.6413 72.1107 72.931 71.779C74.1488 71.4698 75.317 71.0328 76.4642 70.5185C77.434 70.0872 78.3171 69.533 79.2336 69.0262C79.7907 68.7169 80.2733 68.2833 80.7571 67.8417C81.3299 67.3159 81.8948 66.7886 82.4675 66.2628C83.3755 65.4289 84.1922 64.5037 84.9463 63.5378C86.3205 61.7788 87.401 59.8238 88.1957 57.7026C88.4284 57.0773 88.707 56.4692 88.9428 55.9055C89.1259 55.8114 89.2375 55.8741 89.354 55.8767C89.7168 55.9034 90.0385 56.0725 90.3773 56.1799C91.3926 56.51 92.401 56.8592 93.3324 57.4046C94.7874 58.2525 96.1624 59.2066 97.4786 60.2874C98.7657 61.3463 100.208 62.1958 101.651 63.0169C102.395 63.4399 103.137 63.8788 103.808 64.4097C104.223 64.7395 104.821 65.0321 104.736 65.7721C104.66 65.9605 104.56 66.1522 104.4 66.3362C104.104 66.6805 103.794 67.0059 103.561 67.4116C102.543 69.1593 101.514 70.9009 100.467 72.6267C99.2667 74.6028 98.0149 76.5445 96.4874 78.2774C95.931 78.9121 95.3298 79.5217 94.6453 80.0133C93.8798 80.5621 93.131 81.1346 92.2743 81.5637C91.4355 81.9802 90.619 82.4376 89.7449 82.7657C89.1671 82.9691 88.5958 83.2105 87.9939 83.3034ZM16.0009 98.8685C16.2291 98.2464 16.5968 97.7453 16.8974 97.2066C17.6366 95.8758 18.4126 94.5684 19.1295 93.225C20.0498 91.5109 20.8952 89.7576 21.6279 87.9496C22.3322 86.197 22.9572 84.4084 23.3474 82.5452C23.679 80.9713 23.8753 79.3587 23.8365 77.7281C23.7914 75.7832 23.4651 73.8601 22.946 71.9601C22.3302 69.7035 21.3901 67.5701 20.3692 65.4655C19.9026 64.4991 19.4404 63.5295 18.9906 62.5583C18.2338 60.9328 17.5858 59.2799 17.0333 57.5807C16.7256 56.6294 16.4326 55.6606 16.2852 54.6879C16.0888 53.4168 16.3202 52.169 16.6512 50.957C16.9615 49.8305 17.4473 48.771 17.9398 47.721C18.8364 45.8111 19.6839 43.8792 20.5169 41.9364C21.3136 40.0759 21.9952 38.1765 22.6366 36.2488C23.3666 34.0742 23.9992 31.8763 24.5179 29.6316C24.5775 29.3627 24.6339 29.0606 24.9367 28.7542C24.9996 29.1774 25.0888 29.4756 25.0817 29.7711C25.0562 30.604 25.0229 31.4353 24.9224 32.2575C24.7038 34.0773 24.3711 35.8786 24.2431 37.7122C24.1828 38.5626 24.1181 39.4162 24.1137 40.2695C24.106 41.8054 24.1822 43.3457 24.375 44.8886C24.5546 46.3557 24.8172 47.8066 25.1706 49.2428C25.5569 50.8116 26.0105 52.3611 26.5819 53.8769C26.9677 54.9006 27.3489 55.9274 27.8244 56.9159C28.1148 57.5181 28.3232 58.1571 28.6451 58.737C28.9825 59.3485 29.238 59.9967 29.59 60.5908C29.8655 61.0477 30.1151 61.5158 30.3446 61.984C30.798 62.903 31.2773 63.8109 31.6914 64.7507C32.5052 66.6192 33.2158 68.5041 33.5339 70.5109C33.7509 71.8878 33.8562 73.2304 33.5346 74.5988C33.2621 75.7694 32.9685 76.9196 32.592 78.0575C32.0154 79.7905 31.2255 81.4124 30.2101 82.8962C29.5173 83.9109 28.8088 84.9224 27.9955 85.8522C26.869 87.1312 25.8017 88.4747 24.6474 89.7238C23.7003 90.7413 22.7421 91.7524 21.7561 92.7337C20.8218 93.6641 19.9789 94.6858 19.1226 95.6885C18.3678 96.577 17.5249 97.379 16.7109 98.203C16.4925 98.4284 16.352 98.7546 16.0009 98.8685ZM56.0049 82.8153C55.6092 82.2167 55.3416 81.7613 55.074 81.3059C54.4744 80.2849 54.0564 79.2061 53.6622 78.1034C53.0934 76.515 52.8048 74.884 52.6205 73.2289C52.3857 71.149 52.3792 69.1059 52.8296 67.0796C53.1423 65.6892 53.5969 64.3755 54.3644 63.2088C55.1003 62.0929 55.9722 61.0932 57.0859 60.3404C57.4298 60.1112 57.8025 59.9325 58.1552 59.7254C59.247 59.0944 60.4413 58.809 61.6762 58.6577C62.8339 58.5115 63.9106 59.11 64.5762 60.1481C65.1608 61.0523 65.5053 62.0272 65.6871 63.0676C65.8645 64.0828 65.9333 65.0969 66.0458 66.1156C66.1602 67.2037 66.3127 68.2791 66.6075 69.3458C67.1872 71.4368 68.1888 73.3708 69.012 75.3673C69.5951 76.7756 70.2097 78.1616 70.6604 79.621C71.034 80.8375 71.1668 82.0473 70.9702 83.2776C70.7457 84.6976 70.0667 85.8655 69.0663 86.8073C68.2111 87.6109 67.1316 88.0206 65.9494 88.1416C64.2102 88.3238 62.5557 87.9288 60.9616 87.1227C58.9027 86.0786 57.2923 84.5046 56.0049 82.8153ZM58.544 19.0348C58.681 19.1716 58.7343 19.2757 58.7191 19.4069C58.6714 19.7595 58.6538 20.1262 58.5603 20.4616C58.0961 22.1151 57.3516 23.6198 56.368 24.9961C55.283 26.515 54.295 28.0857 53.8644 29.9776C53.5299 31.4614 53.3666 32.9586 53.435 34.4973C53.5123 36.2777 53.8271 38.0318 54.1856 39.7903C54.5967 41.7952 55.1748 43.7597 55.6362 45.75C55.828 46.585 56.0556 47.423 56.1545 48.26C56.4004 50.3462 56.4884 52.4378 56.3089 54.5134C56.1565 56.2934 55.7861 58.0223 55.2098 59.6984C54.8233 60.8222 54.3654 61.9115 53.8772 62.9868C53.5669 63.674 53.2375 64.3535 52.9205 65.0313C52.8132 64.9939 52.8023 64.9307 52.7893 64.855C52.585 63.6108 52.1833 62.4213 51.7244 61.2368C51.2458 59.9955 50.7031 58.7782 50.1649 57.5578C49.6268 56.3373 49.0112 55.1504 48.4079 53.9619C47.9942 53.1564 47.5233 52.356 46.9716 51.6128C45.8992 50.161 44.8988 48.6584 43.8309 47.2035C43.0378 46.128 42.3962 44.9808 41.9254 43.741C41.3141 42.1401 41.0435 40.4965 41.4225 38.8466C41.5656 38.228 41.6774 37.6033 41.8597 36.9925C42.3394 35.3706 43.0234 33.8662 43.9377 32.4681C44.695 31.3157 45.5147 30.2325 46.4828 29.264C46.9511 28.7909 47.4282 28.3398 47.9099 27.8856C48.6188 27.228 49.3399 26.5973 50.11 26.0168C51.1825 25.2153 52.295 24.4704 53.4476 23.7823C54.4586 23.1801 55.4108 22.4851 56.255 21.6467C56.5432 21.3577 56.828 21.064 57.0995 20.7514C57.5827 20.204 58.0504 19.625 58.544 19.0348ZM61.9354 88.1198C62.6169 88.9129 62.9961 89.6791 63.3201 90.4913C63.5801 91.1363 63.7144 91.8135 63.916 92.4715C64.4934 94.3586 64.971 96.2667 65.7301 98.096C66.0433 98.8451 66.3351 99.6022 66.8044 100.276C67.2925 100.987 67.7716 101.703 68.2776 102.401C68.8471 103.188 69.528 103.875 70.2089 104.534C71.0448 105.346 71.847 106.195 72.7167 106.968C73.4079 107.584 74.0609 108.242 74.7229 108.893C75.1677 109.322 75.6382 109.74 76.0278 110.215C76.5198 110.817 76.9948 111.451 77.3711 112.127C77.8917 113.055 78.3415 114.027 77.7616 115.096C77.6212 115.174 77.5139 115.356 77.2038 115.328C76.9961 115.206 76.7113 115.031 76.4255 114.865C75.693 114.42 74.9775 113.942 74.2269 113.538C73.1356 112.957 72.0172 112.423 70.9122 111.88C69.6721 111.27 68.4342 110.672 67.1986 110.059C66.3462 109.634 65.5095 109.185 64.7125 108.658C63.6845 107.975 62.7003 107.241 61.8144 106.358C61.1536 105.699 60.4837 105.047 59.9298 104.291C59.4204 103.589 58.9199 102.88 58.5061 102.103C58.0501 101.257 57.6187 100.407 57.295 99.5096C56.3044 96.7317 56.0163 93.8888 56.2896 91.0101C56.4231 89.6331 56.6897 88.2824 56.9988 86.9441C57.1282 86.392 57.2498 85.81 57.5851 85.2822C58.9139 86.5241 60.4237 87.4112 61.9354 88.1198ZM40.5511 38.195C40.5484 38.5158 40.5706 38.7764 40.548 39.0404C40.4184 40.5279 40.2966 42.017 40.2935 43.5213C40.291 45.3511 40.3177 47.1745 40.7285 48.9881C41.033 50.3456 41.5171 51.6326 42.3165 52.8028C42.8201 53.5447 43.4453 54.1722 44.0603 54.8139C44.8402 55.6224 45.6877 56.3546 46.4676 57.1631C47.0269 57.7451 47.5895 58.3318 48.1477 58.9216C48.493 59.2866 48.8372 59.6594 49.1691 60.0339C49.6948 60.6255 50.2441 61.1933 50.7191 61.8278C50.9961 62.1915 51.1922 62.6125 51.4255 63.0001C51.8142 63.6461 52.1065 64.3178 52.2956 65.0343C52.4725 65.6955 52.6809 66.3629 52.3717 67.0423C52.2664 67.2656 52.2728 67.5516 52.2345 67.8125C52.1403 68.5098 52.0494 69.2118 51.9528 69.9249C50.8159 69.7376 49.7517 69.3287 48.7045 68.8865C47.7221 68.4693 46.768 67.9967 45.8695 67.3927C44.8459 66.707 43.8641 65.9564 42.9668 65.0964C42.4831 64.631 42.0309 64.1433 41.5753 63.6509C40.9704 62.9949 40.4004 62.3213 39.8506 61.6192C39.4022 61.0509 39.0526 60.4127 38.676 59.7935C38.225 59.0498 37.8134 58.2854 37.4858 57.4969C36.9336 56.1801 36.4913 54.8281 36.1724 53.4312C35.7735 51.7012 35.7317 49.9807 35.9476 48.262C36.1601 46.5387 36.7036 44.9211 37.3131 43.3207C37.8114 42.0115 38.4135 40.7635 39.1608 39.5969C39.5108 39.0517 39.8831 38.5189 40.5511 38.195ZM88.3661 83.6777C90.5829 82.9307 92.646 82.0233 94.4639 80.6731C96.2874 79.3117 97.7185 77.5762 98.9467 75.6583C99.1603 75.7126 99.3361 75.7228 99.478 75.7996C100.354 76.2852 101.251 76.7344 102.08 77.2882C104.049 78.6156 106.003 79.9604 107.999 81.2402C108.419 81.51 108.813 81.8194 109.145 82.1939C109.633 82.7415 109.46 83.3175 108.852 83.5558C107.109 84.2373 105.307 84.7326 103.43 84.9771C101.487 85.2329 99.6107 85.6891 97.8236 86.5003C96.8268 86.9507 95.8466 87.4247 94.8665 87.8987C94.1985 88.2227 93.5368 88.613 92.7337 88.6216C91.3488 86.9659 90.0045 85.2532 88.3661 83.6777ZM58.91 43.2914C59.2159 39.7236 59.0507 36.2623 58.5761 32.8783C58.9535 32.2286 59.5207 31.9051 60.0434 31.5281C60.4357 31.2434 60.8691 31.0359 61.2902 30.8016C61.9484 30.435 62.6277 30.0889 63.3158 29.7933C65.1644 29.0022 67.1378 28.5693 69.1275 28.2168C70.327 28.0057 71.511 27.7345 72.6874 27.4334C73.4993 27.2273 74.3201 27.0432 75.2934 26.8078C74.531 27.4183 73.8679 27.8734 73.2661 28.4056C72.5112 29.0745 71.7931 29.7668 71.0873 30.486C70.1731 31.4164 69.3784 32.4394 68.5937 33.4765C67.4977 34.9324 66.4519 36.4306 65.2332 37.7891C64.5361 38.5588 63.8201 39.2922 62.9648 39.8763C62.2748 40.3504 61.5747 40.8105 60.9191 41.324C60.4874 41.6579 60.1168 42.0689 59.7263 42.4516C59.4674 42.7057 59.2275 42.9675 58.91 43.2914ZM77.0364 110.756C76.9033 110.729 76.86 110.64 76.8033 110.559C76.3386 109.882 75.7062 109.359 75.139 108.775C74.5084 108.131 73.8361 107.522 73.1908 106.895C72.7327 106.447 72.2905 105.973 71.8189 105.535C71.1746 104.928 70.6013 104.249 70.0166 103.593C69.6323 103.164 69.382 102.618 68.9112 102.257C68.8208 102.186 68.7296 102.067 68.7088 101.961C68.618 101.536 68.3103 101.244 68.0948 100.9C67.977 100.715 67.8154 100.553 67.7325 100.349C67.3484 99.4519 66.8991 98.5866 66.4937 97.6973C65.8811 96.3524 65.3403 94.985 64.8422 93.6016C64.5351 92.7561 64.3223 91.8723 63.9894 91.038C63.6255 90.1122 63.2551 89.1769 62.659 88.3233C62.7352 88.3261 62.7598 88.3228 62.7743 88.3338C63.9325 88.9809 65.0173 89.7436 66.058 90.5872C67.2136 91.5266 68.197 92.6232 69.1691 93.742C70.0131 94.7177 70.5032 95.9368 71.2798 96.9601C71.3064 96.9979 71.341 97.0373 71.3542 97.0846C71.6848 97.9347 72.1804 98.7035 72.5986 99.5058C73.0512 100.376 73.4857 101.259 73.871 102.148C74.3969 103.37 74.8116 104.635 75.2353 105.894C75.5388 106.792 75.8288 107.699 76.2085 108.571C76.5074 109.281 76.7579 110.017 77.0364 110.756ZM65.159 38.954C65.1464 38.7929 65.1615 38.6901 65.2346 38.6313C65.708 38.2608 66.0465 37.7662 66.4016 37.2952C67.9227 35.2764 69.3065 33.1492 70.9581 31.2293C71.7456 30.3106 72.6044 29.4548 73.51 28.6651C74.1895 28.0709 74.9625 27.5805 75.7165 27.0823C76.3458 26.6653 77.0424 26.4487 77.8349 26.7593C77.9117 26.868 77.9917 26.9814 78.0618 27.0806C78.0878 27.4802 77.9126 27.7955 77.7889 28.1169C77.2434 29.4737 76.5995 30.7867 76.1366 32.1842C75.6373 33.6924 74.9872 35.1303 74.2321 36.515C74.0274 36.8936 73.8395 37.2959 73.5311 37.585C71.2912 37.3634 67.2335 38.0244 65.159 38.954ZM98.0806 48.1633C97.7492 49.489 97.1652 50.6959 96.5733 51.9012C95.6783 53.7179 94.618 55.4248 93.2933 56.9291C91.9357 56.2957 90.5857 55.7207 89.0591 55.4973C90.1769 52.3822 91.0809 49.2413 92.054 46.1506C94.0736 46.1172 95.896 46.7405 97.6503 47.5538C97.7904 47.7522 97.9038 47.9129 98.0806 48.1633ZM55.8308 91.1434C55.3307 90.5975 54.8847 90.2046 54.5445 89.6943C54.38 89.4423 54.3367 89.1612 54.171 88.9171C53.5094 87.9611 53.1072 86.8854 52.7711 85.7983C51.962 83.2107 51.7691 80.5981 52.2896 77.9836C52.3207 77.827 52.3875 77.6734 52.4387 77.5167C52.4899 77.3601 52.4651 77.1721 52.5969 77.0151C53.6256 80.0282 55.1398 82.6977 57.2618 84.9867C56.3282 86.9015 56.1968 88.9785 55.8308 91.1434ZM108.318 84.0688C108.164 84.2907 108.101 84.449 107.982 84.5476C107.272 85.0993 106.501 85.5739 105.874 86.2231C105.671 86.4311 105.369 86.4247 105.137 86.5822C104.626 86.9291 104.103 87.2572 103.555 87.56C102.717 88.0254 101.864 88.4593 100.97 88.8081C98.91 89.6143 96.7894 90.1444 94.5185 90.051C94.2106 90.0351 93.9127 90.0333 93.6802 89.9428C93.4533 89.6215 93.2598 89.3475 93.0196 89.0074C93.5586 88.959 94.0075 88.783 94.424 88.5803C95.5086 88.0537 96.5843 87.5049 97.6844 87.0098C98.8271 86.4987 99.9964 86.0538 101.234 85.8014C102.518 85.5377 103.815 85.3497 105.101 85.0986C106.175 84.8912 107.212 84.5465 108.318 84.0688ZM74.7434 36.3798C75.248 36.2636 75.7381 36.1364 76.2314 36.0424C78.2011 35.6617 80.1981 35.6442 82.2081 35.9506C82.6065 36.0087 83.0071 36.0795 83.3974 36.193C84.3335 36.4587 85.2616 36.7513 86.1876 37.0313C86.5577 37.1449 86.9245 37.2537 87.3501 37.4839C87.2067 37.5004 87.164 37.5164 87.1282 37.5134C85.3673 37.3497 83.7935 37.8328 82.3308 38.7121C82.0477 38.8841 81.7649 38.9992 81.4352 39.0766C80.5647 38.6937 79.6406 38.4832 78.7234 38.2537C77.4795 37.9437 76.2136 37.7838 74.9441 37.6761C74.6777 37.6521 74.3921 37.6488 74.0974 37.4606C74.379 37.1337 74.5365 36.7743 74.7434 36.3798ZM87.2672 41.4821C85.6851 40.7312 84.0879 40.0831 82.493 39.4192C82.5895 39.1738 82.767 39.0624 82.9284 39.0331C83.2401 38.9684 83.4562 38.7588 83.7212 38.628C84.5206 38.2323 85.3299 37.8792 86.2617 37.8716C87.2541 37.8636 88.2324 37.979 89.193 38.2699C89.3466 38.4588 89.5182 38.635 89.6187 38.911C89.222 40.0775 88.2967 40.7819 87.2672 41.4821ZM51.7588 62.6508C51.6536 62.6261 51.6036 62.5552 51.6153 62.4477C51.7205 62.4725 51.7582 62.545 51.7588 62.6508Z" fill="#CBC8C1"/>
<path d="M24.1702 35.0852C23.8066 34.5701 23.533 34.1827 23.2594 33.7952C23.3701 34.4964 23.6392 35.1067 24.0632 35.6498C24.0833 35.8979 24.0743 36.1239 23.9241 36.379C23.6455 35.8604 23.4364 35.3352 23.0229 34.9405C22.9179 35.1069 22.991 35.2678 23.0563 35.4271C23.1968 35.7599 23.2823 36.1387 23.4948 36.4206C24.0779 37.1985 23.7727 37.9601 23.6932 38.8596C23.0996 38.1814 22.5784 37.5865 22.0471 36.9775C22.0003 37.5988 22.5262 38.3817 23.6514 39.364C23.57 41.0727 23.541 42.8364 23.552 44.6569C22.3972 43.7664 21.5954 42.6119 20.4606 41.7497C20.3413 42.0963 20.5364 42.2771 20.6868 42.4329C21.5125 43.287 22.2999 44.1825 23.2225 44.9255C23.4356 45.0936 23.5914 45.2952 23.6 45.5938C23.6581 47.1754 23.8002 48.7614 23.9995 50.3423C23.7908 50.4192 23.6829 50.2759 23.5556 50.1817C22 49.0291 20.5188 47.7814 19.2595 46.2846C19.0635 46.0548 18.853 45.814 18.548 45.6685C18.4215 45.8714 18.5552 46.0035 18.6453 46.1311C19.3392 47.1423 20.221 47.9709 21.131 48.7725C22.0365 49.5773 22.9769 50.3361 24.0561 50.8904C24.3005 52.4111 24.5372 53.9018 24.798 55.503C24.2121 55.294 23.6977 55.1195 23.1947 54.9227C21.0114 54.0656 19.0385 52.8187 17.2181 51.3008C16.8701 51.0085 16.8713 51.0006 16.4931 50.9139C16.5265 51.1808 16.7196 51.3205 16.9013 51.4824C19.0668 53.4222 21.48 54.8819 24.2007 55.7839C24.3584 55.8353 24.5205 55.8836 24.6714 55.9539C24.8569 56.0352 24.8512 56.0463 24.9741 56.5546C23.2874 56.0759 21.7206 55.3849 20.2149 54.5514C18.7203 53.7241 17.4503 52.575 16.0777 51.548C16.133 51.9128 16.3963 52.1233 16.6304 52.3403C19.0388 54.5475 21.7751 56.1116 24.8986 56.8773C24.9456 56.8866 24.9858 56.9149 25.092 56.9602C25.3669 58.4096 25.6451 59.8922 25.9462 61.4932C24.2296 60.9435 22.6362 60.4059 21.0929 59.6911C19.5497 58.9763 18.1307 58.0459 16.7175 57.076C16.8503 57.4073 17.063 57.6607 17.3296 57.8759C18.9392 59.2099 20.775 60.1003 22.6766 60.8451C23.7475 61.2635 24.848 61.5901 25.9979 61.9101C26.216 63.088 26.3679 64.2772 26.4915 65.5504C24.8167 64.9357 23.2566 64.2257 21.7465 63.3669C20.2365 62.5081 18.8584 61.4638 17.547 60.2943C17.6051 60.558 17.7419 60.7517 17.927 60.9183C18.1087 61.0802 18.2669 61.266 18.4441 61.431C20.6909 63.4763 23.2666 64.8989 26.1026 65.8114C26.2368 65.8582 26.3733 65.8891 26.5388 65.9421C26.5776 66.4745 26.6142 66.9942 26.6538 67.5756C23.8205 66.81 21.4074 65.3218 19.0318 63.7434C20.0117 64.8923 21.2646 65.6638 22.5434 66.3957C23.83 67.1292 25.1905 67.6616 26.6013 67.9883C26.7704 68.8962 26.74 71.823 26.5588 73.1134C26.3857 73.2217 26.251 73.0691 26.1158 73.0018C25.1638 72.5417 24.2141 72.0658 23.3028 71.5202C23.0326 71.3572 22.7612 71.202 22.3762 71.1343C22.9473 71.8285 23.659 72.1965 24.3571 72.574C25.0553 72.9515 25.7817 73.2736 26.5527 73.6492C26.38 75.4863 26.1076 77.3161 25.7085 79.1575C24.862 78.8849 24.2797 78.1845 23.3547 77.925C24.016 78.7183 24.8114 79.1475 25.5459 79.6339C25.5608 79.8077 25.5209 79.9422 25.434 80.0674C25.3668 80.0583 25.2805 80.0698 25.2292 80.0352C24.6665 79.6681 24.1434 79.2234 23.4547 78.9738C23.7103 79.374 24.0361 79.6253 24.3586 79.8719C24.6665 80.1075 24.9801 80.3319 25.2926 80.5643C25.1218 81.7836 23.7515 85.6587 23.0588 86.8647C22.6724 86.6421 22.456 86.2496 22.1484 85.9287C22.0814 86.1108 22.1624 86.2731 22.221 86.423C22.2918 86.5997 22.4221 86.7555 22.5265 86.9225C22.6276 87.0848 22.7366 87.2486 22.8477 87.4251C20.8105 92.0557 17.9238 96.104 14.988 100.13C15.3596 100.179 15.5332 99.9571 15.7125 99.724C16.9243 98.1932 18.0535 96.5933 19.1526 94.9793C19.9798 93.7632 20.7556 92.5126 21.461 91.2197C21.6215 90.9219 21.8275 90.7265 22.1463 90.5859C23.4429 90.0155 24.6951 89.3632 25.8451 88.528C26.224 88.2528 26.5693 87.9588 26.8482 87.5134C26.0628 88.0055 25.2778 88.4122 24.535 88.8883C23.8193 89.3453 23.0379 89.6998 22.3034 90.0921C22.2387 90.0387 22.2163 90.0261 22.203 90.0072C22.1896 89.9883 22.1819 89.9583 22.1876 89.9473C22.8885 88.4379 23.6353 86.9456 24.2289 85.3988C26.3915 84.5557 28.3595 83.4464 30.181 82.0723C30.5711 81.7749 30.8844 81.3973 31.2456 81.0779C31.3243 81.008 31.344 80.8736 31.3526 80.7329C30.3244 81.6165 29.2151 82.3661 28.0446 83.0386C26.9089 83.6935 25.7533 84.2917 24.5297 84.8317C24.5179 84.7195 24.5091 84.6974 24.5159 84.6784C24.9615 83.371 24.977 83.4025 26.2323 82.8118C27.1507 82.3744 28.0615 81.907 28.9133 81.3467C29.3415 81.0649 29.7897 80.8115 30.1988 80.5219C30.9497 79.9905 31.7063 79.448 32.2523 78.6647C30.0543 80.2982 27.722 81.6937 25.1702 82.8548C25.753 80.9967 26.2226 79.1692 26.5556 77.3108C28.7279 76.5671 30.621 75.4187 32.3786 74.0401C32.87 73.6569 33.3347 73.2359 33.7292 72.7441C33.8183 72.6315 33.8905 72.5237 33.8366 72.3422C33.4976 72.4829 33.2343 72.7118 32.9756 72.9374C31.7571 74.0194 30.4396 74.9518 29.0064 75.7393C28.3752 76.0868 27.7174 76.3681 27.0807 76.6982C26.9537 76.7668 26.8225 76.8101 26.6705 76.7476C26.6458 76.5312 26.6883 76.324 26.7677 76.1119C28.5308 75.4381 30.134 74.4807 31.6217 73.3215C32.2953 72.7952 32.9588 72.2548 33.5367 71.612C33.6336 71.5009 33.7125 71.4025 33.6945 71.1956C33.3285 71.3554 33.0261 71.5765 32.7684 71.8227C31.8105 72.7486 30.6813 73.4414 29.6089 74.2146C28.7759 74.8112 27.8453 75.2217 26.8537 75.718C26.8316 74.9895 27.0017 74.3519 27.0072 73.7102C27.4155 73.3717 27.8999 73.2556 28.33 73.0433C29.5989 72.4146 30.8611 71.7765 31.9733 70.8973C32.4793 70.4966 32.9965 70.1022 33.3957 69.5788C33.4814 69.4614 33.5693 69.3567 33.5208 69.1926C33.3759 69.0542 33.2702 69.1432 33.1666 69.2449C32.5429 69.8705 31.8859 70.4489 31.1553 70.9517C30.1021 71.6758 28.9724 72.2628 27.8271 72.8182C27.6059 72.9251 27.4201 73.1204 27.0705 73.141C27.1544 71.388 27.2168 69.6715 27.1324 67.9668C28.7875 66.9301 30.459 65.9739 31.6731 64.4273C31.7475 64.3321 31.8624 64.2083 31.729 63.9909C31.1296 64.2592 30.843 64.8943 30.3316 65.2492C29.7977 65.6199 29.4095 66.178 28.8256 66.4779C28.2506 66.7715 27.7134 67.1375 27.1145 67.5117C27.0056 65.5622 26.7752 63.6985 26.4619 61.851C27.39 61.0454 28.4907 60.4649 29.0866 59.3416C28.8535 59.1452 28.7164 59.228 28.6115 59.366C28.1605 59.9687 27.5323 60.3778 27.0222 60.916C26.869 61.081 26.6957 61.2462 26.3786 61.2651C26.0567 59.5583 25.7337 57.8595 25.4107 56.1606C25.7708 55.601 26.5051 55.4853 26.7658 54.8614C26.7851 54.8123 26.7362 54.7336 26.7143 54.6357C26.1367 54.7823 25.8296 55.2831 25.3944 55.6123C25.2388 55.3823 25.2163 55.1786 25.2422 54.9193C25.8661 54.7045 26.3688 54.2992 26.8036 53.5875C26.0556 53.7697 25.6744 54.2803 25.1507 54.6368C24.8909 53.2758 24.6657 51.9542 24.5278 50.6416C24.8729 50.1848 25.394 49.9011 25.4646 49.2275C24.9159 49.2048 24.877 49.7992 24.4416 49.9657C24.3985 49.6277 24.3407 49.3072 24.311 48.9881C23.8571 44.3631 23.8857 39.7721 24.6209 35.2268C24.9041 33.4887 25.1324 31.7398 25.2432 29.9677C25.2677 29.5536 25.1689 29.1558 25.0869 28.7532C25.0597 28.6095 24.9897 28.4819 24.8229 28.4653C24.6273 28.6179 24.7877 28.7878 24.8195 28.9283C24.9717 29.6214 25.0086 30.3039 24.8707 30.9967C24.643 32.1641 24.4624 33.3407 24.2583 34.5127C24.2587 34.647 24.2267 34.783 24.1702 35.0852Z" fill="#CBC8C1"/>
<path d="M56.3988 95.0295C56.6991 95.6746 56.9119 96.3392 57.2437 96.962C57.6844 97.7772 58.1667 98.5558 58.7277 99.2929C59.4634 100.268 60.2488 101.179 61.167 101.983C62.6933 103.312 64.4152 104.327 66.1756 105.271C66.2281 105.298 66.2965 105.299 66.3749 105.314C66.2934 105.046 66.0481 105.014 65.8738 104.91C64.401 104.039 62.969 103.11 61.6489 101.996C60.1458 100.728 58.9287 99.2144 57.9334 97.5372C56.8435 95.7071 56.2556 93.7274 56.3589 91.5987C56.3675 91.4579 56.3526 91.3125 56.3533 91.1702C56.3539 91.0564 56.359 90.9394 56.362 90.8097C56.1982 90.8263 56.229 90.9463 56.2185 91.0175C55.8865 93.3577 55.9514 95.6863 56.7787 97.9858C57.3452 99.5624 58.2796 100.914 59.3725 102.175C61.107 104.173 63.2787 105.556 65.4989 106.884C67.9816 108.373 70.4428 109.899 72.9199 111.4C73.3199 111.641 73.6994 111.94 74.207 111.97C73.2801 111.336 72.3587 110.691 71.4171 110.074C69.0748 108.535 66.6725 107.103 64.2713 105.662C62.6299 104.676 61.0959 103.536 59.8067 102.102C57.9803 100.07 56.6643 97.7761 56.3988 95.0295Z" fill="#CBC8C1"/>
<path d="M75.1601 74.2261C76.7336 73.9624 78.2319 73.7164 79.7236 73.461C83.6405 72.7923 87.5562 72.1316 91.4687 71.4376C94.5788 70.8867 97.603 70.0424 100.503 68.8402C101.721 68.3318 102.9 67.7384 103.99 66.9811C104.08 66.9174 104.168 66.8412 104.327 66.714C103.64 66.7901 103.18 67.151 102.684 67.403C99.4356 69.0571 95.9725 70.0916 92.3936 70.7902C88.0604 71.6331 83.7087 72.3829 79.3723 73.1926C78.089 73.4281 76.8132 73.7219 75.5376 73.9873C75.4177 74.0084 75.2968 74.009 75.1601 74.2261Z" fill="#CBC8C1"/>
<path d="M90.8455 44.8095C90.7287 44.7013 90.6311 44.735 90.5559 44.7812C89.5553 45.3691 88.4618 45.7682 87.3917 46.2002C85.0102 47.1715 82.6596 48.2057 80.3145 49.2572C78.6248 50.0147 76.9504 50.8036 75.2949 51.6288C73.8437 52.3517 72.4113 53.1109 70.9855 53.8795C68.4192 55.2573 66.108 57.006 63.7624 58.7155C63.7444 58.7282 63.7364 58.7551 63.7173 58.7757C63.9141 58.8062 64.0123 58.6589 64.1382 58.5698C65.4296 57.6205 66.8176 56.8079 68.1711 55.9561C69.1865 55.3224 70.2308 54.7106 71.315 54.1837C72.3958 53.6522 73.4411 53.0609 74.5153 52.5199C75.6725 51.9343 76.8285 51.3565 78.0046 50.8071C79.5778 50.0755 81.1566 49.3613 82.742 48.6565C84.388 47.9229 86.0473 47.2082 87.7033 46.4888C88.6188 46.0955 89.5 45.6345 90.3779 45.1688C90.5597 45.0825 90.7426 44.9884 90.8455 44.8095Z" fill="#CBC8C1"/>
<path d="M48.1895 53.8252C48.215 53.4316 48.0429 53.1211 47.91 52.8183C46.8935 50.4907 46.6111 48.0759 46.7075 45.6055C46.8071 42.9486 47.409 40.411 48.2961 37.9622C49.5784 34.44 51.1098 31.032 52.877 27.7477C53.2648 27.0268 53.7664 26.3812 54.1186 25.6289C53.9532 25.5476 53.9066 25.6726 53.8547 25.7519C51.1393 29.8419 49.112 34.2952 47.5338 38.9835C46.606 41.7375 46.1582 44.5984 46.3191 47.5669C46.3979 49.0345 46.5911 50.4922 47.2024 51.8736C47.4937 52.5248 47.7491 53.2015 48.1895 53.8252Z" fill="#CBC8C1"/>
<path d="M66.682 88.1247C67.9112 88.5092 68.9895 88.8233 70.0518 89.1912C73.7835 90.4835 77.4902 91.8645 81.1911 93.2566C84.1742 94.3771 87.1778 95.4406 90.1177 96.6909C91.0891 97.1019 92.0436 97.5462 93.0193 97.9825C93.0556 97.6804 92.7966 97.7149 92.6693 97.6491C90.3932 96.4889 88.0569 95.4917 85.6856 94.569C81.3509 92.8812 77.0027 91.2315 72.6168 89.7005C70.945 89.1189 69.2607 88.5675 67.5409 88.1759C67.3149 88.1232 67.0902 88.0342 66.682 88.1247Z" fill="#CBC8C1"/>
<path d="M75.4394 45.7546C74.1491 46.1805 73.005 46.8419 71.8411 47.4467C71.1834 47.785 70.582 48.2318 69.921 48.5654C69.0255 49.0156 68.2152 49.5961 67.3662 50.1122C66.0792 50.8959 64.8309 51.7439 63.6923 52.7474C63.6046 52.8236 63.5235 52.9092 63.4291 52.976C62.1648 53.8778 61.0304 54.9348 59.8981 56.0045C58.7478 57.0868 57.691 58.2443 56.7465 59.5129C56.5513 59.7711 56.3628 60.0387 56.1854 60.3125C56.0972 60.4455 56.0035 60.5896 56.0792 60.8114C56.3327 60.7026 56.445 60.4607 56.5894 60.2737C57.7223 58.7659 58.9997 57.3958 60.3683 56.1166C61.2833 55.2643 62.2459 54.4701 63.2098 53.6679C64.7484 52.3813 66.3956 51.258 68.0527 50.1488C68.9324 49.5616 69.841 48.9962 70.7751 48.4765C71.4195 48.1193 72.0728 47.7558 72.6985 47.3625C73.2881 46.9946 73.9087 46.6896 74.515 46.3453C74.8249 46.1542 75.1294 45.9457 75.4394 45.7546Z" fill="#CBC8C1"/>
<path d="M52.2767 70.3672C54.6186 65.6918 58.3034 62.9849 63.49 62.4811C63.518 62.263 63.3822 62.3094 63.3129 62.2877C63.2201 62.2612 63.1271 62.2633 63.0297 62.2685C61.6521 62.2941 60.3171 62.5233 59.079 63.0807C58.126 63.5072 57.1974 63.9872 56.3699 64.6295C54.6283 65.9825 53.1343 67.5428 52.3138 69.675C52.2922 69.7399 52.2438 69.7955 52.1794 69.9048C50.556 67.5964 49.5163 65.045 48.4345 62.3959C48.6029 64.2958 50.5078 68.7216 52.2767 70.3672Z" fill="#CBC8C1"/>
<path d="M91.3042 70.392C91.0162 70.2133 90.8737 70.2788 90.7426 70.2937C85.1702 71.0145 79.6317 71.8885 74.1566 73.0717C72.6511 73.3935 71.1786 73.8194 69.7337 74.332C69.3893 74.4553 69.0526 74.6086 68.7258 74.7761C69.1446 74.7772 69.5459 74.7057 69.9373 74.5916C72.9048 73.6955 75.9735 73.1813 79.0123 72.5677C82.7653 71.8099 86.5729 71.311 90.3312 70.599C90.6215 70.5423 90.9051 70.4761 91.3042 70.392Z" fill="#CBC8C1"/>
<path d="M77.1621 111.057C76.7468 110.536 76.3015 110.163 75.8641 109.792C73.6581 107.93 71.3288 106.247 68.8527 104.796C67.2302 103.846 65.6089 102.888 64.156 101.662C62.7567 100.483 61.4982 99.1696 60.5257 97.6108C59.9478 96.6873 59.3935 95.7398 58.9303 94.7493C58.7153 94.2919 58.4531 93.8537 58.1819 93.4218C58.2626 94.0523 58.551 94.6137 58.834 95.1577C59.3931 96.2363 59.9658 97.3054 60.6352 98.3202C62.1852 100.668 64.2246 102.457 66.5776 103.896C68.6166 105.14 70.6997 106.302 72.6471 107.703C74.0183 108.689 75.3782 109.697 76.6444 110.821C76.7805 110.937 76.8806 111.079 77.1621 111.057Z" fill="#CBC8C1"/>
<path d="M50.9868 33.6974C49.4077 36.7425 48.3799 39.9858 48.0901 43.472C47.9436 45.2128 47.8061 46.9472 47.8868 48.7042C48.026 51.7665 48.7853 54.6946 50.0987 57.4999C50.1297 57.5629 50.1866 57.6148 50.3068 57.7565C50.1525 57.2705 50.0323 56.8807 49.9077 56.4941C49.7709 56.0806 49.6295 55.6704 49.4927 55.257C48.49 52.1752 48.1036 49.0398 48.3212 45.8526C48.4675 43.7294 48.6372 41.6108 49.1214 39.546C49.4637 38.092 49.8864 36.666 50.4165 35.2774C50.6219 34.7564 50.8005 34.2261 50.9868 33.6974Z" fill="#CBC8C1"/>
<path d="M92.9995 94.2995C92.502 94.0917 92.1084 93.945 91.7318 93.765C90.3828 93.1251 89.0949 92.371 87.8138 91.598C85.6258 90.276 83.4547 88.9209 81.183 87.7574C78.9448 86.6128 76.6133 85.7468 74.2306 85.0375C73.9062 84.9411 73.5682 84.8827 73.2094 84.9381C73.8937 85.1909 74.5746 85.4674 75.2625 85.6964C78.5238 86.7903 81.5833 88.353 84.551 90.1295C86.3928 91.2286 88.2166 92.3689 90.1093 93.3682C90.7261 93.6972 91.3496 94.0071 92.0095 94.2347C92.2924 94.3393 92.5775 94.4564 92.9995 94.2995Z" fill="#CBC8C1"/>
<path d="M55.3003 22.249C54.8483 22.3918 54.6337 22.7562 54.3758 23.0308C52.8975 24.5942 51.4826 26.2189 50.2652 28.0086C47.6474 31.8731 46.0846 36.1528 45.8239 40.9491C45.7869 41.6129 45.7018 42.2753 45.7498 42.9639C45.9795 42.9359 45.9099 42.7514 45.9216 42.6439C46.0153 41.8409 46.1057 41.0331 46.1759 40.2254C46.4813 36.7718 47.6049 33.6176 49.1644 30.6223C50.2366 28.5601 51.6401 26.7379 53.1083 24.9692C53.8215 24.1173 54.5058 23.2435 55.2937 22.4592C55.3128 22.4385 55.2941 22.3739 55.3003 22.249Z" fill="#CBC8C1"/>
<path d="M63.6402 56.482C63.8027 56.4448 63.8541 56.4508 63.8901 56.4254C65.0187 55.5701 66.2661 54.8925 67.4535 54.13C68.2275 53.6317 69.0393 53.1775 69.8399 52.7169C70.7416 52.1991 71.6534 51.6953 72.5839 51.2278C74.024 50.4986 75.4842 49.7978 77.0051 49.2307C79.8216 48.1784 82.648 47.1402 85.4611 46.0831C85.7808 45.963 86.1293 45.8932 86.4779 45.6041C84.938 45.9723 83.5506 46.4803 82.1443 46.952C79.7726 47.7462 77.414 48.5877 75.1338 49.6071C73.867 50.1712 72.6289 50.7856 71.4086 51.4441C69.7593 52.3354 68.1522 53.296 66.5838 54.321C65.6705 54.9178 64.7316 55.469 63.916 56.1948C63.8508 56.2551 63.7967 56.3217 63.6402 56.482Z" fill="#CBC8C1"/>
<path d="M56.0222 83.4287C56.1108 83.621 56.1706 83.7629 56.2458 83.9363C55.2046 85.2116 54.7724 86.7288 54.7247 88.399C54.6972 89.3818 54.7773 89.9343 55.1564 90.7003C55.1263 89.999 55.0698 89.451 55.086 88.9012C55.1023 88.3513 55.1779 87.809 55.2612 87.2683C55.3481 86.7039 55.501 86.1565 55.7422 85.6387C55.9664 85.1542 56.1872 84.665 56.4806 84.2306C56.7952 84.256 56.8833 84.5336 57.0595 84.6781C57.9159 85.4038 58.9037 85.8098 59.9505 86.089C62.4634 86.7546 64.9107 86.6589 67.2684 85.6916C68.3278 85.2536 69.2683 84.6376 70.0988 83.8373C69.6845 84.0526 69.2635 84.2585 68.8592 84.4879C65.8255 86.2453 62.6008 86.5864 59.1768 85.404C57.9985 85.0053 57.0011 84.2803 56.0222 83.4287Z" fill="#CBC8C1"/>
<path d="M65.6044 61.4847C65.6777 61.808 65.8659 61.7881 66.0158 61.8094C66.5829 61.8965 67.1463 61.8446 67.7042 61.7754C71.2508 61.375 74.6787 60.5489 77.9142 59.0873C79.4797 58.3829 80.9576 57.5352 82.4056 56.6166C83.684 55.811 84.9312 54.9708 86.1484 54.0882C86.3923 53.9085 86.6384 53.7414 86.859 53.5287C85.8913 54.2205 84.7982 54.7252 83.8339 55.4218C82.9865 56.0357 82.0769 56.552 81.1751 57.0698C78.6787 58.4896 76.0196 59.5645 73.218 60.2943C71.2998 60.7953 69.3587 61.1779 67.3694 61.3682C66.8003 61.4311 66.2181 61.4468 65.6044 61.4847Z" fill="#CBC8C1"/>
<path d="M70.1641 94.7322C70.3468 95.1628 70.7006 95.4155 71.0275 95.6874C72.7063 97.1002 74.5816 98.1897 76.5011 99.1983C79.4272 100.735 82.5094 101.757 85.7195 102.291C87.4107 102.576 89.112 102.654 90.8082 102.602C91.039 102.595 91.2709 102.608 91.4912 102.452C83.587 102.433 76.5367 99.6976 70.1641 94.7322Z" fill="#CBC8C1"/>
<path d="M46.3261 51.1672C46.2194 50.5482 45.8724 50.0567 45.6869 49.5077C44.7951 46.879 44.6247 44.2216 44.8791 41.5259C45.2458 37.6522 46.3684 34.0373 48.0435 30.6125C48.1238 30.4494 48.2511 30.2955 48.2331 30.0885C48.0528 30.0815 48.0106 30.2318 47.9484 30.3538C46.5722 32.9506 45.4083 35.6381 44.8927 38.6037C44.4648 41.0538 44.197 43.5109 44.5048 46.0286C44.6791 47.4501 45.0093 48.825 45.6356 50.1322C45.8141 50.509 46.041 50.8303 46.3261 51.1672Z" fill="#CBC8C1"/>
<path d="M103.814 64.289C103.246 64.1244 102.707 64.1239 102.168 64.1439C99.3008 64.2179 96.4595 64.5004 93.6616 65.0639C90.4613 65.7067 87.3304 66.5625 84.2611 67.6297C84.0872 67.689 83.9069 67.7104 83.8062 67.902C86.5734 67.2187 89.2885 66.4234 92.0676 65.8237C95.8365 65.0122 99.6707 64.5795 103.549 64.4483C103.631 64.44 103.735 64.4727 103.814 64.289Z" fill="#CBC8C1"/>
<path d="M80.9726 91.4112C87.4546 94.3152 94.0738 96.8881 100.363 100.446C100.324 100.133 100.12 100.072 99.9846 99.9766C98.7824 99.1051 97.4716 98.4523 96.1631 97.7837C91.3023 95.3129 86.2585 93.3473 81.183 91.4608C81.1103 91.4342 81.0431 91.4251 80.9726 91.4112Z" fill="#CBC8C1"/>
<path d="M68.7346 65.0749C69.6167 65.0734 70.4047 64.8908 71.198 64.754C74.4294 64.1938 77.5134 63.1861 80.4827 61.8632C81.707 61.3152 82.8936 60.6948 84.0304 59.9752C85.375 59.1298 86.5594 58.1147 87.6883 57.0115C87.9651 56.7448 88.3511 56.5849 88.48 56.1469C88.2828 56.1732 88.1613 56.2875 88.0409 56.3939C87.4459 56.907 86.8609 57.4342 86.2593 57.9379C85.4192 58.6385 84.538 59.2905 83.5969 59.8291C82.5548 60.425 81.4839 60.9706 80.3886 61.4627C77.5226 62.7408 74.5652 63.7368 71.4876 64.4004C70.7143 64.5655 69.9377 64.7259 69.1577 64.8816C69.0243 64.9123 68.8788 64.9162 68.7346 65.0749Z" fill="#CBC8C1"/>
<path d="M53.9906 32.36C53.5778 32.7017 53.1639 33.7103 52.4517 35.6812C50.6219 40.7389 50.2235 46.0095 50.8291 51.4411C50.8374 51.1092 50.8548 50.771 50.8554 50.4375C50.8628 48.7387 50.8221 47.0385 50.9135 45.344C51.0606 42.5826 51.5926 39.9173 52.3786 37.306C52.8377 35.7694 53.3393 34.2452 53.9471 32.7663C53.9936 32.6412 54.0649 32.5129 53.9906 32.36Z" fill="#CBC8C1"/>
<path d="M91.5524 46.8781C90.8648 47.8807 90.1707 48.6829 89.3887 49.3989C88.9465 49.8037 88.5309 50.2463 88.0509 50.6072C86.6829 51.6389 85.2804 52.6314 83.7738 53.4574C81.8866 54.489 79.9408 55.3995 77.9088 56.1307C77.1014 56.4193 76.3095 56.7395 75.5109 57.0502C75.4257 57.0822 75.3626 57.1551 75.1918 57.276C76.4962 56.9466 77.6391 56.5124 78.7829 56.0988C79.9783 55.6627 81.1816 55.2282 82.313 54.6537C83.2614 54.1734 84.2265 53.7166 85.0985 53.0994C85.4222 52.8704 85.7934 52.7278 86.1225 52.5161C87.2751 51.7711 88.3243 50.9084 89.3281 49.9719C90.0236 49.3242 90.6867 48.6499 91.2331 47.8675C91.4036 47.6125 91.5919 47.3732 91.5524 46.8781Z" fill="#CBC8C1"/>
<path d="M84.4791 49.5212C82.9065 50.1392 81.453 50.8495 80.0019 51.5441C78.6642 52.1797 77.3365 52.8294 76.0464 53.5514C74.8181 54.2369 73.561 54.872 72.316 55.5338C71.2371 56.1064 70.1571 56.6868 69.0717 57.2499C68.0221 57.7876 66.9638 58.3032 65.9154 58.833C65.7942 58.8905 65.6585 58.937 65.6039 59.0888C66.0275 59.1922 66.3113 58.8781 66.6345 58.7343C67.8362 58.2021 69.0081 57.599 70.1888 57.018C71.2651 56.4897 72.3493 55.9628 73.4134 55.4077C74.2946 54.9467 75.1504 54.4401 76.0249 53.9697C76.8602 53.52 77.7064 53.105 78.5484 52.6647C79.2634 52.2931 79.9763 51.9088 80.6992 51.5386C81.7049 51.0248 82.7185 50.5126 83.7342 50.013C83.9778 49.8901 84.198 49.7343 84.4791 49.5212Z" fill="#CBC8C1"/>
<path d="M99.231 73.6044C98.5458 73.5793 98.1656 73.9192 97.7491 74.1219C95.0662 75.4115 92.2597 76.3352 89.3009 76.8426C86.805 77.2704 84.2868 77.466 81.7354 77.3665C81.4667 77.3583 81.1978 77.3786 80.9365 77.4573C84.0653 77.8494 87.1533 77.6968 90.2033 77.0894C93.3777 76.4576 96.3343 75.3073 99.231 73.6044Z" fill="#CBC8C1"/>
<path d="M52.5512 58.7916C53.4143 57.7698 54.8764 51.8951 55.15 48.4913C55.3831 45.584 55.2164 42.4068 54.746 41.5209C54.9436 44.5415 54.9602 47.4777 54.4999 50.3687C54.0476 53.2328 53.3089 56.0161 52.5512 58.7916Z" fill="#CBC8C1"/>
<path d="M98.7012 101.357C91.2614 101.335 84.0728 99.9317 77.2055 96.3376C78.1437 97.3035 82.3563 99.1339 85.945 100.052C90.1591 101.131 94.4044 101.804 98.7012 101.357Z" fill="#CBC8C1"/>
<path d="M71.0465 82.3637C71.3588 82.6246 71.601 82.595 71.8327 82.6366C75.2959 83.2332 78.6813 84.1399 81.8172 85.8967C83.9844 87.1128 85.9631 88.6254 87.9136 90.1649C87.9279 89.9847 87.7694 89.8843 87.6489 89.7711C87.5252 89.6531 87.4047 89.5399 87.272 89.4283C85.2739 87.7736 83.1856 86.2394 80.921 85.0001C79.32 84.1274 77.6189 83.5523 75.8859 83.0849C74.6609 82.7542 73.4345 82.4597 72.1759 82.3299C71.8411 82.3046 71.494 82.2525 71.0465 82.3637Z" fill="#CBC8C1"/>
<path d="M70.6648 78.7891C65.8967 82.2627 60.7257 83.2657 54.9646 80.7406C55.6672 81.306 56.4424 81.7067 57.2809 81.9775C59.1312 82.5736 61.0121 82.6592 62.8923 82.4479C64.5999 82.2595 66.216 81.7887 67.7408 81.0072C68.721 80.5048 69.5632 79.8166 70.4589 79.204C70.5881 79.1196 70.7286 79.0131 70.6648 78.7891Z" fill="#CBC8C1"/>
<path d="M104.578 65.2456C102.118 64.8469 88.396 67.3264 86.5613 68.4902C92.4935 67.0757 98.5098 66.0478 104.578 65.2456Z" fill="#CBC8C1"/>
<path d="M55.1907 60.5184C55.4618 60.4822 55.4997 60.3068 55.5733 60.1628C56.4627 58.4723 57.6551 57.02 58.9367 55.6462C59.9795 54.5262 61.088 53.48 62.2665 52.5045C62.876 52.0024 63.5221 51.5522 64.1172 51.0391C65.2431 50.0655 66.4701 49.2254 67.636 48.3084C66.262 49.2171 64.7459 49.9151 63.5361 51.0755C63.2176 51.3787 62.8202 51.5892 62.4739 51.8626C60.1489 53.6777 58.0542 55.7331 56.3424 58.1683C55.8593 58.878 55.3895 59.6066 55.1907 60.5184Z" fill="#CBC8C1"/>
<path d="M61.6334 44.014C64.0365 42.2424 66.4785 40.5355 69.3998 39.6505C72.2875 38.7752 75.2532 38.3828 78.3128 38.4479C78.2494 38.1671 78.0687 38.2454 77.9568 38.2396C74.1804 38.0091 70.5818 38.6511 67.157 40.112C66.0438 40.5882 64.9805 41.1637 64.0283 41.8871C63.1885 42.531 62.2786 43.1042 61.6334 44.014Z" fill="#CBC8C1"/>
<path d="M70.9833 77.5036C74.0522 77.9045 76.8603 78.9009 79.5284 80.358C82.1819 81.8041 84.6018 83.5786 86.7313 85.8491C86.8677 85.4691 86.5819 85.2745 86.4135 85.103C85.8919 84.565 85.3569 84.0365 84.7868 83.554C82.0403 81.2311 79.0178 79.4153 75.6513 78.2682C74.2846 77.8038 72.897 77.4817 71.4735 77.3763C71.3425 77.3627 71.1983 77.3018 70.9833 77.5036Z" fill="#CBC8C1"/>
<path d="M50.8928 59.9856C51.6318 58.4919 52.0933 56.9109 52.4207 55.2833C53.3556 50.6676 53.9213 45.9873 54.2676 41.2638C54.277 41.1721 54.2674 41.0726 54.2663 40.8608C54.0961 41.0592 54.1088 41.2203 54.0891 41.3547C53.7723 43.9811 53.5227 46.6166 53.1232 49.2307C52.6959 52.0061 52.2295 54.7738 51.4991 57.4732C51.3508 58.0175 51.1632 58.5541 50.9992 59.0954C50.9082 59.3866 50.7981 59.67 50.8928 59.9856Z" fill="#CBC8C1"/>
<path d="M85.3345 40.8466C84.8941 40.6908 84.4752 40.7182 84.0654 40.7108C81.7925 40.6905 79.5815 41.0442 77.3977 41.5416C75.1006 42.0695 72.9251 42.9222 70.8257 43.9688C70.3217 44.2193 69.8599 44.5107 69.4337 44.8619C71.1483 44.1583 72.8164 43.3603 74.5819 42.7765C77.8425 41.6941 81.2016 41.0662 84.6851 41.0441C84.9953 41.0442 84.9908 41.0473 85.3345 40.8466Z" fill="#CBC8C1"/>
<path d="M66.0693 64.6325C65.7719 64.3545 65.5524 64.3683 65.3477 64.3362C62.8979 63.9889 60.5666 64.2867 58.3822 65.3655C56.2809 66.3996 54.5956 67.9178 53.2831 69.8589C52.8091 70.5625 52.4524 71.3175 52.3312 72.1961C52.5627 72.2375 52.5358 72.0371 52.5621 71.9406C52.9998 70.4983 53.9449 69.4118 54.9257 68.3567C55.8052 67.4157 56.8592 66.6839 57.9598 66.0466C59.5804 65.105 61.3565 64.5843 63.2722 64.538C63.9306 64.5251 64.5877 64.5201 65.2489 64.5973C65.4749 64.6213 65.7044 64.6217 66.0693 64.6325Z" fill="#CBC8C1"/>
<path d="M79.393 64.9199C80.3277 64.697 81.1551 64.2743 81.9822 63.8799C83.1764 63.3179 84.3407 62.6849 85.3873 61.8664C85.7336 61.593 86.0921 61.3464 86.3984 61.0164C86.6102 60.7816 86.9089 60.6127 87.1862 60.4518C89.2897 59.2108 91.5551 58.4283 94.0309 58.2682C94.1003 58.2615 94.1698 58.2548 94.237 58.2355C94.2538 58.2307 94.2696 58.2054 94.3529 58.1323C94.1113 58.1052 93.9234 58.0683 93.7388 58.0646C91.8784 58.0651 90.1323 58.4659 88.4678 59.2689C87.5531 59.7111 86.7751 60.3183 86.0092 60.9522C84.9094 61.8579 83.6832 62.5559 82.4537 63.2491C81.6283 63.7129 80.7609 64.1075 79.9079 64.513C79.7126 64.6088 79.5218 64.7014 79.393 64.9199Z" fill="#CBC8C1"/>
<path d="M80.0615 95.1217C79.8188 94.8257 79.6129 94.773 79.4229 94.6949C76.6853 93.521 73.9477 92.3472 71.2101 91.1734C68.8895 90.1793 66.5609 89.2121 64.1719 88.4365C63.8487 88.3321 63.5089 88.1757 63.2002 88.302C63.1403 88.4082 63.1547 88.4477 63.2162 88.4679C64.8718 88.9405 66.4727 89.5934 68.0691 90.2496C71.3771 91.6009 74.6817 92.9759 77.9885 94.3351C78.628 94.5912 79.2755 94.8204 80.0615 95.1217Z" fill="#CBC8C1"/>
<path d="M75.1599 47.6309C77.3305 46.6471 79.3837 45.6402 81.5663 44.9311C84.5396 43.967 87.5853 43.3058 90.7675 43.3057C91.0855 43.3073 91.4079 43.3057 91.7368 43.1508C91.4993 42.9577 91.2818 43.0125 91.0814 43.0056C88.5125 42.8621 86.0303 43.252 83.5915 43.9228C81.7234 44.4375 79.9616 45.1887 78.2074 45.9698C77.488 46.2877 76.7775 46.6277 76.0803 46.9866C75.7839 47.1397 75.5195 47.3764 75.1599 47.6309Z" fill="#CBC8C1"/>
<path d="M38.1603 59.1031C37.7867 57.8864 37.6047 56.6546 37.509 55.4113C37.2053 51.4383 37.914 47.7053 39.5581 44.1891C39.7177 43.8422 39.9166 43.5031 39.9646 43.0935C37.2736 45.6428 36.0877 56.0629 38.1603 59.1031Z" fill="#CBC8C1"/>
<path d="M59.3775 39.9824C59.7023 39.9363 59.7665 39.6646 59.8929 39.4903C60.834 38.188 61.8061 36.9203 62.9676 35.8156C63.6743 35.1457 64.4433 34.5449 65.1211 33.8531C65.7606 33.2026 66.5734 32.7688 67.1806 32.0917C67.3011 31.9569 67.4718 31.8644 67.6246 31.7562C68.8901 30.8465 70.1544 29.9447 71.4198 29.035C71.5457 28.946 71.6616 28.8427 71.8021 28.7362C71.5567 28.5988 71.4104 28.7448 71.2587 28.845C69.5284 30.013 67.787 31.1747 66.1499 32.4746C64.8861 33.4821 63.6544 34.5447 62.5317 35.7139C61.3022 36.98 60.2208 38.3604 59.3775 39.9824Z" fill="#CBC8C1"/>
<path d="M79.5405 40.4425C76.0264 40.2969 67.7955 42.7323 62.8927 47.9428C63.5913 47.5192 64.2678 47.0546 64.8864 46.5177C65.676 45.8315 66.5123 45.2114 67.4407 44.7313C67.9942 44.4457 68.5066 44.0831 69.0579 43.7849C70.9823 42.7486 73.0203 42.0068 75.1114 41.3974C76.5555 40.9698 78.0239 40.6242 79.5405 40.4425Z" fill="#CBC8C1"/>
<path d="M85.838 61.7884C85.4402 61.8647 85.3454 62.2078 85.106 62.3843C83.8617 63.3145 82.5986 64.2084 81.1955 64.9042C78.6676 66.1552 75.9823 66.9446 73.2417 67.6174C73.1789 67.6335 73.1071 67.656 73.0897 67.7745C74.1959 67.7276 75.2506 67.4836 76.2955 67.1971C78.1341 66.6885 79.9264 66.057 81.6237 65.1955C82.7462 64.6276 83.7966 63.9479 84.7737 63.1644C85.4258 62.6463 85.6334 62.3579 85.838 61.7884Z" fill="#CBC8C1"/>
<path d="M90.3291 83.2017C95.7329 82.5373 101.179 82.6012 106.716 83.1671C104.604 82.0759 92.6396 82.0908 90.3291 83.2017Z" fill="#CBC8C1"/>
<path d="M71.4269 41.0592C70.7345 41.0332 70.1219 41.3113 69.5082 41.5689C68.2474 42.0936 67.0341 42.7049 65.8384 43.3602C64.4193 44.1383 63.1802 45.1425 61.9654 46.1717C60.3728 47.525 58.9882 49.0774 57.982 50.9557C57.8937 51.1172 57.8121 51.288 57.7383 51.4604C57.7213 51.4936 57.7378 51.5456 57.7341 51.5976C57.9739 51.5552 58.0556 51.356 58.1664 51.1787C58.9423 49.9863 59.7606 48.8347 60.7514 47.8225C61.4337 47.1276 62.1115 46.4359 62.8905 45.8493C63.3166 45.5266 63.7148 45.174 64.1342 44.8419C65.0123 44.1569 65.989 43.6212 66.9558 43.0713C68.0415 42.4513 69.1759 41.9383 70.3324 41.4662C70.6958 41.3222 71.0647 41.1954 71.4269 41.0592Z" fill="#CBC8C1"/>
<path d="M59.9862 34.6307C60.7227 34.0317 61.4659 33.4421 62.1847 32.8274C63.2442 31.9221 64.3758 31.1283 65.5885 30.4398C66.9561 29.6557 68.3879 29.0101 69.8317 28.3913C70.6182 28.0538 71.4189 27.7558 72.2242 27.4546C72.4418 27.3713 72.6604 27.3085 72.8382 27.1403C71.8188 26.9568 67.4563 28.9129 65.8038 29.7996C63.5305 31.0196 61.6493 32.7185 59.9862 34.6307Z" fill="#CBC8C1"/>
<path d="M78.6053 69.0056C79.2329 69.0923 79.5771 68.5868 80.0941 68.412C80.637 68.2261 81.1246 67.8951 81.641 67.6429C82.136 67.3988 82.641 67.1688 83.146 66.9388C83.6757 66.7055 84.2042 66.4802 84.7406 66.2563C85.2511 66.0437 85.7683 65.8405 86.2888 65.642C86.834 65.4402 87.378 65.2463 87.9242 65.0651C88.4536 64.8886 88.9851 64.7248 89.5155 64.5689C90.0716 64.4018 90.63 64.2474 91.185 64.0882C91.7154 63.9323 92.2491 63.7811 92.8008 63.6171C92.6405 63.4474 92.4978 63.5413 92.3779 63.5625C89.4124 64.1747 86.5152 64.9792 83.7468 66.1951C82.5416 66.7224 81.354 67.2939 80.1865 67.8936C79.6229 68.1934 79.1313 68.6333 78.6053 69.0056Z" fill="#CBC8C1"/>
<path d="M40.914 51.4012C40.1908 54.3229 40.3157 57.2609 41.2183 60.2015C41.9545 62.6007 43.0154 64.8196 44.7437 66.6939C44.3208 65.7032 43.6124 64.872 43.1423 63.9006C42.6655 62.9196 42.2101 61.9307 41.8579 60.897C41.5102 59.8886 41.2375 58.8625 41.0323 57.817C40.8226 56.7462 40.7262 55.6734 40.7362 54.5889C40.744 53.5203 40.9219 52.4729 40.914 51.4012Z" fill="#CBC8C1"/>
<path d="M66.4021 64.0354C66.6434 64.339 66.9079 64.2934 67.1576 64.2938C69.0287 64.2797 70.8441 63.9863 72.6181 63.4815C75.297 62.7115 77.9042 61.7445 80.3875 60.4969C80.8354 60.272 81.3412 60.1194 81.7104 59.7448C81.5679 59.5907 81.4499 59.6813 81.3365 59.7403C77.7246 61.6237 73.9018 62.9412 69.8705 63.6768C69.0927 63.8166 68.2863 63.849 67.4965 63.9335C67.1302 63.9591 66.7662 63.9972 66.4021 64.0354Z" fill="#CBC8C1"/>
<path d="M90.6028 85.2684C90.8523 85.5453 91.1545 85.5723 91.4431 85.6372C93.5552 86.0979 95.6693 86.1604 97.7844 86.0238C100.037 85.8818 102.262 85.6041 104.474 85.2142C104.768 85.1623 105.064 85.1229 105.348 84.9714C105.158 84.7875 104.979 84.9069 104.814 84.9313C101.958 85.288 99.0913 85.602 96.1971 85.6665C94.6648 85.7023 93.1331 85.6244 91.6057 85.3805C91.2756 85.3236 90.9364 85.3016 90.6028 85.2684Z" fill="#CBC8C1"/>
<path d="M54.349 89.4826C53.514 86.6859 53.5483 84.0889 54.6638 81.4851C53.737 82.2261 53.3748 83.8431 53.4005 86.7449C53.1913 86.6874 53.2057 86.5072 53.1672 86.3572C52.7668 84.6632 52.8513 83.0159 53.3737 81.4059C53.5228 80.9389 53.7379 80.489 53.8143 79.9955C53.6365 79.9442 53.5799 80.0551 53.5335 80.1518C52.4905 82.3711 52.21 84.6675 53.1568 87.0875C53.2099 87.22 53.2449 87.3937 53.3419 87.4738C53.6209 87.6874 53.6395 88.0003 53.7422 88.2891C53.8737 88.6567 53.8704 89.0914 54.349 89.4826Z" fill="#CBC8C1"/>
<path d="M86.4225 80.7266C86.8147 80.8525 87.1598 80.8065 87.5002 80.7921C89.5617 80.7137 91.5191 80.2204 93.4151 79.4875C94.7389 78.9754 96.0162 78.3687 97.1582 77.5323C97.6774 77.1506 98.1601 76.717 98.5658 76.2033C98.6402 76.1082 98.7057 76.0194 98.656 75.8918C98.5465 75.8418 98.4768 75.9053 98.4115 75.9657C96.5737 77.7548 94.3011 78.7755 91.9022 79.56C90.3287 80.0718 88.719 80.4464 87.0436 80.556C86.8488 80.5665 86.6284 80.5313 86.4225 80.7266Z" fill="#CBC8C1"/>
<path d="M85.919 63.1527C87.4441 62.725 88.9312 62.2817 90.4393 61.8873C92.5631 61.3334 94.7217 60.9532 96.9317 60.827C97.4234 60.7977 97.914 60.7764 98.412 60.8419C98.5149 60.854 98.6512 60.9134 98.7397 60.6949C98.3779 60.4977 97.9862 60.449 97.6011 60.4383C97.039 60.4252 96.4735 60.4359 95.9078 60.475C92.825 60.7018 89.8795 61.4477 87.035 62.5754C86.658 62.7289 86.2498 62.8478 85.919 63.1527Z" fill="#CBC8C1"/>
<path d="M52.918 76.6423C52.9796 76.2236 53.194 75.9162 53.4139 75.6261C54.228 74.5545 55.2688 73.7754 56.4255 73.1126C58.4941 71.9176 60.8036 71.4934 63.1142 71.0614C63.2633 71.0338 63.4521 71.0912 63.5843 70.8773C63.2036 70.892 62.8622 70.8859 62.5262 70.9255C60.6208 71.1486 58.736 71.4774 56.9997 72.3028C55.6271 72.9557 54.3855 73.7848 53.3951 74.9599C53.1066 75.3056 52.9008 75.692 52.7574 76.119C52.697 76.3104 52.6949 76.4888 52.918 76.6423Z" fill="#CBC8C1"/>
<path d="M68.3647 73.5776C67.6598 73.2762 66.9482 73.3761 66.2546 73.4632C62.6333 73.9013 59.0318 74.4245 55.8631 76.3342C57.231 75.9894 58.4995 75.3607 59.8686 75.008C61.2466 74.649 62.6463 74.4162 64.0451 74.1628C65.4718 73.911 66.9116 73.7348 68.3647 73.5776Z" fill="#CBC8C1"/>
<path d="M52.3514 74.066C53.504 71.9273 55.2897 70.4654 57.2555 69.2299C59.2314 67.9801 61.4699 67.4077 63.8502 67.2939C63.837 67.2466 63.8238 67.1994 63.8107 67.1521C63.7525 67.1366 63.6934 67.1006 63.6363 67.1057C61.7757 67.163 59.97 67.3937 58.2874 68.2378C56.5094 69.1282 54.9448 70.2921 53.6202 71.7672C53.04 72.4254 52.5523 73.1668 52.3514 74.066Z" fill="#CBC8C1"/>
<path d="M58.3052 86.1463C58.1323 86.8287 58.1491 87.4547 58.1716 88.0697C58.258 90.3335 58.8597 92.4665 59.9731 94.4926C60.6658 95.7603 61.5205 96.9133 62.3808 98.0552C63.1099 99.0207 63.9628 99.8843 64.8292 100.738C64.9273 100.839 65.0637 100.899 65.2067 100.996C65.0479 100.513 64.6479 100.271 64.3524 99.9772C63.0468 98.6542 61.9867 97.1433 60.958 95.6101C60.2062 94.4977 59.641 93.2958 59.2062 92.0299C58.6676 90.4547 58.4286 88.8447 58.4812 87.1985C58.4905 86.9154 58.473 86.623 58.4589 86.3353C58.4546 86.31 58.4032 86.2755 58.3052 86.1463Z" fill="#CBC8C1"/>
<path d="M97.1885 79.4259C102.086 79.7723 102.975 79.2924 109.184 81.9067C109.219 81.7184 109.068 81.6765 108.95 81.6044C107.679 80.7886 106.307 80.2294 104.874 79.8617C102.477 79.2474 100.059 79.1167 97.6383 79.2989C97.4882 79.306 97.3014 79.2611 97.1885 79.4259Z" fill="#CBC8C1"/>
<path d="M46.0507 56.5069C45.7688 60.0732 47.7088 66.2701 49.7891 67.9165C49.8125 67.7299 49.6776 67.6056 49.5953 67.4796C48.163 65.3462 47.3157 62.9901 46.8132 60.5106C46.5717 59.3277 46.3425 58.1432 46.2199 56.9471C46.2059 56.8223 46.246 56.6592 46.0507 56.5069Z" fill="#CBC8C1"/>
<path d="M56.9154 78.6727C59.5905 79.549 62.2219 79.5708 64.8131 78.6861C66.9041 77.9713 68.8399 76.9413 69.2961 76.1934C65.4535 78.4949 61.4507 79.7199 56.9154 78.6727Z" fill="#CBC8C1"/>
<path d="M81.66 79.111C81.9588 79.3813 82.3076 79.5028 82.6688 79.5943C84.4706 80.0548 86.2759 80.0524 88.0787 79.8746C89.951 79.6902 91.7484 79.247 93.4645 78.5072C93.5464 78.4705 93.6129 78.4022 93.7163 78.3291C93.5311 78.1909 93.4052 78.28 93.2649 78.3297C90.5924 79.3 87.8197 79.7179 84.9379 79.5612C84.2068 79.5189 83.4792 79.4529 82.7554 79.3063C82.3873 79.2338 82.0247 79.1787 81.66 79.111Z" fill="#CBC8C1"/>
<path d="M88.161 75.553C83.5461 76.3889 78.8937 76.4366 74.1761 75.8573C74.3338 75.9087 74.4924 75.9806 74.6536 76.0083C76.1954 76.2916 77.7466 76.4832 79.3076 76.5262C81.9065 76.6069 84.4775 76.4666 87.0011 75.9346C87.3957 75.8537 87.8159 75.8185 88.161 75.553Z" fill="#CBC8C1"/>
<path d="M68.893 77.7607C68.1973 77.8068 67.7448 78.2545 67.2149 78.5162C64.9706 79.644 62.574 80.1075 60.0424 80.0361C58.4815 79.9931 56.9372 79.7826 55.4223 79.2891C55.3608 79.2689 55.286 79.2298 55.2419 79.3105C58.3903 80.7519 64.7765 81.0211 68.893 77.7607Z" fill="#CBC8C1"/>
<path d="M81.8169 90.0197C79.5859 88.1402 72.1896 85.3734 70.401 85.725C71.3128 85.9656 72.0837 86.1499 72.8488 86.3739C73.6296 86.6009 74.399 86.8501 75.174 87.1166C75.9221 87.3738 76.6635 87.65 77.3935 87.9484C78.1458 88.2593 78.8902 88.5971 79.6289 88.946C80.3676 89.2949 81.0872 89.6645 81.8169 90.0197Z" fill="#CBC8C1"/>
<path d="M54.8815 69.4018C56.4307 67.9867 58.252 67.2147 60.1597 66.6224C62.0719 66.0269 64.04 65.8734 66.0281 66.4069C66.1472 66.1172 65.9682 66.0739 65.8509 66.0223C65.3359 65.799 64.7977 65.7338 64.2536 65.708C62.2633 65.601 60.4044 66.081 58.6057 66.8086C57.3725 67.306 56.2626 68.0065 55.2337 68.8409C55.0459 68.995 55.0459 68.995 54.8815 69.4018Z" fill="#CBC8C1"/>
<path d="M43.7503 36.5538C43.4258 36.9252 43.3294 37.3903 43.2151 37.8397C42.6928 39.8889 42.3116 41.9659 42.5292 44.1364C42.6241 45.0827 42.8459 45.9888 43.2594 46.8513C43.3392 47.0217 43.3942 47.2237 43.6372 47.2431C43.8105 47.0779 43.6309 46.9286 43.5766 46.804C42.9709 45.4113 42.8539 43.9563 42.8803 42.4847C42.9109 40.8472 43.2203 39.2605 43.5341 37.6706C43.6121 37.3036 43.679 36.9303 43.7503 36.5538Z" fill="#CBC8C1"/>
<path d="M40.6231 47.1565C40.2078 47.3228 40.1629 47.5743 40.061 47.7739C39.6797 48.5327 39.4505 49.354 39.2559 50.1862C38.5449 53.2476 38.6324 56.3321 39.4099 59.4385C39.4197 59.4812 39.4408 59.5301 39.4675 59.5679C39.4775 59.582 39.5088 59.5882 39.6038 59.6273C39.1653 57.5069 38.9921 55.4185 39.1203 53.3081C39.2542 51.1866 39.8589 49.2067 40.6231 47.1565Z" fill="#CBC8C1"/>
<path d="M70.9774 78.7547C75.5509 79.5293 79.5696 81.6959 83.4247 84.3184C83.4157 84.1051 83.2738 84.0284 83.1432 83.9294C80.2193 81.7181 77.0133 80.1102 73.5626 79.0441C72.726 78.7858 71.8643 78.5876 70.9774 78.7547Z" fill="#CBC8C1"/>
<path d="M60.8222 85.0515C61.2064 85.2328 61.4537 85.2489 61.701 85.265C63.4268 85.3888 65.0498 85.0331 66.6271 84.4408C67.5223 84.1046 68.3477 83.6408 69.1363 83.1251C69.7476 82.7209 70.3189 82.2316 70.7621 81.6277C70.964 81.3503 71.1761 81.0586 71.164 80.5928C68.5413 83.8578 65.0727 85.1515 60.8222 85.0515Z" fill="#CBC8C1"/>
<path d="M55.8157 63.014C56.7588 62.3254 57.7144 61.8262 58.742 61.4673C59.7999 61.094 60.8973 60.8912 62.0241 60.8446C63.1262 60.8013 64.1986 61.0978 65.2871 61.3121C64.99 60.9486 64.6044 60.8036 64.1973 60.695C63.0511 60.3799 61.9055 60.3902 60.7623 60.5759C59.0822 60.8511 57.546 61.4637 56.1692 62.4451C55.9714 62.5851 55.9747 62.5899 55.8157 63.014Z" fill="#CBC8C1"/>
<path d="M81.2837 96.8037C82.92 98.1755 92.6428 101.095 95.3447 100.615C90.5318 100.102 85.908 98.7397 81.2837 96.8037Z" fill="#CBC8C1"/>
<path d="M92.0975 45.3692C91.9174 45.3624 91.8406 45.4732 91.7449 45.5763C90.8885 46.5497 89.9387 47.4195 88.9289 48.233C87.7179 49.2102 86.4016 50.0287 85.1306 50.921C84.8295 51.1342 84.5283 51.3473 84.2537 51.5981C86.1854 50.5913 88.0705 49.5186 89.7253 48.072C90.4599 47.4321 91.1756 46.7844 91.7901 46.0317C91.9468 45.8431 92.1537 45.6684 92.0975 45.3692Z" fill="#CBC8C1"/>
<path d="M102.118 70.3902C99.2161 72.0758 96.1109 73.2825 92.8452 74.1284C95.3733 74.0805 100.994 71.9292 102.118 70.3902Z" fill="#CBC8C1"/>
<path d="M60.2291 61.8923C56.6853 62.3633 53.1169 65.5394 52.5192 68.0629C52.9907 67.6231 53.145 67.0684 53.4976 66.6703C53.8615 66.2501 54.1898 65.7985 54.5749 65.3987C54.9746 64.9814 55.3822 64.5657 55.8608 64.2411C56.3215 63.9292 56.7755 63.6079 57.2228 63.2772C57.6747 62.9433 58.1818 62.7259 58.6967 62.51C59.2072 62.2972 59.7198 62.0971 60.2291 61.8923Z" fill="#CBC8C1"/>
<path d="M65.2174 35.3139C64.5476 35.5684 64.1553 36.0727 63.7175 36.5029C62.6416 37.5475 61.5591 38.5826 60.6202 39.7639C59.9089 40.6567 59.2714 41.5964 58.8916 42.7007C58.8086 42.9364 58.6853 43.1723 58.7309 43.4374C58.9196 43.5233 58.9617 43.4015 59.0015 43.2955C59.8424 41.164 61.3091 39.4888 62.8035 37.8435C63.5694 36.99 64.3809 36.182 65.2174 35.3139Z" fill="#CBC8C1"/>
<path d="M61.2336 88.3559C61.0791 91.7896 64.363 97.7022 66.6353 99.3901C63.9264 96.1469 61.9448 92.5662 61.2336 88.3559Z" fill="#CBC8C1"/>
<path d="M47.7443 68.6186C47.4513 68.0889 47.0385 67.7147 46.7013 67.2658C45.7275 65.9632 45.1076 64.5023 44.618 62.9775C44.2155 61.7384 43.8972 60.4752 43.6866 59.1925C43.6605 59.0408 43.7164 58.8524 43.4997 58.708C43.4575 59.0498 43.5029 59.3721 43.5528 59.6912C43.8602 61.7418 44.3797 63.7487 45.2955 65.6381C45.7899 66.6633 46.4327 67.6118 47.3334 68.3424C47.4595 68.4446 47.6047 68.5261 47.7443 68.6186Z" fill="#CBC8C1"/>
<path d="M36.3406 50.9144C36.5256 49.5436 36.7389 48.337 37.1032 47.1723C37.4799 45.9775 37.9248 44.8124 38.4491 43.6833C38.9654 42.5811 39.6703 41.5933 40.2552 40.4354C39.8336 40.5354 39.7201 40.8425 39.5655 41.0724C38.2701 42.981 37.3758 45.0947 36.7596 47.3446C36.5006 48.286 36.3669 49.252 36.2567 50.2227C36.2424 50.4029 36.2034 50.5864 36.3406 50.9144Z" fill="#CBC8C1"/>
<path d="M96.4058 59.4056C96.2112 59.1396 96.016 59.2069 95.8458 59.2141C94.9488 59.2327 94.0757 59.3903 93.2191 59.5999C91.5093 60.0238 89.8215 60.5171 88.1977 61.206C87.9609 61.3099 87.7419 61.4294 87.5661 61.6388C90.462 60.7367 93.3509 59.882 96.4058 59.4056Z" fill="#CBC8C1"/>
<path d="M67.5645 72.2739C65.3872 71.2149 59.774 71.7446 57.6957 73.4705C59.2155 72.7774 60.809 72.351 62.4775 72.1549C64.1661 71.9586 65.8584 72.1495 67.5645 72.2739Z" fill="#CBC8C1"/>
<path d="M64.407 32.0882C63.8029 32.4166 63.2388 32.8016 62.7358 33.2637C62.0236 33.9164 61.2725 34.5329 60.6114 35.2485C59.965 35.9466 59.3443 36.662 58.8997 37.5217C58.6248 38.049 58.604 38.1628 58.6841 38.6582C58.7568 38.6847 58.8307 38.6748 58.858 38.5989C59.3624 37.2509 60.2882 36.2134 61.2353 35.1963C62.2499 34.1031 63.3702 33.1404 64.407 32.0882Z" fill="#CBC8C1"/>
<path d="M65.8549 82.774C65.4932 82.7678 65.2192 82.905 64.9265 82.9775C63.2601 83.3774 61.5646 83.5356 59.8283 83.3401C58.2152 83.1566 56.7373 82.6011 55.4287 81.5501C55.2993 81.4433 55.1541 81.3618 54.9666 81.2395C55.15 81.7474 55.5476 81.9762 55.9002 82.2369C56.8956 82.978 58.026 83.3756 59.2033 83.5627C61.4473 83.9234 63.6127 83.638 65.7086 82.9201C65.7524 82.8962 65.7795 82.8486 65.8549 82.774Z" fill="#CBC8C1"/>
<path d="M53.2219 77.7596C53.5254 77.3396 53.8801 76.9541 54.2582 76.6016C54.4079 76.4603 54.5732 76.322 54.7462 76.2138C56.4738 75.1469 58.304 74.3399 60.3256 73.9567C60.645 73.8934 60.9512 73.7829 61.2629 73.6896C61.301 73.6768 61.3248 73.6246 61.4206 73.5215C59.8358 73.8645 58.3076 74.0968 56.8671 74.6633C55.8238 75.0761 54.8802 75.6589 53.9922 76.3298C53.6111 76.6208 53.3504 76.9963 53.1465 77.4237C53.0968 77.5155 53.0279 77.628 53.2219 77.7596Z" fill="#CBC8C1"/>
<path d="M74.6435 37.7303C75.1011 37.796 75.3674 37.6288 75.6434 37.5327C77.4563 36.8729 79.3002 36.3046 81.2451 36.1181C81.8456 36.0614 82.4492 36.0664 83.0529 36.0429C83.0452 35.7933 82.8625 35.8305 82.745 35.8074C82.2527 35.7308 81.7555 35.7428 81.2626 35.78C79.0669 35.9456 77.0089 36.5734 75.0289 37.4646C74.9257 37.5093 74.8413 37.5903 74.6435 37.7303Z" fill="#CBC8C1"/>
<path d="M51.904 67.4346C50.7095 64.8351 49.5942 62.3 49.0213 59.5583C48.7976 59.6811 48.8563 59.831 48.8657 59.9591C48.9581 61.1412 49.3287 62.2681 49.7342 63.3776C50.196 64.6527 50.7578 65.8783 51.4836 67.0304C51.558 67.1549 51.6189 67.289 51.904 67.4346Z" fill="#CBC8C1"/>
<path d="M55.1987 55.1905C54.7789 56.7062 54.3829 58.1697 53.9634 59.6286C53.5382 61.0986 52.8783 62.4654 52.118 63.7758C52.3714 63.9437 52.4225 63.787 52.4981 63.6839C53.0407 62.9244 53.4727 62.0944 53.7852 61.2001C54.4204 59.3973 54.8867 57.5369 55.2446 55.6469C55.2665 55.5251 55.3422 55.3936 55.1987 55.1905Z" fill="#CBC8C1"/>
<path d="M76.5289 71.4487C73.9384 72.0003 71.4722 72.5561 69.1426 73.5534C68.9192 73.6477 68.6791 73.7468 68.5825 74.0205C68.7818 74.2264 68.9751 74.0896 69.1165 74.0321C71.4442 72.9937 73.9275 72.3763 76.3567 71.606C76.3736 71.6011 76.3849 71.579 76.5289 71.4487Z" fill="#CBC8C1"/>
<path d="M58.3036 47.2895C60.5045 44.2388 59.191 44.9278 64.9354 40.5653C62.3485 41.5611 58.95 44.787 58.3036 47.2895Z" fill="#CBC8C1"/>
<path d="M42.0132 40.44C42.4417 36.9695 43.4829 33.7172 45.0216 30.6444C43.6975 32.0349 42.0048 36.981 42.0132 40.44Z" fill="#CBC8C1"/>
<path d="M43.1788 61.3654C42.2136 58.3844 42.3587 55.3901 42.6487 52.3145C41.6735 53.7417 42.0365 59.7287 43.1788 61.3654Z" fill="#CBC8C1"/>
<path d="M97.6594 49.5476C95.3448 50.8813 92.8865 51.9063 90.2173 52.8045C91.6985 52.9735 96.6619 50.7701 97.6594 49.5476Z" fill="#CBC8C1"/>
<path d="M57.6233 70.4101C59.0213 69.8883 60.2572 69.2898 61.585 68.9167C62.989 68.5181 64.4152 68.3799 65.8878 68.5843C66.0813 68.6102 66.2947 68.7213 66.5197 68.5054C66.2017 68.2842 65.8827 68.2621 65.5672 68.2163C64.2065 68.0176 62.9075 68.2499 61.6246 68.6196C60.4213 68.9683 59.292 69.4983 58.1706 70.0299C58.0056 70.1113 57.8661 70.2383 57.6233 70.4101Z" fill="#CBC8C1"/>
<path d="M58.8213 34.2522C60.7338 32.1775 62.5772 30.2436 65.0003 28.8824C63.5183 28.9413 59.4322 32.5683 58.8213 34.2522Z" fill="#CBC8C1"/>
<path d="M74.6343 95.1991C73.1672 94.4016 71.7 93.6041 70.2815 92.7227C68.8473 91.8381 67.4967 90.8235 66.0137 89.8602C67.041 91.2099 72.8536 94.8078 74.6343 95.1991Z" fill="#CBC8C1"/>
<path d="M80.1729 37.7596C81.4079 37.5799 82.5635 37.3926 83.7178 37.2416C84.8552 37.0955 86.0094 37.1926 87.1387 37.3215C87.2208 37.0367 87.063 37.0137 86.9277 36.9749C86.1347 36.7781 85.3354 36.7061 84.5333 36.7637C83.1732 36.8619 81.8416 37.0959 80.5626 37.5476C80.456 37.5876 80.3616 37.6544 80.1729 37.7596Z" fill="#CBC8C1"/>
<path d="M58.8636 77.9379C61.6943 78.4137 64.3048 77.7279 66.8281 76.5655C66.7181 76.4096 66.6115 76.4497 66.5172 76.488C64.134 77.4097 61.6687 77.9573 59.0675 77.9211C58.9992 77.9198 58.9331 77.9312 58.8636 77.9379Z" fill="#CBC8C1"/>
<path d="M43.02 65.3967C42.3711 64.1052 41.6772 62.8454 41.2261 61.4707C40.7837 60.118 40.512 58.7296 40.1837 57.2041C40.0814 59.6298 41.4683 63.8014 43.02 65.3967Z" fill="#CBC8C1"/>
<path d="M93.523 84.3916C96.4976 84.6032 99.46 84.5969 102.397 84.183C101.415 84.0992 100.44 84.1797 99.4665 84.1955C98.4808 84.2129 97.495 84.2587 96.5072 84.2634C95.5104 84.2746 94.5148 84.2493 93.5125 84.2431C93.5167 84.2968 93.5176 84.3458 93.523 84.3916Z" fill="#CBC8C1"/>
<path d="M67.2285 70.2432C68.4546 70.6716 72.3445 69.8594 73.8208 68.9138C73.0292 69.1199 72.343 69.2939 71.6556 69.4758C70.9177 69.6722 70.1689 69.8338 69.408 69.9402C68.6808 70.037 67.9296 69.9949 67.2285 70.2432Z" fill="#CBC8C1"/>
<path d="M103.763 79.0441C101.714 78.1201 97.9142 78.1526 96.3928 78.9104C96.5252 79.0789 96.6869 78.9928 96.8237 78.9668C99.112 78.4739 101.427 78.5434 103.763 79.0441Z" fill="#CBC8C1"/>
<path d="M52.0398 42.1092C52.6085 39.9353 53.1224 37.7505 53.8678 35.6358C53.586 35.5518 53.5706 35.7115 53.5332 35.8018C52.7771 37.8249 52.2401 39.9196 52.0398 42.1092Z" fill="#CBC8C1"/>
<path d="M90.6089 86.2886C93.05 87.0623 95.4832 87.3951 97.9272 86.6928C96.6963 86.7066 95.4737 86.8279 94.2354 86.7548C93.0172 86.6816 91.819 86.4172 90.6089 86.2886Z" fill="#CBC8C1"/>
<path d="M49.4247 69.1522C48.6062 68.3279 47.8872 67.5679 47.4027 66.5852C46.947 65.653 46.6251 64.6616 46.0801 63.6793C46.0039 64.0592 46.1583 64.3257 46.2499 64.5798C46.5182 65.3327 46.782 66.0888 47.1413 66.7986C47.5517 67.5998 48.0589 68.3466 48.7575 68.9438C48.9339 69.0884 49.1047 69.2156 49.4247 69.1522Z" fill="#CBC8C1"/>
<path d="M90.073 51.6078C91.5955 50.1837 93.5655 49.5748 95.375 48.6621C94.2106 48.9131 93.1224 49.3578 92.0575 49.8355C91.3674 50.1471 90.7047 50.5453 90.1876 51.1305C90.0964 51.2305 90.0408 51.3618 89.9752 51.4789C90.0052 51.5214 90.0352 51.5638 90.073 51.6078Z" fill="#CBC8C1"/>
<path d="M102.604 69.3894C102.049 69.4713 97.9808 71.5011 97.3976 71.9068C99.2187 71.3255 100.868 70.6252 102.412 69.7093C102.522 69.6455 102.658 69.5706 102.604 69.3894Z" fill="#CBC8C1"/>
<path d="M71.8984 97.4059C73.6165 99.0747 75.6851 100.141 77.8521 101.032C77.4217 100.613 76.8465 100.467 76.3539 100.171C75.8568 99.8779 75.3427 99.618 74.8512 99.3137C74.3374 98.9969 73.8473 98.6563 73.3583 98.3077C72.8871 97.9749 72.4351 97.6214 71.9742 97.2743C71.9437 97.3171 71.9211 97.3615 71.8984 97.4059Z" fill="#CBC8C1"/>
<path d="M90.7031 55.4576C91.8428 55.4581 92.9004 55.1132 93.9602 54.7809C94.6398 54.569 95.2306 54.2217 95.777 53.7925C95.8771 53.7146 96.0263 53.6586 95.9728 53.392C95.5595 53.4367 95.3336 53.7948 95.0081 53.9543C94.6781 54.1171 94.3469 54.2878 94.0047 54.4238C93.6412 54.5678 93.2621 54.6802 92.8865 54.7974C92.5354 54.9114 92.1799 55.0285 91.83 55.1345C91.4543 55.2517 91.0809 55.3531 90.7031 55.4576Z" fill="#CBC8C1"/>
<path d="M62.0829 69.6501C63.6483 69.4703 65.1712 69.5261 66.6876 69.5157C66.7156 69.5171 66.7384 69.4443 66.7643 69.4047C66.7752 69.2482 66.6522 69.2077 66.5392 69.1814C66.3311 69.1445 66.1152 69.106 65.9057 69.1055C64.7063 69.097 63.5198 69.1928 62.3528 69.4307C62.2653 69.4501 62.1734 69.4727 62.0829 69.6501Z" fill="#CBC8C1"/>
<path d="M59.2401 86.2928C58.7674 87.3715 59.0395 89.8296 59.8267 91.4697C59.8535 91.0396 59.646 90.6407 59.582 90.2253C59.5158 89.7973 59.425 89.3725 59.3868 88.946C59.3443 88.4941 59.3589 88.0372 59.3209 87.5822C59.2973 87.1666 59.4114 86.7456 59.2401 86.2928Z" fill="#CBC8C1"/>
<path d="M91.1749 48.3487C91.9599 47.9135 92.8124 47.6218 93.6648 47.3301C94.5128 47.0415 95.4079 46.9533 96.2866 46.7846C94.8921 46.4615 92.3832 47.2528 91.1749 48.3487Z" fill="#CBC8C1"/>
<path d="M69.7343 86.4424C71.5159 86.7974 73.2303 87.3629 75.0762 88.0763C74.6396 87.5632 74.1547 87.545 73.7501 87.3636C73.3108 87.1713 72.8579 87.017 72.4072 86.8753C71.9755 86.7415 71.5414 86.6234 71.0994 86.5323C70.6462 86.4349 70.1942 86.3296 69.7343 86.4424Z" fill="#CBC8C1"/>
<path d="M90.3874 50.3071C90.4521 50.3604 90.4643 50.3872 90.4844 50.3871C90.5281 50.3916 90.5873 50.3992 90.6188 50.377C91.563 49.6805 92.5815 49.1084 93.6455 48.6103C92.4235 48.9228 91.2403 49.2999 90.3874 50.3071Z" fill="#CBC8C1"/>
<path d="M96.6134 52.5428C96.479 52.5529 96.3929 52.536 96.3434 52.571C95.3626 53.2156 94.2853 53.6948 93.2957 54.3173C94.5328 54.0931 95.7566 53.4394 96.6134 52.5428Z" fill="#CBC8C1"/>
<path d="M76.4018 37.8525C77.6277 37.6789 78.698 37.056 79.9082 36.8793C79.0131 36.748 77.1327 37.2644 76.4018 37.8525Z" fill="#CBC8C1"/>
<path d="M54.5069 86.1248C54.7826 84.9875 55.2861 83.9724 56.0585 82.9369C55.1357 83.3775 54.4088 84.9262 54.5069 86.1248Z" fill="#CBC8C1"/>
<path d="M60.9674 58.5101C61.4961 58.4473 61.6978 58.0073 62.0271 57.7672C62.3789 57.5112 62.7373 57.2646 63.1509 56.9719C62.5266 56.9184 61.5173 57.6468 60.9674 58.5101Z" fill="#CBC8C1"/>
</g>
</svg>
