<svg width="174" height="248" viewBox="0 0 174 248" fill="none" xmlns="http://www.w3.org/2000/svg">
<g opacity="0.15">
<path d="M197.893 189.617C197.893 189.617 196.284 188.068 196.002 187.891C195.94 187.799 195.834 187.753 195.743 187.686C194.609 186.782 193.616 185.732 192.538 184.768C191.837 184.141 191.151 183.492 190.489 182.826C189.576 181.916 188.65 181.009 187.765 180.062C187.031 179.275 186.251 178.521 185.51 177.728C184.669 176.838 183.856 175.924 183.006 175.061C182.069 174.11 181.218 173.088 180.316 172.106C179.011 170.676 177.739 169.202 176.469 167.74C175.624 166.768 174.801 165.766 173.956 164.793C173.127 163.844 172.282 162.916 171.447 161.973C170.759 161.197 170.069 160.409 169.381 159.633C168.379 158.509 167.388 157.37 166.357 156.269C165.516 155.379 164.612 154.544 163.742 153.678C163.21 153.143 162.688 152.594 162.19 152.028C161.758 151.547 161.246 151.13 160.777 150.7C160.058 150.037 159.356 149.353 158.637 148.691C157.489 147.617 156.165 146.764 155.042 145.686C153.431 144.129 151.537 142.952 149.801 141.564C149.205 141.085 148.612 140.573 147.948 140.202C146.454 139.358 145.159 138.22 143.693 137.341C142.848 136.834 142.103 136.163 141.221 135.777C140.112 135.29 139.236 134.476 138.169 133.917C137.285 133.462 136.414 132.902 135.559 132.365C134.648 131.786 133.742 131.201 132.747 130.764C132.159 130.507 131.658 130.075 131.06 129.788C129.892 129.234 128.825 128.459 127.652 127.912C125.995 127.129 124.365 126.309 122.702 125.533C120.55 124.528 118.39 123.562 116.17 122.722C115.911 122.619 115.722 122.364 115.353 122.35C115.457 123.053 115.56 123.699 115.65 124.347C115.978 126.652 115.819 128.956 115.53 131.289C115.25 133.537 114.558 135.671 113.669 137.748C113.199 138.842 112.755 139.99 111.95 140.924C111.617 141.312 111.584 141.822 111.252 142.223C110.551 143.076 109.754 143.811 108.906 144.599C108.615 145.44 108.836 146.334 108.804 147.219C108.624 151.09 107.855 154.85 106.271 158.456C105.113 161.084 103.574 163.495 101.695 165.652C100.288 167.263 98.725 168.734 97.0085 170.034C94.3126 172.081 91.3292 173.527 88.2926 174.898C87.0629 175.458 85.8148 175.971 84.6075 176.559C81.9057 177.873 79.1586 179.074 76.5568 180.589C76.2316 180.778 75.9203 180.978 75.602 181.172C74.9957 181.55 74.3716 181.936 73.6065 181.888C72.6336 181.479 72.253 180.683 72.1708 179.632C72.0962 178.643 72.2676 177.702 72.6435 176.777C73.7188 174.144 74.8273 171.525 75.8763 168.884C76.7596 166.655 77.557 164.395 78.4418 162.177C78.9131 160.994 79.4038 159.813 80.0692 158.717C80.1752 158.546 80.237 158.376 80.1434 158.124C79.759 158.19 79.4915 158.49 79.1717 158.672C77.1048 159.847 74.9488 160.807 72.7246 161.568C69.8622 162.547 66.9298 163.154 63.9704 163.536C60.873 163.929 57.7798 164.041 54.6925 163.782C52.4299 163.593 50.2389 163.104 48.0369 162.631C44.9898 161.969 42.0025 161.068 38.8705 160.752C38.1729 160.686 37.5881 160.454 37.3367 159.731C37.2232 159.419 37.1716 159.096 37.3131 158.746C37.596 158.048 37.8943 157.372 38.2507 156.705C38.9798 155.35 40.0396 154.219 40.7856 152.899C41.4841 151.658 42.3579 150.559 43.1815 149.411C43.6253 148.787 43.8471 148.054 44.345 147.459C44.7978 146.909 45.2753 146.356 45.4987 145.636C45.5856 145.359 45.8428 145.131 46.0281 144.882C46.8726 143.75 47.7225 142.61 48.6269 141.397C48.2746 141.361 48.0409 141.312 47.7953 141.322C45.7137 141.427 43.7158 141.072 41.7277 140.587C39.5763 140.06 37.5787 139.182 35.6 138.249C34.7888 137.871 34.0355 137.342 33.254 136.894C31.1375 135.711 29.3098 134.14 27.3677 132.723C26.3695 131.999 25.6523 130.929 24.573 130.372C24.4869 130.183 24.4386 130.044 24.3546 129.925C23.4624 128.609 24.2092 127.506 25.0963 126.781C26.0301 126.023 27.0493 125.396 28.0686 124.77C30.1428 123.499 32.217 122.227 34.2589 120.897C36.3132 119.565 38.3636 118.253 40.6686 117.427C40.7593 117.393 40.8271 117.273 40.9228 117.174C40.3863 116.238 39.8443 115.309 39.3148 114.379C38.5674 113.058 37.8364 111.715 37.0891 110.394C36.3025 109.01 35.4801 107.645 34.7292 106.242C34.2045 105.246 33.6759 104.271 32.8989 103.44C32.26 102.758 32.2474 102.601 32.2116 101.356C33.0831 99.607 34.6925 98.7845 36.2146 97.9195C38.5671 96.5943 40.921 95.2816 43.1626 93.7711C44.1526 93.1115 45.0386 92.2718 46.0286 91.6122C47.4642 90.6598 48.8898 89.6773 50.5424 88.8985C50.0022 88.1421 49.4982 87.4241 49.0012 86.7113C48.0141 85.2909 47.1846 83.7608 46.3264 82.2547C45.2026 80.2771 44.5653 78.0828 43.6161 76.0309C43.444 75.6519 43.4068 75.2372 43.4013 74.8235C43.3826 74.1952 43.6022 73.6539 44.1644 73.2776C44.6388 72.9608 45.1361 72.7295 45.6458 72.4961C47.1051 71.8459 48.6413 71.5717 50.1639 71.185C50.8454 71.0117 51.5633 71.0362 52.2589 71.0327C52.5625 71.0321 52.8508 71.0085 53.1345 70.9475C53.1871 70.5431 52.9178 70.2508 52.8424 69.8873C52.499 68.2425 52.9538 67.3423 54.4052 66.7317C55.5076 66.2698 56.6835 65.9996 57.8227 65.6335C58.633 65.3744 59.4349 65.0976 60.3415 64.7967C59.1197 63.3716 57.4803 62.4194 57.0363 60.5175C56.9735 59.8903 57.3113 59.4373 57.6854 59.0229C59.3564 57.871 61.2396 57.3783 63.0974 56.8326C64.6443 56.3844 66.1842 55.931 67.7516 55.6005C69.0298 55.3383 70.3379 55.1668 71.6332 55.0994C73.6211 55.0036 75.6037 55.0745 77.5401 55.4977C78.424 55.6917 79.2984 55.9129 80.1635 56.1612C80.3864 56.2253 80.576 56.276 80.8358 56.1744C79.5091 53.772 78.7759 51.0965 77.8464 48.5245C77.3456 47.149 76.7718 45.7986 76.2353 44.4419C76.0725 44.0358 75.8974 43.6318 75.7827 43.2048C75.5848 42.4539 75.6161 41.715 76.2371 41.1437C77.5513 40.3396 78.8857 40.5973 80.1409 40.9323C83.1356 41.7368 86.1075 42.6153 89.1452 43.304C90.765 43.6726 92.3879 44.0663 93.9983 44.462C95.9284 44.9374 97.7951 45.5701 99.5813 46.4272C100.944 47.0819 102.28 47.7731 103.581 48.5405C104.336 48.9797 105.068 49.4356 105.758 49.9625C106.149 50.266 106.294 50.8409 106.9 50.9866C107.264 49.381 107.442 47.7623 107.48 46.1293C107.528 44.3222 107.377 42.5364 107.199 40.7423C106.915 37.9137 106.687 35.0693 106.49 32.2259C106.43 31.3048 106.389 30.3295 107.366 29.6147C107.757 29.816 108.08 30.08 108.387 30.4806C109.196 31.5741 110.02 32.6906 110.993 33.6222C111.801 34.3969 112.554 35.2446 113.509 35.8668C114.484 36.5046 115.335 37.3677 116.356 37.9148C117.906 38.7546 119.254 39.8647 120.641 40.9237C121.839 41.8424 122.918 42.9218 124.046 43.9354C124.984 44.7838 125.854 45.7073 126.711 46.6205C127.964 47.9445 129.071 49.4084 130.021 50.9945C130.637 52.0124 131.254 53.0427 131.783 54.1202C132.866 56.3406 133.561 58.7037 133.986 61.1829C134.33 61.0415 134.403 60.6527 134.704 60.4676C134.91 60.3942 135.115 60.3657 135.328 60.5017C136.074 60.968 136.662 61.6015 137.166 62.3194C138.617 64.3818 139.639 66.6701 140.495 69.0505C140.915 70.2293 141.303 71.4071 141.627 72.6277C142.287 75.1117 142.687 77.6525 142.622 80.2661C142.538 83.6166 141.675 86.8061 140.422 89.9537C139.789 91.5286 139.087 93.064 138.25 94.5205C137.367 96.0677 136.441 97.6286 135.25 98.9795C132.798 101.744 130.302 104.452 127.204 106.517C124.586 108.27 121.823 109.652 118.862 110.603C117.924 110.903 116.969 111.065 116.049 111.254C115.75 111.451 115.601 111.681 115.592 112.027C115.576 112.846 115.517 113.666 115.477 114.489C115.4 115.797 115.034 117.072 114.818 118.378C114.746 118.779 114.581 119.19 114.767 119.579C116.701 120.354 118.628 121.123 120.543 121.939C122.324 122.701 124.055 123.574 125.847 124.322C126.839 124.733 127.763 125.31 128.721 125.81C129.807 126.371 130.898 126.913 131.995 127.46C132.575 127.757 133.118 128.117 133.676 128.443C134.452 128.898 135.242 129.363 136.038 129.776C136.969 130.256 137.726 131.027 138.756 131.33C138.828 131.349 138.885 131.403 138.935 131.452C139.897 132.296 141.059 132.858 142.159 133.475C143.455 134.204 144.522 135.286 145.928 135.825C146.028 135.865 146.112 135.94 146.197 136.015C148.759 138.009 151.659 139.551 154.116 141.671C155.55 142.914 157.082 144.025 158.515 145.254C159.115 145.771 159.635 146.365 160.524 146.915C159.582 145.813 158.828 144.863 158.006 143.976C156.539 142.401 155.14 140.764 153.804 139.071C152.318 137.187 150.791 135.329 149.477 133.301C147.495 130.238 145.911 127.006 144.942 123.426C144.415 121.462 143.919 119.499 143.587 117.476C143.434 116.519 143.219 115.574 143.153 114.603C142.929 111.215 142.788 107.833 142.946 104.412C143.147 100.034 143.726 95.7001 144.67 91.3996C145.371 88.1802 146.216 85.0001 147.203 81.8467C147.815 79.8801 148.459 77.927 149.176 75.9935C149.998 73.7867 150.867 71.5913 151.795 69.4177C152.471 67.8292 153.081 66.2262 153.75 64.6325C154.822 62.0772 155.953 59.5436 156.806 56.9043C157.425 55.0002 157.831 53.0621 158.23 51.1189C158.475 49.9481 158.803 48.7824 159.029 47.6085C159.146 47.0018 159.548 46.6081 159.84 46.2011C160.237 46.0314 160.511 46.0996 160.657 46.413C160.859 46.8826 161.055 47.3594 161.179 47.8614C161.544 49.3748 161.903 50.883 162.207 52.4069C162.496 53.8631 162.973 55.2554 163.383 56.6655C164.014 58.8546 164.662 61.0343 165.408 63.1847C166.084 65.1236 166.826 67.0322 167.586 68.9313C168.689 71.678 169.834 74.4111 171.02 77.118C171.802 78.8858 172.537 80.6871 172.988 82.5942C173.223 83.6003 173.49 84.6075 173.609 85.6524C173.753 86.9995 173.951 88.3309 174.081 89.6801C174.389 92.7661 174.263 95.8686 173.884 98.9758C173.552 101.686 172.878 104.346 172.094 106.98C171.541 108.853 171.092 110.748 170.631 112.644C169.849 115.826 169.242 119.036 168.642 122.251C168.24 124.431 167.972 126.62 167.737 128.822C167.484 131.136 167.427 133.449 167.35 135.758C167.32 136.51 167.391 137.257 167.443 138.001C167.585 140.132 167.673 142.28 168.033 144.381C168.731 148.44 169.648 152.437 171.344 156.173C171.903 157.399 172.456 158.632 173.122 159.8C173.53 160.515 174.064 161.165 174.607 161.787C175.989 163.388 177.429 164.942 178.766 166.59C180.059 168.182 181.535 169.615 182.856 171.182C183.757 172.254 184.76 173.231 185.644 174.325C186.395 175.25 187.361 175.972 188.14 176.873C188.964 177.83 189.905 178.658 190.769 179.576C191.306 180.148 191.885 180.707 192.464 181.253C193.113 181.863 193.861 182.399 194.364 183.162C194.403 183.226 194.471 183.265 194.532 183.299C195.553 183.948 196.23 185.001 197.245 185.657C197.25 185.684 197.443 186.885 197.443 186.885C197.476 186.944 197.393 186.837 197.443 186.885C196.445 185.913 196.549 185.967 196.051 185.618C195.54 185.258 195.243 184.684 194.733 184.337C193.953 183.8 193.362 183.039 192.66 182.412C192.178 181.984 191.655 181.582 191.24 181.078C190.383 180.05 189.356 179.192 188.465 178.208C187.999 177.7 187.483 177.246 187.018 176.751C186.257 175.943 185.517 175.105 184.761 174.29C184.055 173.524 183.302 172.79 182.607 172.009C181.745 171.046 180.922 170.044 180.083 169.064C178.98 167.785 177.877 166.506 176.768 165.233C175.682 163.989 174.578 162.755 173.474 161.52C172.617 160.55 171.76 159.579 170.892 158.623C169.878 157.501 168.87 156.384 167.827 155.286C167.053 154.48 166.255 153.69 165.481 152.884C164.41 151.765 163.26 150.724 162.194 149.597C161.586 148.961 160.846 148.487 160.268 147.839C159.318 146.776 158.206 145.9 157.109 145.034C153.752 142.378 150.276 139.882 146.848 137.32C146.674 137.191 146.512 137.001 146.309 136.94C145.553 136.705 144.968 136.211 144.385 135.73C143.766 135.21 142.958 135.016 142.339 134.496C141.383 133.702 140.235 133.209 139.204 132.529C138.579 132.119 137.948 131.659 137.27 131.334C135.827 130.654 134.529 129.753 133.129 129.002C131.986 128.386 130.843 127.771 129.705 127.148C129.204 126.876 128.722 126.55 128.199 126.307C127.255 125.875 126.315 125.422 125.37 124.99C124.164 124.429 122.97 123.867 121.758 123.314C120.648 122.814 119.526 122.329 118.411 121.836C118.311 121.796 118.264 121.829 118.261 121.906C118.223 122.276 118.515 122.495 118.582 122.738C119.819 123.287 121.005 123.787 122.167 124.348C123.429 124.95 124.682 125.579 125.934 126.208C126.925 126.709 127.948 127.166 128.911 127.704C130.105 128.369 131.316 129.024 132.51 129.688C133.893 130.46 135.266 131.247 136.623 132.056C137.74 132.721 138.93 133.303 139.936 134.146C140.021 134.221 140.101 134.303 140.206 134.336C141.437 134.733 142.236 135.853 143.467 136.25C145.321 137.727 147.456 138.799 149.3 140.29C151.57 142.124 154.059 143.665 156.186 145.676C157.107 146.546 158.14 147.296 159.095 148.134C159.86 148.808 160.561 149.537 161.331 150.204C162.413 151.149 163.332 152.268 164.381 153.257C164.752 153.602 165.048 154.017 165.419 154.362C166.26 155.15 167.08 155.968 167.853 156.819C169.063 158.144 170.233 159.507 171.426 160.854C172.283 161.825 173.151 162.781 174.003 163.758C175.039 164.954 176.006 166.211 177.087 167.361C178.495 168.856 179.758 170.472 181.166 171.968C182.167 173.035 183.132 174.165 184.123 175.247C185.121 176.334 186.152 177.389 187.179 178.452C188.609 179.931 190.073 181.366 191.52 182.823C192.054 183.37 192.666 183.827 193.193 184.369C194.124 185.327 195.068 186.283 196.128 187.097C196.274 187.207 196.461 187.289 196.555 187.439C196.71 187.686 197.587 188.129 197.662 188.181L197.893 189.617ZM108.868 85.5888C108.845 85.6628 108.694 85.7778 108.916 85.7846C108.89 85.719 108.857 85.6607 108.83 85.5951C108.911 85.473 108.904 85.3657 108.798 85.2753C108.832 84.3446 108.841 83.4182 108.886 82.4855C109.021 80.0259 109.111 77.5674 109.595 75.1186C110.231 71.8847 111.302 68.7489 112.068 65.544C112.61 63.2638 112.988 60.9861 113.211 58.6837C113.367 57.0369 113.334 55.3967 113.314 53.7545C113.283 51.8204 113.049 49.9275 112.705 48.066C112.302 45.8764 111.494 43.8387 110.492 41.8723C109.366 39.6655 108.281 37.4325 107.64 34.9964C107.596 34.8381 107.484 34.755 107.355 34.6813C107.403 34.603 107.464 34.5351 107.355 34.4645C107.252 34.5585 107.341 34.6136 107.393 34.6749C107.388 36.4809 107.763 38.2287 107.809 40.0262C107.83 41.26 108.027 42.4767 108.107 43.7197C108.272 46.3006 107.998 48.8605 107.579 51.4259C107.273 53.3471 107.012 55.2797 106.807 57.209C106.461 60.534 106.372 63.8469 106.506 67.1667C106.597 69.4539 106.744 71.7253 106.928 73.9904C107.175 76.94 107.554 79.8737 108.123 82.7684C108.262 83.4976 108.412 84.2246 108.551 84.9538C108.583 85.1142 108.694 85.1973 108.823 85.2711C108.723 85.3901 108.749 85.5005 108.868 85.5888ZM134.527 65.8878C134.425 66.0391 134.201 66.1792 134.411 66.3924C134.263 66.5324 134.24 66.7085 134.2 66.9066C133.606 69.6933 132.426 72.2478 130.762 74.5658C128.561 77.6195 126.281 80.6035 124.031 83.6209C123.846 83.8693 123.621 84.099 123.502 84.3744C122.905 85.6689 122.079 86.8492 121.448 88.1302C120.934 89.1681 120.323 90.1906 119.814 91.2213C119.226 92.4313 118.625 93.6435 118.103 94.8804C117.596 96.083 117.089 97.2856 116.577 98.4955C117.459 97.5162 118.303 96.5432 119.184 95.6087C119.392 95.3884 119.532 95.0838 119.769 94.8968C120.81 94.0818 121.613 93.0203 122.581 92.1283C123.578 91.2124 124.415 90.1195 125.405 89.1984C125.855 88.7837 126.182 88.2432 126.659 87.8942C127.474 87.3089 127.862 86.3244 128.703 85.7922C129.771 84.2581 131.035 82.882 131.909 81.2024C132.679 79.719 133.309 78.2212 133.678 76.6084C134.264 74.0655 134.5 71.4994 134.571 68.9358C134.592 68.1094 134.787 67.2086 134.394 66.4143C134.509 66.2609 134.669 66.1188 134.486 65.9139C134.521 65.8378 134.588 65.7626 134.473 65.6993C134.388 65.7839 134.458 65.8358 134.527 65.8878ZM68.2006 124.282C68.2756 124.326 68.3575 124.376 68.4238 124.244C68.328 124.184 68.2681 124.264 68.2121 124.324C68.1078 124.247 68.0186 124.294 67.9115 124.35C66.1063 125.333 64.3419 126.393 62.6506 127.586C60.3535 129.215 58.3233 131.168 56.3448 133.182C55.7804 133.75 55.3303 134.426 54.7475 134.946C53.6969 135.891 52.8718 137.026 51.9617 138.087C50.7336 139.501 49.656 141.063 48.5614 142.588C47.5432 144.012 46.4762 145.399 45.536 146.892C44.4422 148.635 43.4125 150.437 42.0784 152.022C41.8575 152.29 41.5993 152.563 41.4635 153.065C43.5364 151.519 45.6922 150.4 47.751 149.105C49.7865 147.827 51.6063 146.229 53.1782 144.412C54.8498 142.475 56.261 140.321 57.6127 138.146C57.6494 138.082 57.6914 138.011 57.7281 137.948C58.3473 136.783 58.9069 135.597 59.5802 134.462C60.1436 133.518 60.8516 132.67 61.3926 131.698C62.1792 130.295 63.515 129.302 64.4113 127.969C65.1882 127.537 65.5886 126.71 66.2467 126.132C66.9103 125.547 67.6573 125.025 68.2006 124.282ZM168.572 150.962C168.749 150.695 168.616 150.437 168.545 150.213C168.016 148.441 167.651 146.621 167.441 144.769C167.165 142.424 166.816 140.104 166.733 137.732C166.68 136.236 166.665 134.746 166.719 133.25C166.769 131.877 166.888 130.498 167.012 129.111C167.202 126.955 167.449 124.795 167.875 122.656C168.526 119.343 169.081 116.014 169.94 112.743C170.609 110.205 171.148 107.638 171.877 105.122C172.738 102.182 173.235 99.2075 173.46 96.1902C173.632 93.9411 173.509 91.7102 173.424 89.4731C173.409 89.1438 173.431 88.7957 173.232 88.5106C173.23 88.4408 173.405 88.3216 173.178 88.3221C173.21 88.3804 173.237 88.446 173.269 88.5043C173.196 88.6315 173.098 88.7631 173.056 88.8913C172.745 89.933 172.46 90.983 172.135 92.0143C171.477 94.1165 170.708 96.1929 169.771 98.1893C169.012 99.8176 168.294 101.477 167.375 103.043C166.582 104.396 165.968 105.86 165.257 107.263C164.378 109.007 163.572 110.771 162.888 112.603C161.882 115.288 161.122 118.019 160.709 120.839C160.348 123.312 160.359 125.766 160.508 128.222C160.637 130.286 161.068 132.292 161.57 134.26C162.429 137.61 163.652 140.834 165.048 143.97C165.76 145.572 166.519 147.152 167.32 148.706C167.71 149.475 168.042 150.293 168.615 150.948C168.567 151.026 168.514 151.112 168.647 151.166C168.706 151.073 168.636 151.021 168.572 150.962ZM159.035 51.3902C158.839 51.5511 158.848 51.7855 158.792 52.0056C158.424 53.5736 158.061 55.1344 157.57 56.6787C156.893 58.7778 156.096 60.8334 155.22 62.8642C154.293 64.993 153.419 67.1384 152.539 69.2911C151.8 71.0944 151.074 72.8956 150.396 74.7206C149.702 76.5801 149.047 78.4457 148.413 80.327C147.284 83.6702 146.357 87.062 145.586 90.491C144.967 93.2372 144.452 96.0039 144.118 98.8036C143.825 101.258 143.634 103.721 143.601 106.176C143.58 108.004 143.611 109.836 143.635 111.663C143.642 112.044 143.732 112.418 143.794 112.886C144.082 112.544 144.057 112.229 144.112 111.952C144.388 110.667 144.658 109.39 145.103 108.141C145.87 105.95 146.784 103.81 147.831 101.738C148.796 99.8193 149.856 97.9486 150.929 96.0883C151.647 94.8499 152.284 93.5741 152.934 92.2962C154.132 89.949 155.178 87.5448 156.091 85.0867C157.797 80.4907 159.105 75.8028 159.687 70.958C160.169 66.87 160.136 62.806 159.8 58.7551C159.65 56.9245 159.423 55.094 159.166 53.2751C159.079 52.6521 159.341 51.995 159.006 51.4142C159.041 51.3381 159.113 51.2556 158.993 51.1996C158.894 51.2738 158.971 51.331 159.035 51.3902ZM95.6595 139.626C95.7315 139.646 95.8433 139.786 95.8549 139.567C95.789 139.598 95.73 139.633 95.664 139.664C95.5603 139.643 95.4551 139.61 95.3544 139.614C93.7648 139.655 92.2138 139.543 90.7341 138.972C89.2544 138.401 88.0065 137.548 86.9512 136.349C86.0047 135.267 85.3617 134.024 84.8832 132.676C84.5765 131.81 84.3645 130.889 84.3702 129.938C84.3721 127.482 85.0211 125.145 85.9812 122.87C86.5273 121.572 87.0873 120.283 87.6404 118.99C87.5267 118.939 87.4572 118.887 87.4006 118.891C85.4717 118.951 83.5571 119.34 81.6354 119.565C80.9047 119.645 80.1842 119.914 79.4471 120.046C77.7179 120.347 76.0367 120.888 74.3924 121.525C72.6518 122.204 71.0689 123.194 69.5298 124.285C68.0551 125.334 66.724 126.523 65.5007 127.873C64.9641 128.462 64.5185 129.176 63.9104 129.643C62.757 130.522 62.2426 131.821 61.5778 132.974C60.902 134.142 60.261 135.335 59.62 136.529C59.2419 137.224 58.832 137.919 58.4592 138.608C57.7707 139.88 57.1 141.142 56.2199 142.293C55.6408 143.055 55.0564 143.824 54.4843 144.591C53.7106 145.629 52.7124 146.43 51.7296 147.254C50.2815 148.47 48.6046 149.311 47.0232 150.313C45.3471 151.37 43.5617 152.255 41.9641 153.439C41.3941 153.855 40.8271 154.296 40.3241 154.796C39.4481 155.666 38.9737 156.824 38.3588 157.867C38.0806 158.342 37.7609 158.945 38.0003 159.567C38.3551 159.992 38.831 160.108 39.359 160.184C41.6391 160.466 43.8555 161.008 46.0719 161.549C47.7543 161.964 49.4664 162.311 51.1661 162.66C55.3619 163.508 59.6295 163.376 63.9115 162.889C66.3144 162.614 68.6972 162.12 71.0475 161.407C73.9468 160.525 76.7416 159.405 79.3884 157.845C80.434 157.226 81.491 156.651 81.8327 155.336C81.8579 155.23 81.962 155.149 82.0328 155.054C82.5271 154.376 82.9101 153.616 83.2853 152.895C83.9233 151.676 84.7405 150.58 85.4634 149.437C86.5299 147.731 87.8592 146.21 89.3428 144.815C90.5762 143.655 91.8365 142.56 93.1663 141.518C93.9643 140.84 94.9078 140.373 95.6595 139.626ZM111.195 97.3636C108.103 88.2258 106.451 78.9131 105.874 69.3345C105.771 69.1096 105.517 69.0445 105.4 68.8666C104.528 67.5543 103.406 66.4885 102.144 65.5679C101.166 64.8603 100.268 64.0181 99.2063 63.4524C97.7924 62.6915 96.3176 62.0558 94.7992 61.4785C92.0061 60.4037 89.1035 59.8387 86.1333 59.5532C82.7473 59.2299 79.3438 59.6559 75.9618 60.1549C74.4955 60.3789 73.0364 60.7675 71.6027 61.2092C68.6716 62.0907 65.8332 63.269 62.9949 64.4472C61.054 65.2495 59.1117 66.0393 57.0881 66.575C56.1934 66.8166 55.2863 67.0602 54.4404 67.4976C53.5822 67.937 53.3629 68.3762 53.4842 69.3315C53.5212 69.5868 53.6009 69.8284 53.7 70.073C54.356 71.7921 54.8539 73.5637 55.3393 75.3373C56.1193 78.1389 56.9544 80.9247 57.7467 83.7241C58.3188 85.7445 59.0422 87.7073 59.7888 89.6534C60.7903 92.2451 61.822 94.8252 63.4164 97.0863C64.654 98.8532 65.8683 100.637 67.3949 102.176C68.0725 102.864 68.7516 103.565 69.4183 104.268C70.3165 105.213 71.2924 106.067 72.2847 106.9C73.5373 107.95 74.9979 108.677 76.4233 109.481C77.5835 110.132 78.7874 110.724 80.0243 111.171C83.2849 112.345 86.6715 113.146 90.2402 113.515C90.5388 112.737 90.8276 111.929 91.1634 111.144C92.1805 108.764 92.7053 106.289 93.0018 103.757C93.2207 101.896 93.325 100.028 93.7747 98.191C94.1424 96.725 94.6378 95.3203 95.6112 94.1022C96.6336 92.8183 97.9544 92.1215 99.4761 91.7796C100.375 91.5756 101.216 91.8281 102.069 92.0337C104.233 92.5585 106.205 93.486 108.097 94.5929C109.278 95.2595 110.11 96.3363 111.195 97.3636ZM58.4304 130.269C62.459 126.362 67.2017 123.763 72.2006 121.662C77.2709 119.523 82.5594 118.515 87.9556 118.35C88.5825 116.986 89.2039 115.63 89.8565 114.218C89.4308 114.15 89.1087 114.103 88.7867 114.056C86.701 113.76 84.647 113.306 82.629 112.73C80.7232 112.194 78.9009 111.458 77.1148 110.6C75.6046 109.881 74.2362 108.973 72.8132 108.137C71.9483 107.627 71.2057 106.924 70.4616 106.208C69.5809 105.357 68.7126 104.503 67.8318 103.652C66.4355 102.301 65.1869 100.81 64.0383 99.2577C61.9456 96.4308 60.3233 93.3069 59.1581 89.933C58.817 88.9385 58.403 87.9692 58.0546 87.0717C57.7701 86.916 57.5916 87.0101 57.408 87.0095C56.8355 87.0367 56.3219 87.29 55.7837 87.4453C54.1709 87.9239 52.5681 88.4327 51.0787 89.2538C48.752 90.53 46.547 91.9768 44.4296 93.6257C42.3588 95.2411 40.0514 96.5203 37.7449 97.7548C36.556 98.3909 35.3701 99.0519 34.2905 99.8608C33.6234 100.363 32.6699 100.8 32.7725 101.969C32.8846 102.269 33.0352 102.575 33.2797 102.871C33.7324 103.426 34.2069 103.951 34.557 104.6C36.0891 107.394 37.639 110.18 39.2177 112.941C41.0281 116.103 42.9208 119.213 45.2561 122.005C46.1068 123.027 47.0288 124.012 48.0871 124.815C49.2705 125.71 50.4267 126.643 51.7587 127.354C53.0629 128.044 54.3305 128.798 55.694 129.351C56.5959 129.695 57.486 130.098 58.4304 130.269ZM171.202 157.729C170.868 156.739 170.309 155.935 169.858 155.074C168.748 152.947 167.579 150.856 166.504 148.711C165.124 145.973 163.864 143.177 162.784 140.299C161.746 137.509 160.835 134.666 160.296 131.715C159.838 129.222 159.595 126.674 159.722 124.107C159.873 121.045 160.465 118.029 161.361 115.057C162.423 111.528 163.991 108.205 165.685 104.932C166.46 103.429 167.227 101.92 167.976 100.409C169.234 97.8789 170.322 95.3016 171.262 92.6476C171.786 91.1615 172.287 89.6474 172.559 88.1212C172.92 86.127 172.606 84.1518 172.135 82.2292C171.692 80.4419 170.97 78.7531 170.237 77.079C168.902 74.0337 167.646 70.956 166.413 67.8615C165.234 64.8982 164.238 61.8783 163.307 58.8155C162.246 55.3601 161.339 51.8721 160.613 48.3149C160.531 47.8888 160.454 47.4107 159.989 46.9156C159.873 47.5797 159.721 48.0458 159.72 48.5116C159.726 49.8246 159.744 51.1355 159.869 52.4347C160.139 55.3103 160.59 58.1615 160.716 61.0551C160.776 62.3972 160.844 63.7444 160.816 65.0888C160.765 67.5086 160.582 69.9318 160.215 72.3544C159.873 74.6581 159.4 76.9329 158.784 79.1809C158.112 81.6364 157.334 84.0587 156.372 86.4231C155.722 88.0199 155.08 89.6219 154.291 91.1596C153.808 92.0964 153.454 93.0944 152.923 93.9948C152.367 94.9442 151.938 95.9549 151.359 96.8763C150.907 97.5848 150.494 98.312 150.114 99.0402C149.362 100.469 148.57 101.88 147.879 103.343C146.521 106.254 145.324 109.194 144.741 112.342C144.343 114.502 144.123 116.613 144.573 118.781C144.955 120.637 145.37 122.46 145.917 124.268C146.754 127.022 147.932 129.609 149.471 131.988C150.521 133.614 151.596 135.237 152.839 136.735C154.561 138.795 156.188 140.955 157.955 142.97C159.405 144.612 160.873 146.244 162.387 147.83C163.82 149.333 165.106 150.977 166.414 152.592C167.567 154.022 168.862 155.32 170.111 156.651C170.446 157.015 170.654 157.535 171.202 157.729ZM108.841 130.807C109.489 129.88 109.929 129.174 110.369 128.467C111.355 126.883 112.058 125.201 112.724 123.48C113.685 121.001 114.206 118.444 114.564 115.844C115.019 112.577 115.112 109.359 114.486 106.149C114.05 103.946 113.387 101.858 112.226 99.9885C111.113 98.2005 109.78 96.5902 108.056 95.3589C107.524 94.9839 106.944 94.687 106.397 94.3464C104.703 93.3078 102.833 92.8095 100.894 92.5207C99.0763 92.2432 97.3559 93.1419 96.2649 94.75C95.3071 96.1505 94.7246 97.6721 94.3958 99.3036C94.0748 100.896 93.925 102.49 93.7062 104.09C93.4816 105.8 93.1975 107.488 92.6895 109.156C91.691 112.426 90.0342 115.432 88.6559 118.543C87.6798 120.738 86.655 122.896 85.8854 125.176C85.2473 127.077 84.9887 128.978 85.2481 130.924C85.5437 133.17 86.5656 135.037 88.103 136.562C89.4174 137.863 91.1012 138.552 92.9585 138.791C95.6906 139.149 98.313 138.594 100.857 137.39C104.143 135.829 106.744 133.415 108.841 130.807ZM107.446 30.2324C107.225 30.4424 107.137 30.6041 107.155 30.8114C107.216 31.3688 107.229 31.9471 107.362 32.4793C108.026 35.1029 109.137 37.5037 110.631 39.7118C112.278 42.1489 113.77 44.6635 114.371 47.6613C114.837 50.0123 115.033 52.3774 114.863 54.7985C114.668 57.6 114.101 60.3502 113.464 63.1058C112.735 66.2471 111.744 69.3181 110.936 72.4345C110.6 73.742 110.207 75.0527 110.017 76.3671C109.544 79.6434 109.32 82.9347 109.518 86.2117C109.686 89.0218 110.198 91.7603 111.038 94.4242C111.601 96.2102 112.278 97.9449 113.003 99.6586C113.463 100.754 113.954 101.838 114.426 102.918C114.597 102.864 114.616 102.765 114.64 102.646C115.013 100.694 115.694 98.837 116.465 96.9899C117.27 95.0541 118.175 93.1588 119.072 91.2582C119.97 89.3577 120.988 87.5132 121.987 85.6656C122.671 84.4136 123.446 83.1719 124.345 82.0238C126.094 79.7807 127.731 77.4545 129.473 75.2062C130.766 73.5445 131.824 71.7635 132.616 69.8298C133.644 67.3329 134.138 64.7548 133.608 62.1403C133.408 61.1602 133.257 60.1715 132.995 59.2019C132.306 56.6274 131.289 54.2296 129.906 51.9899C128.761 50.1437 127.514 48.4039 126.028 46.8387C125.31 46.0743 124.577 45.3443 123.836 44.6091C122.747 43.5443 121.636 42.5212 120.447 41.5754C118.79 40.269 117.068 39.0502 115.281 37.9191C113.713 36.9293 112.241 35.7955 110.946 34.4403C110.503 33.9734 110.067 33.4991 109.652 32.9956C108.913 32.1135 108.2 31.1823 107.446 30.2324ZM99.2824 138.92C98.1765 140.142 97.5479 141.333 97.0043 142.6C96.5685 143.605 96.3292 144.666 95.9847 145.695C94.9981 148.644 94.1678 151.63 92.8974 154.481C92.3734 155.648 91.8827 156.828 91.116 157.871C90.3182 158.97 89.5342 160.079 88.7085 161.158C87.7793 162.375 86.6787 163.429 85.579 164.439C84.2291 165.683 82.9309 166.989 81.5293 168.171C80.4152 169.113 79.3597 170.122 78.2903 171.121C77.5723 171.779 76.814 172.418 76.1809 173.151C75.3813 174.078 74.607 175.058 73.9867 176.108C73.1287 177.549 72.3805 179.06 73.2503 180.768C73.4683 180.897 73.6299 181.189 74.1196 181.156C74.4517 180.972 74.9074 180.71 75.3645 180.46C76.5365 179.788 77.6831 179.064 78.882 178.458C80.6248 177.587 82.4084 176.793 84.1711 175.982C86.1496 175.072 88.124 174.181 90.0955 173.265C91.4556 172.631 92.7918 171.957 94.0689 171.16C95.7162 170.127 97.2965 169.009 98.7281 167.656C99.796 166.645 100.878 165.644 101.781 164.476C102.612 163.391 103.43 162.295 104.113 161.088C104.866 159.773 105.581 158.453 106.127 157.052C107.801 152.716 108.371 148.25 108.058 143.704C107.904 141.53 107.539 139.391 107.107 137.27C106.926 136.395 106.758 135.473 106.251 134.628C104.107 136.53 101.693 137.866 99.2824 138.92ZM135.007 61.1495C134.998 61.6549 134.953 62.0646 134.978 62.4813C135.121 64.8299 135.252 67.1805 135.195 69.5504C135.125 72.4329 135.008 75.3041 134.287 78.1442C133.752 80.2701 132.937 82.2778 131.63 84.0885C130.806 85.2365 129.796 86.1995 128.801 87.1853C127.539 88.4269 126.174 89.5458 124.913 90.7875C124.008 91.6814 123.097 92.5826 122.194 93.489C121.635 94.0498 121.078 94.6231 120.54 95.1994C119.688 96.1099 118.799 96.9819 118.025 97.962C117.574 98.5236 117.247 99.1787 116.864 99.7798C116.225 100.781 115.738 101.828 115.411 102.949C115.105 103.983 114.749 105.026 115.209 106.109C115.365 106.465 115.344 106.915 115.393 107.327C115.513 108.43 115.628 109.539 115.751 110.667C117.549 110.418 119.242 109.817 120.91 109.164C122.475 108.546 123.997 107.841 125.437 106.926C127.077 105.888 128.655 104.746 130.103 103.427C130.884 102.714 131.616 101.964 132.354 101.207C133.334 100.199 134.259 99.1609 135.154 98.0773C135.884 97.2004 136.46 96.2093 137.079 95.2493C137.82 94.0962 138.499 92.9089 139.047 91.6802C139.971 89.6285 140.723 87.5167 141.283 85.3293C141.982 82.6205 142.118 79.9119 141.848 77.1957C141.583 74.4723 140.793 71.9021 139.899 69.3561C139.167 67.2734 138.27 65.2829 137.14 63.4147C136.611 62.5415 136.046 61.6871 135.007 61.1495ZM57.8288 130.844C54.3672 129.576 51.1543 128.063 48.3459 125.861C45.5291 123.642 43.3455 120.85 41.4891 117.779C41.1504 117.856 40.873 117.865 40.6464 117.98C39.2473 118.709 37.8158 119.38 36.4867 120.218C33.3309 122.229 30.1974 124.267 27.0007 126.202C26.3285 126.61 25.6955 127.081 25.1575 127.657C24.3667 128.5 24.6159 129.415 25.5625 129.815C28.2818 130.96 31.0989 131.813 34.046 132.275C37.0969 132.757 40.0335 133.553 42.8155 134.904C44.3673 135.654 45.8919 136.441 47.4166 137.227C48.4556 137.765 49.4819 138.407 50.7466 138.453C52.9959 135.901 55.1835 133.258 57.8288 130.844ZM105.879 68.4279C105.543 62.7951 105.945 57.3494 106.83 52.0382C106.263 50.9994 105.382 50.4666 104.574 49.8514C103.968 49.3869 103.294 49.0423 102.64 48.656C101.618 48.0517 100.562 47.4786 99.4902 46.9849C96.6105 45.6633 93.5196 44.9007 90.3996 44.2642C88.5188 43.8826 86.6647 43.4072 84.8239 42.8848C83.5533 42.5269 82.2679 42.2034 80.7443 41.7929C81.9204 42.7856 82.9463 43.5296 83.8727 44.3926C85.0345 45.477 86.1373 46.597 87.2199 47.7587C88.6218 49.2616 89.832 50.9056 91.0258 52.5714C92.6928 54.9095 94.2789 57.3123 96.1432 59.502C97.2099 60.743 98.3079 61.9276 99.6313 62.8825C100.699 63.6577 101.783 64.4109 102.795 65.2466C103.461 65.7902 104.028 66.4528 104.628 67.0716C105.025 67.4824 105.392 67.9047 105.879 68.4279ZM74.5699 173.961C74.7807 173.925 74.8525 173.785 74.9451 173.661C75.7049 172.613 76.7224 171.815 77.6396 170.919C78.6594 169.929 79.7433 168.998 80.7855 168.036C81.5253 167.349 82.2413 166.621 83.002 165.95C84.0418 165.02 84.9727 163.975 85.9205 162.965C86.5433 162.304 86.96 161.455 87.7164 160.905C87.8616 160.798 88.0102 160.613 88.0472 160.447C88.2076 159.782 88.7042 159.334 89.0578 158.802C89.2509 158.514 89.512 158.265 89.6511 157.948C90.2928 156.55 91.0358 155.206 91.7108 153.821C92.7307 151.728 93.6384 149.596 94.4796 147.437C94.9979 146.118 95.3692 144.734 95.9277 143.433C96.5386 141.99 97.1604 140.532 98.1342 139.212C98.0141 139.213 97.9754 139.207 97.9521 139.223C96.1013 140.195 94.3613 141.353 92.6875 142.639C90.8288 144.071 89.2349 145.759 87.6578 147.482C86.2884 148.984 85.4667 150.884 84.2016 152.465C84.158 152.523 84.102 152.584 84.0793 152.658C83.5238 153.983 82.7117 155.174 82.0201 156.421C81.2717 157.773 80.551 159.146 79.9078 160.531C79.0296 162.435 78.3246 164.411 77.6057 166.377C77.0909 167.778 76.5971 169.195 75.9633 170.554C75.4636 171.659 75.0388 172.81 74.5699 173.961ZM96.2125 61.3401C96.2389 61.0868 96.2194 60.9243 96.1066 60.8287C95.3761 60.2258 94.8631 59.4328 94.3228 58.6763C92.0092 55.4341 89.9162 52.0267 87.393 48.9349C86.19 47.4556 84.872 46.0724 83.4778 44.7914C82.4317 43.8276 81.234 43.0236 80.0666 42.208C79.0923 41.5254 78.0038 41.1556 76.7428 41.6126C76.6174 41.7806 76.4867 41.956 76.3723 42.1094C76.315 42.7379 76.5781 43.2417 76.7598 43.753C77.5638 45.9126 78.5245 48.0072 79.1965 50.2275C79.9214 52.6238 80.8868 54.9154 82.0198 57.1275C82.3266 57.7323 82.6063 58.3736 83.0802 58.8416C86.6178 58.5841 92.9827 59.791 96.2125 61.3401ZM43.9764 74.5024C44.4444 76.6043 45.315 78.5293 46.1981 80.4522C47.5339 83.3506 49.1344 86.0826 51.1596 88.5064C53.3241 87.5641 55.4742 86.7134 57.888 86.4238C56.2545 81.4711 54.9588 76.4865 53.552 71.5781C50.3721 71.4431 47.4759 72.3505 44.6792 73.56C44.4504 73.8668 44.2651 74.1152 43.9764 74.5024ZM108.775 143.933C109.585 143.093 110.304 142.493 110.861 141.703C111.13 141.312 111.21 140.871 111.481 140.494C112.562 139.015 113.24 137.337 113.813 135.638C115.194 131.595 115.604 127.487 114.891 123.347C114.848 123.099 114.749 122.855 114.675 122.606C114.601 122.357 114.648 122.062 114.446 121.809C112.703 126.514 110.209 130.657 106.772 134.176C108.165 137.23 108.287 140.508 108.775 143.933ZM26.3837 130.645C26.6163 131.001 26.7099 131.253 26.8937 131.413C27.9888 132.311 29.1835 133.09 30.1448 134.138C30.4573 134.474 30.9321 134.476 31.2921 134.734C32.0817 135.301 32.893 135.839 33.744 136.339C35.0449 137.106 36.3714 137.825 37.7643 138.41C40.977 139.765 44.2958 140.686 47.8768 140.632C48.3625 140.619 48.8318 140.629 49.2018 140.496C49.5723 139.999 49.8883 139.575 50.2805 139.049C49.4335 138.951 48.7336 138.655 48.0857 138.319C46.3988 137.445 44.7267 136.537 43.014 135.712C41.2347 134.86 39.411 134.111 37.4716 133.663C35.4602 133.195 33.4251 132.846 31.4097 132.398C29.7264 132.028 28.1058 131.442 26.3837 130.645ZM81.2197 56.8936C80.4296 56.69 79.6628 56.4697 78.8896 56.3014C75.8023 55.6211 72.6572 55.512 69.4785 55.9126C68.8485 55.9879 68.2146 56.083 67.5951 56.2458C66.1097 56.6262 64.6357 57.0492 63.1657 57.4524C62.578 57.6162 61.9957 57.7727 61.3159 58.118C61.5412 58.1499 61.6077 58.1768 61.6643 58.1736C64.4449 57.9875 66.9043 58.8129 69.1724 60.2576C69.6113 60.5402 70.0521 60.7331 70.5683 60.8685C71.9553 60.3008 73.4195 60.007 74.8737 59.683C76.8458 59.2454 78.8465 59.0453 80.8507 58.9275C81.2714 58.9006 81.7214 58.9069 82.1933 58.6225C81.763 58.0961 81.5296 57.5234 81.2197 56.8936ZM61.2832 64.4195C63.8061 63.3013 66.3486 62.3456 68.888 61.3649C68.7461 60.9744 68.471 60.7916 68.2179 60.739C67.7296 60.6244 67.3978 60.2853 66.9857 60.0684C65.7426 59.4124 64.4821 58.8232 63.0145 58.7731C61.4516 58.7201 59.9059 58.8619 58.3808 59.2809C58.1311 59.5721 57.8536 59.8426 57.684 60.2734C58.2613 62.1271 59.6901 63.2745 61.2832 64.4195ZM116.353 99.216C116.52 99.1813 116.602 99.0717 116.588 98.9019C116.421 98.9366 116.359 99.0493 116.353 99.216Z" fill="#CBC8C1"/>
<path d="M161.127 56.5863C161.721 55.7898 162.168 55.1907 162.615 54.5915C162.412 55.6915 161.963 56.6418 161.273 57.4802C161.231 57.87 161.236 58.2265 161.462 58.6345C161.922 57.829 162.273 57.0101 162.941 56.4053C163.099 56.6717 162.977 56.9221 162.868 57.1704C162.633 57.6889 162.483 58.2822 162.137 58.7175C161.186 59.9191 161.636 61.1312 161.725 62.5515C162.687 61.5073 163.533 60.5916 164.394 59.6539C164.443 60.6345 163.582 61.8462 161.77 63.3477C161.828 66.0427 161.802 68.8222 161.71 71.6895C163.566 70.3339 164.876 68.5479 166.699 67.2361C166.873 67.7871 166.558 68.0639 166.314 68.3031C164.979 69.6149 163.702 70.9933 162.218 72.1261C161.876 72.3822 161.622 72.6933 161.596 73.1634C161.44 75.6524 161.152 78.1449 160.773 80.6272C161.099 80.7568 161.275 80.5354 161.479 80.3922C163.976 78.6403 166.361 76.7353 168.406 74.4288C168.724 74.0748 169.065 73.7042 169.552 73.4874C169.742 73.8122 169.526 74.0148 169.379 74.2121C168.245 75.7767 166.822 77.046 165.356 78.2715C163.897 79.5023 162.384 80.6592 160.662 81.4882C160.214 83.8737 159.781 86.2123 159.305 88.7239C160.236 88.4187 161.053 88.1647 161.854 87.8754C165.328 86.6143 168.487 84.7307 171.416 82.414C171.976 81.9678 171.975 81.9553 172.574 81.8342C172.511 82.2533 172.201 82.4655 171.908 82.7131C168.418 85.6803 164.557 87.8812 160.234 89.1909C159.983 89.2655 159.726 89.3348 159.486 89.4395C159.19 89.56 159.198 89.5777 158.984 90.3733C161.661 89.6882 164.157 88.6636 166.563 87.4121C168.951 86.17 170.999 84.4117 173.203 82.85C173.101 83.4224 172.677 83.7432 172.3 84.0754C168.416 87.4541 164.041 89.8061 159.09 90.8848C159.015 90.8975 158.951 90.9403 158.782 91.0074C158.29 93.2794 157.791 95.6034 157.251 98.1131C159.978 97.3174 162.51 96.5356 164.97 95.4726C167.43 94.4096 169.703 93.002 171.969 91.5319C171.746 92.0483 171.401 92.4388 170.972 92.767C168.382 94.8026 165.454 96.1303 162.428 97.2257C160.724 97.8411 158.977 98.3106 157.153 98.7678C156.761 100.614 156.473 102.482 156.226 104.482C158.89 103.582 161.376 102.527 163.79 101.236C166.204 99.9452 168.417 98.3564 170.531 96.5677C170.429 96.9806 170.205 97.2802 169.907 97.5351C169.614 97.7827 169.357 98.0688 169.071 98.3217C165.449 101.452 161.333 103.587 156.828 104.909C156.615 104.977 156.399 105.02 156.136 105.097C156.053 105.934 155.974 106.751 155.888 107.666C160.383 106.575 164.245 104.33 168.051 101.94C166.461 103.71 164.456 104.874 162.411 105.975C160.354 107.078 158.19 107.861 155.954 108.318C155.65 109.741 155.579 114.353 155.812 116.393C156.08 116.571 156.298 116.336 156.514 116.235C158.032 115.549 159.548 114.839 161.006 114.016C161.438 113.77 161.872 113.537 162.481 113.446C161.553 114.516 160.417 115.067 159.302 115.633C158.186 116.199 157.029 116.677 155.799 117.237C155.996 120.138 156.351 123.032 156.904 125.949C158.249 125.554 159.195 124.474 160.662 124.103C159.588 125.326 158.318 125.97 157.141 126.706C157.11 126.979 157.168 127.192 157.299 127.393C157.405 127.382 157.541 127.403 157.623 127.351C158.525 126.796 159.367 126.116 160.462 125.751C160.043 126.371 159.519 126.754 159.001 127.129C158.507 127.488 158.003 127.828 157.502 128.182C157.721 130.109 159.721 136.27 160.763 138.198C161.381 137.863 161.738 137.253 162.236 136.76C162.334 137.05 162.199 137.302 162.101 137.536C161.982 137.812 161.771 138.052 161.599 138.311C161.433 138.562 161.255 138.816 161.073 139.089C164.093 146.467 168.475 152.962 172.935 159.424C172.348 159.486 172.083 159.129 171.81 158.754C169.964 156.294 168.25 153.727 166.585 151.14C165.332 149.19 164.161 147.189 163.102 145.123C162.862 144.647 162.545 144.331 162.049 144.097C160.029 143.145 158.084 142.067 156.306 140.704C155.721 140.255 155.189 139.778 154.767 139.065C155.985 139.872 157.204 140.545 158.355 141.325C159.464 142.074 160.68 142.665 161.821 143.313C161.926 143.231 161.961 143.212 161.983 143.183C162.005 143.154 162.018 143.107 162.01 143.089C160.967 140.683 159.852 138.302 158.98 135.841C155.608 134.424 152.553 132.596 149.74 130.358C149.137 129.873 148.659 129.266 148.103 128.748C147.982 128.634 147.957 128.422 147.949 128.2C149.532 129.634 151.249 130.86 153.066 131.967C154.828 133.045 156.624 134.034 158.529 134.935C158.552 134.759 158.567 134.724 158.557 134.694C157.909 132.616 157.883 132.666 155.93 131.684C154.501 130.957 153.085 130.184 151.766 129.266C151.103 128.805 150.408 128.387 149.775 127.915C148.614 127.047 147.444 126.161 146.616 124.905C150.012 127.568 153.629 129.862 157.601 131.795C156.759 128.844 156.094 125.946 155.645 123.005C152.254 121.745 149.318 119.858 146.606 117.615C145.847 116.991 145.133 116.309 144.531 115.518C144.396 115.337 144.286 115.165 144.379 114.881C144.907 115.116 145.312 115.488 145.711 115.854C147.586 117.608 149.623 119.13 151.849 120.429C152.829 121.003 153.853 121.473 154.843 122.019C155.04 122.132 155.245 122.205 155.487 122.113C155.535 121.773 155.476 121.445 155.36 121.108C152.61 119.974 150.124 118.401 147.828 116.514C146.788 115.657 145.765 114.779 144.881 113.743C144.733 113.564 144.612 113.406 144.649 113.08C145.219 113.347 145.687 113.708 146.083 114.106C147.554 115.604 149.304 116.741 150.962 118.003C152.25 118.977 153.699 119.662 155.241 120.484C155.305 119.337 155.063 118.326 155.081 117.315C154.451 116.765 153.693 116.562 153.024 116.21C151.051 115.168 149.089 114.111 147.373 112.681C146.592 112.029 145.793 111.387 145.186 110.546C145.056 110.357 144.922 110.189 145.005 109.932C145.239 109.72 145.402 109.865 145.56 110.029C146.517 111.04 147.529 111.978 148.659 112.8C150.289 113.984 152.044 114.954 153.826 115.876C154.17 116.054 154.454 116.369 155.004 116.416C154.944 113.651 154.916 110.944 155.118 108.262C152.553 106.562 149.959 104.987 148.11 102.501C147.997 102.348 147.821 102.149 148.04 101.811C148.973 102.259 149.398 103.271 150.19 103.851C151.016 104.457 151.604 105.352 152.512 105.848C153.405 106.334 154.237 106.932 155.165 107.546C155.416 104.48 155.855 101.553 156.424 98.6558C154.995 97.3487 153.285 96.3894 152.392 94.5956C152.767 94.2957 152.98 94.4317 153.139 94.6534C153.825 95.6212 154.798 96.2913 155.58 97.1599C155.814 97.4262 156.081 97.6935 156.579 97.7362C157.156 95.0607 157.734 92.3978 158.312 89.7348C157.768 88.8387 156.616 88.6264 156.231 87.6329C156.202 87.5548 156.283 87.4327 156.321 87.2795C157.225 87.5339 157.688 88.3354 158.36 88.8718C158.615 88.5159 158.659 88.1958 158.629 87.7863C157.655 87.4225 156.879 86.7634 156.223 85.6247C157.394 85.9422 157.974 86.7622 158.784 87.3451C159.249 85.2118 159.658 83.1391 159.929 81.0771C159.404 80.3434 158.594 79.8751 158.511 78.8112C159.376 78.7979 159.413 79.7358 160.092 80.0158C160.174 79.4852 160.278 78.9826 160.338 78.4812C161.242 71.2142 161.384 63.9811 160.412 56.791C160.037 54.0415 159.748 51.2772 159.646 48.4812C159.624 47.8278 159.796 47.2052 159.942 46.5744C159.991 46.3492 160.106 46.1509 160.37 46.1316C160.672 46.3801 160.412 46.6412 160.356 46.8612C160.088 47.9467 160.002 49.0203 160.191 50.1173C160.502 51.9655 160.738 53.8263 161.012 55.6809C161.006 55.8924 161.051 56.1081 161.127 56.5863Z" fill="#CBC8C1"/>
<path d="M107.91 149.697C107.411 150.701 107.049 151.739 106.501 152.707C105.773 153.973 104.982 155.18 104.068 156.318C102.869 157.823 101.595 159.227 100.115 160.455C97.6567 162.487 94.9029 164.015 92.0912 165.431C92.0073 165.47 91.8996 165.469 91.7755 165.491C91.9149 165.071 92.3026 165.031 92.5814 164.875C94.9369 163.562 97.2307 162.158 99.3557 160.456C101.775 158.52 103.754 156.186 105.391 153.584C107.182 150.746 108.189 147.652 108.113 144.294C108.106 144.072 108.135 143.844 108.14 143.619C108.143 143.44 108.14 143.256 108.141 143.051C108.398 143.084 108.345 143.272 108.358 143.384C108.786 147.084 108.588 150.75 107.191 154.338C106.234 156.799 104.707 158.89 102.934 160.832C100.12 163.907 96.6429 165.998 93.0913 167.999C89.1196 170.244 85.1802 172.547 81.2169 174.809C80.5769 175.173 79.9669 175.628 79.166 175.656C80.6521 174.695 82.1298 173.716 83.6383 172.783C87.3909 170.454 91.2337 168.295 95.075 166.124C97.7008 164.637 100.164 162.904 102.253 160.698C105.213 157.572 107.38 154.013 107.91 149.697Z" fill="#CBC8C1"/>
<path d="M79.2059 116.161C76.7381 115.681 74.3879 115.232 72.0485 114.769C65.9058 113.556 59.7645 112.355 53.6296 111.102C48.753 110.107 44.0235 108.654 39.505 106.641C37.606 105.791 35.7734 104.808 34.0871 103.571C33.9481 103.467 33.813 103.343 33.5667 103.136C34.6472 103.284 35.3568 103.871 36.1282 104.289C41.177 107.027 46.59 108.798 52.1991 110.044C58.9906 111.549 65.8151 112.908 72.6129 114.361C74.6248 114.784 76.6225 115.299 78.6211 115.769C78.8091 115.807 78.9996 115.813 79.2059 116.161Z" fill="#CBC8C1"/>
<path d="M55.6987 69.1804C55.8872 69.0147 56.0395 69.0718 56.1562 69.1476C57.7083 70.1146 59.4145 70.7879 61.0826 71.5122C64.7944 73.1395 68.4549 74.8646 72.1061 76.6168C74.737 77.879 77.3422 79.1902 79.9164 80.5576C82.1729 81.7557 84.3983 83.0101 86.6129 84.2791C90.5992 86.5543 94.1685 89.4034 97.7936 92.192C97.8214 92.2128 97.8329 92.2555 97.8622 92.2887C97.551 92.3286 97.4023 92.0926 97.2076 91.9472C95.2121 90.399 93.0589 89.0623 90.9615 87.6652C89.3879 86.6255 87.7678 85.6191 86.0815 84.7449C84.4007 83.8634 82.7781 82.8893 81.1081 81.9932C79.3091 81.0235 77.5117 80.0661 75.6816 79.1526C73.2332 77.9359 70.7754 76.7463 68.3067 75.5713C65.7438 74.3485 63.1592 73.1549 60.5799 71.954C59.1539 71.297 57.7846 70.5349 56.4207 69.7654C56.1379 69.6221 55.8535 69.4664 55.6987 69.1804Z" fill="#CBC8C1"/>
<path d="M122.525 85.1251C122.501 84.504 122.784 84.0219 123.006 83.5504C124.702 79.9254 125.246 76.1329 125.195 72.2375C125.146 68.0482 124.302 64.0262 123.005 60.1324C121.129 54.5317 118.855 49.1006 116.206 43.8549C115.624 42.7035 114.86 41.6661 114.336 40.4666C114.6 40.3452 114.668 40.5441 114.747 40.671C118.857 47.2248 121.869 54.3227 124.164 61.7724C125.513 66.1486 126.101 70.6734 125.727 75.343C125.542 77.6518 125.179 79.94 124.159 82.0911C123.674 83.1051 123.244 84.1606 122.525 85.1251Z" fill="#CBC8C1"/>
<path d="M91.9935 138.401C90.0415 138.956 88.33 139.407 86.6415 139.943C80.7104 141.827 74.8151 143.851 68.9283 145.892C64.1833 147.535 59.4085 149.088 54.7263 150.938C53.1793 151.545 51.6577 152.206 50.1028 152.854C50.058 152.376 50.4645 152.441 50.6678 152.343C54.3006 150.608 58.0215 149.133 61.7947 147.776C68.6918 145.294 75.6088 142.873 82.5802 140.641C85.2375 139.793 87.9132 138.993 90.6383 138.446C90.9965 138.373 91.3542 138.242 91.9935 138.401Z" fill="#CBC8C1"/>
<path d="M79.9284 71.2987C81.9435 72.0223 83.7188 73.1109 85.5276 74.1111C86.5498 74.671 87.4788 75.3993 88.5065 75.9518C89.8988 76.6975 91.1515 77.6451 92.4678 78.4927C94.4632 79.7798 96.3949 81.1667 98.1475 82.7939C98.2826 82.9176 98.4068 83.0558 98.5528 83.1649C100.508 84.637 102.251 86.3485 103.991 88.0796C105.759 89.8316 107.376 91.698 108.813 93.7351C109.11 94.1497 109.396 94.579 109.664 95.0176C109.797 95.2307 109.939 95.4614 109.811 95.8077C109.416 95.626 109.249 95.2403 109.029 94.94C107.306 92.5184 105.35 90.308 103.246 88.2371C101.84 86.8571 100.356 85.5666 98.87 84.2637C96.4988 82.1741 93.95 80.3374 91.3849 78.5224C90.0231 77.5615 88.6149 76.6338 87.1648 75.7768C86.1643 75.1879 85.1499 74.5886 84.1804 73.9434C83.2666 73.3399 82.3015 72.8341 81.3605 72.2669C80.88 71.9532 80.4089 71.6125 79.9284 71.2987Z" fill="#CBC8C1"/>
<path d="M115.41 111.016C111.912 103.556 106.218 99.1409 98.0684 98.1355C98.0332 97.7907 98.2451 97.8695 98.3552 97.838C98.5025 97.8002 98.6488 97.8072 98.8022 97.8194C100.971 97.916 103.065 98.3316 104.992 99.2602C106.476 99.9709 107.919 100.765 109.196 101.811C111.885 104.013 114.174 106.532 115.38 109.924C115.411 110.027 115.485 110.117 115.582 110.292C118.234 106.722 119.976 102.745 121.788 98.6161C121.445 101.602 118.264 108.496 115.41 111.016Z" fill="#CBC8C1"/>
<path d="M53.9316 109.461C54.3926 109.191 54.6145 109.3 54.8204 109.329C63.5689 110.692 72.2577 112.295 80.834 114.383C83.1925 114.951 85.4946 115.682 87.7498 116.549C88.2873 116.757 88.8114 117.012 89.3193 117.289C88.6595 117.274 88.0304 117.145 87.4185 116.949C82.7804 115.417 77.9676 114.481 73.2056 113.39C67.3247 112.043 61.3472 111.102 55.456 109.827C55.001 109.726 54.5569 109.61 53.9316 109.461Z" fill="#CBC8C1"/>
<path d="M74.5483 174.097C75.2239 173.293 75.9405 172.724 76.6446 172.158C80.1958 169.314 83.9337 166.758 87.8936 164.573C90.4882 163.143 93.0813 161.7 95.42 159.828C97.6724 158.029 99.7085 156.011 101.304 153.595C102.252 152.164 103.164 150.694 103.934 149.152C104.292 148.441 104.722 147.761 105.167 147.092C105.014 148.082 104.537 148.954 104.069 149.8C103.144 151.476 102.199 153.137 101.103 154.708C98.5652 158.343 95.2795 161.078 91.5142 163.249C88.2514 165.125 84.9225 166.871 81.7976 168.997C79.5974 170.494 77.4141 172.027 75.3735 173.746C75.1543 173.924 74.9908 174.143 74.5483 174.097Z" fill="#CBC8C1"/>
<path d="M118.941 53.3051C121.304 58.1665 122.791 63.3174 123.105 68.821C123.264 71.5691 123.41 74.3069 123.211 77.0714C122.867 81.8895 121.551 86.471 119.368 90.8364C119.316 90.9345 119.225 91.0139 119.029 91.2322C119.292 90.4728 119.498 89.8637 119.71 89.2598C119.942 88.6141 120.182 87.9737 120.414 87.328C122.119 82.5143 122.856 77.5912 122.643 72.5616C122.5 69.211 122.319 65.8668 121.641 62.5944C121.161 60.2899 120.553 58.0263 119.775 55.8173C119.473 54.9883 119.213 54.1457 118.941 53.3051Z" fill="#CBC8C1"/>
<path d="M50.2842 147.053C51.0763 146.746 51.7024 146.531 52.303 146.263C54.4542 145.31 56.5138 144.174 58.5634 143.009C62.0641 141.016 65.5394 138.97 69.1654 137.23C72.7379 135.518 76.446 134.249 80.2283 133.229C80.7432 133.091 81.2781 133.012 81.841 133.114C80.7527 133.485 79.6688 133.892 78.576 134.225C73.3939 135.815 68.5105 138.152 63.7631 140.829C60.8168 142.485 57.8974 144.207 54.875 145.704C53.89 146.197 52.8951 146.66 51.8464 146.991C51.3965 147.144 50.9426 147.317 50.2842 147.053Z" fill="#CBC8C1"/>
<path d="M112.612 35.0939C113.318 35.3373 113.642 35.9202 114.037 36.3632C116.302 38.8863 118.464 41.5035 120.309 44.3723C124.274 50.5669 126.561 57.3723 126.776 64.9385C126.807 65.9856 126.914 67.0325 126.811 68.1153C126.45 68.0618 126.567 67.774 126.553 67.6042C126.438 66.3353 126.329 65.0592 126.251 63.784C125.911 58.3312 124.27 53.3166 121.936 48.5347C120.331 45.2423 118.195 42.3146 115.954 39.4685C114.865 38.0974 113.823 36.6929 112.614 35.4253C112.585 35.392 112.617 35.2908 112.612 35.0939Z" fill="#CBC8C1"/>
<path d="M98.0775 88.6795C97.823 88.6143 97.7417 88.6217 97.6861 88.5802C95.9432 87.1867 94.0059 86.0684 92.1666 84.8187C90.9677 84.0023 89.7075 83.2535 88.465 82.4954C87.0658 81.6428 85.6501 80.812 84.2034 80.0376C81.9646 78.8301 79.6931 77.6664 77.3204 76.7111C72.9267 74.9383 68.5168 73.1875 64.1286 71.4074C63.6299 71.2051 63.0838 71.081 62.5465 70.6113C64.9572 71.2543 67.122 72.111 69.3179 72.9115C73.0216 74.2595 76.7026 75.6814 80.2528 77.3804C82.2254 78.3207 84.1505 79.3392 86.046 80.4263C88.6076 81.8977 91.1001 83.4764 93.5287 85.1551C94.9431 86.1326 96.3995 87.0393 97.6547 88.2159C97.755 88.3136 97.8375 88.4207 98.0775 88.6795Z" fill="#CBC8C1"/>
<path d="M108.977 131.438C108.83 131.738 108.73 131.959 108.604 132.229C110.192 134.28 110.811 136.688 110.818 139.321C110.821 140.87 110.673 141.737 110.044 142.928C110.12 141.825 110.232 140.964 110.229 140.097C110.225 139.23 110.129 138.373 110.019 137.518C109.905 136.625 109.687 135.756 109.328 134.931C108.995 134.159 108.667 133.379 108.222 132.683C107.726 132.71 107.576 133.143 107.292 133.364C105.914 134.472 104.341 135.071 102.681 135.468C98.695 136.414 94.8437 136.164 91.1692 134.543C89.5183 133.81 88.062 132.801 86.7864 131.507C87.4303 131.863 88.085 132.204 88.7126 132.582C93.4196 135.475 98.4853 136.144 103.927 134.421C105.8 133.841 107.401 132.74 108.977 131.438Z" fill="#CBC8C1"/>
<path d="M94.7793 96.4795C94.6507 96.9859 94.3551 96.9468 94.1181 96.9743C93.2211 97.0883 92.3358 96.9836 91.4598 96.8518C85.8894 96.0762 80.5232 94.6347 75.4862 92.2003C73.0488 91.0267 70.7554 89.631 68.5119 88.1249C66.5311 86.8036 64.6007 85.4292 62.7193 83.989C62.3424 83.696 61.9616 83.4228 61.6229 83.0787C63.1189 84.2081 64.8202 85.0477 66.3108 86.1844C67.6207 87.186 69.0325 88.0365 70.4319 88.8891C74.3063 91.2276 78.4511 93.0294 82.8346 94.2934C85.8358 95.1609 88.8779 95.843 92.0038 96.224C92.8976 96.3463 93.8141 96.3948 94.7793 96.4795Z" fill="#CBC8C1"/>
<path d="M86.2376 148.667C85.9323 149.338 85.3646 149.721 84.8386 150.136C82.1363 152.293 79.1376 153.933 76.0728 155.443C71.4006 157.744 66.5037 159.228 61.4251 159.939C58.7494 160.318 56.0663 160.372 53.3964 160.221C53.0331 160.2 52.6674 160.211 52.3267 159.956C64.7786 160.249 75.9964 156.228 86.2376 148.667Z" fill="#CBC8C1"/>
<path d="M125.569 81.0142C125.762 80.0435 126.329 79.2835 126.643 78.4262C128.156 74.3218 128.533 70.1427 128.242 65.8858C127.823 59.7688 126.202 54.0285 123.703 48.5652C123.583 48.3049 123.389 48.0573 123.426 47.732C123.71 47.7283 123.77 47.9668 123.863 48.1615C125.925 52.3084 127.649 56.5894 128.34 61.2821C128.914 65.159 129.235 69.0406 128.648 72.994C128.315 75.2261 127.739 77.3785 126.699 79.412C126.402 79.9983 126.032 80.4952 125.569 81.0142Z" fill="#CBC8C1"/>
<path d="M34.4732 99.3364C35.3747 99.1002 36.225 99.1214 37.0728 99.1749C41.5861 99.4087 46.0503 99.9698 50.4347 100.972C55.4498 102.115 60.3468 103.591 65.1381 105.397C65.4095 105.498 65.6928 105.539 65.8436 105.845C61.5124 104.655 57.2679 103.292 52.9147 102.234C47.0108 100.801 40.9886 99.9631 34.8843 99.5981C34.7558 99.5817 34.5907 99.6289 34.4732 99.3364Z" fill="#CBC8C1"/>
<path d="M69.348 142.994C59.0186 147.304 48.4866 151.087 38.434 156.434C38.5078 155.943 38.8327 155.856 39.0494 155.71C40.9787 154.387 43.0703 153.412 45.1588 152.412C52.9168 148.719 60.9423 145.828 69.0146 143.064C69.1302 143.025 69.2364 143.013 69.348 142.994Z" fill="#CBC8C1"/>
<path d="M89.7021 102.008C88.3126 101.969 87.0788 101.649 85.8348 101.401C80.7673 100.387 75.9504 98.6736 71.3271 96.4685C69.4209 95.5552 67.5769 94.5295 65.8155 93.3495C63.732 91.9628 61.9078 90.3154 60.1746 88.5315C59.7494 88.1001 59.1479 87.8324 58.9627 87.1372C59.2722 87.1866 59.459 87.3717 59.6443 87.5442C60.5606 88.3768 61.4606 89.2312 62.3878 90.0492C63.6825 91.1872 65.044 92.2502 66.5044 93.137C68.1217 94.1184 69.7864 95.0216 71.4916 95.8414C75.9541 97.9719 80.5721 99.6617 85.3929 100.833C86.6043 101.124 87.8212 101.409 89.0435 101.686C89.2523 101.74 89.4815 101.752 89.7021 102.008Z" fill="#CBC8C1"/>
<path d="M114.263 51.0747C114.899 51.6299 115.51 53.2356 116.551 56.3693C119.227 64.4113 119.639 72.73 118.464 81.2616C118.464 80.7384 118.45 80.2049 118.463 79.6796C118.521 77.0032 118.655 74.3266 118.58 71.6536C118.461 67.2976 117.732 63.0773 116.6 58.9319C115.94 56.4925 115.212 54.071 114.315 51.7166C114.246 51.5177 114.14 51.3126 114.263 51.0747Z" fill="#CBC8C1"/>
<path d="M54.5005 72.4107C55.5426 74.018 56.6033 75.3101 57.806 76.4699C58.486 77.1257 59.1226 77.8398 59.864 78.4279C61.9768 80.109 64.1455 81.7298 66.4851 83.0923C69.4158 84.7945 72.4437 86.3083 75.6147 87.5431C76.8748 88.0307 78.1092 88.5674 79.3544 89.0894C79.4874 89.1434 79.5838 89.2608 79.848 89.4582C77.8066 88.886 76.024 88.1554 74.2391 87.4571C72.3738 86.7214 70.4961 85.9878 68.7374 85.0366C67.263 84.2412 65.7614 83.4822 64.4129 82.4744C63.9124 82.1004 63.3335 81.8607 62.8236 81.5137C61.0385 80.2931 59.4209 78.8913 57.878 77.375C56.8089 76.3263 55.7918 75.2371 54.9631 73.9822C54.705 73.5736 54.4181 73.189 54.5005 72.4107Z" fill="#CBC8C1"/>
<path d="M65.5351 76.8632C67.9871 77.9008 70.2476 79.0792 72.5051 80.2326C74.5864 81.2884 76.6513 82.3661 78.6541 83.5562C80.561 84.6861 82.5154 85.7379 84.4495 86.8313C86.1255 87.7773 87.8031 88.7358 89.49 89.6672C91.1213 90.557 92.7675 91.4125 94.3973 92.2898C94.5858 92.3854 94.7977 92.4642 94.8775 92.7055C94.2061 92.851 93.7718 92.3447 93.2686 92.105C91.3974 91.2175 89.576 90.2197 87.7398 89.2562C86.0658 88.3799 84.3795 87.5058 82.7259 86.5879C81.3566 85.8257 80.0292 84.9927 78.6708 84.216C77.3734 83.4735 76.0573 82.7852 74.7491 82.0573C73.6379 81.4426 72.5306 80.8081 71.407 80.1955C69.8437 79.3451 68.268 78.4968 66.6883 77.6683C66.3097 77.4648 65.9691 77.2102 65.5351 76.8632Z" fill="#CBC8C1"/>
<path d="M41.314 114.198C42.3943 114.187 42.9794 114.738 43.6272 115.074C47.8008 117.215 52.1839 118.785 56.824 119.705C60.7383 120.48 64.6971 120.892 68.7204 120.839C69.144 120.837 69.5666 120.88 69.975 121.015C65.0303 121.504 60.1722 121.138 55.3925 120.056C50.4177 118.932 45.8074 116.999 41.314 114.198Z" fill="#CBC8C1"/>
<path d="M115.451 92.7703C114.133 91.1254 112.07 81.8115 111.778 76.4385C111.53 71.8492 111.922 66.8511 112.699 65.4748C112.264 70.225 112.118 74.8495 112.725 79.4224C113.321 83.9526 114.371 88.3672 115.451 92.7703Z" fill="#CBC8C1"/>
<path d="M41.0146 157.937C52.735 158.207 64.1163 156.289 75.0809 150.908C73.5634 152.391 66.8528 155.103 61.1621 156.403C54.4798 157.929 47.7649 158.817 41.0146 157.937Z" fill="#CBC8C1"/>
<path d="M85.3539 129.147C84.8512 129.545 84.471 129.489 84.1043 129.545C78.6245 130.343 73.2545 131.633 68.243 134.272C64.7794 136.099 61.6007 138.401 58.4653 140.747C58.45 140.462 58.7039 140.311 58.8983 140.137C59.098 139.956 59.2923 139.783 59.506 139.613C62.7211 137.088 66.0735 134.756 69.6914 132.896C72.249 131.587 74.9521 130.751 77.7011 130.085C79.6444 129.614 81.5883 129.201 83.5762 129.047C84.1047 129.021 84.6534 128.953 85.3539 129.147Z" fill="#CBC8C1"/>
<path d="M86.1002 123.532C93.4694 129.198 101.574 130.99 110.752 127.247C109.622 128.109 108.385 128.709 107.053 129.101C104.114 129.964 101.148 130.023 98.1945 129.613C95.5123 129.246 92.9857 128.439 90.6158 127.145C89.0922 126.314 87.7935 125.195 86.4077 124.194C86.2076 124.056 85.9906 123.882 86.1002 123.532Z" fill="#CBC8C1"/>
<path d="M33.2324 100.812C37.1227 100.284 58.6377 104.751 61.4802 106.659C52.1933 104.188 42.758 102.323 33.2324 100.812Z" fill="#CBC8C1"/>
<path d="M111.223 95.3829C110.797 95.3148 110.744 95.037 110.634 94.8071C109.302 92.1078 107.483 89.7714 105.521 87.5549C103.924 85.7481 102.22 84.0548 100.404 82.47C99.4641 81.6542 98.4646 80.9186 97.5483 80.0861C95.8144 78.5063 93.9159 77.1329 92.1167 75.6407C94.2441 77.1283 96.6038 78.2898 98.4622 80.167C98.9515 80.6577 99.5689 81.0055 100.103 81.4503C103.692 84.4046 106.907 87.7279 109.504 91.6339C110.236 92.7716 110.947 93.9385 111.223 95.3829Z" fill="#CBC8C1"/>
<path d="M101.748 69.1209C98.0343 66.2321 94.2573 63.4435 89.6916 61.9301C85.1785 60.4333 80.5228 59.694 75.7005 59.6716C75.8119 59.2319 76.0933 59.3626 76.2698 59.3581C82.2281 59.1493 87.8704 60.3076 93.2058 62.7486C94.9399 63.5443 96.5914 64.4943 98.0617 65.6728C99.3583 66.7213 100.768 67.6614 101.748 69.1209Z" fill="#CBC8C1"/>
<path d="M85.6511 121.493C80.8005 122 76.3362 123.455 72.0739 125.641C67.8348 127.811 63.9503 130.507 60.5031 133.997C60.3038 133.392 60.762 133.098 61.0341 132.834C61.8777 132.008 62.7422 131.197 63.6599 130.461C68.0813 126.914 72.9166 124.177 78.2665 122.507C80.4385 121.832 82.6375 121.381 84.8841 121.273C85.091 121.257 85.3207 121.167 85.6511 121.493Z" fill="#CBC8C1"/>
<path d="M118.015 94.7193C116.912 92.3362 116.249 89.827 115.8 87.2496C114.516 79.9405 113.816 72.5448 113.463 65.0899C113.452 64.9451 113.471 64.7887 113.482 64.4552C113.742 64.7746 113.715 65.0279 113.741 65.2405C114.132 69.3905 114.418 73.5523 114.941 77.6865C115.5 82.0759 116.122 86.4548 117.162 90.737C117.374 91.6005 117.647 92.4534 117.883 93.3127C118.015 93.7751 118.177 94.2261 118.015 94.7193Z" fill="#CBC8C1"/>
<path d="M64.542 63.1636C65.242 62.9362 65.9008 62.9964 66.5466 63.0014C70.1279 63.0623 73.5964 63.7098 77.0161 64.5825C80.613 65.5079 84.0052 66.94 87.2695 68.6745C88.0532 69.0896 88.7687 69.5674 89.4257 70.1381C86.7535 68.9598 84.1585 67.6345 81.4013 66.6429C76.3091 64.8047 71.0434 63.6782 65.5568 63.5012C65.0682 63.4886 65.0752 63.4938 64.542 63.1636Z" fill="#CBC8C1"/>
<path d="M93.9185 101.419C94.3983 100.994 94.7435 101.024 95.0673 100.982C98.9406 100.535 102.601 101.099 105.998 102.888C109.266 104.603 111.858 107.063 113.847 110.174C114.565 111.302 115.096 112.506 115.251 113.895C114.884 113.951 114.935 113.636 114.897 113.483C114.267 111.193 112.822 109.443 111.32 107.741C109.973 106.223 108.343 105.027 106.635 103.978C104.121 102.429 101.344 101.536 98.3285 101.385C97.292 101.337 96.257 101.303 95.2122 101.397C94.8552 101.426 94.4937 101.417 93.9185 101.419Z" fill="#CBC8C1"/>
<path d="M72.9181 101.328C71.4546 100.939 70.1687 100.239 68.8818 99.5843C67.0237 98.6501 65.2155 97.6055 63.6001 96.2733C63.0658 95.8285 62.5112 95.4254 62.0421 94.8931C61.7182 94.5146 61.2545 94.2363 60.8242 93.9715C57.5613 91.9307 54.0247 90.6056 50.1313 90.2522C50.0222 90.2389 49.9131 90.2255 49.8079 90.1923C49.7816 90.1841 49.7577 90.1435 49.6296 90.025C50.0113 89.9922 50.3087 89.9417 50.5998 89.9434C53.5302 90.0202 56.2645 90.723 58.8537 92.0558C60.2766 92.7897 61.4773 93.7779 62.6578 94.8079C64.3533 96.2795 66.2564 97.4291 68.1649 98.5714C69.4461 99.3357 70.7964 99.9926 72.1235 100.666C72.4272 100.825 72.724 100.979 72.9181 101.328Z" fill="#CBC8C1"/>
<path d="M70.6318 148.876C71.0263 148.42 71.3527 148.345 71.6553 148.23C76.0156 146.492 80.376 144.755 84.7363 143.018C88.4325 141.547 92.1402 140.118 95.9351 138.994C96.4485 138.843 96.9901 138.61 97.4712 138.822C97.5612 138.992 97.537 139.053 97.4393 139.083C94.812 139.759 92.2635 140.723 89.7219 141.691C84.4558 143.684 79.1941 145.715 73.9294 147.721C72.9116 148.099 71.8823 148.434 70.6318 148.876Z" fill="#CBC8C1"/>
<path d="M80.2923 74.2665C76.9132 72.6281 73.72 70.9581 70.3108 69.7521C65.6664 68.1119 60.8957 66.9459 55.8829 66.8158C55.382 66.8053 54.8741 66.7896 54.3623 66.5322C54.7443 66.2378 55.0847 66.333 55.4006 66.3303C59.4532 66.2091 63.3473 66.9246 67.1617 68.0809C70.0834 68.9681 72.8281 70.2233 75.5595 71.5255C76.6797 72.0556 77.7851 72.6202 78.8687 73.214C79.3294 73.4673 79.7362 73.8509 80.2923 74.2665Z" fill="#CBC8C1"/>
<path d="M138.108 93.8485C138.746 91.9473 139.083 90.0143 139.284 88.0598C139.925 81.8135 138.961 75.9042 136.515 70.2981C136.278 69.7452 135.978 69.2028 135.919 68.5557C140.054 72.6814 141.497 89.1442 138.108 93.8485Z" fill="#CBC8C1"/>
<path d="M105.466 62.862C104.956 62.7763 104.866 62.3456 104.674 62.0659C103.245 59.976 101.765 57.9393 99.9809 56.1516C98.895 55.0676 97.7081 54.0897 96.6687 52.9724C95.6879 51.9215 94.4253 51.205 93.4965 50.1134C93.3121 49.8962 93.0471 49.7435 92.8107 49.5669C90.8544 48.0822 88.8997 46.61 86.9434 45.1253C86.7488 44.9799 86.5705 44.8125 86.3535 44.639C86.7456 44.4325 86.9702 44.6685 87.205 44.8326C89.8829 46.7431 92.5787 48.6442 95.1044 50.7588C97.0541 52.3975 98.9509 54.1216 100.672 56.0093C102.557 58.0539 104.204 60.2725 105.466 62.862Z" fill="#CBC8C1"/>
<path d="M73.6855 62.7642C79.2271 62.6784 92.0935 66.8509 99.6038 75.259C98.5206 74.5631 97.474 73.8037 96.5214 72.9327C95.3055 71.8195 94.0135 70.8085 92.5707 70.0143C91.7105 69.5419 90.9181 68.9497 90.0619 68.4575C87.0728 66.7464 83.8926 65.4947 80.6236 64.4493C78.3661 63.7168 76.0673 63.1123 73.6855 62.7642Z" fill="#CBC8C1"/>
<path d="M62.8929 96.1314C63.5164 96.2679 63.6518 96.8122 64.0217 97.1C65.9438 98.6161 67.8971 100.076 70.0789 101.229C74.0098 103.303 78.2076 104.656 82.4973 105.828C82.5956 105.856 82.7077 105.894 82.7304 106.082C80.9897 105.963 79.3382 105.535 77.704 105.041C74.8284 104.165 72.0309 103.097 69.3924 101.671C67.6473 100.73 66.0204 99.6165 64.5133 98.3424C63.5072 97.4996 63.192 97.0368 62.8929 96.1314Z" fill="#CBC8C1"/>
<path d="M54.9444 129.68C46.4593 128.412 37.8779 128.291 29.1318 128.956C32.5038 127.323 51.3502 127.835 54.9444 129.68Z" fill="#CBC8C1"/>
<path d="M86.4416 64.0662C87.5334 64.0537 88.4871 64.5167 89.4432 64.9475C91.408 65.8257 93.2942 66.8381 95.1509 67.9192C97.3545 69.2028 99.2656 70.8353 101.137 72.5063C103.591 74.7031 105.708 77.2051 107.217 80.205C107.349 80.4629 107.471 80.7353 107.58 81.0099C107.605 81.0629 107.577 81.1441 107.581 81.2263C107.205 81.1497 107.084 80.8325 106.917 80.5486C105.743 78.6387 104.501 76.7912 102.982 75.1563C101.936 74.0338 100.896 72.9164 99.6929 71.9605C99.035 71.4348 98.422 70.8632 97.775 70.3229C96.4198 69.208 94.903 68.3242 93.4026 67.4185C91.7176 66.3975 89.9516 65.5431 88.1491 64.7522C87.5825 64.5104 87.0066 64.2956 86.4416 64.0662Z" fill="#CBC8C1"/>
<path d="M104.726 54.4072C103.591 53.4335 102.444 52.4744 101.337 51.4768C99.7048 50.0073 97.9546 48.7107 96.0725 47.5766C93.9501 46.2856 91.7211 45.2102 89.4719 44.1763C88.2469 43.6127 86.9976 43.1105 85.7414 42.6031C85.4021 42.463 85.0603 42.3552 84.7871 42.0829C86.4005 41.8355 93.1925 45.0951 95.7594 46.5593C99.2906 48.574 102.185 51.327 104.726 54.4072Z" fill="#CBC8C1"/>
<path d="M73.9925 107.795C73.0004 107.907 72.4788 107.096 71.6715 106.8C70.824 106.485 70.0693 105.943 69.2662 105.525C68.4964 105.12 67.7102 104.737 66.9241 104.354C66.0992 103.965 65.2759 103.589 64.4402 103.214C63.6447 102.858 62.8382 102.517 62.0264 102.183C61.1758 101.843 60.3268 101.515 59.4738 101.208C58.6471 100.908 57.8165 100.628 56.9874 100.361C56.1181 100.075 55.2449 99.8089 54.3771 99.5355C53.548 99.2682 52.7134 99.0083 51.8511 98.7275C52.1105 98.4668 52.3314 98.6205 52.5194 98.6587C57.1659 99.7442 61.6969 101.13 66.0082 103.158C67.8851 104.038 69.7325 104.987 71.5472 105.979C72.4228 106.475 73.1792 107.188 73.9925 107.795Z" fill="#CBC8C1"/>
<path d="M134.085 81.6043C135.105 86.2362 134.788 90.8593 133.246 95.4545C131.988 99.2038 130.226 102.656 127.427 105.538C128.134 103.994 129.284 102.714 130.064 101.203C130.855 99.6772 131.613 98.138 132.21 96.5241C132.799 94.9498 133.27 93.3445 133.637 91.706C134.01 90.0278 134.206 88.3417 134.235 86.633C134.266 84.9493 134.029 83.2922 134.085 81.6043Z" fill="#CBC8C1"/>
<path d="M93.4175 100.465C93.0249 100.933 92.6101 100.851 92.2168 100.841C89.27 100.742 86.4222 100.206 83.6484 99.3383C79.4598 98.016 75.3922 96.3862 71.5314 94.3196C70.835 93.9469 70.0445 93.6859 69.4782 93.0807C69.709 92.8438 69.8912 92.9914 70.0674 93.089C75.6802 96.2034 81.6482 98.4348 87.9685 99.7583C89.1881 100.01 90.4569 100.094 91.6976 100.26C92.2736 100.315 92.8455 100.39 93.4175 100.465Z" fill="#CBC8C1"/>
<path d="M54.429 132.924C54.0247 133.35 53.5475 133.38 53.0902 133.471C49.7443 134.11 46.4115 134.122 43.0852 133.821C39.5421 133.505 36.0494 132.977 32.5797 132.272C32.1192 132.178 31.6547 132.104 31.2134 131.854C31.5211 131.572 31.7977 131.767 32.0562 131.813C36.5414 132.491 41.0438 133.103 45.6003 133.323C48.0125 133.442 50.4285 133.381 52.8446 133.06C53.3669 132.984 53.9021 132.963 54.429 132.924Z" fill="#CBC8C1"/>
<path d="M111.366 141.043C112.796 136.672 112.848 132.579 111.197 128.432C112.626 129.637 113.131 132.199 112.972 136.769C113.304 136.687 113.289 136.403 113.355 136.168C114.055 133.516 113.989 130.917 113.232 128.36C113.016 127.618 112.696 126.901 112.596 126.12C112.878 126.047 112.963 126.224 113.032 126.378C114.584 129.917 114.932 133.545 113.342 137.319C113.253 137.525 113.191 137.797 113.034 137.92C112.586 138.245 112.544 138.737 112.371 139.188C112.148 139.761 112.136 140.446 111.366 141.043Z" fill="#CBC8C1"/>
<path d="M61.199 125.94C60.5759 126.122 60.0342 126.036 59.4985 125.999C56.2543 125.791 53.1911 124.935 50.2344 123.703C48.17 122.842 46.1827 121.834 44.418 120.47C43.6156 119.847 42.873 119.145 42.2548 118.319C42.1415 118.166 42.042 118.023 42.1255 117.824C42.3 117.75 42.4073 117.853 42.5076 117.951C45.3296 120.844 48.8678 122.545 52.6146 123.879C55.0724 124.749 57.5927 125.405 60.2275 125.646C60.534 125.67 60.8826 125.624 61.199 125.94Z" fill="#CBC8C1"/>
<path d="M62.7106 98.2774C60.3256 97.5414 58.0012 96.7824 55.6416 96.0994C52.3188 95.1402 48.9339 94.4531 45.4578 94.1641C44.6844 94.0979 43.9124 94.0442 43.1253 94.127C42.9627 94.1419 42.7455 94.2299 42.6151 93.8822C43.193 93.5862 43.812 93.5256 44.4192 93.5244C45.3051 93.5268 46.1955 93.5667 47.085 93.6514C51.932 94.1346 56.5414 95.4298 60.9761 97.3224C61.5638 97.5796 62.202 97.7836 62.7106 98.2774Z" fill="#CBC8C1"/>
<path d="M114.144 120.874C114.064 120.212 113.739 119.719 113.404 119.253C112.166 117.532 110.558 116.262 108.763 115.171C105.553 113.204 101.932 112.442 98.3101 111.667C98.0765 111.617 97.7766 111.7 97.5772 111.357C98.1763 111.396 98.7143 111.4 99.242 111.477C102.234 111.906 105.19 112.501 107.891 113.872C110.027 114.956 111.949 116.313 113.461 118.205C113.901 118.761 114.21 119.378 114.418 120.057C114.505 120.361 114.502 120.642 114.144 120.874Z" fill="#CBC8C1"/>
<path d="M89.937 115.416C91.0599 114.97 92.1767 115.156 93.2657 115.322C98.9522 116.16 104.604 117.131 109.518 120.269C107.377 119.67 105.404 118.628 103.262 118.016C101.106 117.394 98.9107 116.97 96.7177 116.514C94.4805 116.059 92.2196 115.723 89.937 115.416Z" fill="#CBC8C1"/>
<path d="M115.142 116.839C113.414 113.423 110.661 111.048 107.615 109.021C104.553 106.972 101.05 105.979 97.3052 105.702C97.3279 105.628 97.3506 105.554 97.3733 105.48C97.4654 105.458 97.56 105.404 97.6498 105.414C100.578 105.581 103.413 106.018 106.029 107.416C108.794 108.891 111.211 110.789 113.237 113.166C114.124 114.227 114.862 115.415 115.142 116.839Z" fill="#CBC8C1"/>
<path d="M105.271 135.626C105.515 136.708 105.463 137.694 105.403 138.661C105.174 142.224 104.139 145.559 102.302 148.705C101.159 150.674 99.7659 152.455 98.364 154.219C97.1761 155.71 95.7973 157.036 94.3976 158.346C94.239 158.501 94.0216 158.589 93.7924 158.736C94.0623 157.982 94.7023 157.618 95.1798 157.166C97.2904 155.135 99.0221 152.799 100.705 150.426C101.935 148.704 102.874 146.834 103.611 144.857C104.524 142.398 104.966 139.872 104.95 137.276C104.947 136.83 104.987 136.37 105.021 135.917C105.029 135.878 105.111 135.825 105.271 135.626Z" fill="#CBC8C1"/>
<path d="M44.2935 123.452C36.5643 123.797 35.1844 123.005 25.2966 126.87C25.2481 126.572 25.4877 126.512 25.6771 126.403C27.7119 125.17 29.8971 124.345 32.1695 123.824C35.9693 122.954 39.7848 122.847 43.5901 123.233C43.8263 123.251 44.1225 123.187 44.2935 123.452Z" fill="#CBC8C1"/>
<path d="M125.785 89.4371C126.083 95.0664 122.774 104.749 119.43 107.257C119.401 106.962 119.618 106.772 119.753 106.577C122.096 103.275 123.527 99.5982 124.42 95.7129C124.849 93.8594 125.258 92.0028 125.5 90.1236C125.527 89.9276 125.471 89.6691 125.785 89.4371Z" fill="#CBC8C1"/>
<path d="M107.765 123.91C103.515 125.181 99.3693 125.108 95.3236 123.609C92.059 122.397 89.0517 120.696 88.3635 119.499C94.3227 123.282 100.578 125.375 107.765 123.91Z" fill="#CBC8C1"/>
<path d="M68.7673 123.59C68.2856 124.004 67.7312 124.181 67.1584 124.311C64.3013 124.962 61.4576 124.885 58.625 124.531C55.6832 124.164 52.8699 123.393 50.1969 122.157C50.0693 122.096 49.9675 121.986 49.8076 121.866C50.1049 121.656 50.2996 121.802 50.5185 121.886C54.6887 123.523 59.0394 124.295 63.5854 124.166C64.7388 124.129 65.8876 124.055 67.0338 123.853C67.6166 123.754 68.19 123.682 68.7673 123.59Z" fill="#CBC8C1"/>
<path d="M58.6718 117.719C65.9074 119.225 73.2342 119.49 80.6893 118.77C80.4388 118.845 80.1859 118.951 79.931 118.988C77.4907 119.372 75.0392 119.61 72.5785 119.614C68.4813 119.635 64.4371 119.309 60.4835 118.368C59.8651 118.224 59.2047 118.152 58.6718 117.719Z" fill="#CBC8C1"/>
<path d="M88.9332 121.985C90.0271 122.085 90.7216 122.809 91.5456 123.243C95.035 125.111 98.7913 125.939 102.782 125.93C105.243 125.926 107.684 125.658 110.09 124.942C110.188 124.913 110.308 124.854 110.374 124.983C105.355 127.125 95.2844 127.288 88.9332 121.985Z" fill="#CBC8C1"/>
<path d="M68.0752 140.767C71.6663 137.898 83.4305 133.841 86.2335 134.468C84.7874 134.81 83.5655 135.069 82.3511 135.39C81.112 135.716 79.8897 136.077 78.658 136.465C77.469 136.84 76.2899 137.245 75.1278 137.685C73.93 138.144 72.7436 138.646 71.5657 139.165C70.3878 139.685 69.2392 140.237 68.0752 140.767Z" fill="#CBC8C1"/>
<path d="M111.347 109.389C108.964 107.097 106.127 105.806 103.146 104.795C100.158 103.779 97.0638 103.457 93.9103 104.216C93.7346 103.755 94.0182 103.694 94.2051 103.618C95.0255 103.287 95.876 103.206 96.7341 103.188C99.8737 103.1 102.782 103.932 105.586 105.152C107.508 105.986 109.228 107.135 110.815 108.491C111.104 108.742 111.104 108.742 111.347 109.389Z" fill="#CBC8C1"/>
<path d="M130.223 58.0995C130.719 58.6977 130.852 59.4344 131.013 60.147C131.752 63.3963 132.268 66.6837 131.837 70.0939C131.648 71.5806 131.262 72.999 130.576 74.3408C130.443 74.6058 130.348 74.9218 129.964 74.9425C129.698 74.6751 129.987 74.4473 130.078 74.2532C131.089 72.0842 131.333 69.7969 131.351 67.4778C131.37 64.897 130.947 62.3849 130.518 59.8676C130.41 59.2862 130.32 58.6955 130.223 58.0995Z" fill="#CBC8C1"/>
<path d="M134.717 74.9291C135.365 75.2081 135.425 75.6061 135.577 75.9247C136.147 77.1356 136.475 78.4387 136.747 79.7576C137.742 84.6092 137.478 89.4644 136.127 94.3261C136.109 94.3928 136.074 94.469 136.031 94.5274C136.014 94.5494 135.965 94.5578 135.813 94.6154C136.591 91.2933 136.949 88.0106 136.833 84.6809C136.709 81.3335 135.837 78.19 134.717 74.9291Z" fill="#CBC8C1"/>
<path d="M85.61 123.465C78.3738 124.498 71.9548 127.747 65.775 131.721C65.7979 131.385 66.0245 131.27 66.2342 131.119C70.9305 127.755 76.0464 125.354 81.5257 123.815C82.8542 123.442 84.2196 123.165 85.61 123.465Z" fill="#CBC8C1"/>
<path d="M101.348 133.798C100.736 134.068 100.345 134.083 99.9551 134.099C97.2316 134.223 94.6894 133.597 92.229 132.599C90.8325 132.033 89.5513 131.269 88.33 130.424C87.3837 129.762 86.5036 128.968 85.8301 127.999C85.5234 127.554 85.2013 127.085 85.2393 126.352C89.2374 131.602 94.6486 133.782 101.348 133.798Z" fill="#CBC8C1"/>
<path d="M110.136 99.288C108.678 98.1647 107.194 97.3393 105.59 96.732C103.938 96.1008 102.218 95.7365 100.445 95.6171C98.7105 95.5038 97.0091 95.9271 95.2856 96.2202C95.7685 95.6598 96.3819 95.447 97.0276 95.2926C98.846 94.843 100.65 94.9061 102.444 95.2453C105.079 95.7474 107.474 96.7751 109.602 98.3774C109.908 98.606 109.903 98.6133 110.136 99.288Z" fill="#CBC8C1"/>
<path d="M68.6379 151.475C66.0042 153.569 50.5692 157.772 46.3325 156.904C53.935 156.293 61.2744 154.336 68.6379 151.475Z" fill="#CBC8C1"/>
<path d="M53.704 70.0113C53.9879 70.008 54.1043 70.1858 54.2509 70.352C55.5603 71.9203 57.0208 73.3294 58.5782 74.6521C60.4461 76.2408 62.4862 77.5839 64.4518 79.0415C64.9175 79.3896 65.3832 79.7376 65.8055 80.1439C62.8037 78.479 59.878 76.7122 57.3303 74.3659C56.1993 73.3278 55.0984 72.2783 54.1612 71.0675C53.922 70.764 53.6032 70.4804 53.704 70.0113Z" fill="#CBC8C1"/>
<path d="M36.8971 109.017C41.3995 111.791 46.2418 113.819 51.3515 115.285C47.3711 115.106 38.6056 111.488 36.8971 109.017Z" fill="#CBC8C1"/>
<path d="M103.23 97.3416C108.793 98.2283 114.284 103.377 115.123 107.377C114.398 106.665 114.178 105.785 113.639 105.143C113.083 104.466 112.584 103.742 111.994 103.096C111.381 102.422 110.756 101.751 110.015 101.22C109.302 100.71 108.6 100.185 107.909 99.646C107.211 99.1015 106.421 98.7383 105.619 98.3771C104.823 98.0212 104.024 97.685 103.23 97.3416Z" fill="#CBC8C1"/>
<path d="M96.4576 55.2699C97.5023 55.6982 98.0996 56.5085 98.7717 57.204C100.424 58.8935 102.087 60.5684 103.518 62.4676C104.602 63.9029 105.567 65.4093 106.121 67.1643C106.242 67.539 106.426 67.9157 106.344 68.3314C106.043 68.459 105.982 68.2654 105.923 68.0968C104.686 64.7047 102.444 62.0061 100.157 59.3533C98.9852 57.9775 97.7398 56.6716 96.4576 55.2699Z" fill="#CBC8C1"/>
<path d="M100.567 138.987C100.67 144.403 95.2554 153.582 91.6071 156.148C96.0067 151.15 99.2744 145.591 100.567 138.987Z" fill="#CBC8C1"/>
<path d="M122.622 108.447C123.105 107.624 123.77 107.051 124.32 106.358C125.907 104.346 126.943 102.07 127.777 99.6881C128.461 97.7526 129.014 95.7758 129.399 93.7637C129.446 93.5259 129.366 93.2268 129.713 93.0082C129.765 93.5482 129.681 94.0541 129.589 94.5548C129.021 97.7725 128.121 100.913 126.601 103.852C125.78 105.446 124.729 106.914 123.28 108.028C123.077 108.184 122.845 108.306 122.622 108.447Z" fill="#CBC8C1"/>
<path d="M141.309 81.0244C141.074 78.8575 140.787 76.948 140.261 75.0985C139.716 73.201 139.063 71.3475 138.283 69.5475C137.515 67.7901 136.444 66.2053 135.57 64.3575C136.231 64.5322 136.397 65.0206 136.631 65.389C138.594 68.4485 139.916 71.8147 140.795 75.3839C141.164 76.8774 141.335 78.4047 141.469 79.9383C141.485 80.2227 141.539 80.5133 141.309 81.0244Z" fill="#CBC8C1"/>
<path d="M46.3442 91.9463C46.6616 91.5352 46.9663 91.6493 47.2342 91.6675C48.6464 91.7335 50.0153 92.0174 51.3561 92.3826C54.0322 93.1202 56.6707 93.9662 59.2005 95.1177C59.5693 95.2909 59.9094 95.4882 60.1777 95.8252C55.6528 94.2859 51.137 92.8215 46.3442 91.9463Z" fill="#CBC8C1"/>
<path d="M91.2505 113.395C94.7234 111.816 103.544 112.88 106.748 115.683C104.382 114.529 101.889 113.793 99.2686 113.416C96.6166 113.037 93.943 113.269 91.2505 113.395Z" fill="#CBC8C1"/>
<path d="M97.8661 50.2212C98.8043 50.7632 99.6771 51.3928 100.451 52.1412C101.546 53.1985 102.704 54.2004 103.716 55.3546C104.706 56.4807 105.654 57.6329 106.32 59.0054C106.731 59.8472 106.759 60.0273 106.613 60.8044C106.497 60.8431 106.381 60.8246 106.341 60.7039C105.602 58.5599 104.186 56.8878 102.735 55.2469C101.182 53.4834 99.4563 51.9211 97.8661 50.2212Z" fill="#CBC8C1"/>
<path d="M93.5145 130.005C94.0846 130.01 94.5106 130.238 94.9687 130.364C97.5775 131.062 100.242 131.38 102.985 131.143C105.533 130.92 107.884 130.105 109.988 128.503C110.197 128.34 110.429 128.218 110.729 128.033C110.42 128.825 109.784 129.17 109.218 129.566C107.619 130.693 105.823 131.273 103.96 131.519C100.411 131.996 97.0113 131.458 93.7391 130.241C93.671 130.202 93.6303 130.126 93.5145 130.005Z" fill="#CBC8C1"/>
<path d="M113.62 122.623C113.159 121.949 112.616 121.327 112.035 120.756C111.805 120.528 111.55 120.303 111.282 120.126C108.604 118.374 105.754 117.028 102.585 116.342C102.085 116.229 101.607 116.043 101.119 115.883C101.06 115.862 101.025 115.778 100.878 115.612C103.36 116.217 105.758 116.645 108.004 117.597C109.631 118.289 111.093 119.246 112.465 120.339C113.053 120.813 113.449 121.415 113.752 122.097C113.827 122.244 113.931 122.424 113.62 122.623Z" fill="#CBC8C1"/>
<path d="M81.5101 58.6909C80.7865 58.7757 80.3739 58.5015 79.9431 58.3388C77.1141 57.2254 74.2328 56.2549 71.1767 55.8817C70.233 55.7679 69.2821 55.751 68.3321 55.6893C68.3544 55.2965 68.6407 55.3626 68.8266 55.331C69.6053 55.2305 70.3881 55.2696 71.163 55.3483C74.6149 55.6989 77.8313 56.7719 80.9137 58.2566C81.0746 58.3313 81.2042 58.4623 81.5101 58.6909Z" fill="#CBC8C1"/>
<path d="M116.117 106.412C118.105 102.366 119.965 98.4178 120.98 94.1222C121.327 94.3249 121.228 94.5586 121.208 94.7599C121.015 96.6183 120.385 98.3784 119.701 100.109C118.921 102.099 117.986 104.007 116.796 105.792C116.673 105.985 116.572 106.194 116.117 106.412Z" fill="#CBC8C1"/>
<path d="M111.428 86.9897C112.027 89.3945 112.591 91.7161 113.193 94.0314C113.802 96.3643 114.786 98.5443 115.93 100.64C115.524 100.894 115.45 100.645 115.335 100.479C114.512 99.2608 113.865 97.9356 113.409 96.5141C112.482 93.6483 111.824 90.6986 111.337 87.7068C111.308 87.5141 111.194 87.3038 111.428 86.9897Z" fill="#CBC8C1"/>
<path d="M77.1634 111.729C81.2215 112.704 85.0836 113.68 88.7127 115.346C89.0607 115.504 89.4349 115.67 89.5759 116.105C89.2535 116.421 88.9546 116.198 88.7342 116.101C85.11 114.37 81.2233 113.296 77.4281 111.984C77.4018 111.975 77.3849 111.94 77.1634 111.729Z" fill="#CBC8C1"/>
<path d="M106.859 74.4163C103.516 69.5208 105.557 70.6598 96.6866 63.5532C100.721 65.2274 105.943 70.4479 106.859 74.4163Z" fill="#CBC8C1"/>
<path d="M132.801 64.2917C132.268 58.8073 130.76 53.6417 128.462 48.7382C130.491 50.9828 132.955 58.8434 132.801 64.2917Z" fill="#CBC8C1"/>
<path d="M130.11 97.2081C131.752 92.5516 131.646 87.8289 131.314 82.9722C132.792 85.2602 131.976 94.6765 130.11 97.2081Z" fill="#CBC8C1"/>
<path d="M44.7721 76.3665C48.3636 78.5619 52.1942 80.2769 56.3622 81.8009C54.0221 82.0066 46.2934 78.333 44.7721 76.3665Z" fill="#CBC8C1"/>
<path d="M106.987 110.866C104.806 109.987 102.883 108.993 100.807 108.351C98.6118 107.666 96.3708 107.39 94.0428 107.652C93.7368 107.685 93.3962 107.851 93.0505 107.502C93.5604 107.166 94.0639 107.145 94.5628 107.085C96.7143 106.828 98.7511 107.247 100.757 107.882C102.638 108.48 104.395 109.361 106.14 110.244C106.397 110.379 106.611 110.585 106.987 110.866Z" fill="#CBC8C1"/>
<path d="M106.575 53.8585C103.647 50.5122 100.822 47.3905 97.0611 45.1473C99.3932 45.3006 105.682 51.1809 106.575 53.8585Z" fill="#CBC8C1"/>
<path d="M79.1768 149.22C81.5204 148.024 83.8641 146.827 86.1346 145.497C88.4299 144.162 90.5989 142.619 92.9745 141.162C91.3011 143.246 81.9978 148.676 79.1768 149.22Z" fill="#CBC8C1"/>
<path d="M72.7988 58.5117C70.8606 58.1781 69.0479 57.8359 67.2358 57.551C65.45 57.2743 63.6279 57.3802 61.8437 57.537C61.726 57.085 61.9755 57.0553 62.1903 56.9996C63.4475 56.722 64.7095 56.6413 65.9707 56.7648C68.1092 56.975 70.1973 57.398 72.1936 58.1618C72.3599 58.2292 72.5059 58.3383 72.7988 58.5117Z" fill="#CBC8C1"/>
<path d="M104.726 122.673C100.247 123.307 96.1633 122.12 92.2358 120.186C92.4156 119.945 92.5819 120.012 92.7288 120.077C96.4453 121.626 100.306 122.589 104.405 122.638C104.513 122.639 104.617 122.66 104.726 122.673Z" fill="#CBC8C1"/>
<path d="M130.195 103.564C131.27 101.556 132.414 99.6003 133.181 97.4531C133.933 95.3403 134.418 93.1645 134.997 90.7747C135.06 94.6 132.704 101.115 130.195 103.564Z" fill="#CBC8C1"/>
<path d="M49.8651 131.423C45.1706 131.635 40.5045 131.504 35.894 130.732C37.4458 130.64 38.978 130.807 40.5106 130.872C42.0626 130.939 43.6136 131.052 45.1695 131.1C46.7393 131.158 48.3085 131.159 49.8877 131.19C49.8788 131.274 49.8755 131.351 49.8651 131.423Z" fill="#CBC8C1"/>
<path d="M91.8626 110.21C89.9135 110.835 83.8191 109.397 81.5322 107.847C82.7708 108.204 83.8447 108.506 84.92 108.821C86.0743 109.16 87.2473 109.445 88.4416 109.644C89.5832 109.826 90.7682 109.791 91.8626 110.21Z" fill="#CBC8C1"/>
<path d="M33.9531 122.582C37.2174 121.21 43.2025 121.416 45.5681 122.672C45.3526 122.932 45.1014 122.79 44.887 122.743C41.3024 121.873 37.6534 121.888 33.9531 122.582Z" fill="#CBC8C1"/>
<path d="M116.937 66.5123C116.13 63.0646 115.41 59.6021 114.322 56.2404C114.77 56.1197 114.787 56.3718 114.843 56.5155C115.951 59.7333 116.711 63.055 116.937 66.5123Z" fill="#CBC8C1"/>
<path d="M54.3778 134.531C50.5009 135.65 46.6543 136.075 42.833 134.869C44.7715 134.941 46.6924 135.182 48.6461 135.118C50.5681 135.052 52.4664 134.684 54.3778 134.531Z" fill="#CBC8C1"/>
<path d="M119.953 109.218C121.276 107.953 122.439 106.786 123.243 105.257C123.999 103.808 124.546 102.259 125.445 100.734C125.549 101.335 125.295 101.749 125.141 102.145C124.687 103.32 124.241 104.501 123.646 105.604C122.967 106.849 122.137 108.005 121.012 108.917C120.729 109.138 120.454 109.331 119.953 109.218Z" fill="#CBC8C1"/>
<path d="M56.638 79.9215C54.2978 77.616 51.2194 76.5763 48.4062 75.0647C50.2302 75.5076 51.9263 76.2526 53.5843 77.0487C54.6587 77.5676 55.6862 78.222 56.4769 79.165C56.6165 79.3261 56.6987 79.5353 56.7973 79.7225C56.7483 79.7882 56.6993 79.8538 56.638 79.9215Z" fill="#CBC8C1"/>
<path d="M36.1721 107.42C37.0441 107.572 43.3691 110.936 44.2713 111.599C41.4264 110.609 38.8568 109.438 36.4616 107.932C36.2909 107.827 36.0799 107.704 36.1721 107.42Z" fill="#CBC8C1"/>
<path d="M83.3967 152.808C80.622 155.367 77.32 156.962 73.8701 158.276C74.5651 157.635 75.4772 157.429 76.2653 156.982C77.0603 156.54 77.8808 156.152 78.6674 155.693C79.4897 155.215 80.2757 154.698 81.0602 154.169C81.816 153.664 82.5424 153.126 83.2828 152.598C83.329 152.666 83.3629 152.737 83.3967 152.808Z" fill="#CBC8C1"/>
<path d="M55.4886 85.9598C53.6932 85.914 52.0413 85.3274 50.3854 84.7607C49.3235 84.3991 48.4071 83.8279 47.5639 83.1295C47.4094 83.0027 47.1767 82.9084 47.2717 82.4906C47.9211 82.5779 48.2622 83.1512 48.7685 83.4159C49.2817 83.6857 49.7965 83.9681 50.33 84.1963C50.8967 84.438 51.4892 84.6306 52.0762 84.8306C52.6245 85.0244 53.1798 85.2234 53.7266 85.4047C54.3136 85.6046 54.8976 85.7796 55.4886 85.9598Z" fill="#CBC8C1"/>
<path d="M99.9934 109.486C97.5347 109.139 95.1336 109.165 92.7452 109.086C92.701 109.087 92.6682 108.972 92.6289 108.908C92.6182 108.661 92.8135 108.603 92.9926 108.566C93.3219 108.516 93.6637 108.464 93.9936 108.472C95.8834 108.508 97.7485 108.707 99.5772 109.129C99.7142 109.164 99.8581 109.203 99.9934 109.486Z" fill="#CBC8C1"/>
<path d="M103.791 135.818C104.491 137.536 103.962 141.398 102.655 143.949C102.63 143.27 102.974 142.65 103.091 141.999C103.213 141.327 103.374 140.662 103.451 139.991C103.537 139.281 103.532 138.561 103.611 137.846C103.665 137.192 103.502 136.524 103.791 135.818Z" fill="#CBC8C1"/>
<path d="M55.0357 74.7424C53.817 74.0249 52.486 73.5305 51.155 73.0361C49.831 72.5469 48.4247 72.3714 47.0474 72.0698C49.2573 71.6178 53.1771 72.9668 55.0357 74.7424Z" fill="#CBC8C1"/>
<path d="M87.254 135.626C84.433 136.113 81.7093 136.933 78.7725 137.982C79.4811 137.191 80.2457 137.183 80.8905 136.913C81.5903 136.628 82.3101 136.404 83.0258 136.199C83.7114 136.006 84.3999 135.838 85.1 135.712C85.8178 135.577 86.5342 135.43 87.254 135.626Z" fill="#CBC8C1"/>
<path d="M56.1953 77.8596C56.0913 77.9411 56.071 77.9828 56.0393 77.9818C55.9704 77.9871 55.8766 77.9967 55.828 77.9603C54.3692 76.8246 52.7881 75.8818 51.1323 75.0537C53.0446 75.5959 54.893 76.2382 56.1953 77.8596Z" fill="#CBC8C1"/>
<path d="M46.2971 81.1278C46.5084 81.1493 46.6447 81.1261 46.7212 81.1833C48.2399 82.2387 49.9174 83.0376 51.4509 84.0586C49.5112 83.6549 47.6101 82.5751 46.2971 81.1278Z" fill="#CBC8C1"/>
<path d="M78.7352 58.8119C76.8112 58.4884 75.1506 57.4634 73.2515 57.1357C74.6668 56.9654 77.6079 57.8557 78.7352 58.8119Z" fill="#CBC8C1"/>
<path d="M111.254 135.747C110.866 133.944 110.114 132.324 108.94 130.662C110.376 131.393 111.457 133.863 111.254 135.747Z" fill="#CBC8C1"/>
<path d="M102.206 91.9836C101.375 91.8631 101.075 91.1618 100.567 90.7701C100.023 90.3524 99.4683 89.9493 98.8287 89.4714C99.8144 89.4126 101.374 90.6012 102.206 91.9836Z" fill="#CBC8C1"/>
</g>
</svg>
