<svg width="311" height="529" viewBox="0 0 311 529" fill="none" xmlns="http://www.w3.org/2000/svg">
<g opacity="0.2">
<path d="M-25.8783 456.379C-24.9316 454.592 -16.5541 442.559 -15.4904 440.858C-12.7534 436.473 -10.2749 431.919 -7.69505 427.443C-7.15485 424.762 -4.98176 422.844 -4.45729 420.154C-4.41659 419.938 -4.25729 419.771 -4.14513 419.576C-2.78274 417.031 -1.79185 414.331 -0.57949 411.719C0.210981 410.02 0.954316 408.295 1.64191 406.557C2.59608 404.175 3.57459 401.787 4.45022 399.359C5.17297 397.342 6.00724 395.35 6.73862 393.318C7.57663 391.029 8.34319 388.718 9.21972 386.47C10.1856 383.995 10.9371 381.456 11.8158 378.951C13.077 375.309 14.244 371.613 15.4181 367.941C16.1979 365.498 16.9149 363.019 17.6947 360.576C18.4643 358.187 19.2811 355.826 20.0664 353.446C20.7146 351.486 21.3558 349.501 22.004 347.541C22.9524 344.697 23.8693 341.834 24.8892 339.011C25.7272 336.722 26.7239 334.484 27.6334 332.216C28.1869 330.819 28.709 329.405 29.1754 327.978C29.5853 326.758 30.1939 325.593 30.7138 324.437C31.5073 322.661 32.2538 320.857 33.0474 319.08C34.3019 316.213 36.0522 313.613 37.2582 310.758C38.98 306.644 41.5187 303.002 43.6019 299.097C44.3141 297.753 44.9964 296.351 45.9198 295.149C47.988 292.432 49.4608 289.332 51.4504 286.571C52.5982 284.979 53.4334 283.166 54.7422 281.768C56.387 280.004 57.3491 277.826 58.8611 275.966C60.1189 274.438 61.2713 272.729 62.4136 271.074C63.6249 269.299 64.8205 267.516 66.2973 265.935C67.1699 265.002 67.7471 263.819 68.6141 262.823C70.3137 260.892 71.6566 258.634 73.3719 256.712C75.7864 253.976 78.1222 251.195 80.5524 248.469C83.6974 244.938 86.888 241.473 90.2883 238.19C90.6815 237.798 90.8263 237.184 91.4897 236.868C91.8532 238.236 92.1728 239.498 92.5166 240.754C93.7293 245.226 95.8329 249.315 98.1957 253.354C100.476 257.246 103.42 260.603 106.68 263.704C108.399 265.336 110.113 267.084 112.32 268.16C113.234 268.608 113.697 269.514 114.618 269.986C116.571 270.995 118.607 271.712 120.778 272.488C121.971 273.796 122.269 275.604 123.025 277.199C126.398 284.136 130.761 290.408 136.495 295.756C140.679 299.651 145.389 302.851 150.522 305.318C154.362 307.157 158.377 308.619 162.539 309.646C169.079 311.27 175.672 311.567 182.304 311.687C184.993 311.744 187.678 311.699 190.349 311.825C196.324 312.105 202.292 312.141 208.241 312.864C208.985 312.954 209.711 313.075 210.446 313.18C211.852 313.394 213.297 313.61 214.659 312.92C216.117 311.408 216.186 309.652 215.51 307.665C214.869 305.798 213.815 304.211 212.4 302.815C208.363 298.846 204.276 294.928 200.281 290.924C196.912 287.541 193.676 284.035 190.315 280.676C188.522 278.882 186.696 277.109 184.617 275.628C184.289 275.399 184.042 275.136 184.015 274.602C184.77 274.419 185.495 274.759 186.223 274.84C190.927 275.363 195.625 275.423 200.291 275.066C206.295 274.604 212.136 273.408 217.849 271.78C223.822 270.063 229.567 267.835 235.009 264.933C238.998 262.808 242.621 260.191 246.276 257.593C251.328 253.987 256.082 249.989 261.562 246.949C262.786 246.279 263.672 245.395 263.564 243.876C263.526 243.215 263.366 242.584 262.832 242.056C261.766 241.001 260.688 239.999 259.512 239.06C257.113 237.155 254.286 235.921 251.884 234.094C249.63 232.373 247.167 231.05 244.758 229.598C243.456 228.806 242.474 227.64 241.095 226.943C239.836 226.295 238.527 225.659 237.552 224.517C237.176 224.08 236.525 223.864 235.991 223.555C233.556 222.148 231.105 220.732 228.498 219.226C229.114 218.883 229.502 218.609 229.959 218.434C233.849 216.989 237.223 214.768 240.478 212.319C243.998 209.663 246.96 206.486 249.846 203.224C251.031 201.893 251.993 200.334 253.07 198.901C256.01 195.072 258.117 190.762 260.555 186.642C261.811 184.535 262.281 182.012 263.817 180.146C263.826 179.732 263.805 179.441 263.864 179.156C264.462 176.049 262.229 174.619 260.036 173.991C257.732 173.338 255.375 172.994 253.019 172.65C248.225 171.956 243.432 171.262 238.652 170.436C233.848 169.616 229.066 168.828 224.201 169.131C224.008 169.139 223.79 168.973 223.537 168.867C223.782 166.733 224.043 164.609 224.28 162.491C224.608 159.488 224.888 156.457 225.216 153.454C225.566 150.304 225.996 147.16 226.266 144.003C226.443 141.771 226.643 139.571 227.41 137.441C228.042 135.69 227.941 135.393 227.028 133.089C224.059 130.575 220.469 130.337 217.005 129.952C211.66 129.379 206.323 128.829 201.036 127.83C198.707 127.402 196.426 126.563 194.097 126.135C190.722 125.523 187.342 124.847 183.708 124.722C184.101 122.914 184.458 121.205 184.806 119.51C185.494 116.137 185.808 112.686 186.193 109.257C186.693 104.756 186.133 100.242 186.255 95.743C186.272 94.9146 186.014 94.127 185.698 93.3661C185.238 92.2023 184.411 91.3851 183.087 91.139C181.97 90.9328 180.879 90.9008 179.763 90.8748C176.583 90.8334 173.558 91.5401 170.469 92.0304C169.087 92.2493 167.793 92.8588 166.518 93.3994C165.962 93.637 165.417 93.8206 164.85 93.9321C164.436 93.2339 164.698 92.4876 164.55 91.7635C163.885 88.4855 162.345 87.1969 159.211 87.2217C156.831 87.244 154.468 87.6745 152.097 87.9009C150.411 88.0644 148.727 88.1888 146.832 88.3514C147.946 84.7843 150.195 81.7537 149.512 77.9264C149.133 76.73 148.159 76.1672 147.149 75.7034C143.187 74.911 139.356 75.491 135.529 75.954C132.348 76.3508 129.175 76.7327 126.049 77.361C123.505 77.8868 120.978 78.6017 118.556 79.4973C114.845 80.8854 111.275 82.5742 108.067 84.871C106.603 85.921 105.178 87.0133 103.791 88.1476C103.434 88.4402 103.127 88.6819 102.572 88.7004C103.109 83.2637 102.345 77.794 102.022 72.3594C101.857 69.4499 101.844 66.5291 101.758 63.626C101.736 62.7554 101.739 61.8789 101.613 61.0078C101.384 59.4789 100.746 58.1523 99.1611 57.5958C96.1252 57.1588 93.8875 58.6796 91.8556 60.2793C87.0116 64.1057 82.2673 68.0495 77.2536 71.698C74.5812 73.646 71.9229 75.6422 69.289 77.6325C66.1331 80.0196 63.2169 82.6449 60.6243 85.617C58.6462 87.8863 56.7466 90.2011 54.9711 92.6275C53.9354 94.0246 52.9556 95.434 52.1085 96.9401C51.6323 97.8024 51.8191 98.968 50.8255 99.7109C48.8978 97.0607 47.2983 94.2408 45.9452 91.2839C44.4356 88.0172 43.3084 84.6321 42.2228 81.2112C40.5165 75.8153 38.6971 70.4339 36.8204 65.0792C36.2061 63.3474 35.5149 61.5313 33.166 60.9923C32.6089 61.6682 32.2262 62.4049 31.9786 63.3794C31.3599 66.0151 30.731 68.7048 29.685 71.1736C28.8163 73.2258 28.1045 75.3689 26.8485 77.2573C25.5667 79.1906 24.6902 81.438 23.2527 83.2416C21.0786 85.9964 19.4857 89.087 17.7828 92.114C16.3129 94.7369 15.1886 97.5595 13.923 100.3C12.8761 102.589 12.0106 104.962 11.1624 107.306C9.91046 110.713 9.03865 114.261 8.54852 117.908C8.22249 120.254 7.9035 122.624 7.7848 125.01C7.54981 129.923 8.13614 134.791 9.309 139.66C8.56934 139.671 8.12924 139.018 7.43426 138.916C6.99927 138.944 6.60124 139.053 6.3196 139.469C5.32247 140.908 4.74396 142.53 4.38692 144.239C3.35653 149.151 3.28723 154.14 3.5941 159.166C3.75261 161.652 3.9685 164.112 4.3359 166.599C5.08329 171.66 6.34883 176.622 8.52351 181.351C11.3122 187.412 15.3984 192.566 20.1666 197.337C22.5629 199.719 25.0525 201.975 27.7289 203.981C30.5608 206.116 33.4815 208.242 36.7229 209.776C43.3801 212.904 50.075 215.894 57.3656 217.233C63.5309 218.38 69.6714 218.735 75.8333 218.145C77.7852 217.955 79.6593 217.502 81.4901 217.123C82.1922 217.249 82.6462 217.551 82.9347 218.177C83.6069 219.663 84.3608 221.116 85.0817 222.59C86.2507 224.922 87.9213 226.964 89.3438 229.183C89.791 229.861 90.4171 230.482 90.3831 231.34C87.4545 234.278 84.5345 237.2 81.6758 240.198C79.018 242.993 76.5385 245.95 73.8493 248.727C72.3583 250.26 71.1227 252.04 69.7629 253.709C68.2179 255.59 66.6503 257.438 65.0739 259.301C64.2469 260.3 63.5369 261.386 62.7728 262.422C61.7112 263.864 60.6325 265.336 59.501 266.717C58.1758 268.326 57.3972 270.331 55.7523 271.695C55.6361 271.788 55.5742 271.932 55.5208 272.06C54.4253 274.361 52.7414 276.301 51.2162 278.294C49.4195 280.648 48.3195 283.465 46.1716 285.556C46.021 285.708 45.9245 285.912 45.8281 286.116C42.711 291.778 38.62 296.878 35.7944 302.688C34.1491 306.088 32.221 309.324 30.5686 312.699C29.8777 314.116 29.3925 315.612 28.2 317.317C29.0566 314.56 29.6873 312.23 30.4924 309.961C31.9379 305.928 33.209 301.833 34.3215 297.687C35.557 293.072 36.8884 288.474 37.6951 283.732C38.911 276.572 39.2672 269.414 38.2232 262.106C37.6429 258.099 37.0053 254.119 36.0214 250.158C35.5492 248.289 35.1987 246.39 34.5561 244.562C32.3019 238.192 29.9001 231.895 26.9213 225.764C23.1108 217.915 18.6425 210.444 13.5336 203.322C9.71988 197.986 5.67374 192.834 1.38828 187.844C-1.2762 184.728 -3.99087 181.663 -6.82171 178.691C-10.0619 175.302 -13.3766 171.97 -16.7832 168.725C-19.2682 166.351 -21.6457 163.9 -24.1221 161.511C-28.092 157.681 -32.1538 153.938 -35.7894 149.782C-38.4184 146.786 -40.6849 143.561 -42.9427 140.321C-44.3117 138.372 -45.8282 136.498 -47.1642 134.529C-47.855 133.512 -48.8996 133.108 -49.755 132.593C-50.6148 132.596 -51.0622 132.936 -51.0814 133.623C-51.0816 134.641 -51.066 135.667 -50.8974 136.683C-50.3758 139.738 -49.8455 142.778 -49.2022 145.804C-48.5857 148.694 -48.3641 151.616 -48.0051 154.517C-47.4363 159.016 -46.9075 163.512 -46.5805 168.032C-46.2923 172.109 -46.1485 176.183 -46.0448 180.254C-45.9007 186.144 -45.8454 192.043 -45.8859 197.926C-45.926 201.774 -45.8546 205.647 -45.1793 209.489C-44.8177 211.514 -44.5135 213.566 -43.91 215.571C-43.1123 218.147 -42.4276 220.737 -41.6055 223.308C-39.7419 229.193 -37.0705 234.768 -33.9335 240.152C-31.1951 244.847 -27.8718 249.182 -24.3665 253.382C-21.8819 256.374 -19.5708 259.485 -17.2353 262.591C-13.3038 267.796 -9.66908 273.188 -6.04293 278.596C-3.59326 282.266 -1.38147 286.058 0.780128 289.901C3.06276 293.934 4.9859 298.118 6.94195 302.281C7.5874 303.632 8.04524 305.054 8.53604 306.455C9.9518 310.466 11.4806 314.462 12.4739 318.588C14.3914 326.56 15.8567 334.591 15.6935 342.758C15.6355 345.438 15.5931 348.128 15.2948 350.789C15.1096 352.418 14.6442 354.025 14.1402 355.589C12.8722 359.606 11.4611 363.58 10.3117 367.645C9.19982 371.572 7.62775 375.353 6.44443 379.259C5.63962 381.927 4.57323 384.504 3.81555 387.199C3.1707 389.481 1.97138 391.561 1.25504 393.822C0.501113 396.22 -0.568551 398.475 -1.42537 400.834C-1.95766 402.302 -2.57863 403.779 -3.20671 405.232C-3.91398 406.859 -4.86005 408.427 -5.18011 410.218C-5.202 410.365 -5.29536 410.491 -5.38009 410.601C-6.73652 412.591 -7.14728 415.048 -8.488 417.047C-9.29131 418.259 -9.42316 419.759 -10.2194 420.996C-10.9553 422.127 -11.8198 423.264 -11.9257 424.719C-14.5833 429.33 -17.2408 433.94 -19.8983 438.551C-20.9495 440.317 -28.7537 451.356 -29.7758 453.021C-29.3831 453.247 -28.4137 453.179 -28.021 453.406C-27.1088 451.678 -19.7807 440.854 -18.7672 439.205C-14.8701 432.916 -11.1528 426.503 -8.02546 419.769C-7.97214 419.64 -7.83875 419.518 -7.82548 419.386C-7.75718 418.068 -6.97019 417.066 -6.33478 416.036C-5.68214 414.977 -5.59103 413.692 -4.93129 412.657C-3.92797 411.061 -3.44464 409.205 -2.65417 407.507C-2.10994 406.345 -1.46986 405.198 -1.10706 403.951C-0.346937 401.397 0.856154 399.019 1.71055 396.519C2.16363 395.224 2.75095 393.987 3.21112 392.717C3.96839 390.64 4.66282 388.527 5.40438 386.441C6.09261 384.484 6.89239 382.551 7.54922 380.576C8.36909 378.136 9.08608 375.657 9.85019 373.205C10.8612 369.998 11.8722 366.791 12.8989 363.592C13.9068 360.463 14.9547 357.337 16.0027 354.211C16.8068 351.762 17.611 349.313 18.4466 346.883C19.4193 344.032 20.3834 341.197 21.4276 338.368C22.2092 336.285 23.0466 334.215 23.8282 332.132C24.9069 329.244 26.1914 326.434 27.2544 323.536C27.8659 321.894 28.8473 320.445 29.3944 318.806C30.2966 316.114 31.6401 313.638 32.9664 311.191C37.016 303.693 41.4112 296.395 45.6649 289.015C45.8806 288.641 46.0279 288.167 46.3521 287.895C47.5497 286.871 48.2304 285.508 48.9183 284.17C49.6421 282.732 50.967 281.741 51.6908 280.304C52.8147 278.1 54.5254 276.294 55.8763 274.241C56.6969 272.999 57.4891 271.661 58.4739 270.534C60.5768 268.157 62.2414 265.487 64.2116 263.013C65.8185 260.988 67.4254 258.964 69.0166 256.93C69.7188 256.038 70.344 255.062 71.1091 254.207C72.4956 252.674 73.8593 251.107 75.2459 249.573C77.0114 247.6 78.7526 245.633 80.5338 243.669C82.1715 241.881 83.8406 240.112 85.4939 238.333C85.6446 238.181 85.7561 238.205 85.8229 238.344C86.1829 238.991 85.8206 239.619 85.8892 240.118C84.0593 242.094 82.2827 243.941 80.5988 245.881C78.7642 247.974 76.9682 250.109 75.1721 252.245C73.755 253.94 72.2437 255.581 70.9052 257.322C69.245 259.476 67.5447 261.627 65.8845 263.78C63.9615 266.281 62.0699 268.8 60.2254 271.346C58.7041 273.441 56.9857 275.441 55.8085 277.774C55.7121 277.978 55.6313 278.19 55.4649 278.334C53.5257 280.027 52.9455 282.705 51.0063 284.398C48.7764 288.558 45.7155 292.197 43.5171 296.374C40.8065 301.513 37.4675 306.289 35.1582 311.64C34.1585 313.955 32.8587 316.138 31.7718 318.423C30.9036 320.256 30.1942 322.141 29.3103 323.965C28.0752 326.544 27.2744 329.314 26.1335 331.948C25.7273 332.87 25.5111 333.863 25.105 334.786C24.186 336.889 23.3298 339.028 22.5851 341.192C21.4148 344.567 20.3474 347.981 19.2242 351.383C18.4201 353.832 17.5845 356.262 16.796 358.72C15.8415 361.721 15.0612 364.782 13.9881 367.734C12.5903 371.576 11.55 375.524 10.1522 379.366C9.1598 382.105 8.28444 384.932 7.32341 387.689C6.35377 390.462 5.29694 393.203 4.25582 395.954C2.80235 399.784 1.25459 403.559 -0.24604 407.362C-0.792463 408.782 -1.55172 410.099 -2.08953 411.505C-3.03972 413.989 -4.01425 416.479 -5.31158 418.802C-5.49278 419.117 -5.7698 419.416 -5.82377 419.764C-6.0514 421.249 -6.87906 422.467 -7.64234 423.682C-8.42287 424.927 -8.67327 426.379 -9.39805 427.636C-11.4658 431.151 -13.4706 434.702 -15.5069 438.235C-15.9038 438.923 -16.2009 439.73 -16.769 440.279C-18.2067 441.684 -26.1144 453.719 -27.1279 455.369C-26.7382 455.674 -26.2867 456.143 -25.8783 456.379ZM74.4398 164.539C74.5396 164.656 74.9056 164.748 74.5045 164.935C74.502 164.794 74.5153 164.662 74.5128 164.521C74.2701 164.361 74.1978 164.159 74.3201 163.911C73.5269 162.235 72.7823 160.548 71.9647 158.878C69.7847 154.486 67.6863 150.061 64.876 145.963C61.1697 140.549 56.7438 135.657 52.8225 130.398C50.0383 126.654 47.5563 122.786 45.3381 118.75C43.7573 115.861 42.5274 112.836 41.2733 109.817C39.8075 106.256 38.7469 102.61 37.9124 98.9351C36.9267 94.6141 36.8025 90.252 37.0888 85.8677C37.4125 80.9462 37.6404 76.0094 36.897 71.0501C36.8536 70.7257 36.9917 70.4862 37.1698 70.2499C37.0213 70.1441 36.8556 70.0683 37.0007 69.8529C37.2622 69.9441 37.143 70.1147 37.0967 70.2675C38.5246 73.5669 39.2138 77.0581 40.5444 80.3811C41.4746 82.6546 42.0712 85.0347 42.9025 87.3709C44.6305 92.2205 47.1451 96.6865 49.9288 101.049C52.0006 104.321 53.9977 107.65 55.8889 111.017C59.1377 116.826 61.9052 122.815 64.2715 128.991C65.9026 133.246 67.4205 137.515 68.8655 141.802C70.7329 147.391 72.3483 153.054 73.5829 158.796C73.9033 160.238 74.1995 161.686 74.5199 163.128C74.5876 163.447 74.4495 163.686 74.2714 163.923C74.5471 164.062 74.5865 164.284 74.4398 164.539ZM12.0202 148.689C12.3257 148.886 12.8448 148.966 12.63 149.52C13.0101 149.66 13.1909 149.964 13.4188 150.295C16.6982 154.924 20.8644 158.668 25.7297 161.599C32.1573 165.452 38.6727 169.117 45.1607 172.865C45.6948 173.174 46.2878 173.417 46.7214 173.827C48.8316 175.725 51.2706 177.233 53.431 179.08C55.1876 180.574 57.109 181.964 58.8499 183.448C60.8776 185.199 62.9296 186.943 64.8568 188.795C66.7298 190.595 68.6027 192.396 70.4914 194.205C68.1085 193.108 65.7985 191.993 63.4525 190.977C62.8996 190.737 62.4031 190.29 61.8228 190.135C59.2783 189.463 56.9761 188.153 54.5038 187.283C51.96 186.392 49.5706 185.051 47.0354 184.145C45.8864 183.741 44.8629 183.01 43.7163 182.747C41.7649 182.317 40.2815 180.822 38.3254 180.51C35.1653 178.544 31.7707 177.022 28.8523 174.638C26.2764 172.531 23.9469 170.287 22.0035 167.627C18.9317 163.438 16.4831 158.93 14.3367 154.298C13.6488 152.803 12.5831 151.309 12.6771 149.548C12.3472 149.357 11.9427 149.223 12.116 148.705C11.9918 148.593 11.8104 148.508 11.9713 148.302C12.1927 148.39 12.1065 148.54 12.0202 148.689ZM179.241 203.318C179.139 203.459 179.028 203.615 178.803 203.425C178.931 203.239 179.104 203.339 179.254 203.406C179.383 203.181 179.583 203.197 179.824 203.216C183.898 203.595 187.958 204.144 191.99 204.997C197.471 206.169 202.72 208.143 207.922 210.271C209.401 210.866 210.756 211.749 212.231 212.242C214.895 213.142 217.297 214.57 219.796 215.794C223.154 217.415 226.353 219.423 229.554 221.353C232.536 223.155 235.578 224.853 238.472 226.844C241.843 229.171 245.143 231.656 248.83 233.507C249.444 233.822 250.131 234.119 250.774 234.929C245.767 233.733 240.945 233.381 236.161 232.633C231.434 231.897 226.849 230.406 222.545 228.318C217.965 226.091 213.69 223.262 209.507 220.346C209.39 220.259 209.258 220.162 209.141 220.074C207.093 218.432 205.136 216.703 203.012 215.157C201.239 213.873 199.278 212.88 197.524 211.527C194.982 209.579 191.758 208.814 189.071 207.082C187.31 206.903 185.928 205.705 184.27 205.166C182.596 204.618 180.819 204.25 179.241 203.318ZM16.6642 331.046C16.1316 330.699 16.1705 330.123 16.1247 329.657C15.6993 325.999 14.9347 322.384 13.8623 318.831C12.5225 314.326 11.3357 309.809 9.6221 305.406C8.54315 302.628 7.39828 299.891 6.12307 297.199C4.95165 294.726 3.64989 292.298 2.33244 289.86C0.28943 286.066 -1.85955 282.31 -4.32093 278.733C-8.11834 273.186 -11.7509 267.536 -15.8952 262.228C-19.1146 258.113 -22.1191 253.843 -25.4303 249.814C-29.3175 245.114 -32.5641 240.065 -35.3493 234.725C-37.4332 230.747 -38.9629 226.57 -40.5657 222.412C-40.7984 221.798 -41.1113 221.179 -40.972 220.501C-41.0231 220.371 -41.4377 220.292 -41.0209 220.113C-41.0342 220.245 -41.0317 220.386 -41.045 220.518C-40.8109 220.694 -40.5281 220.857 -40.3513 221.059C-38.9629 222.719 -37.616 224.415 -36.2103 226.046C-33.3533 229.372 -30.3143 232.565 -27.0312 235.48C-24.3616 237.86 -21.7439 240.33 -18.8319 242.472C-16.3181 244.323 -14.0429 246.516 -11.6397 248.523C-8.66153 251.022 -5.79952 253.613 -3.10696 256.426C0.843487 260.544 4.38114 264.943 7.35523 269.774C9.95913 274.013 11.8698 278.509 13.527 283.118C14.916 286.994 15.7051 291.001 16.3341 294.997C17.3982 301.797 17.6967 308.655 17.6105 315.489C17.5686 318.977 17.4223 322.465 17.1801 325.937C17.072 327.65 17.1068 329.406 16.5755 331.055C16.7239 331.161 16.8881 331.275 16.6872 331.479C16.5073 331.355 16.5936 331.205 16.6642 331.046ZM-44.2007 141.45C-43.7161 141.59 -43.5486 142.026 -43.2736 142.384C-41.3672 144.963 -39.4765 147.532 -37.3636 149.97C-34.4737 153.276 -31.4 156.408 -28.2017 159.434C-24.8321 162.598 -21.5456 165.834 -18.2435 169.078C-15.4748 171.795 -12.7305 174.518 -10.0537 177.322C-7.32258 180.177 -4.65743 183.074 -2.01819 186.016C2.67573 191.242 7.03841 196.716 11.1445 202.381C14.4356 206.916 17.5533 211.571 20.3656 216.429C22.8321 220.687 25.1181 225.041 27.1104 229.505C28.5854 232.832 29.9702 236.206 31.3636 239.565C31.6491 240.269 31.7799 241.023 32.0332 241.927C31.2376 241.528 31.0362 240.932 30.7171 240.469C29.2028 238.337 27.7041 236.214 25.9088 234.278C22.7817 230.875 19.4293 227.681 15.8831 224.714C12.6096 221.965 9.20101 219.377 5.77522 216.819C3.48848 215.119 1.31946 213.287 -0.873924 211.461C-4.91107 208.111 -8.71437 204.536 -12.3168 200.759C-19.051 193.695 -25.1314 186.151 -30.0046 177.748C-34.1021 170.652 -37.2371 163.193 -39.8093 155.521C-40.9735 152.055 -41.9987 148.529 -42.9596 145C-43.2893 143.792 -44.2863 142.797 -44.1293 141.471C-44.2534 141.359 -44.4505 141.266 -44.274 141.068C-44.0352 141.126 -44.1301 141.291 -44.2007 141.45ZM141.092 252.975C140.976 253.068 140.882 253.412 140.688 253.021C140.833 253.025 140.969 253.044 141.113 253.047C141.287 252.928 141.453 252.785 141.641 252.713C144.58 251.538 147.328 250.113 149.585 247.905C151.842 245.696 153.453 243.155 154.44 240.134C155.32 237.409 155.518 234.631 155.334 231.79C155.213 229.964 154.877 228.114 154.118 226.378C152.183 221.888 149.159 218.125 145.614 214.72C143.594 212.775 141.557 210.86 139.528 208.929C139.696 208.747 139.782 208.597 139.888 208.559C143.463 207.152 147.271 206.359 150.962 205.259C152.361 204.83 153.891 204.756 155.343 204.417C158.741 203.607 162.241 203.275 165.75 203.146C169.467 203.019 173.14 203.585 176.813 204.37C180.334 205.127 183.704 206.256 187.003 207.763C188.448 208.418 189.824 209.373 191.303 209.749C194.104 210.449 196.066 212.421 198.189 214.006C200.343 215.61 202.454 217.289 204.565 218.967C205.803 219.942 207.1 220.891 208.323 221.857C210.582 223.641 212.801 225.422 215.316 226.835C216.974 227.773 218.648 228.721 220.298 229.674C222.529 230.962 224.984 231.643 227.43 232.377C231.035 233.462 234.762 233.68 238.443 234.27C242.339 234.885 246.3 235.098 250.153 236.007C251.522 236.32 252.906 236.68 254.219 237.199C256.505 238.101 258.284 239.847 260.228 241.27C261.11 241.919 262.169 242.771 262.221 244.098C261.906 245.153 261.128 245.741 260.222 246.295C256.274 248.603 252.646 251.337 249.019 254.07C246.268 256.153 243.41 258.133 240.576 260.107C233.57 264.959 225.661 268.072 217.448 270.551C212.837 271.938 208.09 272.907 203.232 273.452C197.235 274.118 191.244 274.268 185.176 273.497C182.778 273.189 180.392 272.968 178.733 270.832C178.604 270.657 178.349 270.59 178.145 270.472C176.708 269.622 175.41 268.532 174.157 267.509C172.032 265.783 169.675 264.421 167.454 262.898C164.162 260.617 160.535 258.881 156.725 257.497C153.557 256.345 150.391 255.335 147.139 254.473C145.146 253.861 143.054 253.749 141.092 252.975ZM79.4429 187.903C77.9122 168.76 73.6093 150.43 67.1309 132.459C67.1424 131.967 67.5568 131.647 67.6296 131.23C68.1939 128.144 69.4069 125.313 70.9914 122.637C72.2221 120.574 73.2031 118.327 74.6994 116.458C76.6868 113.954 78.884 111.632 81.2068 109.382C85.4696 105.22 90.3335 101.904 95.5408 99.0457C101.479 95.7917 108.038 93.8942 114.616 92.1469C117.473 91.4034 120.447 90.9666 123.417 90.6469C129.47 89.9538 135.588 89.8764 141.705 89.7991C145.886 89.7399 150.059 89.6567 154.181 89.045C156.007 88.7831 157.858 88.5153 159.748 88.65C161.664 88.7787 162.41 89.4095 162.94 91.2519C163.073 91.7478 163.117 92.2523 163.128 92.7777C163.28 96.4375 163.763 100.069 164.27 103.694C165.047 109.431 165.711 115.182 166.463 120.925C167.006 125.07 167.227 129.229 167.392 133.375C167.598 138.902 167.741 144.432 166.603 149.821C165.729 154.025 164.911 158.242 163.33 162.257C162.632 164.049 161.941 165.865 161.275 167.675C160.375 170.109 159.262 172.439 158.102 174.742C156.637 177.647 154.538 180.126 152.563 182.717C150.953 184.82 149.218 186.85 147.307 188.639C142.267 193.35 136.704 197.48 130.468 200.961C129.31 199.773 128.146 198.522 126.915 197.351C123.183 193.798 120.277 189.685 117.744 185.288C115.879 182.055 114.22 178.722 111.952 175.716C110.127 173.324 108.116 171.145 105.378 169.683C102.499 168.139 99.5353 167.903 96.4836 168.475C94.6786 168.809 93.3405 169.931 91.9411 170.979C88.3967 173.64 85.5201 176.887 82.9303 180.4C81.2944 182.547 80.6199 185.171 79.4429 187.903ZM201.818 206.584C191.378 202.608 180.66 201.584 169.866 201.673C158.911 201.75 148.447 204.065 138.448 208.006C136.229 206.006 134.026 204.014 131.722 201.945C132.447 201.486 132.999 201.146 133.551 200.806C137.133 198.625 140.532 196.179 143.77 193.54C146.833 191.06 149.587 188.281 152.179 185.309C154.376 182.806 156.164 180.067 158.108 177.42C159.289 175.807 160.095 173.938 160.893 172.044C161.834 169.794 162.75 167.55 163.691 165.3C165.182 161.731 166.294 158.023 167.173 154.281C168.777 147.465 169.287 140.477 168.765 133.39C168.607 131.303 168.601 129.205 168.533 127.289C168.931 126.781 169.331 126.813 169.666 126.667C170.735 126.267 171.873 126.326 172.979 126.187C176.305 125.794 179.637 125.464 183.006 125.794C188.265 126.298 193.435 127.21 198.604 128.56C203.662 129.886 208.888 130.411 214.077 130.854C216.751 131.083 219.44 131.359 222.05 131.989C223.666 132.384 225.753 132.432 226.484 134.651C226.515 135.287 226.48 135.966 226.266 136.7C225.875 138.07 225.42 139.404 225.29 140.865C224.686 147.181 224.042 153.494 223.326 159.785C222.502 166.992 221.486 174.167 219.411 181.11C218.66 183.649 217.748 186.176 216.444 188.475C214.984 191.044 213.603 193.658 211.726 196.006C209.884 198.294 208.159 200.67 206.099 202.753C204.721 204.091 203.41 205.529 201.818 206.584ZM17.1761 345.49C17.0092 343.418 17.3982 341.508 17.5471 339.578C17.9046 334.816 18.3981 330.073 18.6756 325.304C19.0457 319.212 19.1512 313.107 18.8633 306.994C18.5677 301.076 17.9988 295.16 16.6629 289.34C15.5402 284.421 13.9811 279.569 11.7287 274.975C9.04557 269.494 5.59003 264.444 1.61566 259.713C-3.10283 254.094 -8.58326 249.251 -14.256 244.597C-16.8547 242.457 -19.4448 240.302 -22.002 238.126C-26.2929 234.489 -30.31 230.632 -34.1159 226.517C-36.2421 224.211 -38.3493 221.836 -40.0469 219.259C-42.2758 215.896 -43.2557 212.037 -43.905 208.15C-44.5007 204.533 -44.5084 200.877 -44.4847 197.239C-44.4391 190.621 -44.5624 184.004 -44.7415 177.375C-44.9156 171.029 -45.4691 164.723 -46.174 158.389C-46.9509 151.235 -48.0356 144.143 -49.5066 137.067C-49.6901 136.223 -49.9261 135.288 -49.466 134.018C-48.7311 135.141 -48.0853 135.873 -47.7173 136.724C-46.6959 139.13 -45.6988 141.542 -44.9051 144.016C-43.1375 149.487 -41.7192 155.056 -39.6753 160.447C-38.73 162.949 -37.7933 165.466 -36.6847 167.902C-34.6892 172.288 -32.4488 176.576 -29.8732 180.718C-27.4344 184.661 -24.7806 188.449 -21.8873 192.076C-18.726 196.038 -15.3985 199.856 -11.7797 203.424C-9.33628 205.833 -6.90151 208.258 -4.24857 210.449C-2.63026 211.783 -1.19707 213.329 0.481633 214.559C2.24597 215.857 3.82511 217.368 5.60825 218.598C6.99313 219.538 8.31914 220.544 9.58786 221.576C12.0868 223.599 14.6446 225.555 17.0588 227.688C21.8314 231.942 26.3317 236.378 29.8738 241.678C32.3006 245.315 34.364 249.001 35.2452 253.322C36.0067 257.014 36.681 260.677 37.1033 264.413C37.7372 270.107 37.6173 275.765 36.6737 281.326C36.0329 285.126 35.3433 288.938 34.2478 292.655C32.719 297.778 31.443 303.008 29.7955 308.082C28.4341 312.224 27.0326 316.364 25.5126 320.454C24.0733 324.332 23.0141 328.349 21.892 332.331C20.9087 335.853 19.5609 339.245 18.3247 342.662C17.9986 343.591 18.0268 344.705 17.1761 345.49ZM110.049 247.212C108.136 246.027 106.775 245.081 105.415 244.136C102.365 242.015 99.7578 239.49 97.1863 236.867C93.4795 233.089 90.5151 228.822 87.8161 224.349C84.4151 218.733 81.7129 212.921 80.3342 206.557C79.3988 202.185 78.9683 197.846 79.6222 193.514C80.2526 189.369 81.4233 185.376 83.6072 181.768C84.2857 180.664 85.1127 179.665 85.8454 178.612C88.1269 175.38 91.154 172.998 94.4734 170.945C97.5793 169.008 101.432 169.299 104.692 171.382C107.545 173.19 109.807 175.514 111.692 178.239C113.531 180.898 115.059 183.697 116.717 186.451C118.472 189.4 120.319 192.264 122.56 194.915C126.958 200.11 132.352 204.304 137.319 208.91C140.83 212.156 144.402 215.297 147.603 218.863C150.265 221.837 152.232 225.109 153.288 228.872C154.514 233.212 154.114 237.431 152.501 241.428C151.12 244.841 148.583 247.426 145.375 249.323C140.659 252.127 135.427 253.175 129.827 252.972C122.591 252.702 115.936 250.334 110.049 247.212ZM33.5044 62.1855C34.0745 62.3952 34.3628 62.6217 34.4919 63.0155C34.8191 64.0826 35.2508 65.1502 35.425 66.2286C36.2746 71.5486 36.1302 76.813 35.1361 82.0256C34.0402 87.778 33.2891 93.55 34.5474 99.5052C35.5434 104.171 37.045 108.651 39.2611 112.944C41.8199 117.915 45.0207 122.498 48.3519 127.037C52.1561 132.208 56.3834 137.045 60.3125 142.109C61.9556 144.235 63.7047 146.324 65.0857 148.578C68.5266 154.198 71.5249 160.041 73.7397 166.19C75.6438 171.46 76.8594 176.872 77.4194 182.404C77.7946 186.113 77.9208 189.817 77.9426 193.522C77.9613 195.887 77.9156 198.255 77.9029 200.603C77.548 200.637 77.434 200.471 77.2973 200.273C75.0811 196.997 72.3743 194.136 69.5114 191.364C66.5172 188.457 63.3724 185.702 60.2363 182.932C57.1001 180.163 53.7874 177.59 50.5076 174.997C48.2711 173.246 45.8784 171.584 43.3304 170.191C38.3686 167.464 33.5449 164.498 28.5918 161.756C24.9198 159.734 21.5852 157.309 18.6153 154.395C14.7711 150.638 11.8413 146.311 10.7538 141.113C10.3491 139.163 9.84699 137.237 9.56391 135.257C8.79992 130.007 8.77249 124.823 9.54047 119.639C10.1841 115.361 11.0964 111.199 12.582 107.168C13.2946 105.205 14.0614 103.294 14.8368 101.367C15.9925 98.5628 17.2181 95.8187 18.6495 93.1536C20.6519 89.4615 22.8429 85.8783 25.2223 82.404C27.3115 79.3606 29.1109 76.1299 30.4146 72.6327C30.8559 71.431 31.2815 70.2202 31.6443 68.9731C32.3018 66.7788 32.8737 64.5151 33.5044 62.1855ZM133.911 254.534C136.894 255.898 138.981 257.582 140.971 259.47C142.559 260.966 143.831 262.719 145.27 264.329C149.393 268.946 153.26 273.754 157.825 277.968C159.701 279.691 161.527 281.464 163.749 282.768C166.073 284.15 168.379 285.563 170.737 286.885C173.393 288.38 176.236 289.443 179.041 290.426C182.488 291.639 185.889 293.005 189.382 294.066C192.16 294.913 194.884 295.928 197.625 296.913C199.456 297.551 201.345 298.124 203.08 298.966C205.271 300.033 207.458 301.217 209.418 302.648C212.12 304.609 214.677 306.784 214.429 310.593C214.132 310.999 214.066 311.66 213.145 311.986C212.393 311.91 211.353 311.788 210.32 311.691C207.649 311.384 204.982 310.961 202.313 310.796C198.441 310.574 194.554 310.524 190.694 310.428C186.359 310.318 182.048 310.242 177.722 310.117C174.736 310.029 171.763 309.847 168.8 309.393C164.975 308.799 161.206 307.998 157.524 306.649C154.776 305.64 152.01 304.661 149.439 303.235C147.066 301.904 144.709 300.542 142.51 298.872C140.099 297.061 137.754 295.207 135.653 293.075C129.182 286.463 124.627 278.743 121.624 270.183C120.196 266.085 119.181 261.887 118.304 257.669C117.947 255.926 117.529 254.108 117.791 252.164C123.208 253.957 128.674 254.501 133.911 254.534ZM7.41552 140.402C7.82906 141.319 8.23468 142.032 8.51701 142.814C10.1018 147.222 11.711 151.624 13.6781 155.913C16.0745 161.129 18.5455 166.288 22.0981 170.915C24.7487 174.382 27.8183 177.413 31.6326 179.696C34.0416 181.148 36.6467 182.114 39.2416 183.135C42.5253 184.413 45.9015 185.386 49.1852 186.665C51.5429 187.588 53.9164 188.52 56.2812 189.467C57.7444 190.053 59.2146 190.663 60.6519 191.294C62.9265 192.289 65.2371 193.185 67.4238 194.369C68.6907 195.041 69.8023 195.982 70.9759 196.78C72.9318 198.11 74.6469 199.639 76.1265 201.432C77.4992 203.083 78.9693 204.711 78.9809 207.052C78.9743 207.827 79.3681 208.633 79.6018 209.426C80.2493 211.537 80.9125 213.656 81.5741 215.814C78.0892 216.774 74.5206 217.007 70.9566 217.123C67.6101 217.225 64.2714 217.132 60.9183 216.591C57.1018 215.983 53.319 215.134 49.6333 213.863C47.6439 213.172 45.715 212.377 43.7704 211.573C41.1857 210.498 38.677 209.328 36.1888 208.05C34.1647 207.021 32.3304 205.662 30.4444 204.392C28.1829 202.866 26.0061 201.229 24.0373 199.413C20.7345 196.388 17.6985 193.117 14.9553 189.557C11.5464 185.153 9.16755 180.306 7.52497 175.126C5.86667 169.938 5.29027 164.616 4.92431 159.256C4.6241 154.872 4.70002 150.526 5.29657 146.221C5.57727 144.208 5.93805 142.202 7.41552 140.402ZM203.37 207.162C208.704 202.122 213.389 196.827 216.794 190.593C220.2 184.319 221.997 177.496 222.977 170.419C223.657 170.293 224.171 170.091 224.676 170.123C227.808 170.357 230.954 170.458 234.044 170.946C241.396 172.141 248.73 173.405 256.098 174.429C257.648 174.646 259.176 175.01 260.613 175.641C262.722 176.56 262.985 178.429 261.569 179.905C257.496 184.137 253.016 187.914 247.989 191.076C242.789 194.358 238.044 198.121 234.019 202.78C231.771 205.372 229.601 208.01 227.432 210.648C225.954 212.448 224.582 214.429 222.306 215.508C216.186 212.611 210.106 209.498 203.37 207.162ZM66.4091 130.805C62.5938 120.239 57.5769 110.596 51.7799 101.579C52.0015 99.233 53.1924 97.5664 54.1862 95.8058C54.9298 94.4794 55.8918 93.3191 56.7838 92.0984C58.1772 90.1896 59.6577 88.3112 61.2295 86.5652C65.4566 81.8836 70.5094 78.0582 75.7147 74.4406C78.8542 72.2635 81.8712 69.9358 84.8268 67.5328C86.8689 65.879 88.9652 64.2766 91.4288 62.3276C90.0587 65.068 88.7676 67.2354 87.7521 69.5422C86.4802 72.4391 85.3442 75.3547 84.2781 78.3306C82.8961 82.1816 81.9758 86.1398 81.1027 90.1252C79.8929 95.712 78.8818 101.354 77.1945 106.824C76.2196 109.933 75.1433 112.963 73.474 115.75C72.1311 118.007 70.7411 120.237 69.5482 122.561C68.7568 124.079 68.2411 125.737 67.6312 127.34C67.2274 128.404 66.8881 129.465 66.4091 130.805ZM206.663 299.181C206.249 299.281 206.008 299.082 205.741 298.927C203.527 297.609 201.038 296.949 198.656 296.032C196.013 295.023 193.299 294.173 190.636 293.234C188.743 292.559 186.861 291.791 184.941 291.161C182.309 290.278 179.785 289.099 177.257 287.998C175.598 287.279 174.169 286.054 172.353 285.644C172.003 285.561 171.586 285.34 171.388 285.066C170.571 283.976 169.311 283.547 168.245 282.851C167.666 282.477 166.993 282.227 166.489 281.757C164.216 279.705 161.8 277.83 159.477 275.83C155.965 272.803 152.628 269.618 149.392 266.331C147.407 264.326 145.64 262.088 143.595 260.149C141.343 257.989 139.059 255.812 136.24 254.163C136.461 254.071 136.526 254.029 136.582 254.041C140.731 254.363 144.824 255.111 148.896 256.147C153.422 257.305 157.664 259.138 161.903 261.048C165.589 262.719 168.586 265.548 172.143 267.443C172.268 267.516 172.418 267.582 172.518 267.7C174.577 269.687 176.998 271.226 179.243 272.962C181.675 274.846 184.073 276.79 186.339 278.818C189.442 281.609 192.285 284.668 195.146 287.698C197.19 289.856 199.208 292.06 201.435 294.045C203.218 295.674 204.9 297.444 206.663 299.181ZM78.5133 110.24C78.2657 109.798 78.1737 109.485 78.3046 109.222C79.1666 107.545 79.4811 105.691 79.8742 103.883C81.5554 96.1338 82.7034 88.2563 84.8864 80.6177C85.9231 76.9663 87.2456 73.4001 88.788 69.9611C89.9431 67.3758 91.5011 64.9635 92.9947 62.5538C94.2396 60.5392 95.9394 59.007 98.6051 58.851C98.9664 59.0597 99.3434 59.2776 99.6733 59.4682C100.272 60.5725 100.187 61.7008 100.257 62.7787C100.485 67.3605 100.376 71.9467 100.893 76.5357C101.452 81.4881 101.488 86.4382 101.156 91.3746C101.07 92.722 101.063 94.1148 100.565 95.3433C93.8927 97.6545 83.2017 104.867 78.5133 110.24ZM184.394 93.2311C185.191 97.4432 185.113 101.648 185.01 105.859C184.847 112.21 184.068 118.465 182.271 124.491C177.571 124.47 172.97 124.605 168.328 125.974C167.42 115.631 165.87 105.497 164.582 95.4138C170.291 92.666 176.302 92.0478 182.367 92.0603C183.027 92.4415 183.561 92.75 184.394 93.2311ZM120.493 271.166C118.351 270.267 116.564 269.734 114.925 268.727C114.125 268.225 113.633 267.481 112.84 267.004C109.7 265.149 107.141 262.613 104.755 259.958C99.0517 253.649 95.0704 246.46 93.119 238.329C93.0017 237.842 92.9904 237.316 92.9304 236.803C92.8704 236.289 92.5529 235.787 92.7222 235.166C99.6103 242.398 107.43 248.014 116.482 251.747C116.338 258.428 118.691 264.518 120.493 271.166ZM260.72 182.068C260.574 182.902 260.601 183.437 260.391 183.874C259.095 186.378 257.523 188.742 256.589 191.415C256.282 192.275 255.415 192.653 254.959 193.407C253.962 195.065 252.901 196.688 251.737 198.27C249.962 200.697 248.101 203.054 246.014 205.221C241.204 210.224 235.859 214.519 229.268 217.236C228.37 217.595 227.519 217.981 226.737 218.029C225.669 217.412 224.758 216.885 223.627 216.232C225.099 215.386 226.146 214.295 227.067 213.171C229.464 210.246 231.808 207.269 234.292 204.414C236.875 201.457 239.622 198.654 242.816 196.309C246.127 193.871 249.574 191.633 252.907 189.228C255.695 187.227 258.198 184.882 260.72 182.068ZM102.435 90.3178C103.72 89.324 104.949 88.318 106.231 87.4022C111.342 83.7302 117.008 81.0572 123.136 79.2899C124.347 78.9322 125.581 78.6076 126.842 78.4182C129.858 77.9455 132.886 77.56 135.892 77.1413C137.095 76.9787 138.283 76.807 139.798 76.9039C139.411 77.1392 139.311 77.2408 139.205 77.2794C133.973 79.1258 130.125 82.5694 127.113 86.9954C126.532 87.8573 125.878 88.5568 125.041 89.2104C122.058 89.2629 119.149 89.8771 116.234 90.4282C112.284 91.1788 108.468 92.3863 104.71 93.7471C103.919 94.0287 103.101 94.3942 102.014 94.2452C102.387 92.9441 102.364 91.7133 102.435 90.3178ZM144.814 88.4023C139.32 88.3414 133.919 88.5931 128.504 88.7967C128.456 87.971 128.815 87.4204 129.237 87.1251C130.04 86.5314 130.38 85.6504 130.963 84.9296C132.721 82.7523 134.562 80.6834 137.207 79.4376C140.023 78.1116 142.962 77.1553 146.08 76.7221C146.766 77.0584 147.486 77.3349 148.135 77.9892C148.537 81.8333 146.827 85.0554 144.814 88.4023ZM71.4666 195.347C71.1345 195.415 70.8988 195.279 70.7911 194.957C71.1232 194.89 71.3258 195.047 71.4666 195.347Z" fill="#CBC8C1"/>
<path d="M-43.3346 153.06C-45.0471 152.07 -46.3354 151.326 -47.6237 150.582C-46.3873 152.434 -44.8191 153.819 -42.8977 154.809C-42.5148 155.489 -42.2435 156.145 -42.3364 157.069C-43.811 155.958 -45.0966 154.736 -46.7931 154.155C-46.8736 154.767 -46.4541 155.129 -46.0589 155.497C-45.2213 156.26 -44.4801 157.228 -43.5045 157.751C-40.8218 159.201 -40.6907 161.772 -39.7357 164.439C-42.3177 163.286 -44.5838 162.276 -46.8971 161.239C-46.2144 163.071 -43.6879 164.61 -39.1922 165.93C-37.1796 170.905 -34.9455 175.967 -32.5228 181.139C-36.9823 180.119 -40.7829 177.883 -45.1482 176.918C-45.0328 178.062 -44.2395 178.321 -43.6064 178.567C-40.1322 179.916 -36.713 181.432 -33.1088 182.337C-32.2809 182.536 -31.5724 182.905 -31.1557 183.745C-28.9125 188.174 -26.4244 192.505 -23.7801 196.747C-24.2738 197.24 -24.7695 196.974 -25.2556 196.873C-31.201 195.633 -37.0595 194.024 -42.6131 191.414C-43.4732 191.017 -44.3891 190.608 -45.4492 190.594C-45.543 191.338 -44.9885 191.538 -44.5643 191.784C-41.2593 193.753 -37.6589 194.955 -34.0137 196.043C-30.3771 197.147 -26.7014 198.073 -22.8989 198.234C-20.2053 202.245 -17.573 206.181 -14.7269 210.4C-16.6704 210.574 -18.3649 210.752 -20.0563 210.853C-27.4016 211.279 -34.6599 210.318 -41.8394 208.385C-43.2146 208.01 -43.2217 207.986 -44.4128 208.235C-43.9671 208.952 -43.2336 209.096 -42.5032 209.319C-33.7864 212 -24.9945 212.989 -16.0593 211.985C-15.5426 211.924 -15.0173 211.848 -14.4951 211.851C-13.8598 211.838 -13.8614 211.878 -12.8436 213.164C-18.2773 214.016 -23.6486 214.106 -29.0328 213.709C-34.3769 213.315 -39.5043 211.71 -44.7632 210.587C-44.1266 211.554 -43.1 211.808 -42.1481 212.118C-32.3882 215.243 -22.5386 216.104 -12.6349 214.183C-12.4889 214.147 -12.3373 214.175 -11.9753 214.165C-9.28807 217.932 -6.5482 221.79 -3.58747 225.956C-9.19951 226.645 -14.4449 227.206 -19.7802 227.197C-25.1154 227.188 -30.3797 226.401 -35.6793 225.495C-34.8661 226.264 -33.9274 226.707 -32.8851 226.969C-26.5476 228.655 -20.1483 228.781 -13.7531 228.404C-10.1527 228.189 -6.58861 227.674 -2.89262 227.076C-0.72414 230.145 1.27088 233.333 3.2951 236.797C-2.2833 237.246 -7.66012 237.273 -13.0899 236.81C-18.5196 236.347 -23.8171 235.182 -29.089 233.573C-28.5773 234.248 -27.9332 234.62 -27.187 234.852C-26.4566 235.074 -25.7621 235.396 -25.0403 235.633C-15.9536 238.508 -6.74725 239.177 2.53023 238.052C2.97389 238.009 3.40339 237.918 3.94441 237.851C4.75416 239.317 5.54112 240.749 6.41769 242.353C-2.65929 243.894 -11.4882 242.824 -20.329 241.448C-16.0284 243.434 -11.4458 243.986 -6.84145 244.391C-2.21272 244.791 2.36221 244.52 6.8103 243.598C8.4844 245.962 12.2424 254.34 13.4212 258.254C13.0705 258.79 12.4861 258.532 12.0125 258.518C8.69624 258.457 5.36575 258.349 2.05319 257.992C1.06915 257.883 0.0921991 257.797 -1.09339 258.11C1.44541 259.337 3.95603 259.451 6.44078 259.609C8.92553 259.767 11.418 259.731 14.1077 259.788C16.0287 265.248 17.656 270.819 18.938 276.588C16.1685 276.924 13.5897 275.693 10.6137 276.169C13.5398 277.56 16.3693 277.738 19.1008 278.159C19.3712 278.635 19.4343 279.07 19.3513 279.541C19.148 279.603 18.9172 279.749 18.7256 279.718C16.6404 279.412 14.5661 278.832 12.2763 279.026C13.5301 279.83 14.7884 280.118 16.0309 280.397C17.2176 280.663 18.4059 280.891 19.6012 281.142C20.7163 284.84 21.9028 297.679 21.5136 302.024C20.1204 301.898 18.9883 301.064 17.6907 300.554C17.739 301.161 18.1829 301.517 18.5467 301.867C18.9804 302.277 19.5562 302.55 20.0731 302.888C20.5743 303.218 21.0999 303.541 21.6482 303.898C21.9273 319.765 19.0216 335.089 15.9472 350.416C17.0699 350.067 17.2728 349.206 17.4772 348.306C18.9185 342.354 20.0338 336.313 21.0447 330.271C21.8037 325.721 22.371 321.139 22.6823 316.529C22.7484 315.47 23.0785 314.643 23.8021 313.824C26.7464 310.496 29.4567 306.993 31.6358 303.103C32.3536 301.821 32.9512 300.53 33.1606 298.895C31.5696 301.328 29.8676 303.518 28.377 305.85C26.9381 308.092 25.178 310.128 23.6008 312.211C23.3464 312.143 23.2663 312.137 23.2034 312.101C23.1406 312.064 23.0793 311.989 23.0808 311.95C23.0949 306.73 23.2621 301.498 22.9212 296.312C27.9745 291.069 32.1236 285.324 35.5075 279.017C36.2284 277.657 36.6248 276.17 37.2341 274.786C37.3666 274.483 37.2462 274.075 37.0858 273.663C35.3173 277.53 33.1419 281.123 30.6908 284.576C28.3158 287.934 25.8095 291.155 23.0331 294.301C22.8523 293.997 22.7981 293.946 22.7926 293.883C22.3447 289.573 22.4303 289.642 25.2302 286.31C27.272 283.858 29.2525 281.33 30.9432 278.615C31.7928 277.25 32.7367 275.939 33.522 274.577C34.963 272.077 36.4056 269.538 36.9323 266.589C32.8165 274.13 28.0054 281.168 22.2612 287.828C21.4808 281.769 20.4179 275.947 18.9255 270.215C24.1368 265.243 28.0212 259.485 31.2175 253.249C32.114 251.512 32.8848 249.702 33.3626 247.783C33.4684 247.345 33.5326 246.943 33.1404 246.497C32.3596 247.343 31.9102 248.341 31.4695 249.324C29.4196 254.006 26.8913 258.393 23.843 262.519C22.5012 264.338 20.9969 266.003 19.6166 267.78C19.3451 268.142 19.0281 268.438 18.5129 268.46C18.1584 267.876 18.0073 267.23 17.955 266.521C22.0924 262.286 25.4018 257.453 28.1172 252.196C29.3448 249.812 30.5252 247.401 31.3269 244.811C31.457 244.367 31.5526 243.983 31.2295 243.417C30.3969 244.353 29.8258 245.38 29.4149 246.42C27.9025 250.316 25.5959 253.773 23.5563 257.384C21.967 260.178 19.8553 262.57 17.6825 265.286C16.6628 263.24 16.3097 261.2 15.4824 259.365C16.2008 257.864 17.4284 256.897 18.3748 255.728C21.1636 252.27 23.921 248.794 25.9344 244.828C26.8497 243.022 27.8051 241.219 28.2546 239.204C28.3447 238.757 28.4575 238.343 28.1038 237.94C27.5093 237.736 27.325 238.128 27.1634 238.554C26.2086 241.155 25.0965 243.666 23.6758 246.058C21.6268 249.504 19.1794 252.66 16.6464 255.747C16.1567 256.342 15.8839 257.142 14.9152 257.66C12.8515 252.556 10.7745 247.585 8.29484 242.839C11.648 237.712 15.1536 232.792 16.5808 226.792C16.6677 226.423 16.8323 225.919 16.1669 225.475C14.8117 227.027 14.8295 229.212 13.8387 230.895C12.8048 232.653 12.4323 234.752 11.1627 236.374C9.91033 237.965 8.86067 239.714 7.64618 241.566C4.77501 236.156 1.67082 231.149 -1.64841 226.298C-0.0627003 222.784 2.31015 219.684 2.5323 215.701C1.61022 215.448 1.32854 215.864 1.21108 216.395C0.717758 218.704 -0.534337 220.695 -1.28058 222.898C-1.50005 223.57 -1.77687 224.268 -2.65532 224.738C-5.8141 220.299 -8.96578 215.883 -12.1175 211.468C-11.8266 209.401 -9.88697 208.107 -9.96365 205.987C-9.97317 205.822 -10.2159 205.662 -10.4069 205.412C-11.8598 206.588 -12.077 208.418 -12.8841 209.928C-13.6296 209.477 -13.9613 208.926 -14.228 208.153C-12.7329 206.722 -11.8333 204.907 -11.5294 202.309C-13.421 203.81 -13.836 205.765 -14.8598 207.469C-17.3874 203.933 -19.7651 200.464 -21.882 196.906C-21.4991 195.152 -20.3872 193.659 -21.0709 191.647C-22.6638 192.303 -21.9937 194.048 -23.0155 195.094C-23.5822 194.187 -24.1678 193.35 -24.6717 192.48C-32.0399 179.901 -37.9886 166.785 -41.8647 152.871C-43.3411 147.548 -44.9879 142.266 -46.9999 137.072C-47.4741 135.86 -48.2781 134.857 -49.0405 133.818C-49.3069 133.444 -49.6738 133.173 -50.1708 133.344C-50.5277 134.036 -49.8474 134.31 -49.5723 134.668C-48.2284 136.442 -47.2268 138.338 -46.7096 140.493C-45.8247 144.117 -44.7938 147.707 -43.8359 151.313C-43.6582 151.695 -43.5707 152.125 -43.3346 153.06Z" fill="#CBC8C1"/>
<path d="M127.214 281.49C128.917 282.934 130.396 284.547 132.16 285.886C134.486 287.629 136.882 289.214 139.449 290.577C142.825 292.387 146.26 293.952 149.93 295.034C156.025 296.818 162.263 297.445 168.518 297.823C168.703 297.83 168.899 297.744 169.143 297.685C168.558 297.027 167.817 297.258 167.185 297.193C161.844 296.644 156.545 295.88 151.321 294.439C145.373 292.801 139.918 290.089 134.88 286.618C129.371 282.836 125.096 277.969 122.594 271.769C122.434 271.357 122.2 270.963 122.015 270.556C121.868 270.231 121.728 269.891 121.566 269.518C121.122 269.78 121.367 270.082 121.431 270.298C123.559 277.401 126.802 283.949 132.18 289.413C135.865 293.16 140.302 295.784 145.071 297.94C152.637 301.352 160.64 302.441 168.709 303.307C177.738 304.289 186.753 305.403 195.781 306.423C197.237 306.586 198.711 306.937 200.197 306.358C196.723 305.769 193.251 305.142 189.759 304.622C181.065 303.314 172.339 302.388 163.606 301.438C157.635 300.785 151.768 299.552 146.212 297.161C138.34 293.772 131.578 288.966 127.214 281.49Z" fill="#CBC8C1"/>
<path d="M153.335 197.583C157.471 194.765 161.416 192.096 165.33 189.409C175.61 182.359 185.896 175.334 196.131 168.218C204.267 162.563 211.773 156.185 218.454 148.952C221.258 145.903 223.836 142.664 225.947 139.075C226.119 138.775 226.269 138.443 226.557 137.871C224.697 138.991 223.861 140.623 222.779 141.993C215.699 150.972 207.192 158.467 197.915 165.158C186.678 173.251 175.266 181.103 163.977 189.106C160.63 191.462 157.382 193.975 154.097 196.407C153.783 196.625 153.439 196.785 153.335 197.583Z" fill="#CBC8C1"/>
<path d="M159.378 93.1813C158.903 93.0265 158.669 93.2506 158.515 93.481C156.437 96.47 153.847 99.0432 151.366 101.68C145.857 107.575 140.519 113.608 135.22 119.684C131.401 124.062 127.668 128.508 124.036 133.033C120.851 136.999 117.768 141.044 114.716 145.106C109.215 152.402 104.928 160.419 100.492 168.37C100.457 168.43 100.47 168.517 100.442 168.601C101.043 168.429 101.129 167.88 101.371 167.461C103.803 163.061 106.689 158.923 109.426 154.718C111.486 151.579 113.658 148.465 116.054 145.54C118.435 142.606 120.636 139.548 122.985 136.596C125.513 133.408 128.047 130.244 130.676 127.134C134.196 122.983 137.756 118.875 141.346 114.784C145.072 110.533 148.86 106.317 152.632 102.092C154.724 99.7694 156.628 97.2987 158.517 94.8189C158.922 94.3345 159.32 93.826 159.378 93.1813Z" fill="#CBC8C1"/>
<path d="M49.7056 174.895C49.2613 173.74 48.3633 173.081 47.5871 172.393C41.634 167.098 37.6574 160.59 34.6872 153.426C31.481 145.726 29.8624 137.707 29.1728 129.565C28.199 117.847 28.0851 106.127 28.8052 94.4502C28.963 91.8873 29.5442 89.3893 29.5591 86.7837C28.9811 86.7691 29.0128 87.1865 28.969 87.4805C26.606 102.699 26.6804 118.048 28.3428 133.476C29.3173 142.54 31.7993 151.278 36.157 159.523C38.3095 163.601 40.7744 167.499 44.3303 170.631C46.0156 172.104 47.6318 173.696 49.7056 174.895Z" fill="#CBC8C1"/>
<path d="M147.439 248.313C151.446 247.794 154.93 247.272 158.44 246.925C170.768 245.704 183.141 244.77 195.512 243.874C205.482 243.147 215.436 242.232 225.453 241.932C228.76 241.827 232.062 241.839 235.415 241.8C235.122 240.892 234.429 241.33 233.98 241.31C225.972 240.994 218.007 241.222 210.04 241.709C195.475 242.595 180.921 243.607 166.416 245.006C160.889 245.546 155.367 246.187 149.953 247.33C149.24 247.477 148.483 247.519 147.439 248.313Z" fill="#CBC8C1"/>
<path d="M116.732 116.11C113.615 119.018 111.225 122.405 108.704 125.657C107.274 127.484 106.148 129.547 104.703 131.366C102.744 133.824 101.198 136.542 99.4571 139.128C96.8202 143.051 94.3782 147.106 92.4529 151.461C92.303 151.793 92.1845 152.143 92.0033 152.458C89.5863 156.687 87.743 161.189 85.9225 165.723C84.0675 170.317 82.5773 175.002 81.553 179.857C81.3361 180.849 81.1505 181.859 81.0048 182.872C80.9284 183.367 80.8505 183.9 81.3576 184.433C81.9369 183.79 81.9391 182.953 82.1049 182.231C83.3516 176.447 85.1909 170.866 87.4092 165.425C88.8962 161.795 90.5953 158.268 92.2874 154.717C94.9805 149.031 98.1973 143.667 101.461 138.331C103.196 135.502 105.041 132.698 107.019 129.991C108.386 128.127 109.77 126.233 111.035 124.291C112.232 122.468 113.599 120.784 114.874 119.007C115.506 118.055 116.1 117.062 116.732 116.11Z" fill="#CBC8C1"/>
<path d="M83.0782 216.649C83.6084 200.253 90.5496 187.702 104.663 179.454C104.456 178.796 104.13 179.107 103.904 179.136C103.605 179.182 103.343 179.31 103.072 179.453C99.1815 181.336 95.6796 183.742 92.8849 186.956C90.7303 189.423 88.7156 192.01 87.202 194.927C84.0179 201.069 81.8114 207.476 82.2747 214.628C82.2984 214.841 82.2333 215.063 82.1935 215.459C74.5369 211.015 68.2237 205.113 61.6621 198.987C64.6375 204.178 75.8774 214.284 83.0782 216.649Z" fill="#CBC8C1"/>
<path d="M194.287 165.456C193.232 165.325 192.912 165.699 192.558 165.913C177.631 175.286 163.001 185.051 148.959 195.613C145.092 198.508 141.457 201.655 138.014 205.013C137.195 205.817 136.437 206.696 135.727 207.602C136.921 207.055 137.97 206.324 138.935 205.485C146.212 199.035 154.278 193.539 162.129 187.799C171.825 180.711 182.016 174.288 191.787 167.324C192.54 166.781 193.261 166.22 194.287 165.456Z" fill="#CBC8C1"/>
<path d="M207.416 299.874C205.549 298.935 203.791 298.459 202.058 297.977C193.327 295.569 184.481 293.834 175.52 292.952C169.651 292.377 163.774 291.779 158.025 290.195C152.491 288.675 147.18 286.586 142.362 283.423C139.503 281.551 136.679 279.58 134.058 277.367C132.845 276.346 131.522 275.442 130.183 274.568C131.241 276.258 132.8 277.478 134.32 278.657C137.33 280.995 140.366 283.288 143.606 285.3C151.105 289.952 159.265 292.369 167.858 293.379C175.3 294.243 182.761 294.819 190.148 296.25C195.35 297.257 200.548 298.343 205.631 299.882C206.172 300.034 206.643 300.307 207.416 299.874Z" fill="#CBC8C1"/>
<path d="M31.236 113.882C30.7375 124.631 32.0696 135.22 35.8235 145.532C37.6926 150.683 39.579 155.805 42.1171 160.704C46.5359 169.245 52.5452 176.588 59.9713 182.855C60.1426 182.994 60.3727 183.067 60.9014 183.312C59.8232 182.131 58.969 181.178 58.1061 180.24C57.1733 179.242 56.2318 178.259 55.299 177.261C48.3944 169.799 43.1754 161.375 39.6089 152.01C37.2365 145.769 34.9371 139.511 33.6044 132.993C32.6694 128.401 32.0006 123.784 31.6868 119.132C31.5876 117.378 31.3996 115.633 31.236 113.882Z" fill="#CBC8C1"/>
<path d="M230.521 231.334C228.83 231.396 227.516 231.495 226.207 231.477C221.524 231.426 216.864 230.97 212.199 230.45C204.23 229.558 196.265 228.55 188.266 228.219C180.386 227.899 172.607 228.494 164.887 229.603C163.837 229.755 162.797 230.032 161.848 230.662C164.129 230.483 166.432 230.376 168.692 230.125C179.42 228.957 190.188 229.39 200.976 230.553C207.666 231.264 214.359 232.117 221.064 232.478C223.253 232.605 225.436 232.669 227.615 232.45C228.558 232.376 229.524 232.336 230.521 231.334Z" fill="#CBC8C1"/>
<path d="M28.4867 75.6023C27.3866 76.6029 27.2538 77.9229 26.8799 79.0438C24.7221 85.4393 22.8257 91.9261 21.7083 98.6234C19.3272 113.071 20.4969 127.315 26.0544 141.321C26.8209 143.261 27.4485 145.259 28.4898 147.158C29.1074 146.777 28.6667 146.342 28.559 146.021C27.771 143.61 26.9674 141.19 26.1064 138.797C22.4399 128.558 21.4976 118.096 22.006 107.515C22.3514 100.232 23.9562 93.1978 25.8154 86.2306C26.7281 82.867 27.5295 79.479 28.7438 76.2098C28.7712 76.1258 28.6329 75.9661 28.4867 75.6023Z" fill="#CBC8C1"/>
<path d="M97.21 162.167C97.624 161.848 97.7785 161.798 97.8475 161.678C99.9392 157.759 102.602 154.19 104.983 150.458C106.534 148.022 108.25 145.662 109.926 143.298C111.814 140.639 113.75 138.006 115.786 135.452C118.931 131.483 122.17 127.569 125.758 123.955C132.399 117.258 139.087 110.588 145.712 103.882C146.465 103.119 147.366 102.463 147.979 101.181C144.076 104.253 140.791 107.522 137.405 110.713C131.692 116.091 126.078 121.587 120.922 127.486C118.054 130.757 115.334 134.133 112.722 137.612C109.195 142.318 105.878 147.165 102.757 152.145C100.939 155.045 98.9886 157.848 97.6185 160.987C97.5119 161.245 97.4452 161.505 97.21 162.167Z" fill="#CBC8C1"/>
<path d="M110.904 248.938C111.409 249.369 111.765 249.695 112.207 250.09C110.916 255.09 111.678 259.98 113.736 264.801C114.949 267.636 115.903 269.105 117.989 270.789C116.982 268.831 116.101 267.344 115.425 265.757C114.749 264.169 114.252 262.525 113.779 260.875C113.285 259.153 113.002 257.393 113.009 255.601C113.011 253.926 112.998 252.242 113.263 250.62C114.192 250.279 114.808 250.954 115.5 251.134C118.892 252.077 122.24 251.935 125.589 251.356C133.621 249.951 140.467 246.464 145.913 240.612C148.356 237.972 150.226 234.982 151.54 231.611C150.643 232.769 149.714 233.908 148.864 235.093C142.53 244.084 133.792 249.292 122.485 250.421C118.604 250.833 114.811 250.077 110.904 248.938Z" fill="#CBC8C1"/>
<path d="M109.376 173.839C110.01 174.664 110.519 174.36 110.975 174.224C112.704 173.727 114.241 172.839 115.74 171.909C125.317 166.11 133.997 159.254 141.294 150.84C144.828 146.777 147.925 142.421 150.843 137.902C153.427 133.928 155.876 129.896 158.184 125.783C158.643 124.951 159.125 124.152 159.474 123.256C157.626 126.498 155.175 129.371 153.343 132.622C151.735 135.484 149.822 138.15 147.933 140.81C142.687 148.133 136.524 154.688 129.501 160.447C124.695 164.394 119.668 168.034 114.251 171.189C112.713 172.115 111.075 172.925 109.376 173.839Z" fill="#CBC8C1"/>
<path d="M166.038 262.561C167.124 263.548 168.464 263.803 169.752 264.149C176.391 265.968 183.164 266.608 189.957 266.96C200.311 267.493 210.433 266.356 220.28 263.663C225.472 262.251 230.421 260.241 235.185 257.864C235.832 257.539 236.51 257.272 236.933 256.539C214.391 266.867 190.714 268.336 166.038 262.561Z" fill="#CBC8C1"/>
<path d="M40.9061 169.77C39.7891 168.147 38.1551 167.203 36.9056 165.882C30.9121 159.565 26.9363 152.219 24.12 144.205C20.0764 132.689 18.5261 120.916 18.7991 108.96C18.8137 108.39 18.9743 107.784 18.6512 107.218C18.1283 107.435 18.2056 107.918 18.1886 108.348C17.679 117.553 17.8935 126.738 20.3202 135.863C22.3195 143.405 24.7844 150.756 28.968 157.524C31.3318 161.344 34.0786 164.827 37.5797 167.728C38.5831 168.567 39.6516 169.185 40.9061 169.77Z" fill="#CBC8C1"/>
<path d="M221.91 131.637C220.075 131.914 218.537 132.622 217.029 133.387C208.959 137.364 201.236 141.9 194.005 147.181C185.733 153.216 177.938 159.766 170.596 166.838C170.179 167.235 169.693 167.533 169.658 168.211C176.644 162.63 183.333 156.798 190.462 151.439C200.133 144.176 210.487 137.908 221.364 132.439C221.586 132.308 221.925 132.265 221.91 131.637Z" fill="#CBC8C1"/>
<path d="M192.466 238.904C214.746 238.662 236.981 237.297 259.571 239.171C259.05 238.331 258.387 238.427 257.876 238.331C253.307 237.428 248.715 237.29 244.11 237.104C227.017 236.451 210.067 237.476 193.13 238.769C192.888 238.789 192.685 238.851 192.466 238.904Z" fill="#CBC8C1"/>
<path d="M123.009 179.955C125.52 178.792 127.525 177.237 129.605 175.805C138.075 169.964 145.537 163.043 152.257 155.374C155.025 152.205 157.591 148.879 159.884 145.336C162.604 141.161 164.644 136.714 166.411 132.088C166.85 130.965 167.739 130.002 167.531 128.585C167.004 128.919 166.808 129.404 166.605 129.866C165.584 132.109 164.61 134.379 163.557 136.604C162.084 139.704 160.43 142.718 158.457 145.489C156.271 148.555 153.937 151.516 151.463 154.357C144.978 161.762 137.861 168.484 129.966 174.417C127.98 175.903 125.978 177.38 123.961 178.848C123.621 179.111 123.212 179.313 123.009 179.955Z" fill="#CBC8C1"/>
<path d="M38.0367 106.126C37.3097 107.642 37.4555 111.059 38.0155 117.608C39.4463 134.42 45.2346 149.957 54.0943 164.635C53.6823 163.679 53.2875 162.692 52.8511 161.742C50.6407 156.893 48.2914 152.103 46.326 147.156C43.1179 139.096 41.1324 130.804 39.9415 122.333C39.2309 117.353 38.6578 112.352 38.4466 107.341C38.415 106.923 38.4492 106.464 38.0367 106.126Z" fill="#CBC8C1"/>
<path d="M164.109 98.1451C163.467 101.904 162.544 105.101 161.256 108.168C160.528 109.902 159.926 111.709 159.032 113.367C156.491 118.103 153.799 122.773 150.592 127.105C146.571 132.523 142.224 137.672 137.396 142.424C135.475 144.307 133.64 146.259 131.773 148.193C131.572 148.396 131.488 148.687 131.16 149.256C134.444 146.604 137.129 143.866 139.844 141.185C142.677 138.373 145.534 135.554 148.002 132.432C150.073 129.818 152.222 127.249 153.896 124.345C154.517 123.268 155.387 122.374 156.047 121.338C158.351 117.702 160.207 113.866 161.836 109.88C162.967 107.121 163.97 104.33 164.499 101.383C164.65 100.433 164.872 99.5036 164.109 98.1451Z" fill="#CBC8C1"/>
<path d="M147.43 114.966C143.762 118.792 140.555 122.725 137.333 126.61C134.357 130.177 131.428 133.772 128.702 137.523C126.103 141.09 123.356 144.55 120.679 148.071C118.358 151.119 116.043 154.191 113.691 157.221C111.407 160.131 109.07 162.99 106.779 165.877C106.509 166.2 106.184 166.51 106.228 167.015C107.57 166.753 107.966 165.485 108.698 164.651C111.422 161.556 113.968 158.299 116.569 155.093C118.941 152.174 121.337 149.249 123.64 146.27C125.544 143.799 127.317 141.232 129.19 138.743C130.979 136.365 132.844 134.071 134.664 131.711C136.213 129.713 137.739 127.682 139.312 125.678C141.503 122.893 143.717 120.103 145.954 117.345C146.487 116.675 146.909 115.942 147.43 114.966Z" fill="#CBC8C1"/>
<path d="M221.088 164.195C219.104 165.023 218.467 166.491 217.547 167.615C211.598 174.813 204.817 181.131 197.054 186.463C190.506 190.96 183.589 194.825 176.19 197.893C175.414 198.223 174.675 198.633 174.034 199.201C183.462 196.208 192.058 191.717 199.949 185.98C208.162 180.011 215.073 172.851 221.088 164.195Z" fill="#CBC8C1"/>
<path d="M68.6545 183.313C69.7711 179.268 66.2196 160.612 62.5281 150.557C59.373 141.969 54.7249 133.136 52.221 131.231C56.7518 139.576 60.6559 147.918 63.142 156.759C65.6156 165.512 67.1672 174.411 68.6545 183.313Z" fill="#CBC8C1"/>
<path d="M256.033 243.949C234.811 253.661 212.489 259.105 188.205 257.887C192.147 259.406 206.551 259.087 217.981 256.989C231.402 254.525 244.38 250.867 256.033 243.949Z" fill="#CBC8C1"/>
<path d="M152.304 226.169C153.537 226.502 154.188 226.099 154.902 225.913C165.552 223.064 176.387 221.2 187.628 222.086C195.399 222.703 203.022 224.413 210.601 226.237C210.405 225.704 209.822 225.627 209.33 225.462C208.822 225.289 208.33 225.125 207.806 224.981C199.94 222.892 191.976 221.264 183.897 220.709C178.19 220.326 172.589 220.922 167.038 221.867C163.114 222.534 159.233 223.306 155.477 224.589C154.49 224.957 153.433 225.264 152.304 226.169Z" fill="#CBC8C1"/>
<path d="M146.522 216.487C137.502 232.645 124.089 242.295 104.36 242.669C107.104 243.357 109.839 243.48 112.583 243.15C118.637 242.418 124.108 240.191 129.186 237.119C133.803 234.339 137.789 230.876 141.106 226.646C143.238 223.928 144.734 220.861 146.48 217.939C146.738 217.529 146.998 217.041 146.522 216.487Z" fill="#CBC8C1"/>
<path d="M225.341 133.359C217.811 135.454 181.977 160.542 178.279 166.267C193.32 154.446 209.109 143.615 225.341 133.359Z" fill="#CBC8C1"/>
<path d="M78.4421 184.765C79.1667 184.305 79.0444 183.756 79.0648 183.249C79.3779 177.265 80.8673 171.562 82.7135 165.965C84.213 161.404 85.9965 156.968 88.0724 152.641C89.1492 150.41 90.3985 148.279 91.4196 146.036C93.3481 141.783 95.7401 137.778 97.8568 133.634C95.1362 138.028 91.7342 142.008 89.812 146.902C89.303 148.185 88.4474 149.306 87.82 150.54C83.5811 158.765 80.3138 167.371 78.636 176.557C78.1921 179.213 77.8109 181.906 78.4421 184.765Z" fill="#CBC8C1"/>
<path d="M75.1164 129.286C79.6353 121.082 84.3497 113.012 91.5092 106.654C98.5856 100.367 106.519 95.3537 115.32 91.5202C114.77 90.8037 114.359 91.264 114.032 91.3947C102.972 95.6986 93.5637 102.254 85.7262 110.914C83.1806 113.733 80.9074 116.77 79.1452 120.081C77.5987 123.018 75.7594 125.846 75.1164 129.286Z" fill="#CBC8C1"/>
<path d="M145.741 212.406C155.01 209.517 164.319 208.667 173.833 209.313C183.292 209.947 192.516 211.824 201.565 215.495C201.454 214.233 200.384 214.054 199.68 213.787C197.487 212.939 195.269 212.136 193.011 211.511C182.136 208.501 171.14 207.298 160.043 208.453C155.54 208.925 151.164 209.83 146.971 211.4C146.58 211.533 146.089 211.549 145.741 212.406Z" fill="#CBC8C1"/>
<path d="M65.4989 188.892C65.6418 183.667 64.8801 178.557 63.6747 173.49C60.2752 159.113 55.7388 145.037 50.5208 131.127C50.4272 130.853 50.2692 130.582 49.9877 129.98C49.7636 130.769 50.0113 131.211 50.1317 131.62C52.6792 139.518 55.43 147.353 57.7255 155.325C60.154 163.793 62.4608 172.29 63.9259 180.939C64.2183 182.684 64.3889 184.459 64.6327 186.217C64.7557 187.166 64.8145 188.118 65.4989 188.892Z" fill="#CBC8C1"/>
<path d="M138.473 89.1305C137.014 89.2652 135.857 89.8934 134.68 90.4104C128.178 93.3382 122.344 97.2502 116.777 101.535C110.926 106.057 105.849 111.343 101.243 117.083C100.137 118.458 99.2039 119.895 98.4511 121.455C102.411 117.199 106.115 112.734 110.377 108.752C118.244 101.386 126.988 95.1847 136.883 90.5461C137.767 90.1388 137.758 90.1538 138.473 89.1305Z" fill="#CBC8C1"/>
<path d="M114.835 182.196C113.623 181.794 113.016 182.122 112.39 182.299C104.955 184.528 98.7053 188.439 93.8996 194.381C89.2718 200.087 86.4653 206.626 85.276 213.879C84.8498 216.506 84.8254 219.126 85.6341 221.788C86.3481 221.602 86.0082 221.066 85.9564 220.757C85.3087 216.073 86.574 211.736 87.9821 207.442C89.2515 203.607 91.2929 200.137 93.591 196.876C96.9706 192.065 101.346 188.249 106.743 185.601C108.601 184.699 110.467 183.822 112.452 183.173C113.127 182.945 113.781 182.644 114.835 182.196Z" fill="#CBC8C1"/>
<path d="M153.169 165.513C155.539 163.65 157.34 161.359 159.179 159.149C161.842 155.979 164.328 152.647 166.234 148.94C166.861 147.707 167.559 146.533 167.998 145.191C168.293 144.244 168.922 143.371 169.5 142.548C173.863 136.25 179.288 131.045 186.131 127.337C186.32 127.226 186.509 127.116 186.675 126.973C186.716 126.937 186.728 126.844 186.869 126.527C186.145 126.767 185.562 126.908 185.031 127.14C179.732 129.585 175.284 133.021 171.597 137.495C169.572 139.956 168.154 142.707 166.805 145.519C164.862 149.544 162.285 153.143 159.693 156.733C157.951 159.138 155.998 161.402 154.101 163.677C153.671 164.207 153.249 164.721 153.169 165.513Z" fill="#CBC8C1"/>
<path d="M194.744 250.671C193.664 250.147 193.008 250.267 192.364 250.294C183.024 250.546 173.683 250.798 164.343 251.05C156.426 251.266 148.522 251.57 140.698 252.498C139.64 252.626 138.467 252.626 137.753 253.392C137.722 253.773 137.815 253.866 138.017 253.843C143.354 253.015 148.772 252.772 154.182 252.544C165.38 252.048 176.6 251.625 187.806 251.153C189.964 251.043 192.109 250.845 194.744 250.671Z" fill="#CBC8C1"/>
<path d="M118.399 121.822C123.291 116.168 127.817 110.603 133.103 105.716C140.307 99.0641 148.115 93.1799 157.18 88.9998C158.088 88.5866 159.004 88.1584 159.738 87.2853C158.808 87.0472 158.26 87.489 157.68 87.7325C150.173 90.698 143.614 95.069 137.548 100.184C132.903 104.104 128.87 108.558 124.899 113.087C123.267 114.938 121.69 116.84 120.175 118.778C119.532 119.603 119.09 120.625 118.399 121.822Z" fill="#CBC8C1"/>
<path d="M28.0678 203.103C25.4054 200.128 23.269 196.858 21.3633 193.442C15.2792 182.523 12.3948 170.958 12.4596 158.781C12.4589 157.584 12.5798 156.356 12.1786 155.127C7.86129 165.924 18.1702 197.165 28.0678 203.103Z" fill="#CBC8C1"/>
<path d="M63.3936 120.764C64.2583 120.207 64.0845 119.348 64.2156 118.686C65.1858 113.74 66.29 108.851 68.1474 104.179C69.2809 101.342 70.6824 98.6204 71.7045 95.7594C72.6718 93.0663 74.4173 90.7629 75.2576 88.0363C75.4239 87.494 75.7885 87.0064 76.0819 86.4975C78.4919 82.2438 80.9089 78.0141 83.3189 73.7604C83.5605 73.3414 83.755 72.8951 84.0154 72.4071C83.1359 72.3379 82.9107 72.946 82.6103 73.4308C79.2154 79.0308 75.7805 84.6276 72.8245 90.4811C70.5477 95.0113 68.4347 99.656 66.7724 104.461C64.9328 109.683 63.6655 115.036 63.3936 120.764Z" fill="#CBC8C1"/>
<path d="M121.437 95.5903C111.235 99.7915 90.9862 117.541 83.8639 138.824C85.2975 136.699 86.6143 134.487 87.6714 132.145C89.0195 129.153 90.5872 126.288 92.6013 123.701C93.8028 122.161 94.7863 120.455 95.9651 118.881C100.086 113.401 104.917 108.611 110.074 104.128C113.626 101.013 117.355 98.1001 121.437 95.5903Z" fill="#CBC8C1"/>
<path d="M167.416 148.126C166.383 148.866 166.564 149.968 166.113 150.785C163.79 155.069 161.366 159.275 158.283 163.1C152.726 169.984 146.113 175.76 139.189 181.277C139.031 181.405 138.857 181.564 138.962 181.924C142.052 180.337 144.736 178.257 147.336 176.068C151.906 172.204 156.182 168.051 159.886 163.368C162.338 160.275 164.437 156.959 166.191 153.444C167.369 151.111 167.581 150.017 167.416 148.126Z" fill="#CBC8C1"/>
<path d="M208.336 203.227C222.857 194.237 238.455 187.265 254.973 181.604C247.522 181.27 213.459 197.028 208.336 203.227Z" fill="#CBC8C1"/>
<path d="M99.1333 108.005C97.1266 108.84 95.7467 110.437 94.3369 111.977C91.4344 115.128 88.781 118.463 86.2357 121.9C83.2152 125.981 81.0042 130.469 78.8958 134.997C76.1364 140.944 74.2311 147.185 73.832 153.857C73.7926 154.433 73.7846 155.027 73.8008 155.615C73.7961 155.732 73.9112 155.858 73.9692 156.012C74.5963 155.576 74.5676 154.901 74.6501 154.25C75.2944 149.834 76.1127 145.479 77.6057 141.294C78.6367 138.418 79.659 135.557 81.1075 132.863C81.8973 131.384 82.5688 129.857 83.3272 128.36C84.9287 125.255 87.0075 122.446 89.0392 119.61C91.3179 116.417 93.8755 113.466 96.5499 110.602C97.3959 109.714 98.2802 108.868 99.1333 108.005Z" fill="#CBC8C1"/>
<path d="M58.0978 104.72C59.4092 102.046 60.7519 99.3903 61.992 96.6951C63.8211 92.7243 66.0021 88.9767 68.5522 85.4224C71.4183 81.3924 74.6488 77.6726 77.9491 74.0131C79.7463 72.0189 81.636 70.118 83.5342 68.2022C84.0447 67.6791 84.5849 67.2131 84.8704 66.5003C81.7254 67.3167 71.8675 78.6193 68.3247 83.3159C63.4512 89.7773 60.3238 97.088 58.0978 104.72Z" fill="#CBC8C1"/>
<path d="M156.292 178.187C158.193 177.609 158.51 175.717 159.753 174.54C161.055 173.297 162.01 171.714 163.15 170.317C164.239 168.972 165.376 167.653 166.512 166.335C167.715 164.974 168.924 163.638 170.158 162.296C171.333 161.019 172.539 159.761 173.762 158.512C175.05 157.221 176.345 155.954 177.663 154.721C178.939 153.523 180.238 152.358 181.544 151.217C182.909 150.01 184.296 148.837 185.668 147.654C186.975 146.514 188.296 145.382 189.653 144.19C188.973 143.917 188.69 144.372 188.376 144.59C180.732 150.229 173.536 156.327 167.247 163.427C164.506 166.512 161.874 169.7 159.335 172.942C158.124 174.536 157.301 176.435 156.292 178.187Z" fill="#CBC8C1"/>
<path d="M25.7954 177.546C27.5729 186.819 31.7881 195.024 38.2219 202.216C43.4704 208.083 49.4074 213.011 56.7927 216.08C54.2866 213.813 51.1768 212.376 48.5616 210.226C45.9149 208.058 43.3185 205.839 40.9576 203.357C38.6423 200.941 36.5177 198.376 34.5597 195.667C32.556 192.892 30.8721 189.963 29.4762 186.86C28.0946 183.806 27.2257 180.589 25.7954 177.546Z" fill="#CBC8C1"/>
<path d="M115 180.057C116.086 180.605 116.78 180.128 117.492 179.801C122.803 177.303 127.589 174.083 131.98 170.314C138.6 164.602 144.757 158.422 150.192 151.607C151.173 150.377 152.413 149.278 152.973 147.726C152.365 147.475 152.147 147.888 151.902 148.205C144.087 158.315 134.927 167.089 124.409 174.48C122.377 175.9 120.123 177.051 117.984 178.329C116.974 178.883 115.987 179.47 115 180.057Z" fill="#CBC8C1"/>
<path d="M211.83 208.755C212.905 209.216 213.801 208.896 214.709 208.702C221.331 207.24 227.435 204.641 233.281 201.474C239.512 198.11 245.484 194.397 251.276 190.38C252.044 189.846 252.835 189.345 253.446 188.541C252.661 188.267 252.309 188.842 251.872 189.128C244.203 193.896 236.45 198.556 228.29 202.541C223.972 204.656 219.506 206.445 214.835 207.757C213.82 208.029 212.824 208.411 211.83 208.755Z" fill="#CBC8C1"/>
<path d="M114.089 268.381C108.036 261.511 104.723 254.068 104.481 245.185C102.814 248.513 103.906 253.596 107.791 261.828C107.119 261.939 106.923 261.407 106.617 261.03C103.251 256.73 101.328 251.927 100.701 246.654C100.513 245.128 100.534 243.564 100.104 242.058C99.5299 242.145 99.5144 242.535 99.5091 242.872C99.4532 250.564 101.671 257.474 107.546 263.124C107.872 263.432 108.199 263.881 108.581 263.982C109.657 264.224 110.121 265.091 110.792 265.778C111.65 266.653 112.211 267.895 114.089 268.381Z" fill="#CBC8C1"/>
<path d="M193.956 201.308C195.239 201.151 196.162 200.567 197.113 200.079C202.882 197.148 207.81 193.171 212.249 188.593C215.347 185.395 218.189 181.989 220.343 178.107C221.321 176.337 222.127 174.468 222.608 172.472C222.695 172.103 222.765 171.764 222.455 171.466C222.078 171.467 221.963 171.74 221.856 171.997C218.971 179.508 213.838 185.401 208.034 190.787C204.224 194.312 200.131 197.493 195.502 200.006C194.961 200.292 194.287 200.481 193.956 201.308Z" fill="#CBC8C1"/>
<path d="M169.437 151.907C173.22 148.685 176.874 145.469 180.652 142.364C185.974 137.997 191.624 134.078 197.754 130.816C199.117 130.087 200.486 129.381 201.991 128.914C202.3 128.813 202.766 128.803 202.731 128.065C201.441 127.978 200.262 128.354 199.151 128.829C197.532 129.53 195.935 130.304 194.375 131.158C185.891 135.854 178.48 141.847 171.858 148.796C170.986 149.729 169.979 150.603 169.437 151.907Z" fill="#CBC8C1"/>
<path d="M93.1463 233.683C92.7719 232.409 92.9787 231.252 93.2241 230.137C94.1357 226.015 96.0775 222.428 98.5018 219.02C102.825 212.899 108.847 208.657 114.862 204.391C115.25 204.117 115.863 204.032 115.959 203.25C114.894 203.791 113.913 204.222 113.008 204.777C107.873 207.915 102.936 211.327 99.0739 215.959C96.0213 219.622 93.5735 223.615 92.2957 228.264C91.928 229.627 91.849 230.998 92.0015 232.403C92.0808 233.027 92.3092 233.538 93.1463 233.683Z" fill="#CBC8C1"/>
<path d="M133.124 204.663C130.72 204.73 128.824 205.949 126.962 207.108C117.222 213.113 107.649 219.334 101.131 228.937C104.575 226.158 107.363 222.701 110.8 219.897C114.254 217.065 117.935 214.563 121.587 212.004C125.321 209.412 129.191 207.019 133.124 204.663Z" fill="#CBC8C1"/>
<path d="M88.149 227.088C88.6231 219.481 91.7898 212.971 95.7668 206.869C99.754 200.714 105.379 196.143 112.01 192.692C111.911 192.575 111.811 192.457 111.711 192.34C111.525 192.372 111.31 192.347 111.154 192.437C105.929 195.044 101.088 198.073 97.4035 202.688C93.508 207.56 90.5796 212.93 88.7439 218.873C87.9558 221.51 87.5402 224.262 88.149 227.088Z" fill="#CBC8C1"/>
<path d="M120.977 253.681C121.38 255.852 122.25 257.613 123.122 259.335C126.342 265.671 130.858 270.957 136.691 275.266C140.329 277.967 144.279 280.129 148.23 282.252C151.575 284.045 155.139 285.385 158.729 286.68C159.14 286.838 159.607 286.828 160.142 286.917C159.055 285.75 157.599 285.587 156.371 285.138C150.914 283.083 145.909 280.172 140.965 277.156C137.362 274.974 134.173 272.293 131.271 269.258C127.668 265.478 124.872 261.206 122.86 256.447C122.515 255.628 122.081 254.818 121.663 254.017C121.617 253.951 121.425 253.92 120.977 253.681Z" fill="#CBC8C1"/>
<path d="M222.916 183.462C237.323 178.015 239.224 175.481 260.346 174.772C260.2 174.189 259.715 174.268 259.283 174.218C254.592 173.563 249.947 173.774 245.382 174.608C237.749 176.006 230.687 178.811 224.031 182.509C223.613 182.726 223.021 182.844 222.916 183.462Z" fill="#CBC8C1"/>
<path d="M47.1359 185.343C51.0172 195.873 64.6838 210.977 72.7727 212.935C72.5941 212.373 72.0465 212.196 71.6466 211.945C64.7641 207.749 59.2557 202.15 54.5671 195.747C52.3254 192.694 50.1166 189.621 48.1961 186.375C47.9925 186.038 47.8925 185.52 47.1359 185.343Z" fill="#CBC8C1"/>
<path d="M107.201 234.216C115.972 233.198 123.497 229.804 129.717 223.88C134.734 219.097 138.896 213.621 139.213 210.891C131.29 222.495 121.496 231.242 107.201 234.216Z" fill="#CBC8C1"/>
<path d="M178.268 202.961C179.474 203.339 180.627 203.227 181.777 203.013C187.514 201.958 192.654 199.58 197.556 196.705C202.647 193.721 207.186 190.097 211.102 185.736C211.288 185.523 211.387 185.242 211.586 184.897C210.876 184.747 210.635 185.166 210.301 185.492C203.962 191.767 196.612 196.599 188.197 199.938C186.059 200.778 183.899 201.546 181.645 202.079C180.501 202.356 179.396 202.675 178.268 202.961Z" fill="#CBC8C1"/>
<path d="M192.113 184.286C180.064 192.729 166.873 198.976 152.673 203.523C153.19 203.462 153.736 203.459 154.232 203.326C158.996 202.108 163.667 200.616 168.17 198.688C175.68 195.504 182.819 191.727 189.309 186.897C190.327 186.148 191.478 185.496 192.113 184.286Z" fill="#CBC8C1"/>
<path d="M140.124 215.885C138.203 216.93 137.502 218.799 136.336 220.241C131.424 226.402 125.206 230.87 117.9 233.992C113.397 235.92 108.721 237.349 103.758 237.933C103.556 237.956 103.291 237.943 103.272 238.231C114.134 238.201 132.68 230.579 140.124 215.885Z" fill="#CBC8C1"/>
<path d="M193.042 233.831C184.218 231.407 159.514 233.241 154.881 236.592C157.794 236.08 160.232 235.592 162.706 235.225C165.228 234.846 167.748 234.545 170.305 234.287C172.774 234.037 175.249 233.85 177.721 233.741C180.272 233.638 182.836 233.623 185.399 233.646C187.962 233.67 190.497 233.778 193.042 233.831Z" fill="#CBC8C1"/>
<path d="M89.23 210.477C91.7845 204.411 95.9589 199.82 100.615 195.626C105.28 191.418 110.685 188.396 117.05 187.304C117.008 186.322 116.442 186.434 116.04 186.441C114.279 186.482 112.66 187.003 111.077 187.644C105.267 189.954 100.601 193.763 96.433 198.198C93.5735 201.235 91.3318 204.688 89.4968 208.417C89.1643 209.102 89.1643 209.102 89.23 210.477Z" fill="#CBC8C1"/>
<path d="M14.3733 131.524C13.9367 133.009 14.2729 134.46 14.5377 135.891C15.7417 142.414 17.3838 148.832 20.8548 154.729C22.3681 157.3 24.19 159.59 26.5009 161.504C26.952 161.884 27.3741 162.388 28.0917 162.124C28.3685 161.425 27.6608 161.236 27.3425 160.952C23.7876 157.781 21.543 153.789 19.6854 149.563C17.6217 144.858 16.4187 139.931 15.2243 134.99C14.9645 133.842 14.6645 132.691 14.3733 131.524Z" fill="#CBC8C1"/>
<path d="M19.3913 165.836C18.4268 166.855 18.6291 167.631 18.6012 168.333C18.5118 170.996 18.9375 173.636 19.4762 176.263C21.4721 185.918 25.7731 194.589 32.0682 202.418C32.1523 202.526 32.2764 202.638 32.4021 202.71C32.4493 202.737 32.5466 202.714 32.8686 202.7C28.8342 197.236 25.5976 191.514 23.1908 185.334C20.7855 179.115 19.9075 172.68 19.3913 165.836Z" fill="#CBC8C1"/>
<path d="M147.368 215.978C161.414 212.177 175.708 213.07 190.135 215.478C189.829 214.882 189.324 214.849 188.822 214.739C177.588 212.28 166.343 211.911 155.112 213.407C152.39 213.77 149.675 214.337 147.368 215.978Z" fill="#CBC8C1"/>
<path d="M126.71 247.255C128.043 247.267 128.768 246.988 129.494 246.709C134.573 244.795 138.729 241.649 142.444 237.89C144.553 235.757 146.295 233.351 147.864 230.846C149.075 228.892 150.059 226.748 150.529 224.445C150.74 223.39 150.961 222.28 150.314 220.969C147.132 233.715 138.95 241.957 126.71 247.255Z" fill="#CBC8C1"/>
<path d="M83.5004 191.053C85.2823 187.853 87.3487 185.175 89.8047 182.803C92.3281 180.35 95.1877 178.331 98.3364 176.718C101.419 175.147 104.864 174.583 108.246 173.764C106.922 173.119 105.633 173.212 104.331 173.437C100.652 174.045 97.4017 175.58 94.389 177.61C89.9645 180.601 86.3929 184.364 83.7599 188.968C83.3803 189.627 83.396 189.636 83.5004 191.053Z" fill="#CBC8C1"/>
<path d="M200.435 253.857C206.898 255.615 238.431 251.162 245.496 246.244C231.112 251.105 216.151 253.298 200.435 253.857Z" fill="#CBC8C1"/>
<path d="M163.679 93.1306C163.158 93.3478 163.085 93.7644 162.947 94.1838C161.786 98.0816 160.223 101.807 158.415 105.451C156.249 109.825 153.574 113.886 151.126 118.097C150.548 119.1 149.97 120.103 149.517 121.178C153.697 115.773 157.658 110.241 160.472 103.946C161.724 101.158 162.912 98.3731 163.674 95.4217C163.873 94.6786 164.233 93.9091 163.679 93.1306Z" fill="#CBC8C1"/>
<path d="M225.091 151.246C219.038 159.86 211.777 167.376 203.585 174.075C210.724 170.618 223.909 157.107 225.091 151.246Z" fill="#CBC8C1"/>
<path d="M94.599 182.061C85.1226 188.057 79.129 201.792 80.741 209.766C81.5065 207.894 81.2174 206.111 81.699 204.514C82.1837 202.839 82.5258 201.121 83.0976 199.476C83.6882 197.763 84.3031 196.043 85.2403 194.49C86.1429 192.996 87.0142 191.485 87.8542 189.955C88.7027 188.41 89.8617 187.124 91.0451 185.833C92.2198 184.557 93.4172 183.313 94.599 182.061Z" fill="#CBC8C1"/>
<path d="M73.8973 99.7949C72.3236 101.4 71.8684 103.351 71.1863 105.152C69.4935 109.541 67.7693 113.912 66.6464 118.51C65.793 121.988 65.2111 125.502 65.5796 129.147C65.6528 129.927 65.6115 130.761 66.0897 131.457C66.7402 131.453 66.7 131.051 66.674 130.697C66.2698 123.52 68.2474 116.822 70.3436 110.172C71.4042 106.734 72.6547 103.367 73.8973 99.7949Z" fill="#CBC8C1"/>
<path d="M132.222 256.128C136.292 266.113 153.413 278.643 162.103 280.466C150.127 274.786 139.778 267.188 132.222 256.128Z" fill="#CBC8C1"/>
<path d="M67.8687 217.621C66.3379 216.497 64.6707 215.973 63.1204 215.137C58.6353 212.706 54.9504 209.358 51.5529 205.658C48.7787 202.657 46.2126 199.476 43.9276 196.099C43.6541 195.701 43.5659 195.091 42.759 194.964C43.0877 195.993 43.6403 196.852 44.2015 197.695C47.7709 203.133 51.8868 208.168 56.9775 212.347C59.7326 214.618 62.8097 216.476 66.3351 217.374C66.8285 217.5 67.3493 217.541 67.8687 217.621Z" fill="#CBC8C1"/>
<path d="M12.1286 182.166C10.855 178.018 9.8777 174.301 9.38556 170.504C8.88944 166.606 8.62648 162.703 8.63679 158.797C8.65971 154.979 9.37049 151.239 9.51575 147.173C8.44605 148.012 8.52593 149.035 8.38745 149.893C7.2044 157.032 7.43314 164.228 8.63312 171.447C9.13187 174.469 10.02 177.396 10.9812 180.306C11.177 180.838 11.3069 181.412 12.1286 182.166Z" fill="#CBC8C1"/>
<path d="M194.389 127.457C193.486 126.955 193.018 127.403 192.543 127.647C190.012 128.879 187.732 130.475 185.567 132.197C181.253 135.65 177.093 139.273 173.372 143.368C172.834 143.975 172.367 144.603 172.141 145.43C179.206 139.057 186.313 132.827 194.389 127.457Z" fill="#CBC8C1"/>
<path d="M129.132 201.999C121.539 201.842 106.244 210.725 102.591 218.371C106.01 214.4 109.989 211.092 114.485 208.342C119.037 205.565 124.109 203.886 129.132 201.999Z" fill="#CBC8C1"/>
<path d="M67.3525 91.6692C66.063 93.3982 64.9619 95.2361 64.1362 97.2131C62.9646 100.008 61.6346 102.751 60.6914 105.658C59.767 108.496 58.9384 111.349 58.801 114.382C58.7105 116.245 58.8008 116.596 59.6799 117.902C59.9216 117.882 60.1193 117.757 60.0972 117.505C59.7634 113.003 61.0382 108.831 62.4001 104.69C63.8545 100.243 65.7812 96.0287 67.3525 91.6692Z" fill="#CBC8C1"/>
<path d="M138.054 234.157C137.015 234.615 136.415 235.366 135.677 235.957C131.455 239.285 126.833 241.962 121.63 243.686C116.793 245.282 111.853 245.641 106.745 244.366C106.236 244.232 105.716 244.19 105.021 244.088C106.21 245.294 107.643 245.424 108.99 245.703C112.799 246.507 116.542 246.155 120.142 245.141C127.008 243.221 132.802 239.564 137.829 234.766C137.922 234.64 137.937 234.469 138.054 234.157Z" fill="#CBC8C1"/>
<path d="M95.4797 236.466C95.7925 234.871 96.2967 233.307 96.9107 231.806C97.1514 231.207 97.4408 230.596 97.7914 230.061C101.311 224.752 105.465 220.049 110.721 216.302C111.547 215.702 112.275 214.985 113.04 214.31C113.132 214.223 113.131 214.043 113.268 213.624C109.204 216.683 105.156 219.352 101.797 222.858C99.3667 225.404 97.4444 228.304 95.7959 231.382C95.0924 232.711 94.8431 234.123 94.8237 235.608C94.8026 235.935 94.7541 236.346 95.4797 236.466Z" fill="#CBC8C1"/>
<path d="M103.924 94.2964C105.314 93.8823 105.853 93.0564 106.513 92.42C110.811 88.1591 115.317 84.1182 120.612 81.0322C122.249 80.082 123.974 79.3033 125.663 78.4434C125.314 77.7425 124.842 78.0886 124.477 78.177C122.974 78.6056 121.573 79.2927 120.218 80.0461C114.181 83.4019 109.142 87.8937 104.673 93.0332C104.438 93.2963 104.304 93.6378 103.924 94.2964Z" fill="#CBC8C1"/>
<path d="M78.164 208.784C71.3466 202.948 64.8396 197.191 59.6064 190.133C59.1305 190.777 59.4944 191.127 59.6894 191.479C61.5054 194.725 64.0415 197.449 66.6539 200.077C69.6443 203.103 72.8546 205.856 76.4355 208.185C76.8111 208.442 77.1608 208.743 78.164 208.784Z" fill="#CBC8C1"/>
<path d="M71.4655 169.577C72.2606 174.446 73.0548 179.136 73.776 183.843C74.4957 188.589 74.4113 193.349 73.9665 198.081C74.9088 198.226 74.8488 197.712 74.9287 197.32C75.4766 194.443 75.617 191.511 75.3326 188.553C74.774 182.583 73.6588 176.671 72.1957 170.817C72.0981 170.441 72.141 169.967 71.4655 169.577Z" fill="#CBC8C1"/>
<path d="M153.586 187.873C146.931 192.847 140.636 197.67 135.309 203.571C134.797 204.133 134.243 204.731 134.327 205.637C135.165 205.962 135.536 205.319 135.864 204.969C141.13 198.953 147.394 193.933 153.302 188.547C153.344 188.511 153.347 188.433 153.586 187.873Z" fill="#CBC8C1"/>
<path d="M69.9338 142.991C72.1965 131.409 69.3596 135.097 79.9934 115.124C73.9322 121.359 68.4882 135.013 69.9338 142.991Z" fill="#CBC8C1"/>
<path d="M14.5292 144.877C11.1914 134.427 9.88555 123.795 10.2325 113.02C8.28701 118.721 9.96209 135.034 14.5292 144.877Z" fill="#CBC8C1"/>
<path d="M45.3366 202.956C38.6713 195.731 35.1514 187.011 31.9376 177.869C31.0344 183.215 39.9327 199.794 45.3366 202.956Z" fill="#CBC8C1"/>
<path d="M185.012 97.7284C180.17 104.568 174.514 110.717 168.09 116.782C172.531 115.318 183.776 102.521 185.012 97.7284Z" fill="#CBC8C1"/>
<path d="M98.3652 209.748C101.662 206.425 104.397 203.097 107.689 200.29C111.165 197.31 115.046 195.043 119.51 193.691C120.095 193.511 120.849 193.547 121.207 192.636C120.01 192.424 119.072 192.78 118.113 193.064C113.976 194.285 110.581 196.653 107.412 199.391C104.442 201.965 101.921 204.959 99.4248 207.946C99.0616 208.394 98.8311 208.94 98.3652 209.748Z" fill="#CBC8C1"/>
<path d="M54.2831 105.171C57.0061 96.749 59.7172 88.8186 64.8318 81.758C60.6873 83.8725 53.8116 99.5719 54.2831 105.171Z" fill="#CBC8C1"/>
<path d="M179.385 258.02C174.159 257.675 168.932 257.331 163.733 256.683C158.485 256.047 153.305 254.931 147.815 254.135C152.514 256.63 173.799 259.244 179.385 258.02Z" fill="#CBC8C1"/>
<path d="M119.714 87.1168C122.997 84.9824 126.042 82.931 129.132 80.9849C132.181 79.0745 135.596 77.8352 138.982 76.7188C138.842 75.7996 138.363 75.9416 137.926 76.0086C135.408 76.4896 133.037 77.3344 130.828 78.5522C127.082 80.6185 123.596 83.0341 120.546 86.001C120.295 86.255 120.114 86.5693 119.714 87.1168Z" fill="#CBC8C1"/>
<path d="M111.786 229.563C120.475 227.201 127.01 221.818 132.672 215.192C132.153 214.893 131.902 215.147 131.684 215.38C126.105 221.136 119.802 225.934 112.344 229.248C112.148 229.334 111.975 229.453 111.786 229.563Z" fill="#CBC8C1"/>
<path d="M50.1794 214.648C46.6345 211.821 43.0032 209.144 39.9121 205.82C36.8753 202.548 34.2774 198.95 31.3385 195.035C34.2331 202.08 43.6635 212.142 50.1794 214.648Z" fill="#CBC8C1"/>
<path d="M218.997 202.422C227.749 199.117 236.179 195.208 244.004 190.171C241.094 191.223 238.423 192.733 235.671 194.056C232.886 195.4 230.138 196.826 227.33 198.137C224.505 199.478 221.636 200.714 218.772 202.013C218.855 202.16 218.922 202.298 218.997 202.422Z" fill="#CBC8C1"/>
<path d="M125.508 196.656C129.564 196.266 139.578 188.843 142.542 184.21C140.557 185.837 138.831 187.234 137.112 188.655C135.268 190.183 133.347 191.627 131.319 192.93C129.375 194.161 127.179 195.028 125.508 196.656Z" fill="#CBC8C1"/>
<path d="M241.143 173.738C234.094 173.797 223.311 178.881 219.972 183.038C220.571 183.344 220.918 182.887 221.274 182.633C227.145 178.223 233.83 175.38 241.143 173.738Z" fill="#CBC8C1"/>
<path d="M45.2847 136.461C44.0493 129.521 42.6436 122.623 41.9892 115.619C41.076 115.75 41.242 116.225 41.254 116.532C41.7574 123.288 42.9793 129.961 45.2847 136.461Z" fill="#CBC8C1"/>
<path d="M213.188 211.654C221.158 210.651 228.527 208.403 234.567 203.192C231.078 204.848 227.755 206.8 224.131 208.218C220.564 209.61 216.804 210.43 213.188 211.654Z" fill="#CBC8C1"/>
<path d="M73.3573 216.934C69.943 215.661 66.8964 214.44 64.2253 212.277C61.7028 210.22 59.4837 207.819 56.6406 205.736C56.9227 206.919 57.7124 207.475 58.3073 208.078C60.0605 209.871 61.8051 211.678 63.761 213.228C65.9825 214.971 68.4083 216.433 71.183 217.217C71.8753 217.397 72.5291 217.534 73.3573 216.934Z" fill="#CBC8C1"/>
<path d="M166.106 113.562C168.573 107.506 173.385 103.183 177.341 98.2065C174.354 100.451 171.838 103.147 169.432 105.907C167.875 107.701 166.51 109.706 165.806 112.052C165.677 112.457 165.691 112.904 165.658 113.324C165.8 113.405 165.941 113.487 166.106 113.562Z" fill="#CBC8C1"/>
<path d="M225.161 147.756C223.686 148.719 214.764 159.845 213.635 161.767C218.06 157.719 221.838 153.558 225.034 148.92C225.264 148.594 225.553 148.202 225.161 147.756Z" fill="#CBC8C1"/>
<path d="M174.491 267.9C181.577 270.397 188.871 270.718 196.214 270.408C194.438 269.782 192.608 270.122 190.815 269.925C189.014 269.743 187.208 269.678 185.408 269.456C183.529 269.229 181.685 268.902 179.834 268.552C178.055 268.222 176.303 267.809 174.534 267.426C174.503 267.588 174.497 267.744 174.491 267.9Z" fill="#CBC8C1"/>
<path d="M172.958 123.701C176.206 122.206 178.766 119.834 181.348 117.495C183.006 115.999 184.232 114.234 185.225 112.293C185.408 111.94 185.759 111.584 185.257 110.895C184.138 111.565 183.965 112.882 183.247 113.764C182.521 114.661 181.802 115.583 181.006 116.419C180.159 117.307 179.227 118.125 178.311 118.953C177.461 119.738 176.602 120.539 175.744 121.301C174.828 122.128 173.897 122.907 172.958 123.701Z" fill="#CBC8C1"/>
<path d="M110.07 201.725C114.294 199.157 118.705 197.316 123.011 195.294C123.093 195.261 123.062 195.024 123.084 194.877C122.91 194.417 122.506 194.463 122.15 194.537C121.508 194.705 120.843 194.879 120.245 195.152C116.817 196.704 113.563 198.535 110.551 200.746C110.327 200.916 110.095 201.101 110.07 201.725Z" fill="#CBC8C1"/>
<path d="M123.833 252.869C123.904 256.563 127.908 263.208 132.304 266.846C131.816 265.586 130.701 264.722 129.973 263.623C129.222 262.49 128.406 261.4 127.737 260.235C127.022 259.003 126.463 257.682 125.757 256.436C125.144 255.283 124.916 253.934 123.833 252.869Z" fill="#CBC8C1"/>
<path d="M164.965 102.83C166.629 100.56 168.674 98.6087 170.72 96.6578C172.756 94.7219 175.19 93.2949 177.472 91.6602C173.075 92.5716 166.967 98.1212 164.965 102.83Z" fill="#CBC8C1"/>
<path d="M153.925 239.511C159.466 238.182 165.093 237.541 171.288 237.149C169.371 236.26 167.965 236.845 166.574 236.86C165.071 236.889 163.578 237.045 162.108 237.233C160.702 237.419 159.31 237.653 157.932 237.974C156.513 238.292 155.087 238.585 153.925 239.511Z" fill="#CBC8C1"/>
<path d="M165.295 109.443C165.549 109.51 165.619 109.571 165.676 109.544C165.806 109.499 165.985 109.443 166.045 109.338C167.82 106.114 169.97 103.147 172.347 100.33C169.276 102.825 166.401 105.454 165.295 109.443Z" fill="#CBC8C1"/>
<path d="M185.966 107.635C185.597 107.84 185.329 107.905 185.234 108.07C183.287 111.194 180.848 113.974 178.846 117.048C182.076 114.784 184.703 111.314 185.966 107.635Z" fill="#CBC8C1"/>
<path d="M109.094 92.3346C112.358 90.23 114.589 87.0495 117.805 84.9567C115.082 85.7582 110.404 89.6993 109.094 92.3346Z" fill="#CBC8C1"/>
<path d="M110.129 258.608C109.421 255.006 109.522 251.453 110.362 247.489C108.312 249.956 108.276 255.322 110.129 258.608Z" fill="#CBC8C1"/>
<path d="M92.2596 171.456C93.6832 170.583 93.6799 169.065 94.3026 167.948C94.9684 166.757 95.6657 165.583 96.4593 164.206C94.6106 164.874 92.6923 168.275 92.2596 171.456Z" fill="#CBC8C1"/>
</g>
</svg>
